<svg width="72" height="72" viewBox="0 0 72 72" fill="none" xmlns="http://www.w3.org/2000/svg">
<g clip-path="url(#clip0_1_369)">
<path fill-rule="evenodd" clip-rule="evenodd" d="M53.357 36.1685C53.357 26.6867 45.6658 19 36.1785 19C26.6912 19 19 26.6867 19 36.1685C19 45.6506 26.6912 53.3368 36.1785 53.3368C45.6658 53.3368 53.357 45.6506 53.357 36.1685ZM33.0518 26.6304C32.9168 26.8953 32.9168 27.2421 32.9168 27.9356V31.8665C32.9168 32.0397 32.9168 32.1264 32.9386 32.2065C32.958 32.2774 32.9899 32.3443 33.0328 32.4041C33.0812 32.4716 33.1484 32.5262 33.283 32.6354L34.2779 33.4431C34.4401 33.5748 34.5211 33.6406 34.5506 33.7199C34.5764 33.7894 34.5764 33.8659 34.5506 33.9354C34.5211 34.0147 34.4401 34.0805 34.2779 34.2121L33.283 35.0198C33.1484 35.1291 33.0812 35.1837 33.0328 35.2512C32.9899 35.311 32.958 35.3779 32.9386 35.4488C32.9168 35.5289 32.9168 35.6155 32.9168 35.7888V44.4011C32.9168 45.0946 32.9168 45.4414 33.0518 45.7063C33.1706 45.9394 33.3602 46.1288 33.5933 46.2475C33.8584 46.3825 34.2054 46.3825 34.8993 46.3825H37.4576C38.1516 46.3825 38.4986 46.3825 38.7637 46.2475C38.9968 46.1288 39.1864 45.9394 39.3051 45.7063C39.4402 45.4414 39.4402 45.0946 39.4402 44.4011V40.4703C39.4402 40.297 39.4402 40.2104 39.4183 40.1303C39.399 40.0594 39.367 39.9925 39.3242 39.9326C39.2758 39.8651 39.2085 39.8105 39.0739 39.7013L38.0791 38.8936C37.9169 38.762 37.8358 38.6961 37.8064 38.6168C37.7806 38.5474 37.7806 38.4709 37.8064 38.4014C37.8358 38.3221 37.9169 38.2563 38.0791 38.1246L39.0739 37.3169C39.2085 37.2077 39.2758 37.1531 39.3242 37.0856C39.367 37.0258 39.399 36.9588 39.4183 36.8879C39.4402 36.8078 39.4402 36.7212 39.4402 36.548V27.9356C39.4402 27.2421 39.4402 26.8953 39.3051 26.6304C39.1864 26.3974 38.9968 26.2079 38.7637 26.0892C38.4986 25.9542 38.1516 25.9542 37.4576 25.9542H34.8993C34.2054 25.9542 33.8584 25.9542 33.5933 26.0892C33.3602 26.2079 33.1706 26.3974 33.0518 26.6304Z" fill="white" style="fill:white;fill-opacity:1;"/>
</g>
<defs>
<clipPath id="clip0_1_369">
<rect width="35" height="35" fill="white" style="fill:white;fill-opacity:1;" transform="translate(19 19)"/>
</clipPath>
</defs>
</svg>
