<svg width="32" height="32" viewBox="0 0 32 32" fill="none" xmlns="http://www.w3.org/2000/svg">
<g clip-path="url(#clip0_13465_5013)">
<path fill-rule="evenodd" clip-rule="evenodd" d="M32 16C32 7.16355 24.8365 -5.38845e-06 16 -3.47131e-06C7.16358 -1.55419e-06 1.55418e-06 7.16355 3.47132e-06 16C5.38854e-06 24.8369 7.16359 32 16 32C24.8365 32 32 24.8369 32 16ZM13.0878 7.11111C12.962 7.35798 12.962 7.68116 12.962 8.3275L12.962 11.9908C12.962 12.1523 12.962 12.233 12.9824 12.3077C13.0005 12.3737 13.0302 12.4362 13.0701 12.4919C13.1152 12.5547 13.1778 12.6056 13.3032 12.7074L14.2298 13.4602C14.3809 13.5829 14.4563 13.6442 14.4838 13.7181C14.5078 13.7829 14.5078 13.8541 14.4838 13.9189C14.4563 13.9928 14.3809 14.0541 14.2298 14.1768L13.3032 14.9296C13.1778 15.0314 13.1152 15.0822 13.0701 15.1452C13.0302 15.2009 13.0005 15.2632 12.9824 15.3294C12.962 15.404 12.962 15.4847 12.962 15.6462L12.962 23.6724C12.962 24.3187 12.962 24.6419 13.0878 24.8888C13.1985 25.106 13.375 25.2825 13.5922 25.3931C13.8391 25.5189 14.1623 25.5189 14.8086 25.5189L17.1914 25.5189C17.8378 25.5189 18.1609 25.5189 18.4079 25.3931C18.625 25.2825 18.8015 25.106 18.9122 24.8888C19.038 24.6419 19.038 24.3187 19.038 23.6724L19.038 20.0091C19.038 19.8476 19.038 19.7669 19.0176 19.6923C18.9996 19.6261 18.9698 19.5638 18.9299 19.508C18.8848 19.4451 18.8222 19.3942 18.6968 19.2925L17.7702 18.5397C17.6191 18.417 17.5437 18.3556 17.5162 18.2818C17.4922 18.217 17.4922 18.1458 17.5162 18.081C17.5437 18.0071 17.6191 17.9458 17.7702 17.8231L18.6968 17.0703C18.8222 16.9685 18.8848 16.9176 18.9299 16.8547C18.9698 16.799 18.9996 16.7366 19.0176 16.6705C19.038 16.5959 19.038 16.5151 19.038 16.3537L19.038 8.3275C19.038 7.68115 19.038 7.35798 18.9122 7.11111C18.8015 6.89397 18.625 6.71739 18.4078 6.60674C18.1609 6.48094 17.8377 6.48094 17.1914 6.48094L14.8086 6.48094C14.1623 6.48094 13.8391 6.48094 13.5922 6.60674C13.375 6.71739 13.1985 6.89397 13.0878 7.11111Z" fill="black"/>
</g>
<defs>
<clipPath id="clip0_13465_5013">
<rect width="32" height="32" fill="white"/>
</clipPath>
</defs>
</svg>
