<svg width="50" height="50" viewBox="0 0 50 50" fill="none" xmlns="http://www.w3.org/2000/svg">
<circle cx="25" cy="25" r="24" fill="white" stroke="black" stroke-width="0.5"/>
<circle cx="25" cy="25" r="21" stroke="#DFDFDF" stroke-width="0.5"/>
<path d="M11.4134 23H10.2486L12.8658 15.7273H14.1335L16.7507 23H15.5859L13.5298 17.0483H13.473L11.4134 23ZM11.6087 20.152H15.3871V21.0753H11.6087V20.152ZM18.8983 15.7273V23H17.801V15.7273H18.8983ZM26.5368 18.0923H25.4288C25.3862 17.8556 25.3069 17.6473 25.1909 17.4673C25.0749 17.2874 24.9328 17.1347 24.7647 17.0092C24.5967 16.8838 24.4084 16.7891 24.2001 16.7251C23.9941 16.6612 23.7752 16.6293 23.5431 16.6293C23.1241 16.6293 22.7489 16.7346 22.4174 16.9453C22.0884 17.156 21.8279 17.465 21.6362 17.8722C21.4468 18.2794 21.3521 18.7765 21.3521 19.3636C21.3521 19.9555 21.4468 20.455 21.6362 20.8622C21.8279 21.2694 22.0895 21.5772 22.421 21.7855C22.7524 21.9938 23.1253 22.098 23.5396 22.098C23.7692 22.098 23.987 22.0672 24.193 22.0057C24.4013 21.9418 24.5895 21.8482 24.7576 21.7251C24.9257 21.602 25.0678 21.4517 25.1838 21.2741C25.3021 21.0942 25.3838 20.8883 25.4288 20.6562L26.5368 20.6598C26.4776 21.0173 26.3627 21.3464 26.1923 21.647C26.0242 21.9453 25.8076 22.2034 25.5424 22.4212C25.2797 22.6366 24.979 22.8035 24.6404 22.9219C24.3019 23.0402 23.9326 23.0994 23.5325 23.0994C22.9028 23.0994 22.3417 22.9503 21.8493 22.652C21.3568 22.3513 20.9686 21.9216 20.6845 21.3629C20.4028 20.8042 20.2619 20.1378 20.2619 19.3636C20.2619 18.5871 20.4039 17.9207 20.688 17.3643C20.9721 16.8056 21.3604 16.3771 21.8528 16.0788C22.3452 15.7782 22.9051 15.6278 23.5325 15.6278C23.9184 15.6278 24.2782 15.6835 24.612 15.7947C24.9482 15.9036 25.2501 16.0646 25.5176 16.2777C25.7851 16.4884 26.0065 16.7464 26.1816 17.0518C26.3568 17.3549 26.4752 17.7017 26.5368 18.0923ZM27.8498 23V15.7273H30.4421C31.0079 15.7273 31.4767 15.8303 31.8484 16.0362C32.2201 16.2422 32.4982 16.5239 32.6829 16.8814C32.8675 17.2365 32.9599 17.6366 32.9599 18.0817C32.9599 18.5291 32.8664 18.9316 32.6793 19.2891C32.4947 19.6442 32.2153 19.9259 31.8413 20.1342C31.4696 20.3402 31.002 20.4432 30.4386 20.4432H28.6559V19.5128H30.3391C30.6966 19.5128 30.9866 19.4512 31.2092 19.3281C31.4317 19.2027 31.5951 19.0322 31.6992 18.8168C31.8034 18.6013 31.8555 18.3563 31.8555 18.0817C31.8555 17.8071 31.8034 17.5632 31.6992 17.3501C31.5951 17.1371 31.4305 16.9702 31.2056 16.8494C30.9831 16.7287 30.6895 16.6683 30.3249 16.6683H28.9471V23H27.8498ZM34.0891 23H32.9244L35.5415 15.7273H36.8093L39.4265 23H38.2617L36.2056 17.0483H36.1488L34.0891 23ZM34.2844 20.152H38.0629V21.0753H34.2844V20.152Z" fill="black"/>
<path d="M18.7656 29.6378C18.7277 29.3016 18.5715 29.0412 18.2969 28.8565C18.0223 28.6695 17.6766 28.576 17.2599 28.576C16.9616 28.576 16.7036 28.6233 16.4858 28.718C16.268 28.8104 16.0987 28.9382 15.978 29.1016C15.8596 29.2625 15.8004 29.446 15.8004 29.652C15.8004 29.8248 15.8407 29.974 15.9212 30.0994C16.004 30.2249 16.1117 30.3303 16.2443 30.4155C16.3793 30.4983 16.5237 30.5682 16.6776 30.625C16.8314 30.6795 16.9794 30.7244 17.1214 30.7599L17.8317 30.9446C18.0637 31.0014 18.3016 31.0784 18.5455 31.1754C18.7893 31.2725 19.0154 31.4003 19.2237 31.5589C19.4321 31.7176 19.6001 31.9141 19.728 32.1484C19.8582 32.3828 19.9233 32.6634 19.9233 32.9901C19.9233 33.402 19.8168 33.7678 19.6037 34.0874C19.393 34.407 19.0864 34.6591 18.6839 34.8438C18.2839 35.0284 17.7997 35.1207 17.2315 35.1207C16.687 35.1207 16.2159 35.0343 15.8182 34.8615C15.4205 34.6887 15.1091 34.4437 14.8842 34.1264C14.6593 33.8068 14.535 33.428 14.5114 32.9901H15.6122C15.6335 33.2528 15.7188 33.4718 15.8679 33.647C16.0194 33.8198 16.2124 33.9489 16.4467 34.0341C16.6835 34.117 16.9427 34.1584 17.2244 34.1584C17.5346 34.1584 17.8104 34.1098 18.0518 34.0128C18.2957 33.9134 18.4875 33.776 18.6271 33.6009C18.7668 33.4233 18.8366 33.2161 18.8366 32.9794C18.8366 32.764 18.7751 32.5876 18.652 32.4503C18.5313 32.313 18.3667 32.1993 18.1584 32.1094C17.9524 32.0194 17.7192 31.9401 17.4588 31.8714L16.5994 31.6371C16.017 31.4785 15.5554 31.2453 15.2145 30.9375C14.8759 30.6297 14.7067 30.2225 14.7067 29.7159C14.7067 29.2969 14.8203 28.9311 15.0476 28.6186C15.2749 28.3061 15.5826 28.0634 15.9709 27.8906C16.3591 27.7154 16.7971 27.6278 17.2848 27.6278C17.7772 27.6278 18.2116 27.7143 18.5881 27.8871C18.9669 28.0599 19.2652 28.2978 19.483 28.6009C19.7008 28.9015 19.8144 29.2472 19.8239 29.6378H18.7656ZM27.552 31.3636C27.552 32.1402 27.41 32.8078 27.1259 33.3665C26.8418 33.9228 26.4524 34.3513 25.9576 34.652C25.4651 34.9503 24.9052 35.0994 24.2779 35.0994C23.6481 35.0994 23.0859 34.9503 22.5911 34.652C22.0987 34.3513 21.7104 33.9216 21.4263 33.3629C21.1422 32.8042 21.0002 32.1378 21.0002 31.3636C21.0002 30.5871 21.1422 29.9207 21.4263 29.3643C21.7104 28.8056 22.0987 28.3771 22.5911 28.0788C23.0859 27.7782 23.6481 27.6278 24.2779 27.6278C24.9052 27.6278 25.4651 27.7782 25.9576 28.0788C26.4524 28.3771 26.8418 28.8056 27.1259 29.3643C27.41 29.9207 27.552 30.5871 27.552 31.3636ZM26.4654 31.3636C26.4654 30.7718 26.3695 30.2734 26.1777 29.8686C25.9883 29.4614 25.7279 29.1536 25.3965 28.9453C25.0674 28.7346 24.6945 28.6293 24.2779 28.6293C23.8588 28.6293 23.4848 28.7346 23.1557 28.9453C22.8266 29.1536 22.5662 29.4614 22.3745 29.8686C22.1851 30.2734 22.0904 30.7718 22.0904 31.3636C22.0904 31.9555 22.1851 32.455 22.3745 32.8622C22.5662 33.267 22.8266 33.5748 23.1557 33.7855C23.4848 33.9938 23.8588 34.098 24.2779 34.098C24.6945 34.098 25.0674 33.9938 25.3965 33.7855C25.7279 33.5748 25.9883 33.267 26.1777 32.8622C26.3695 32.455 26.4654 31.9555 26.4654 31.3636ZM34.9606 30.0923H33.8526C33.81 29.8556 33.7307 29.6473 33.6147 29.4673C33.4987 29.2874 33.3567 29.1347 33.1886 29.0092C33.0205 28.8838 32.8323 28.7891 32.6239 28.7251C32.418 28.6612 32.199 28.6293 31.967 28.6293C31.5479 28.6293 31.1727 28.7346 30.8413 28.9453C30.5122 29.156 30.2518 29.465 30.06 29.8722C29.8706 30.2794 29.7759 30.7765 29.7759 31.3636C29.7759 31.9555 29.8706 32.455 30.06 32.8622C30.2518 33.2694 30.5134 33.5772 30.8448 33.7855C31.1763 33.9938 31.5491 34.098 31.9634 34.098C32.1931 34.098 32.4109 34.0672 32.6168 34.0057C32.8252 33.9418 33.0134 33.8482 33.1815 33.7251C33.3496 33.602 33.4916 33.4517 33.6076 33.2741C33.726 33.0942 33.8076 32.8883 33.8526 32.6562L34.9606 32.6598C34.9014 33.0173 34.7866 33.3464 34.6161 33.647C34.448 33.9453 34.2314 34.2034 33.9663 34.4212C33.7035 34.6366 33.4028 34.8035 33.0643 34.9219C32.7257 35.0402 32.3564 35.0994 31.9563 35.0994C31.3266 35.0994 30.7655 34.9503 30.2731 34.652C29.7807 34.3513 29.3924 33.9216 29.1083 33.3629C28.8266 32.8042 28.6857 32.1378 28.6857 31.3636C28.6857 30.5871 28.8278 29.9207 29.1119 29.3643C29.396 28.8056 29.7842 28.3771 30.2766 28.0788C30.7691 27.7782 31.329 27.6278 31.9563 27.6278C32.3422 27.6278 32.7021 27.6835 33.0359 27.7947C33.372 27.9036 33.6739 28.0646 33.9414 28.2777C34.2089 28.4884 34.4303 28.7464 34.6055 29.0518C34.7807 29.3549 34.899 29.7017 34.9606 30.0923Z" fill="black"/>
</svg>
