<svg width="32" height="32" viewBox="0 0 32 32" fill="none" xmlns="http://www.w3.org/2000/svg">
<path d="M3.81413 15.683C3.81413 13.4111 3.81824 11.1391 3.80872 8.86719C3.80756 8.59851 3.90545 8.44205 4.12283 8.31449C5.75811 7.3547 7.39146 6.39157 9.02288 5.42511L12.5695 3.3319C13.2678 2.91944 13.9622 2.49979 14.6666 2.09873C14.7819 2.03303 14.9842 1.98164 15.0677 2.04038C15.1697 2.11188 15.2332 2.306 15.236 2.44868C15.25 3.16328 15.2374 3.87836 15.2373 4.59329C15.2373 5.68158 15.2315 6.76997 15.246 7.85808C15.2504 8.19121 15.1357 8.38895 14.8455 8.55694C13.1106 9.56157 11.3882 10.5882 9.65902 11.6032C9.46412 11.7176 9.37523 11.8619 9.37584 12.0989C9.38205 14.4901 9.38205 16.8812 9.37584 19.2723C9.37523 19.5087 9.45699 19.6494 9.65627 19.7664C11.6681 20.9469 13.6771 22.1326 15.6831 23.3236C15.9064 23.4561 16.0896 23.4728 16.3267 23.3307C17.9602 22.3521 19.5989 21.3827 21.243 20.4227C21.9876 19.986 21.77 20.0104 22.4441 20.4044C23.9127 21.2625 25.3702 22.1403 26.8407 22.995C27.2239 23.2177 27.1261 23.5165 26.8326 23.6884C23.809 25.4593 20.7894 27.2373 17.7739 29.0225C17.2702 29.3196 16.7632 29.6113 16.2645 29.9171C16.0905 30.0238 15.944 30.0284 15.7676 29.9237C14.5058 29.1753 13.2398 28.4341 11.9759 27.6892C9.61027 26.2946 7.24503 24.8994 4.88018 23.5036C4.61817 23.3491 4.35975 23.1877 4.09387 23.0405C3.88745 22.9261 3.80536 22.7688 3.80616 22.5227C3.81367 20.2428 3.81059 17.9629 3.81059 15.683L3.81413 15.683Z" fill="black"/>
<path d="M28.1864 15.075L28.1864 21.1271C28.1864 21.2144 28.1892 21.3021 28.183 21.3893C28.1628 21.6728 27.9565 21.7945 27.7116 21.6545C27.0746 21.2906 26.4401 20.922 25.8084 20.5486C24.8604 19.9898 23.9184 19.4202 22.966 18.8696C22.7357 18.7365 22.6389 18.583 22.6404 18.305C22.6511 16.248 22.6427 14.191 22.6503 12.1338C22.6512 11.8831 22.5783 11.7225 22.36 11.5951C21.0723 10.844 19.7909 10.0813 18.5073 9.32285C18.0101 9.0291 17.5139 8.73378 17.0141 8.44455C16.8612 8.35603 16.8029 8.23446 16.8032 8.05631C16.8065 6.16604 16.8036 4.27596 16.8056 2.38544C16.8061 2.02505 17.0209 1.90191 17.3262 2.08211C18.4691 2.75647 19.6114 3.43198 20.7531 4.10863C23.1118 5.50286 25.4716 6.89502 27.8327 8.28509C28.0975 8.44012 28.1953 8.61879 28.1936 8.9278C28.182 10.9769 28.1876 13.026 28.1876 15.0752L28.1864 15.075Z" fill="black"/>
<path d="M14.5986 14.9268C14.6653 14.8668 14.7362 14.8109 14.7981 14.7462C15.7485 13.7542 16.6956 12.759 17.6512 11.7723C17.7376 11.6899 17.8492 11.6404 17.9672 11.6323C18.3615 11.6157 18.7569 11.6257 19.2243 11.6257C18.9649 11.9028 18.7509 12.1343 18.5341 12.3627C17.6417 13.3022 16.7483 14.2404 15.8539 15.1774C15.7295 15.3071 15.7241 15.3929 15.8468 15.5322C16.9896 16.8295 18.1282 18.1306 19.2628 19.4353C19.3112 19.4907 19.3536 19.5516 19.4346 19.6561C18.9597 19.6561 18.5438 19.6644 18.1287 19.6484C18.0541 19.6456 17.9716 19.5534 17.9118 19.4851C16.8706 18.2974 15.8311 17.1082 14.7934 15.9174C14.7331 15.8483 14.6707 15.7813 14.5611 15.6599C14.5418 15.7739 14.5284 15.8887 14.5207 16.0041C14.519 17.1238 14.5143 18.2436 14.5258 19.3632C14.5282 19.6023 14.4634 19.6951 14.2242 19.667C14.0541 19.6481 13.8824 19.648 13.7122 19.6666C13.4787 19.6911 13.4054 19.6092 13.4073 19.3635C13.4182 17.9341 13.4125 16.5046 13.4124 15.0752C13.4124 14.019 13.418 12.9627 13.4078 11.9067C13.4057 11.6874 13.4687 11.6041 13.6843 11.6228C13.8624 11.6397 14.0416 11.6398 14.2197 11.6231C14.4529 11.5993 14.5286 11.6806 14.5249 11.9254C14.5113 12.8146 14.5185 13.7042 14.5194 14.5936C14.5194 14.6937 14.5298 14.7934 14.5354 14.8932L14.5986 14.9268Z" fill="black"/>
</svg>
