<svg width="72" height="72" viewBox="0 0 72 72" fill="none" xmlns="http://www.w3.org/2000/svg">
<path d="M50.1843 30.0129C49.9626 30.84 49.5803 31.6153 49.059 32.2947C48.5377 32.974 47.8877 33.544 47.1462 33.9722C46.4046 34.4003 45.5859 34.6782 44.737 34.79C43.888 34.9018 43.0253 34.8452 42.1982 34.6236C41.3711 34.402 40.5958 34.0196 39.9164 33.4983C39.2371 32.977 38.6671 32.3271 38.2389 31.5855C37.8108 30.8439 37.5329 30.0253 37.4211 29.1763C37.3093 28.3274 37.3659 27.4647 37.5875 26.6376C37.8091 25.8105 38.1915 25.0351 38.7128 24.3558C39.234 23.6764 39.884 23.1064 40.6256 22.6783C41.3672 22.2501 42.1858 21.9722 43.0348 21.8604C43.8837 21.7487 44.7464 21.8052 45.5735 22.0268C46.4006 22.2485 47.176 22.6308 47.8553 23.1521C48.5347 23.6734 49.1047 24.3234 49.5328 25.0649C49.961 25.8065 50.2389 26.6252 50.3506 27.4741C50.4624 28.3231 50.4059 29.1858 50.1843 30.0129L50.1843 30.0129Z" stroke="white" style="stroke:white;stroke-opacity:1;" stroke-width="2.4"/>
<path d="M38.8205 33.1667L30.4874 41.4997M27.5001 50.4618L24.5127 47.4745L27.5001 44.4871M27.5001 44.4871L30.4874 47.4745M27.5001 44.4871L30.4874 41.4997M30.4874 41.4997L33.4748 44.4871" stroke="white" style="stroke:white;stroke-opacity:1;" stroke-width="2.4"/>
</svg>
