<svg width="33" height="32" viewBox="0 0 33 32" fill="none" xmlns="http://www.w3.org/2000/svg">
<g clip-path="url(#clip0_21045_21232)">
<path d="M9.02117 13.6632C9.02117 14.0596 9.06375 14.381 9.13827 14.6167C9.22344 14.8523 9.3299 15.1094 9.47894 15.388C9.53217 15.4737 9.55346 15.5594 9.55346 15.6344C9.55346 15.7415 9.48958 15.8486 9.35119 15.9558L8.6805 16.4057C8.58469 16.47 8.48888 16.5021 8.40371 16.5021C8.29725 16.5021 8.19079 16.4485 8.08433 16.3521C7.93529 16.1914 7.80754 16.02 7.70108 15.8486C7.59462 15.6665 7.48817 15.463 7.37106 15.2166C6.54069 16.2021 5.49739 16.6949 4.24118 16.6949C3.34693 16.6949 2.63366 16.4378 2.11201 15.9236C1.59036 15.4094 1.32422 14.7238 1.32422 13.8668C1.32422 12.9562 1.64359 12.217 2.29299 11.6599C2.94239 11.1028 3.8047 10.8243 4.90122 10.8243C5.26318 10.8243 5.63579 10.8564 6.02968 10.91C6.42358 10.9636 6.82812 11.0493 7.25396 11.1457L7.25396 10.3637C7.25396 9.54948 7.08362 8.9817 6.7536 8.6496C6.41293 8.3175 5.83806 8.15681 5.01833 8.15681C4.64572 8.15681 4.26247 8.19966 3.86858 8.29608C3.47468 8.39249 3.09143 8.51033 2.71883 8.66031C2.54849 8.7353 2.42074 8.77815 2.34622 8.79958C2.2717 8.821 2.21847 8.83172 2.17589 8.83172C2.02684 8.83172 1.95232 8.72459 1.95232 8.49962L1.95232 7.97469C1.95232 7.80329 1.97362 7.67473 2.02684 7.59974C2.08007 7.52475 2.17589 7.44976 2.32493 7.37477C2.69753 7.18194 3.14466 7.02125 3.66631 6.89269C4.18795 6.75343 4.74154 6.68915 5.32706 6.68915C6.59391 6.68915 7.5201 6.9784 8.11627 7.55689C8.70179 8.13538 8.99988 9.01384 8.99988 10.1922V13.6632H9.02117ZM4.69895 15.2916C5.05027 15.2916 5.41222 15.2273 5.79548 15.0987C6.17873 14.9702 6.51939 14.7345 6.80683 14.4131C6.97716 14.2096 7.10492 13.9846 7.16879 13.7275C7.23267 13.4704 7.27525 13.1597 7.27525 12.7955V12.3455C6.96652 12.2705 6.6365 12.2063 6.29583 12.1634C5.95516 12.1206 5.62514 12.0991 5.29512 12.0991C4.58185 12.0991 4.0602 12.2384 3.70889 12.5276C3.35758 12.8169 3.18724 13.224 3.18724 13.7596C3.18724 14.2631 3.31499 14.6381 3.58114 14.8952C3.83664 15.163 4.20924 15.2916 4.69895 15.2916ZM13.2476 16.4485C13.0559 16.4485 12.9282 16.4164 12.843 16.3414C12.7579 16.2771 12.6833 16.1272 12.6195 15.9236L10.1177 7.64259C10.0538 7.42834 10.0219 7.28907 10.0219 7.21408C10.0219 7.04267 10.107 6.94626 10.2774 6.94626H11.3207C11.5229 6.94626 11.6613 6.9784 11.7359 7.05339C11.821 7.11766 11.8849 7.26764 11.9488 7.47119L13.7373 14.5631L15.398 7.47119C15.4513 7.25693 15.5151 7.11766 15.6003 7.05339C15.6855 6.98911 15.8345 6.94626 16.0261 6.94626H16.8778C17.0801 6.94626 17.2185 6.9784 17.3036 7.05339C17.3888 7.11766 17.4633 7.26764 17.5059 7.47119L19.188 14.6488L21.0297 7.47119C21.0936 7.25693 21.1681 7.11766 21.2426 7.05339C21.3278 6.98911 21.4662 6.94626 21.6578 6.94626H22.6479C22.8182 6.94626 22.914 7.03196 22.914 7.21408C22.914 7.26764 22.9034 7.32121 22.8927 7.38548C22.8821 7.44976 22.8608 7.53546 22.8182 7.65331L20.2525 15.9343C20.1887 16.1486 20.1141 16.2879 20.029 16.3521C19.9438 16.4164 19.8054 16.4593 19.6244 16.4593H18.7089C18.5066 16.4593 18.3682 16.4271 18.2831 16.3521C18.1979 16.2771 18.1234 16.1379 18.0808 15.9236L16.4307 9.01384L14.7912 15.9129C14.738 16.1272 14.6741 16.2664 14.5889 16.3414C14.5038 16.4164 14.3547 16.4485 14.1631 16.4485H13.2476ZM26.9275 16.7378C26.3739 16.7378 25.8203 16.6735 25.288 16.545C24.7557 16.4164 24.3405 16.2771 24.0638 16.1164C23.8934 16.02 23.7763 15.9129 23.7337 15.8165C23.6911 15.7201 23.6699 15.6129 23.6699 15.5165V14.9702C23.6699 14.7452 23.755 14.6381 23.9147 14.6381C23.9786 14.6381 24.0425 14.6488 24.1063 14.6702C24.1702 14.6916 24.266 14.7345 24.3725 14.7773C24.7344 14.938 25.1283 15.0666 25.5435 15.1523C25.9694 15.238 26.3845 15.2808 26.8104 15.2808C27.4811 15.2808 28.0027 15.163 28.3647 14.9273C28.7266 14.6916 28.9183 14.3488 28.9183 13.9096C28.9183 13.6096 28.8224 13.3632 28.6308 13.1597C28.4392 12.9562 28.0772 12.774 27.5556 12.6026L26.0119 12.1206C25.2348 11.8742 24.6599 11.5099 24.3086 11.0278C23.9573 10.5565 23.7763 10.0316 23.7763 9.47449C23.7763 9.02455 23.8721 8.62817 24.0638 8.28536C24.2554 7.94255 24.5109 7.64259 24.8303 7.40691C25.1496 7.16052 25.5116 6.9784 25.9374 6.84984C26.3633 6.72129 26.8104 6.66772 27.2788 6.66772C27.513 6.66772 27.7579 6.67844 27.9921 6.71058C28.2369 6.74271 28.4605 6.78557 28.6841 6.82842C28.897 6.88198 29.0992 6.93555 29.2909 6.99982C29.4825 7.0641 29.6315 7.12838 29.738 7.19265C29.887 7.27836 29.9935 7.36406 30.0574 7.46047C30.1212 7.54618 30.1532 7.66402 30.1532 7.814V8.3175C30.1532 8.54247 30.068 8.66031 29.9083 8.66031C29.8232 8.66031 29.6848 8.61746 29.5038 8.53176C28.897 8.25322 28.2156 8.11396 27.4598 8.11396C26.853 8.11396 26.3739 8.21037 26.0439 8.41392C25.7139 8.61746 25.5435 8.92813 25.5435 9.36736C25.5435 9.66732 25.65 9.92443 25.8629 10.128C26.0758 10.3315 26.4697 10.5351 27.0339 10.7172L28.5457 11.1993C29.3122 11.4457 29.8657 11.7885 30.1958 12.2277C30.5258 12.6669 30.6855 13.1704 30.6855 13.7275C30.6855 14.1881 30.5897 14.6059 30.4087 14.9702C30.2171 15.3344 29.9616 15.6558 29.6315 15.9129C29.3015 16.1807 28.9076 16.3736 28.4498 16.5128C27.9708 16.6628 27.4704 16.7378 26.9275 16.7378Z" fill="black"/>
<path fill-rule="evenodd" clip-rule="evenodd" d="M28.9388 21.9411C25.4363 24.5443 20.3476 25.9262 15.9722 25.9262C9.84017 25.9262 4.31498 23.6444 0.141804 19.8521C-0.188217 19.5521 0.109867 19.145 0.503763 19.3807C5.0176 22.016 10.5854 23.6123 16.3448 23.6123C20.2305 23.6123 24.4995 22.7981 28.4278 21.1269C29.0133 20.8591 29.5137 21.5125 28.9388 21.9411Z" fill="black"/>
<path fill-rule="evenodd" clip-rule="evenodd" d="M30.407 20.2728C29.9599 19.6943 27.4475 19.9943 26.3084 20.1336C25.9677 20.1764 25.9145 19.8764 26.2232 19.6515C28.2246 18.2374 31.5142 18.6445 31.8975 19.1158C32.2807 19.5979 31.791 22.9082 29.9173 24.4937C29.6299 24.7401 29.3531 24.6115 29.4809 24.2901C29.9067 23.2296 30.8542 20.8406 30.407 20.2728Z" fill="black"/>
</g>
<defs>
<clipPath id="clip0_21045_21232">
<rect width="32.0188" height="32" fill="white"/>
</clipPath>
</defs>
</svg>
