<svg width="32" height="32" viewBox="0 0 32 32" fill="none" xmlns="http://www.w3.org/2000/svg">
<g clip-path="url(#clip0_13465_5065)">
<path d="M9.01803 12.9992C9.01803 13.3958 9.0606 13.7173 9.1351 13.9531C9.22025 14.1889 9.32667 14.4462 9.47568 14.7249C9.52889 14.8106 9.55018 14.8963 9.55018 14.9714C9.55018 15.0786 9.48632 15.1857 9.34796 15.2929L8.67746 15.7431C8.58167 15.8074 8.48589 15.8396 8.40075 15.8396C8.29432 15.8396 8.18789 15.786 8.08146 15.6895C7.93246 15.5287 7.80475 15.3572 7.69832 15.1857C7.59189 15.0035 7.48546 14.7999 7.36839 14.5534C6.53825 15.5395 5.49524 16.0325 4.23939 16.0325C3.34539 16.0325 2.63231 15.7753 2.11081 15.2608C1.58931 14.7463 1.32324 14.0603 1.32324 13.2028C1.32324 12.2918 1.64253 11.5522 2.29174 10.9948C2.94096 10.4375 3.80303 10.1588 4.89924 10.1588C5.2611 10.1588 5.6336 10.1909 6.02739 10.2445C6.42117 10.2981 6.8256 10.3839 7.25132 10.4803L7.25132 9.69788C7.25132 8.88327 7.08103 8.31519 6.7511 7.98292C6.41053 7.65065 5.83582 7.48987 5.01632 7.48987C4.64382 7.48987 4.26067 7.53274 3.86689 7.62921C3.4731 7.72568 3.08996 7.84358 2.71746 7.99364C2.54717 8.06867 2.41946 8.11154 2.34496 8.13298C2.27046 8.15442 2.21724 8.16513 2.17467 8.16513C2.02567 8.16513 1.95117 8.05795 1.95117 7.83286L1.95117 7.30766C1.95117 7.13616 1.97246 7.00754 2.02567 6.93251C2.07889 6.85748 2.17467 6.78245 2.32367 6.70742C2.69617 6.51449 3.14317 6.35371 3.66467 6.22509C4.18617 6.08575 4.7396 6.02144 5.32496 6.02144C6.59146 6.02144 7.51739 6.31084 8.11339 6.88963C8.69875 7.46843 8.99675 8.34735 8.99675 9.52638L8.99675 12.9992L9.01803 12.9992ZM4.69703 14.6284C5.04824 14.6284 5.4101 14.5641 5.79324 14.4355C6.17639 14.3068 6.51696 14.071 6.80432 13.7495C6.9746 13.5458 7.10232 13.3207 7.16617 13.0635C7.23003 12.8062 7.2726 12.4954 7.2726 12.131L7.2726 11.6808C6.96396 11.6058 6.63403 11.5415 6.29346 11.4986C5.95289 11.4557 5.62296 11.4343 5.29303 11.4343C4.57996 11.4343 4.05846 11.5736 3.70724 11.863C3.35603 12.1524 3.18574 12.5597 3.18574 13.0956C3.18574 13.5994 3.31346 13.9746 3.57953 14.2318C3.83496 14.4998 4.20746 14.6284 4.69703 14.6284ZM13.2432 15.786C13.0517 15.786 12.924 15.7538 12.8388 15.6788C12.7537 15.6145 12.6792 15.4644 12.6153 15.2608L10.1142 6.97538C10.0504 6.76101 10.0185 6.62167 10.0185 6.54664C10.0185 6.37515 10.1036 6.27868 10.2739 6.27868L11.3169 6.27868C11.5191 6.27868 11.6575 6.31084 11.732 6.38587C11.8171 6.45018 11.881 6.60024 11.9448 6.80389L13.7328 13.8995L15.3931 6.80389C15.4463 6.58952 15.5102 6.45018 15.5953 6.38587C15.6805 6.32155 15.8295 6.27868 16.021 6.27868L16.8725 6.27868C17.0747 6.27868 17.213 6.31084 17.2982 6.38587C17.3833 6.45018 17.4578 6.60024 17.5004 6.80389L19.182 13.9853L21.0232 6.80389C21.087 6.58952 21.1615 6.45018 21.236 6.38587C21.3212 6.32155 21.4595 6.27868 21.6511 6.27868L22.6409 6.27868C22.8112 6.27868 22.907 6.36443 22.907 6.54664C22.907 6.60024 22.8963 6.65383 22.8857 6.71814C22.875 6.78245 22.8538 6.8682 22.8112 6.9861L20.2463 15.2715C20.1824 15.4859 20.1079 15.6252 20.0228 15.6895C19.9376 15.7538 19.7993 15.7967 19.6183 15.7967L18.703 15.7967C18.5008 15.7967 18.3625 15.7645 18.2773 15.6895C18.1922 15.6145 18.1177 15.4751 18.0751 15.2608L16.4255 8.34735L14.7865 15.2501C14.7333 15.4644 14.6694 15.6038 14.5842 15.6788C14.4991 15.7538 14.3501 15.786 14.1585 15.786L13.2432 15.786ZM26.9193 16.0754C26.3659 16.0754 25.8125 16.0111 25.2803 15.8824C24.7482 15.7538 24.3331 15.6145 24.0564 15.4537C23.8861 15.3572 23.769 15.2501 23.7265 15.1536C23.6839 15.0571 23.6626 14.9499 23.6626 14.8535L23.6626 14.3068C23.6626 14.0817 23.7478 13.9746 23.9074 13.9746C23.9713 13.9746 24.0351 13.9853 24.099 14.0067C24.1628 14.0281 24.2586 14.071 24.365 14.1139C24.7269 14.2747 25.1207 14.4033 25.5358 14.489C25.9615 14.5748 26.3765 14.6177 26.8023 14.6177C27.4728 14.6177 27.9943 14.4998 28.3561 14.264C28.718 14.0281 28.9095 13.6852 28.9095 13.2457C28.9095 12.9456 28.8138 12.6991 28.6222 12.4954C28.4306 12.2918 28.0688 12.1095 27.5473 11.938L26.004 11.4557C25.2271 11.2092 24.6524 10.8448 24.3012 10.3624C23.95 9.89081 23.769 9.36561 23.769 8.80824C23.769 8.35807 23.8648 7.96148 24.0564 7.61849C24.248 7.2755 24.5034 6.97538 24.8227 6.73958C25.142 6.49305 25.5038 6.31084 25.9295 6.18221C26.3553 6.05359 26.8023 6 27.2705 6C27.5047 6 27.7495 6.01072 27.9836 6.04287C28.2284 6.07503 28.4519 6.1179 28.6754 6.16078C28.8883 6.21437 29.0905 6.26796 29.282 6.33227C29.4736 6.39658 29.6226 6.4609 29.729 6.52521C29.878 6.61095 29.9845 6.6967 30.0483 6.79317C30.1122 6.87892 30.1441 6.99682 30.1441 7.14688L30.1441 7.65065C30.1441 7.87574 30.059 7.99364 29.8993 7.99364C29.8142 7.99364 29.6758 7.95077 29.4949 7.86502C28.8883 7.58634 28.2071 7.447 27.4515 7.447C26.8448 7.447 26.3659 7.54346 26.036 7.74711C25.706 7.95077 25.5358 8.2616 25.5358 8.70106C25.5358 9.00118 25.6422 9.25842 25.855 9.46207C26.0679 9.66572 26.4617 9.86938 27.0258 10.0516L28.537 10.5339C29.3033 10.7804 29.8568 11.1234 30.1867 11.5629C30.5166 12.0024 30.6763 12.5061 30.6763 13.0635C30.6763 13.5244 30.5805 13.9424 30.3995 14.3068C30.208 14.6713 29.9525 14.9928 29.6226 15.2501C29.2927 15.518 28.8989 15.711 28.4413 15.8503C27.9623 16.0004 27.4621 16.0754 26.9193 16.0754Z" fill="black"/>
<path fill-rule="evenodd" clip-rule="evenodd" d="M28.9307 21.2845C25.4292 23.8891 20.3419 25.2718 15.9677 25.2718C9.83741 25.2718 4.31377 22.9887 0.141765 19.1944C-0.188164 18.8943 0.109836 18.487 0.503622 18.7228C5.0162 21.3595 10.5824 22.9566 16.3402 22.9566C20.2248 22.9566 24.4926 22.142 28.4199 20.4699C29.0052 20.2019 29.5054 20.8557 28.9307 21.2845Z" fill="black"/>
<path fill-rule="evenodd" clip-rule="evenodd" d="M30.3887 19.6125C29.9417 19.0337 27.43 19.3339 26.2912 19.4732C25.9507 19.5161 25.8974 19.216 26.2061 18.9909C28.2069 17.576 31.4956 17.9833 31.8787 18.4549C32.2619 18.9373 31.7723 22.2493 29.8992 23.8356C29.6118 24.0821 29.3351 23.9535 29.4628 23.632C29.8885 22.5708 30.8357 20.1806 30.3887 19.6125Z" fill="black"/>
</g>
<defs>
<clipPath id="clip0_13465_5065">
<rect width="32" height="32" fill="white"/>
</clipPath>
</defs>
</svg>
