<svg width="32" height="32" viewBox="0 0 32 32" fill="none" xmlns="http://www.w3.org/2000/svg">
<g clip-path="url(#clip0_13465_5195)">
<path d="M29.213 25.2985L15.9966 31.9067L15.9966 0L29.213 6.60821L29.213 25.2985Z" fill="black"/>
<path fill-rule="evenodd" clip-rule="evenodd" d="M13.3618 3.31599L11.0537 2.47168L11.0537 29.4403L13.3618 28.5957L13.3618 3.31599ZM15.9963 27.6315L15.9966 27.6314L15.9966 4.27978L15.9963 4.2797L15.9963 27.6315Z" fill="black"/>
<path fill-rule="evenodd" clip-rule="evenodd" d="M9.01416 4.9133L7.2002 4.39844L7.2002 27.5135L9.01416 26.998L9.01416 4.9133Z" fill="black"/>
<path fill-rule="evenodd" clip-rule="evenodd" d="M5.57568 6.2769L4.1123 5.94238L4.1123 25.943L5.57568 25.6091L5.57568 6.2769ZM7.20025 25.2385L7.20061 25.2384L7.20061 6.64834L7.20025 6.64826L7.20025 25.2385Z" fill="black"/>
</g>
<defs>
<clipPath id="clip0_13465_5195">
<rect width="32" height="32" fill="white"/>
</clipPath>
</defs>
</svg>
