<svg width="72" height="72" viewBox="0 0 72 72" fill="none" xmlns="http://www.w3.org/2000/svg">
<path d="M27.2728 34.6021C27.2728 35.0978 27.326 35.4998 27.4191 35.7945C27.5256 36.0893 27.6586 36.4109 27.8448 36.7592C27.9114 36.8664 27.938 36.9736 27.938 37.0674C27.938 37.2014 27.8581 37.3353 27.6852 37.4693L26.8471 38.032C26.7273 38.1124 26.6076 38.1526 26.5012 38.1526C26.3681 38.1526 26.2351 38.0856 26.1021 37.965C25.9158 37.7641 25.7562 37.5497 25.6231 37.3353C25.4901 37.1076 25.3571 36.853 25.2107 36.5448C24.1731 37.7775 22.8693 38.3938 21.2995 38.3938C20.182 38.3938 19.2906 38.0722 18.6388 37.4291C17.9869 36.786 17.6543 35.9285 17.6543 34.8567C17.6543 33.7178 18.0534 32.7934 18.8649 32.0967C19.6764 31.4 20.754 31.0516 22.1243 31.0516C22.5766 31.0516 23.0422 31.0918 23.5345 31.1588C24.0267 31.2258 24.5322 31.333 25.0644 31.4536V30.4755C25.0644 29.4572 24.8515 28.7471 24.4391 28.3318C24.0134 27.9165 23.295 27.7155 22.2706 27.7155C21.805 27.7155 21.3261 27.7691 20.8339 27.8897C20.3416 28.0102 19.8627 28.1576 19.3971 28.3452C19.1842 28.439 19.0246 28.4926 18.9314 28.5194C18.8383 28.5462 18.7718 28.5596 18.7186 28.5596C18.5323 28.5596 18.4392 28.4256 18.4392 28.1442V27.4877C18.4392 27.2733 18.4658 27.1126 18.5323 27.0188C18.5989 26.925 18.7186 26.8312 18.9048 26.7374C19.3705 26.4963 19.9292 26.2953 20.5811 26.1345C21.233 25.9603 21.9247 25.8799 22.6564 25.8799C24.2396 25.8799 25.397 26.2417 26.142 26.9652C26.8737 27.6887 27.2462 28.7873 27.2462 30.2611V34.6021H27.2728ZM21.8715 36.6386C22.3106 36.6386 22.7629 36.5582 23.2418 36.3975C23.7207 36.2367 24.1464 35.9419 24.5056 35.54C24.7185 35.2854 24.8781 35.0041 24.958 34.6825C25.0378 34.361 25.091 33.9724 25.091 33.5169V32.9541C24.7052 32.8604 24.2928 32.78 23.8671 32.7264C23.4414 32.6728 23.0289 32.646 22.6165 32.646C21.7252 32.646 21.0733 32.8202 20.6343 33.1819C20.1953 33.5437 19.9824 34.0528 19.9824 34.7227C19.9824 35.3524 20.1421 35.8213 20.4747 36.1429C20.7939 36.4779 21.2596 36.6386 21.8715 36.6386ZM32.5543 38.0856C32.3148 38.0856 32.1552 38.0454 32.0488 37.9516C31.9423 37.8713 31.8492 37.6837 31.7694 37.4291L28.6431 27.0724C28.5632 26.8044 28.5233 26.6302 28.5233 26.5365C28.5233 26.3221 28.6298 26.2015 28.8426 26.2015H30.1464C30.3991 26.2015 30.5721 26.2417 30.6652 26.3355C30.7716 26.4159 30.8514 26.6034 30.9313 26.858L33.1663 35.7276L35.2416 26.858C35.3081 26.59 35.388 26.4159 35.4944 26.3355C35.6008 26.2551 35.7871 26.2015 36.0265 26.2015H37.0908C37.3436 26.2015 37.5165 26.2417 37.623 26.3355C37.7294 26.4159 37.8225 26.6034 37.8757 26.858L39.9777 35.8347L42.2792 26.858C42.359 26.59 42.4522 26.4159 42.5453 26.3355C42.6517 26.2551 42.8247 26.2015 43.0641 26.2015H44.3014C44.5142 26.2015 44.634 26.3087 44.634 26.5365C44.634 26.6034 44.6207 26.6704 44.6074 26.7508C44.594 26.8312 44.5674 26.9384 44.5142 27.0858L41.3081 37.4425C41.2282 37.7105 41.1351 37.8847 41.0287 37.965C40.9223 38.0454 40.7493 38.099 40.5232 38.099H39.379C39.1263 38.099 38.9533 38.0588 38.8469 37.965C38.7405 37.8713 38.6473 37.6971 38.5941 37.4291L36.5321 28.7873L34.4833 37.4157C34.4168 37.6837 34.337 37.8579 34.2306 37.9516C34.1241 38.0454 33.9379 38.0856 33.6984 38.0856H32.5543ZM49.6494 38.4474C48.9576 38.4474 48.2658 38.367 47.6007 38.2062C46.9355 38.0454 46.4166 37.8713 46.0707 37.6703C45.8579 37.5497 45.7115 37.4157 45.6583 37.2951C45.6051 37.1746 45.5785 37.0406 45.5785 36.92V36.2367C45.5785 35.9553 45.6849 35.8213 45.8845 35.8213C45.9643 35.8213 46.0441 35.8347 46.124 35.8615C46.2038 35.8883 46.3235 35.9419 46.4565 35.9955C46.9089 36.1965 47.4011 36.3573 47.9199 36.4645C48.4521 36.5716 48.9709 36.6252 49.5031 36.6252C50.3412 36.6252 50.9931 36.4779 51.4454 36.1831C51.8977 35.8883 52.1372 35.4596 52.1372 34.9103C52.1372 34.5351 52.0174 34.227 51.778 33.9724C51.5385 33.7178 51.0862 33.4901 50.4343 33.2757L48.5053 32.6728C47.5341 32.3646 46.8157 31.9091 46.3767 31.3062C45.9377 30.7167 45.7115 30.0602 45.7115 29.3635C45.7115 28.8007 45.8313 28.305 46.0707 27.8763C46.3102 27.4475 46.6295 27.0724 47.0286 26.7776C47.4277 26.4695 47.88 26.2417 48.4122 26.0809C48.9443 25.9201 49.5031 25.8531 50.0884 25.8531C50.3811 25.8531 50.6871 25.8665 50.9798 25.9067C51.2857 25.9469 51.5651 26.0005 51.8445 26.0541C52.1106 26.1211 52.3633 26.1881 52.6028 26.2685C52.8423 26.3489 53.0285 26.4293 53.1616 26.5097C53.3478 26.6168 53.4808 26.724 53.5607 26.8446C53.6405 26.9518 53.6804 27.0992 53.6804 27.2867V27.9165C53.6804 28.1978 53.574 28.3452 53.3744 28.3452C53.268 28.3452 53.095 28.2916 52.8689 28.1844C52.1106 27.8361 51.2591 27.6619 50.3146 27.6619C49.5563 27.6619 48.9576 27.7825 48.5452 28.037C48.1328 28.2916 47.9199 28.6802 47.9199 29.2295C47.9199 29.6046 48.053 29.9262 48.3191 30.1807C48.5851 30.4353 49.0774 30.6899 49.7824 30.9176L51.6716 31.5206C52.6294 31.8287 53.3212 32.2574 53.7336 32.8068C54.146 33.3561 54.3456 33.9858 54.3456 34.6825C54.3456 35.2586 54.2258 35.7812 53.9997 36.2367C53.7602 36.6922 53.4409 37.0942 53.0285 37.4157C52.6161 37.7507 52.1239 37.9918 51.5518 38.166C50.9532 38.3536 50.3279 38.4474 49.6494 38.4474Z" fill="white" style="fill:white;fill-opacity:1;"/>
<path fill-rule="evenodd" clip-rule="evenodd" d="M52.1634 44.9589C47.7865 48.2146 41.4274 49.943 35.9596 49.943C28.2968 49.943 21.3922 47.0892 16.1772 42.3462C15.7648 41.9711 16.1373 41.462 16.6295 41.7567C22.2702 45.0527 29.228 47.049 36.4253 47.049C41.2811 47.049 46.6158 46.0307 51.5248 43.9406C52.2565 43.6057 52.8818 44.423 52.1634 44.9589Z" fill="white" style="fill:white;fill-opacity:1;"/>
<path fill-rule="evenodd" clip-rule="evenodd" d="M53.9829 42.8686C53.4241 42.1451 50.2845 42.5203 48.861 42.6945C48.4353 42.7481 48.3687 42.3729 48.7545 42.0915C51.2556 40.323 55.3664 40.8321 55.8454 41.4216C56.3243 42.0246 55.7123 46.1646 53.3709 48.1475C53.0117 48.4556 52.6658 48.2949 52.8254 47.8929C53.3576 46.5665 54.5416 43.5787 53.9829 42.8686Z" fill="white" style="fill:white;fill-opacity:1;"/>
</svg>
