<svg width="72" height="72" viewBox="0 0 72 72" fill="none" xmlns="http://www.w3.org/2000/svg">
<path d="M31.2532 22.0009H39.4663L30.9403 46.9194C30.8967 47.0467 30.8332 47.1665 30.7522 47.2745C30.6714 47.3826 30.5739 47.4773 30.4632 47.5557C30.3525 47.634 30.2304 47.6949 30.1006 47.7359C29.9708 47.777 29.8355 47.7982 29.6995 47.7982H23.3077C23.1002 47.7982 22.8955 47.7496 22.7109 47.6559C22.5261 47.5624 22.3666 47.4269 22.2456 47.2605C22.1245 47.0941 22.0453 46.9017 22.0145 46.6992C21.9836 46.4967 22.0024 46.2897 22.0686 46.0958L30.0121 22.8789C30.0555 22.7517 30.119 22.632 30.2002 22.5239C30.281 22.4158 30.3789 22.3211 30.4892 22.2427C30.5999 22.1644 30.722 22.1035 30.8518 22.0625C30.9816 22.0214 31.1169 22.0002 31.2529 22.0002V22.0006L31.2532 22.0009Z" fill="white" style="fill:white;fill-opacity:1;"/>
<path d="M46.396 47.7977H39.0212C38.939 47.7977 38.8568 47.7902 38.7756 47.7748C38.6947 47.7597 38.6153 47.7371 38.5386 47.7074C38.4619 47.6776 38.3883 47.6407 38.3186 47.5976C38.249 47.5542 38.1836 47.5045 38.1233 47.4491L29.7544 39.7441C29.6659 39.6626 29.6042 39.5567 29.5774 39.4403C29.5507 39.3239 29.5601 39.2022 29.6045 39.0911C29.6488 38.98 29.7261 38.8846 29.8262 38.8174C29.9265 38.7504 30.0448 38.7145 30.1659 38.7145H43.1897L46.3953 47.798L46.396 47.7977Z" fill="white" style="fill:white;fill-opacity:1;"/>
<path d="M49.6887 46.0956C49.755 46.2896 49.7737 46.4964 49.7432 46.699C49.7123 46.9014 49.6333 47.0938 49.5124 47.2603C49.3914 47.4266 49.232 47.5621 49.0473 47.6556C48.8626 47.7491 48.658 47.7979 48.4504 47.798H39.2967C39.5041 47.798 39.7089 47.7491 39.8938 47.6557C40.0784 47.5623 40.238 47.4265 40.3591 47.2603C40.4802 47.094 40.5593 46.9015 40.5902 46.699C40.621 46.4965 40.6023 46.2895 40.536 46.0956L32.5922 22.8781C32.5047 22.6223 32.3381 22.4 32.1158 22.2425C32.0055 22.1642 31.8833 22.1037 31.7539 22.0626C31.6245 22.0216 31.4892 22.0007 31.3535 22.0007H40.5069C40.6429 22.0007 40.7779 22.0216 40.9076 22.0626C41.037 22.1037 41.1592 22.1645 41.2699 22.2425C41.3802 22.3209 41.4777 22.4156 41.5585 22.5234C41.6394 22.6311 41.7025 22.7508 41.7462 22.8781L49.6901 46.0956H49.6887Z" fill="white" style="fill:white;fill-opacity:1;"/>
</svg>
