<svg width="32" height="32" viewBox="0 0 32 32" fill="none" xmlns="http://www.w3.org/2000/svg">
<path d="M11.3876 2.00068L19.6008 2.00068L11.0746 26.9196C11.031 27.0469 10.9676 27.1667 10.8866 27.2747C10.8057 27.3827 10.7082 27.4775 10.5976 27.5558C10.4869 27.6342 10.3647 27.695 10.235 27.7361C10.1052 27.7771 9.96988 27.7984 9.83387 27.7984L3.44192 27.7984C3.23443 27.7984 3.02972 27.7498 2.84513 27.6561C2.66034 27.5626 2.50083 27.427 2.37984 27.2606C2.25877 27.0942 2.17956 26.9018 2.14875 26.6993C2.11787 26.4968 2.13661 26.2899 2.20288 26.0959L10.1465 2.87875C10.1899 2.7515 10.2534 2.63178 10.3346 2.52369C10.4154 2.4156 10.5132 2.32085 10.6236 2.24252C10.7343 2.16419 10.8564 2.1033 10.9862 2.06225C11.1159 2.02121 11.2513 2 11.3873 2L11.3873 2.00034L11.3876 2.00068Z" fill="black"/>
<path d="M26.5281 27.7982L19.1532 27.7982C19.0709 27.7982 18.9887 27.7907 18.9075 27.7753C18.8267 27.7602 18.7472 27.7376 18.6705 27.7079C18.5938 27.6781 18.5203 27.6412 18.4505 27.5981C18.3809 27.5547 18.3155 27.505 18.2552 27.4496L9.8862 19.7444C9.79769 19.6629 9.73604 19.5571 9.70925 19.4407C9.68248 19.3242 9.6919 19.2026 9.73627 19.0915C9.78064 18.9804 9.85792 18.885 9.95803 18.8178C10.0583 18.7508 10.1766 18.7148 10.2977 18.7148L23.3217 18.7148L26.5274 27.7985L26.5281 27.7982Z" fill="black"/>
<path d="M29.8218 26.0952C29.8881 26.2893 29.9068 26.4961 29.8763 26.6986C29.8454 26.9011 29.7663 27.0935 29.6455 27.26C29.5245 27.4263 29.365 27.5618 29.1804 27.6553C28.9957 27.7488 28.7911 27.7976 28.5834 27.7977L19.4296 27.7977C19.6371 27.7977 19.8418 27.7488 20.0267 27.6554C20.2113 27.562 20.3709 27.4262 20.492 27.26C20.6131 27.0937 20.6922 26.9011 20.7231 26.6986C20.754 26.4961 20.7352 26.2892 20.669 26.0952L12.725 2.87738C12.6376 2.62162 12.471 2.39934 12.2486 2.24183C12.1383 2.1635 12.0162 2.10296 11.8867 2.06191C11.7573 2.02087 11.622 2 11.4863 2L20.6398 2C20.7758 2 20.9108 2.02087 21.0406 2.06191C21.17 2.10296 21.2921 2.16385 21.4028 2.24184C21.5132 2.32017 21.6107 2.41492 21.6915 2.52266C21.7724 2.63041 21.8355 2.75013 21.8792 2.87738L29.8232 26.0952L29.8218 26.0952Z" fill="black"/>
</svg>
