<svg width="32" height="32" viewBox="0 0 32 32" fill="none" xmlns="http://www.w3.org/2000/svg">
<g clip-path="url(#clip0_13465_5003)">
<path fill-rule="evenodd" clip-rule="evenodd" d="M15.9757 0.115017C15.9264 0.0410774 15.8935 1.83595e-07 15.8607 1.83203e-07C15.836 1.82909e-07 15.8114 0.0328621 15.795 0.0985864C15.7785 0.164311 12.3444 4.2803 8.14628 9.25891C3.94814 14.2375 0.514049 18.3371 0.497618 18.3782C0.481186 18.4192 3.89063 21.229 8.07234 24.6384C12.2541 28.0478 15.721 30.8822 15.7785 30.9397C15.8771 31.0383 15.8935 31.0301 16.1646 30.8083C16.3207 30.6768 19.7795 27.8589 23.8462 24.548C27.9129 21.2372 31.2484 18.5014 31.2566 18.4767C31.273 18.4521 27.8554 14.3361 23.6654 9.33285C19.4755 4.32959 16.0168 0.180742 15.9757 0.115017ZM14.0042 24.9422C14.2424 25.4023 14.8175 25.8953 15.294 26.0678C15.7623 26.2403 16.0991 26.2403 16.6578 26.0842C17.2082 25.9199 17.8408 25.3859 18.0955 24.8519C18.3255 24.3672 18.3502 23.5949 18.1448 23.102C17.9312 22.6008 17.9641 22.4776 18.3748 22.1407C19.0485 21.5985 22.08 19.52 22.2772 19.4707C22.3922 19.4378 22.6716 19.5364 23.033 19.7336C23.5178 19.9965 23.6903 20.0458 24.1504 20.0458C24.8076 20.0458 25.1691 19.9061 25.662 19.4625C26.3603 18.8299 26.6479 17.7783 26.3193 16.9978C25.8099 15.7819 24.5201 15.2397 23.2959 15.7244C23.033 15.823 22.7537 15.9052 22.6716 15.9052C22.5894 15.9052 22.3429 15.6998 22.1211 15.4451C20.8641 13.9827 18.4899 11.1155 18.3502 10.8772C18.1859 10.6061 18.1859 10.5979 18.3584 10.1543C18.9992 8.55225 17.808 6.76126 16.0991 6.76126C15.3679 6.76126 14.99 6.88449 14.4807 7.28706C13.5441 8.02646 13.273 9.25879 13.807 10.3679L14.0699 10.9183L13.1908 11.7563C11.9174 12.964 9.28024 15.3711 8.95161 15.6176C8.67229 15.8312 8.66407 15.8312 8.22043 15.6833C7.40709 15.4122 6.56089 15.6258 5.9283 16.2584C5.46001 16.7267 5.31213 17.1046 5.31213 17.8358C5.31213 18.5916 5.47644 18.9613 6.04331 19.4871C6.83201 20.2183 7.8343 20.284 8.79552 19.6761C9.09128 19.4871 9.25559 19.4296 9.35418 19.4871C9.42812 19.5282 10.5044 20.1115 11.7367 20.777C12.969 21.4424 14.0617 22.0504 14.1521 22.1161C14.3164 22.2393 14.3164 22.2558 14.0617 22.7816C13.7331 23.4881 13.7084 24.3754 14.0042 24.9422ZM15.4337 12.3314L15.4337 17.0143C15.4337 20.8098 15.409 21.7218 15.3022 21.8121C15.2119 21.8861 14.9572 21.7793 14.226 21.3521C11.5642 19.8158 9.7896 18.682 9.78138 18.493C9.78138 18.4109 9.78138 18.1644 9.7896 17.9426C9.79782 17.7208 9.72388 17.3347 9.62529 17.0635C9.5267 16.8006 9.44455 16.5542 9.44455 16.5295C9.44455 16.431 14.7518 11.6084 14.8586 11.6084C14.8832 11.6084 15.0229 11.7727 15.1708 11.9699L15.4337 12.3314ZM21.8993 18.337C21.8582 18.5013 21.201 18.9449 17.6847 21.1549C17.0357 21.5657 16.477 21.9025 16.4606 21.8943C16.3045 21.8943 16.2717 21.1877 16.247 16.9978L16.2224 12.3232L16.7646 11.9617C17.0604 11.7645 17.3479 11.6002 17.4054 11.6002C17.5697 11.6002 18.2763 12.3725 20.1987 14.6482L21.9897 16.776L21.965 17.4661C21.9568 17.8522 21.9239 18.2384 21.8993 18.337Z" fill="black"/>
</g>
<defs>
<clipPath id="clip0_13465_5003">
<rect width="32" height="32" fill="white"/>
</clipPath>
</defs>
</svg>
