<svg width="183" height="20" viewBox="0 0 183 20" fill="none" xmlns="http://www.w3.org/2000/svg">
<g clip-path="url(#clip0_11811_1940)">
<path d="M31.5059 19.8288H49.4579V19.7615C49.4579 8.87265 42.0777 0.0673828 32.9022 0.0673828C29.9767 0.0673828 27.1842 0.941185 24.7905 2.62157C28.4474 2.55436 31.5059 10.2842 31.5059 19.8288Z" fill="black"/>
<path d="M17.9631 19.8286C17.9631 10.284 21.0217 2.55419 24.745 2.55419C22.3514 0.941019 19.4924 0 16.6334 0C7.4579 0 0.0776367 8.87244 0.0776367 19.6942V19.7614H17.9631V19.8286Z" fill="black"/>
<path d="M79.0358 14.1052C79.0358 15.92 77.7727 17.0626 75.7782 17.0626C74.9139 17.0626 74.049 16.5249 74.049 15.5167C74.049 14.5084 74.9801 13.9707 75.8444 13.9035L79.1025 13.6347V14.1052H79.0358ZM83.1582 16.861C82.7594 16.861 82.5598 16.7938 82.5598 16.1888V11.1477C82.6265 10.2067 82.4936 9.26559 82.161 8.32459C81.4296 6.44253 79.6342 5.43433 76.9745 5.43433C73.5173 5.43433 71.39 7.18191 71.1903 10.005V10.2067H74.6475V10.005C74.7142 8.52622 75.9773 8.19016 76.9745 8.19016C78.7038 8.19016 79.1025 8.99678 79.1025 10.1394V10.8116L75.3127 11.0804C72.4533 11.2821 70.5918 13.0297 70.5918 15.5167C70.5918 17.6675 72.1875 19.9529 75.6453 19.9529C77.1742 20.0201 78.637 19.348 79.6342 18.1381C79.9001 19.0118 80.6982 19.8185 82.0281 19.8185C82.6265 19.8185 83.1582 19.7512 83.6905 19.4824L83.8234 19.4152V16.7265L83.6237 16.7938C83.3579 16.7938 83.225 16.861 83.1582 16.861Z" fill="black"/>
<path d="M91.6996 5.34713C90.0371 5.34713 88.6411 6.01929 87.843 7.16197L87.6439 5.68321H84.5854V19.664H88.1756V13.7491C88.1756 12.6064 88.1756 11.3293 88.5744 10.3211C88.907 9.58172 89.5722 8.7079 90.7685 8.7079C92.2313 8.7079 92.8297 9.38009 92.8297 11.1277V19.664H96.4205V10.3883C96.4866 7.36359 94.6251 5.34713 91.6996 5.34713ZM122.152 12.2703C122.152 15.0262 120.822 16.5722 118.428 16.5722C116.034 16.5722 114.705 15.0262 114.705 12.2703V1.11255H111.048V12.3375C111.048 17.1098 113.774 20.0002 118.428 20.0002C123.082 20.0002 125.809 17.1098 125.809 12.3375V1.11255H122.085V12.2703H122.152ZM134.452 5.27992C132.79 5.27992 131.393 5.95207 130.596 7.09472L130.396 5.61599H127.338V19.5968H130.928V13.6818C130.928 12.5392 130.928 11.2621 131.327 10.2538C131.66 9.51447 132.324 8.64072 133.521 8.64072C134.984 8.64072 135.582 9.31284 135.582 11.0605V19.5968H139.173V10.3883C139.239 7.29641 137.377 5.27992 134.452 5.27992Z" fill="black"/>
<path d="M141.168 4.54054H144.958V1.11255H141.168V4.54054Z" fill="black"/>
<path d="M141.234 19.6638H144.891V5.61572H141.234V19.6638Z" fill="black"/>
<path d="M153.468 16.5049C152.537 16.5049 152.139 16.1017 152.139 15.1606V8.70791H155.529V5.61599H152.139V1.11255H148.548V5.61599H146.088V8.64072H148.548V15.4295C148.548 18.2525 150.077 19.7985 152.803 19.7985C153.734 19.7985 154.732 19.664 155.596 19.3952L155.729 19.328V16.236H155.529C154.864 16.4377 154.133 16.5049 153.468 16.5049Z" fill="black"/>
<path d="M159.917 11.1275C159.917 10.4554 160.184 9.78319 160.583 9.24544C161.114 8.57332 161.912 8.23725 162.71 8.23725C163.441 8.17 164.106 8.43888 164.638 8.97663C165.104 9.58157 165.436 10.3209 165.436 11.0603L159.917 11.1275ZM162.777 5.27975C161.114 5.21254 159.519 5.88469 158.322 7.09457C157.059 8.43888 156.327 10.3881 156.327 12.6734C156.327 14.9588 157.059 16.9081 158.455 18.2524C159.651 19.395 161.181 19.9999 162.843 19.9999C164.771 19.9999 166.434 19.3278 167.497 18.0507C168.095 17.3113 168.495 16.3703 168.694 15.4293V15.2276H165.237V15.3621C165.104 15.7654 164.904 16.1687 164.638 16.4376C164.239 16.8408 163.707 17.0425 162.777 17.0425C162.045 17.0425 161.38 16.7736 160.915 16.2359C160.317 15.5638 159.984 14.7571 159.984 13.8833H169.026V12.7407C169.093 10.7242 168.694 9.24544 167.83 7.90113C166.766 6.22077 164.971 5.27975 162.777 5.27975Z" fill="black"/>
<path d="M176.539 16.841C175.742 16.841 174.944 16.5049 174.479 15.8328C173.946 15.0934 173.68 14.018 173.68 12.6064C173.68 10.4892 173.946 10.1195 174.479 9.38009C174.944 8.7079 175.742 8.37184 176.539 8.37184C178.933 8.37184 179.465 10.6572 179.465 12.6064C179.465 14.5557 179 16.841 176.539 16.841ZM179.332 1.11255V6.35534C178.6 5.68321 177.404 5.27992 175.941 5.27992C174.678 5.2127 173.481 5.68321 172.55 6.42259C170.888 7.7669 170.09 9.85059 170.09 12.6737C170.09 15.3623 170.888 17.446 172.55 18.7903C173.481 19.5968 174.744 20.0002 175.941 20.0002C177.47 20.0002 178.8 19.3952 179.598 18.4542L179.797 19.664H182.923V1.11255H179.332Z" fill="black"/>
<path d="M59.2532 4.54063H62.9763C64.6387 4.54063 65.4369 5.21279 65.4369 6.48987C65.4369 7.767 64.6387 8.43912 63.043 8.43912H59.2532V4.54063ZM59.2532 11.8671H63.043C64.8384 11.8671 65.7689 12.6737 65.7689 14.1524C65.7689 16.0345 63.7744 16.2361 62.9101 16.2361H59.1866V11.8671H59.2532ZM67.2316 10.1867C68.6944 9.31293 69.2267 7.63256 69.2267 6.35543C69.2267 4.74228 68.4286 3.19632 67.0987 2.2553C66.0347 1.58315 64.7055 1.24707 62.8434 1.24707H55.5298V19.7986H62.8434C64.7717 19.7986 66.3673 19.5969 67.764 18.5215C69.027 17.5804 69.6255 16.1017 69.6255 14.2869C69.6255 12.5393 68.6944 10.9933 67.2316 10.1867Z" fill="black"/>
<path d="M106.194 11.3292L109.917 5.68313H106.128L102.005 11.7325V1.17969H98.415V19.7312H102.005V16.572L104 13.9507L106.859 19.5968L106.926 19.7312H110.649L106.194 11.3292Z" fill="black"/>
</g>
<defs>
<clipPath id="clip0_11811_1940">
<rect width="183" height="20" fill="white"/>
</clipPath>
</defs>
</svg>
