<svg width="32" height="32" viewBox="0 0 32 32" fill="none" xmlns="http://www.w3.org/2000/svg">
<g clip-path="url(#clip0_13465_5085)">
<path d="M3.30717 4.00007C3.17932 3.99843 3.05266 4.0246 2.93608 4.07673C2.81951 4.12886 2.71584 4.2057 2.63236 4.30184C2.54889 4.39799 2.48762 4.51111 2.45288 4.63326C2.41814 4.75542 2.41075 4.88364 2.43125 5.00893L6.14971 27.4181C6.19603 27.6923 6.33821 27.9416 6.55127 28.1221C6.76432 28.3026 7.03464 28.4028 7.31473 28.4051L25.1536 28.4051C25.3636 28.4077 25.5675 28.3355 25.7282 28.2014C25.889 28.0673 25.9959 27.8804 26.0294 27.6746L29.748 5.01328C29.7685 4.888 29.7611 4.75979 29.7263 4.63765C29.6915 4.51552 29.6303 4.40242 29.5468 4.30629C29.4633 4.21017 29.3596 4.13336 29.2431 4.08124C29.1265 4.02913 28.9998 4.00298 28.872 4.00463L3.30717 4.00007ZM18.9649 20.1961L13.2712 20.1961L11.7295 12.2003L20.3446 12.2003L18.9649 20.1961Z" fill="black"/>
<path d="M28.5434 12.1895L20.3293 12.1895L18.9506 20.1789L13.2615 20.1789L6.54395 28.0944C6.75686 28.2772 7.02831 28.3788 7.30977 28.3811L25.1388 28.3811C25.3486 28.3838 25.5524 28.3116 25.7131 28.1776C25.8737 28.0437 25.9806 27.8569 26.0141 27.6513L28.5434 12.1895Z" fill="black"/>
</g>
<defs>
<clipPath id="clip0_13465_5085">
<rect width="32" height="32" fill="white"/>
</clipPath>
</defs>
</svg>
