<svg width="140" height="40" viewBox="0 0 140 40" fill="none" xmlns="http://www.w3.org/2000/svg">
<path d="M100.722 18.6377C100.699 16.6459 100.722 14.6311 100.722 12.6851C100.745 9.36533 100.745 5.93112 100.654 2.5198V2.22217H97.0164V15.5469C93.3792 12.0669 88.5524 11.3801 84.5262 13.8756C80.8661 16.1422 78.1896 21.0874 80.4086 27.063C81.7125 30.4056 84.5262 32.6722 88.1177 33.2904C88.7811 33.4048 89.4445 33.4735 90.1079 33.4735C93.2876 33.4735 96.3073 32.1685 98.3432 29.8561C100.814 27.2232 100.768 23.1709 100.722 19.5993C100.722 19.2788 100.722 18.9582 100.722 18.6377ZM96.8792 23.0793C96.7419 27.7269 93.2419 29.8103 90.0622 29.8103C90.0393 29.8103 90.0393 29.8103 90.0393 29.8103C87.889 29.6959 86.1275 28.8946 84.9151 27.4522C83.8628 26.193 83.2909 24.4988 83.3367 22.713C83.4739 18.0424 86.9968 15.9361 90.2452 15.9361H90.268C93.5393 16.1422 97.0164 18.4545 96.8792 23.0793Z" fill="black"/>
<path d="M124.33 22.7816C124.284 19.9885 123.369 17.5387 121.699 15.7071C120.213 14.0816 118.131 12.9598 115.843 12.5477C111.611 11.7921 106.098 13.4635 103.994 18.8895C101.775 25.0253 104.634 29.9706 108.477 32.1227C109.987 32.9698 111.703 33.4277 113.373 33.4277C113.899 33.4277 114.448 33.3819 114.974 33.2903C117.17 32.924 119.16 31.7793 120.807 29.9706V32.9469H124.262L124.284 32.6722C124.422 30.314 124.376 27.8414 124.353 25.4603C124.33 24.5903 124.33 23.6745 124.33 22.7816ZM120.533 22.8503C120.556 27.5666 117.056 29.7874 113.807 29.8332C109.163 29.7416 107.036 26.2158 107.013 22.9648C106.99 18.2943 110.422 16.0506 113.647 15.959C116.941 15.9819 120.51 18.1569 120.533 22.8503Z" fill="black"/>
<path d="M139.405 12.8224C139.085 12.8224 138.765 12.8224 138.467 12.8224C137.804 12.7995 137.163 12.7995 136.523 12.8453C126.869 13.6924 127.167 21.7056 127.441 28.8029C127.487 30.1766 127.533 31.4587 127.533 32.6951V32.9927H131.101L131.124 32.718C131.193 31.1382 131.147 29.5356 131.101 27.9787C130.987 23.9722 130.873 20.1945 132.954 18.134C134.258 16.8519 136.386 16.2795 139.428 16.4169L139.725 16.4398V12.8224H139.405Z" fill="black"/>
<path d="M77.6864 17.722C77.6407 17.6305 77.4577 17.2412 77.0917 16.646L76.8858 16.3483L76.8629 16.3712C73.5459 11.8152 68.5361 11.7465 65.1962 13.1431C61.2387 14.7915 57.7616 19.027 58.8368 24.8423C58.6538 24.9568 58.3793 25.117 57.8989 25.4147C56.0002 26.6052 52.0426 29.0549 50.144 29.7647C47.6734 30.566 45.1342 30.0394 43.327 28.391C41.3596 26.5823 40.6276 23.7205 41.3368 20.7441C42.0002 18.0883 43.9904 16.2339 46.6897 15.776C49.4348 15.2952 52.157 16.4399 53.6668 18.6836L53.8727 18.9812L56.1603 16.6689L56.0002 16.4628C53.8727 13.5552 50.4185 12.067 46.6897 12.4562C42.9381 12.8683 39.7355 15.1578 38.3172 18.4089C36.4413 22.9649 37.3793 27.6812 40.7649 30.7491C42.7093 32.512 45.1342 33.4049 47.6505 33.4049C49.3204 33.4049 51.0361 33.0157 52.6374 32.1915L52.6603 32.2144L59.9119 28.0934C61.559 31.1841 64.693 33.1531 68.4217 33.3591C72.1505 33.5652 75.5132 31.9168 77.3891 28.9634L77.5263 28.7573L75.2616 26.5365L75.0557 26.8341C73.6832 28.9176 71.6015 30.0623 69.1766 30.0623C66.4773 30.0623 64.2126 28.6657 63.0917 26.2847L77.8466 17.9281L77.6864 17.722ZM73.0198 16.8062L62.3368 22.8505C62.3139 19.9428 63.6636 17.6076 66.0198 16.3941C67.0034 15.8904 68.0786 15.6386 69.1538 15.6386C70.5034 15.6386 71.8531 16.0278 73.0198 16.8062Z" fill="black"/>
<path d="M13.0163 11.0139C12.3072 10.2812 11.5065 9.6173 10.6601 8.99914C11.4608 7.14467 12.6961 5.47335 14.3431 4.12256C15.9902 5.47335 17.2483 7.14467 18.049 8.99914C17.1797 9.5944 16.4019 10.2584 15.6928 11.0139C15.4869 10.8536 15.3039 10.6934 15.098 10.5331L14.366 10.0065L13.634 10.5331C13.4052 10.6705 13.2222 10.8536 13.0163 11.0139ZM7.11436 9.50283C5.87906 11.2199 5.14704 13.166 4.8954 15.1578C6.15357 15.6386 7.32024 16.2797 8.3954 17.0123C9.08168 15.3639 10.0882 13.8528 11.3464 12.5249C10.1797 11.2886 8.73854 10.2584 7.11436 9.50283ZM12.8333 21.7744C13.1536 21.5913 13.4738 21.431 13.7941 21.2707L14.3431 21.0189L14.8921 21.2707C15.2124 21.431 15.5327 21.5913 15.8529 21.7744C16.5621 20.6068 17.3856 19.5307 18.3921 18.592C17.6372 16.3941 16.2647 14.3794 14.3431 12.8226C12.4444 14.3794 11.049 16.3713 10.317 18.5691C11.3006 19.5078 12.147 20.5839 12.8333 21.7744ZM23.7908 15.1578C23.5392 13.166 22.8072 11.2199 21.5719 9.50283C19.9248 10.2584 18.5065 11.2886 17.3398 12.5249C18.598 13.8528 19.6046 15.3868 20.2908 17.0123C21.366 16.2797 22.5327 15.6615 23.7908 15.1578ZM17.7745 23.0336C18.8496 23.8349 19.7876 24.7736 20.6111 25.8268C22.464 24.7049 24.5 23.9723 26.6503 23.606C26.7418 21.3394 26.1699 19.0957 24.9804 17.0581C21.8464 18.2028 19.3072 20.3092 17.7745 23.0336ZM10.9346 23.0336C9.37906 20.3092 6.83985 18.2028 3.72874 17.0581C2.51632 19.0957 1.9673 21.3394 2.03593 23.5831C4.18625 23.9494 6.24508 24.682 8.07514 25.8039C8.89867 24.7736 9.85946 23.8349 10.9346 23.0336ZM15.5098 37.3657C22.3268 36.8392 27.7941 31.8252 28.3889 25.5521C25.7124 25.7581 23.1732 26.6739 21.0229 28.2078L19.9934 28.9405L19.3072 27.9102C18.0719 26.0557 16.3562 24.5218 14.3431 23.4457C12.33 24.5218 10.6144 26.0557 9.37906 27.9102L8.69279 28.9405L7.66338 28.2078C5.49017 26.6739 2.97383 25.7581 0.297363 25.5521C0.892134 31.8481 6.35945 36.8392 13.1764 37.3657H15.5098Z" fill="black"/>
</svg>
