<svg width="32" height="32" viewBox="0 0 32 32" fill="none" xmlns="http://www.w3.org/2000/svg">
<g clip-path="url(#clip0_13465_4963)">
<path d="M15.7699 19.7187C17.8819 19.7187 19.594 18.0265 19.594 15.9389C19.594 13.8514 17.8819 12.1592 15.7699 12.1592C13.6579 12.1592 11.9458 13.8514 11.9458 15.9389C11.9458 18.0265 13.6579 19.7187 15.7699 19.7187Z" fill="black"/>
<path d="M0.150617 11.9315C0.150617 11.9769 0.104492 12.068 0.104492 12.1136C0.104492 12.5234 0.426992 12.8877 0.887742 12.8877L7.38424 12.8877C7.70674 12.8877 7.93712 12.7056 8.07537 12.4323C9.41162 9.5178 12.3604 7.55953 15.7236 7.55953C20.3771 7.55953 24.1552 11.2938 24.1552 15.8934C24.1552 20.4929 20.3771 24.2272 15.7236 24.2272C12.3141 24.2272 9.41149 22.2234 8.07537 19.3999C7.93712 19.0812 7.70674 18.899 7.38412 18.899L0.887992 18.899C0.473242 18.899 0.104617 19.2177 0.104617 19.6732C0.104617 19.7187 0.104617 19.8098 0.150742 19.8554C1.94762 26.7774 8.25974 31.8779 15.7699 31.8779C24.6622 31.8779 31.8959 24.728 31.8959 15.9389C31.8957 7.14972 24.662 2.92845e-07 15.7697 1.86806e-07C8.25974 9.72504e-08 1.94749 5.10051 0.150617 11.9315Z" fill="black"/>
</g>
<defs>
<clipPath id="clip0_13465_4963">
<rect width="32" height="32" fill="white"/>
</clipPath>
</defs>
</svg>
