<svg width="64" height="43" viewBox="0 0 64 43" fill="none" xmlns="http://www.w3.org/2000/svg">
<path d="M53.9 5.80738C59.5312 9.05825 62.5431 13.2486 62.9356 17.5045C62.9944 18.1423 62.9944 18.7816 62.9356 19.4194C62.5431 23.6753 59.5312 27.8657 53.9 31.1166C41.7938 38.1055 22.1657 38.1055 10.0594 31.1166C4.08034 27.6648 1.05423 23.1539 0.981095 18.63C0.980026 18.5639 0.979588 18.4978 0.979781 18.4316C0.993116 13.8617 4.01966 9.29414 10.0594 5.80738C22.1657 -1.18156 41.7938 -1.18156 53.9 5.80738Z" fill="white" style="fill:white;fill-opacity:1;"/>
<path fill-rule="evenodd" clip-rule="evenodd" d="M53.9012 37.1165C41.7949 44.1054 22.1668 44.1054 10.0606 37.1165C4.43484 33.8687 1.42337 29.6833 1.02615 25.4316L0.981095 18.63C1.05423 23.1539 4.08034 27.6648 10.0594 31.1166C22.1657 38.1055 41.7938 38.1055 53.9 31.1166C59.5312 27.8657 62.5431 23.6753 62.9356 19.4194V25.4316C62.5384 29.6833 59.5269 33.8687 53.9012 37.1165Z" fill="white" style="fill:white;fill-opacity:1;"/>
<path d="M62.9356 17.5045C62.5431 13.2486 59.5312 9.05825 53.9 5.80738C41.7938 -1.18156 22.1657 -1.18156 10.0594 5.80738C4.01966 9.29414 0.993116 13.8617 0.979781 18.4316M62.9356 17.5045C62.9944 18.1423 62.9944 18.7816 62.9356 19.4194M62.9356 17.5045V19.4194M62.9356 19.4194C62.5431 23.6753 59.5312 27.8657 53.9 31.1166C41.7938 38.1055 22.1657 38.1055 10.0594 31.1166C4.08034 27.6648 1.05423 23.1539 0.981095 18.63M62.9356 19.4194V25.4316C62.5384 29.6833 59.5269 33.8687 53.9012 37.1165C41.7949 44.1054 22.1668 44.1054 10.0606 37.1165C4.43484 33.8687 1.42337 29.6833 1.02615 25.4316L0.981095 18.63M0.981095 18.63C0.980026 18.5639 0.979588 18.4978 0.979781 18.4316M0.981095 18.63L0.979781 18.4316" stroke="black" style="stroke:black;stroke-opacity:1;" stroke-width="1.6"/>
</svg>
