<svg width="72" height="72" viewBox="0 0 72 72" fill="none" xmlns="http://www.w3.org/2000/svg">
<path fill-rule="evenodd" clip-rule="evenodd" d="M36.7393 19.6407C39.5677 19.1127 41.8862 20.1548 43.6476 21.3731C44.9769 22.2792 46.0994 23.4568 46.9405 24.8282L46.9737 24.8838L47.005 24.9414C47.9333 26.6237 48.183 28.5975 47.7032 30.458C47.3746 31.7916 46.9089 33.0898 46.3136 34.3272C46.9951 34.3029 47.6706 34.4631 48.2686 34.791C48.8666 35.119 49.3651 35.6027 49.711 36.1905C50.375 37.2986 50.5662 38.6267 50.2403 39.875L50.0538 40.5928C49.3486 43.2985 47.8343 45.7251 45.714 47.5479C44.8822 48.2587 43.9496 49.0074 42.8497 49.6426L42.8116 49.666C42.2589 49.985 41.5955 50.3692 40.8888 50.7061C39.2527 51.5337 37.486 52.0768 35.6671 52.3106C34.4928 52.4632 33.307 52.5238 32.1231 52.4922H32.0987C29.5703 52.4006 27.1378 51.4992 25.1602 49.9209L25.1436 49.9073L25.128 49.8936C23.141 48.2586 21.7869 45.9802 21.3018 43.4532C20.9533 41.7425 20.9064 39.9838 21.1622 38.2569C21.5349 35.7299 22.3555 33.2897 23.5851 31.0508C24.5256 29.2562 25.6458 27.5613 26.9288 25.9932C28.3236 24.2899 29.9748 22.8139 31.8233 21.6182C33.3148 20.6475 34.9815 19.9767 36.7296 19.6436H36.7354L36.7393 19.6407ZM42.047 23.7051C40.6074 22.7069 39.0579 22.0851 37.2608 22.4219C35.8734 22.6862 34.5509 23.2187 33.3673 23.9893C31.7637 25.0262 30.3309 26.3066 29.1212 27.7842C27.9533 29.2112 26.9337 30.7537 26.0792 32.3877C25.0039 34.3381 24.287 36.4657 23.962 38.669C23.7533 40.0765 23.7932 41.5095 24.0792 42.9034C24.4374 44.7885 25.4451 46.4889 26.9268 47.708C28.4305 48.9079 30.2797 49.5934 32.2022 49.6631C33.2393 49.6917 34.2771 49.6387 35.3058 49.5039C36.8179 49.3111 38.2855 48.8584 39.6436 48.166C40.2569 47.8759 40.8485 47.533 41.4356 47.1934C42.31 46.6888 43.0877 46.0711 43.8741 45.3975C45.5561 43.9506 46.7576 42.0258 47.3175 39.8789L47.5059 39.1612C47.6393 38.6484 47.5607 38.101 47.2872 37.6446C47.1975 37.498 47.0727 37.3759 46.9239 37.2901C46.7752 37.2043 46.6072 37.1576 46.4356 37.1534C46.2639 37.1491 46.0934 37.1873 45.9405 37.2657C45.7878 37.344 45.6574 37.4598 45.5606 37.6016C44.7604 38.7579 43.9022 39.8705 42.8683 40.8467C42.134 41.4833 41.3648 42.076 40.5645 42.626C38.4664 43.9528 36.0066 44.5897 33.5304 44.4522C32.8842 44.4229 32.2673 44.1724 31.7833 43.7432C31.2994 43.314 30.9775 42.7317 30.8712 42.0938C30.678 41.0884 30.6451 40.0586 30.7745 39.043C30.9042 37.7215 31.2853 36.4366 31.8966 35.2578C32.8727 33.2088 34.0816 31.2783 35.4981 29.5049C36.199 28.6606 36.9394 27.8495 37.7169 27.0752C38.1569 26.5944 38.7325 26.2574 39.3673 26.1094C39.4546 26.156 39.532 26.2205 39.5938 26.2979C39.6555 26.3751 39.7005 26.4643 39.7267 26.5596C39.7529 26.655 39.7598 26.7546 39.7462 26.8526C39.7326 26.9506 39.6988 27.0452 39.6476 27.1299L39.3067 27.9043C38.8627 28.9093 38.4195 29.9139 38.0235 30.9395C37.5423 31.9803 37.3568 33.1343 37.4874 34.2754C37.6656 35.0707 38.0499 35.8055 38.6007 36.4063C39.1515 37.007 39.8502 37.4528 40.627 37.6992C40.889 37.7906 41.1769 37.7747 41.4268 37.6543C41.6766 37.534 41.8681 37.3192 41.9601 37.0576C42.411 36.0801 42.8527 35.0994 43.294 34.1192L43.6007 33.4356C44.1939 32.2683 44.6508 31.0365 44.962 29.7647C45.2672 28.6002 45.1118 27.3612 44.5304 26.3067C43.8963 25.2734 43.0497 24.3865 42.047 23.7051Z" fill="white" style="fill:white;fill-opacity:1;"/>
</svg>
