<svg width="32" height="32" viewBox="0 0 32 32" fill="none" xmlns="http://www.w3.org/2000/svg">
<path d="M0.966309 4.13261C0.966309 4.21768 1.58592 5.4937 1.65968 5.55875C1.67443 5.57376 1.73836 5.67384 1.80229 5.78393C1.86621 5.89402 1.9744 6.03913 2.03341 6.10919C2.09734 6.17925 2.14651 6.2493 2.14651 6.26431C2.14651 6.27933 2.19077 6.34938 2.24978 6.41443C2.30387 6.47949 2.46615 6.66964 2.60384 6.83477C3.2382 7.58537 4.15286 8.45607 5.12161 9.22669C5.15112 9.2467 5.22488 9.30675 5.28881 9.36179C5.35273 9.41684 5.42158 9.46187 5.43633 9.46187C5.45108 9.46187 5.52485 9.51191 5.58877 9.57196C5.7658 9.73209 5.94284 9.85719 6.87225 10.4877C7.73281 11.0682 7.74756 11.0832 8.09671 11.2933C8.21965 11.3684 8.3475 11.4635 8.38192 11.4985C8.41635 11.5335 8.47044 11.5636 8.49503 11.5636C8.52945 11.5636 9.02612 11.8488 9.27691 12.0139C9.31625 12.0439 9.40477 12.094 9.47361 12.124C9.65064 12.2141 10.6341 12.8196 10.9243 13.0197C11.7603 13.5902 12.8175 14.566 13.1372 15.0513C13.2699 15.2565 13.3585 15.3216 13.3585 15.2115C13.3585 15.1464 13.1568 14.7711 13.0782 14.676C13.0437 14.641 13.0142 14.586 13.0142 14.561C13.0142 14.5059 12.7192 14.0155 12.6307 13.9204C12.5962 13.8804 12.5274 13.7903 12.4831 13.7203C12.3504 13.5151 12.1881 13.33 11.6865 12.8146C11.0816 12.2041 11.0128 12.149 10.1621 11.5035C9.76866 11.2083 9.42935 10.9481 9.39985 10.923C9.37526 10.903 9.26216 10.828 9.15397 10.7629C9.04579 10.6979 8.94744 10.6278 8.93269 10.6128C8.91793 10.5978 8.81958 10.5277 8.7114 10.4627C8.60321 10.3976 8.29341 10.1975 8.02294 10.0173C7.4771 9.65203 7.38367 9.59198 7.22631 9.50691C7.16238 9.47188 7.1132 9.42685 7.1132 9.40183C7.1132 9.38181 7.08862 9.36179 7.06403 9.36179C7.03452 9.36179 6.9165 9.29174 6.8034 9.20667C6.61162 9.06656 6.02152 8.64122 5.8199 8.50111C5.7658 8.46608 5.68221 8.39602 5.62811 8.34598C5.5691 8.30094 5.51009 8.26091 5.49534 8.26091C5.48059 8.26091 5.41174 8.21087 5.3429 8.14582C5.27405 8.08577 5.08227 7.92564 4.91507 7.79554C4.74788 7.66544 4.58068 7.53033 4.54626 7.4953C4.51184 7.46027 4.35939 7.33517 4.21187 7.21508C3.57751 6.70967 1.4138 4.59798 1.19743 4.27272C1.104 4.13261 0.966309 4.04754 0.966309 4.13261Z" fill="black"/>
<path d="M5.57912 5.03792C5.53978 5.07795 5.59387 5.2581 5.64305 5.2581C5.66763 5.2581 5.6873 5.28312 5.6873 5.31814C5.6873 5.3932 6.04136 6.11378 6.12004 6.19885C6.14955 6.23388 6.17905 6.28392 6.17905 6.30894C6.17905 6.37399 6.60196 6.99449 6.8085 7.22967C7.30025 7.79012 8.19524 8.6358 8.53946 8.86598C8.60831 8.91102 8.73125 9.0111 8.80993 9.08116C8.89352 9.15622 9.04597 9.27631 9.15415 9.35137C9.26234 9.42643 9.39511 9.52651 9.44428 9.57155C9.49838 9.62159 9.63115 9.72167 9.73934 9.79673C9.85244 9.87679 9.98521 9.97687 10.0344 10.0219C10.0885 10.0719 10.2213 10.172 10.3294 10.2471C10.4425 10.3221 10.5409 10.3972 10.5556 10.4122C10.5704 10.4272 10.7376 10.5623 10.9245 10.7125C11.1162 10.8626 11.2933 11.0077 11.3228 11.0377C11.3523 11.0627 11.549 11.2429 11.7604 11.438C12.4784 12.0936 13.0292 12.7041 13.3635 13.2145C13.6881 13.7149 13.816 13.935 14.1061 14.5055C14.2585 14.8157 14.4847 15.2261 14.5978 15.4212C14.7159 15.6164 14.8634 15.8666 14.9273 15.9817C14.9912 16.0968 15.0748 16.2219 15.1142 16.2569C15.1486 16.2919 15.1781 16.347 15.1781 16.372C15.1781 16.397 15.2027 16.4471 15.2273 16.4821C15.2568 16.5171 15.4879 16.8674 15.7485 17.2677C16.5796 18.5487 17.7205 19.5696 18.8417 20.0249C19.3728 20.2401 20.4841 20.3252 21.9397 20.2601C22.9527 20.2201 24.1132 20.2501 24.3149 20.3252C24.3788 20.3502 24.5214 20.3702 24.6345 20.3702C24.7476 20.3752 24.9295 20.4052 25.0377 20.4453C25.1459 20.4853 25.2787 20.5203 25.3328 20.5203C25.3869 20.5203 25.4951 20.5553 25.5737 20.5954C25.6475 20.6354 25.7459 20.6704 25.7852 20.6704C25.8639 20.6704 26.1343 20.7905 26.7589 21.1008C27.6588 21.5561 28.3866 22.0966 29.1537 22.8822C29.6651 23.4076 29.6848 23.4226 29.7143 23.2925C29.7536 23.1374 29.7045 22.607 29.6405 22.4869C29.6159 22.4368 29.5422 22.2817 29.4782 22.1466C29.3553 21.8664 29.1242 21.5311 28.78 21.1258C28.6472 20.9607 28.5538 20.8005 28.5538 20.7305C28.5538 20.5253 28.362 20.2051 28.1358 20.0349C27.8506 19.8198 26.9752 19.3694 26.8425 19.3694C26.8179 19.3694 26.7294 19.3344 26.6556 19.2943C26.5769 19.2543 26.4736 19.2193 26.4245 19.2193C26.3802 19.2193 26.3015 19.1993 26.2524 19.1742C26.2081 19.1492 26.0016 19.0792 25.7999 19.0191C25.1262 18.8139 24.6935 18.6588 24.5411 18.5637C24.3788 18.4637 24.2263 18.2035 24.2263 18.0283C24.2263 17.8982 24.4132 17.3077 24.4722 17.2477C24.5017 17.2177 24.5214 17.1626 24.5214 17.1226C24.5214 17.0776 24.5509 16.9825 24.5902 16.9074C24.6296 16.8374 24.6837 16.6172 24.7181 16.422C24.8804 15.4513 24.364 14.8308 22.7019 13.9851C22.4806 13.875 22.0774 13.6898 21.8905 13.6098C21.8364 13.5898 21.6889 13.5247 21.561 13.4697C21.4332 13.4096 21.2955 13.3646 21.2562 13.3646C21.2168 13.3646 21.1676 13.3396 21.1529 13.3145C21.1381 13.2845 21.089 13.2645 21.0447 13.2645C21.0054 13.2645 20.9021 13.2345 20.8185 13.1944C20.73 13.1544 20.3071 13.0043 19.8743 12.8642C19.4416 12.7191 19.0531 12.584 19.0089 12.5639C18.9646 12.5389 18.8417 12.5039 18.7384 12.4839C18.6302 12.4689 18.5269 12.4338 18.4974 12.4138C18.4728 12.3938 18.3696 12.3588 18.2761 12.3438C18.1827 12.3238 18.0598 12.2887 18.0057 12.2637C17.9516 12.2437 17.809 12.1987 17.686 12.1636C17.5631 12.1336 17.3762 12.0836 17.2681 12.0585C17.1599 12.0285 17.0271 11.9835 16.973 11.9635C16.9189 11.9384 16.796 11.9034 16.7025 11.8834C16.6091 11.8684 16.5009 11.8334 16.4567 11.8133C16.4173 11.7933 16.2157 11.7233 16.0141 11.6632C15.8125 11.6032 15.6109 11.5381 15.5715 11.5181C15.5273 11.4931 15.4191 11.4581 15.3256 11.438C15.2322 11.418 15.1339 11.388 15.1043 11.368C15.0798 11.348 14.888 11.2779 14.6864 11.2129C14.4847 11.1528 14.2979 11.0828 14.2684 11.0627C14.2438 11.0427 14.0766 10.9777 13.8996 10.9126C13.7225 10.8476 13.5602 10.7775 13.5357 10.7525C13.5062 10.7325 13.457 10.7125 13.4176 10.7125C13.3193 10.7125 12.857 10.4973 11.6867 9.91682C10.8654 9.5065 10.1082 9.08616 9.94095 8.95105C9.91637 8.93104 9.71475 8.79593 9.49838 8.65081C9.28201 8.50569 9.08531 8.37059 9.0558 8.35057C9.03121 8.33055 8.80009 8.15541 8.54438 7.96026C7.65431 7.28472 6.361 6.0187 5.81516 5.28312C5.71189 5.143 5.62337 5.02791 5.61846 5.0179C5.60862 5.0129 5.59387 5.02291 5.57912 5.03792ZM27.5703 20.2001C28.0718 20.3702 28.2341 20.5003 28.3521 20.8055C28.4702 21.1008 28.2735 21.1708 28.0325 20.9156C27.9538 20.8306 27.8112 20.7155 27.7178 20.6554C27.6243 20.5954 27.5162 20.5203 27.4817 20.4853C27.4473 20.4503 27.3883 20.4202 27.349 20.4202C27.285 20.4202 27.226 20.3151 27.226 20.19C27.226 20.1 27.2949 20.1 27.5703 20.2001ZM2.04834 8.19044C2.04834 8.24549 2.46633 9.08616 2.54009 9.17623C2.5696 9.21126 2.67286 9.34637 2.77121 9.48648C3.13019 9.97687 3.69079 10.5623 4.43825 11.2129C4.62512 11.378 5.13654 11.7683 5.29882 11.8734C5.36766 11.9184 5.45618 11.9885 5.49552 12.0235C5.53486 12.0635 5.65288 12.1486 5.76107 12.2137C5.86925 12.2787 5.9676 12.3488 5.98235 12.3638C6.01186 12.4038 7.46253 13.2795 7.92477 13.5397C8.28867 13.7499 8.68207 13.9501 10.0639 14.6356C10.8753 15.0409 11.0277 15.121 11.6227 15.4863C12.0702 15.7615 12.7882 16.332 13.1472 16.6973C13.3488 16.9024 13.5209 17.0675 13.5307 17.0675C13.5455 17.0675 13.5258 17.0125 13.4963 16.9424C13.4668 16.8724 13.4226 16.8173 13.398 16.8173C13.3783 16.8173 13.3586 16.7873 13.3586 16.7523C13.3586 16.7123 13.3144 16.6272 13.2603 16.5621C13.2062 16.4971 13.1472 16.417 13.1275 16.392C12.7685 15.9116 12.4735 15.6214 11.5687 14.8408C11.4457 14.7307 10.6343 14.1702 10.2557 13.93C9.95571 13.7349 9.35085 13.3896 8.73616 13.0543C8.58864 12.9693 8.44603 12.8842 8.41652 12.8642C8.37227 12.8292 8.16081 12.7141 7.45761 12.3238C7.01503 12.0836 5.89384 11.378 5.71189 11.2279C5.6873 11.2029 5.5742 11.1278 5.46601 11.0627C5.35783 10.9977 5.24964 10.9226 5.22014 10.9026C5.19555 10.8826 4.93 10.6824 4.63004 10.4573C4.33499 10.2321 4.07927 10.0319 4.06452 10.0169C4.04977 9.99689 3.93175 9.89681 3.79406 9.79172C3.51868 9.58156 3.16462 9.25129 2.50567 8.59076C2.25488 8.34056 2.04834 8.16042 2.04834 8.19044ZM7.63464 17.1526C7.58546 17.2027 8.41161 17.9833 8.95745 18.3986C9.22791 18.6038 9.47379 18.7889 9.49838 18.8089C9.62623 18.909 10.0688 19.1692 10.1081 19.1692C10.1327 19.1692 10.1868 19.1993 10.2213 19.2293C10.2557 19.2643 10.3639 19.3294 10.4573 19.3794C11.1113 19.6947 11.3916 19.8198 11.4605 19.8198C11.4998 19.8198 11.5441 19.8398 11.5588 19.8598C11.5982 19.9248 13.1472 20.4202 13.3193 20.4202C13.3685 20.4202 13.4471 20.4402 13.4963 20.4703C13.5406 20.4953 13.6783 20.5403 13.8012 20.5653C14.229 20.6604 14.4651 20.7205 14.5634 20.7655C14.6175 20.7905 14.829 20.8606 15.0306 20.9256C15.2322 20.9907 15.4191 21.0557 15.4486 21.0808C15.4732 21.1008 15.5223 21.1208 15.5617 21.1208C15.601 21.1208 15.6994 21.1508 15.783 21.1908C16.5894 21.5461 16.8058 21.6312 16.8353 21.6062C16.8501 21.5862 16.8009 21.5211 16.7222 21.4611C16.5993 21.361 16.3829 21.1658 15.9157 20.7205C15.842 20.6504 15.7092 20.5303 15.6207 20.4503C15.3748 20.2351 14.3421 19.4545 14.1208 19.3194C14.0127 19.2543 13.9143 19.1842 13.8996 19.1692C13.8848 19.1492 13.8405 19.1192 13.8012 19.0992C13.7619 19.0792 13.5947 18.9891 13.4324 18.894C13.1275 18.7139 12.503 18.3986 12.1538 18.2485C12.0457 18.2035 11.9227 18.1434 11.8834 18.1234C11.8391 18.0984 11.7358 18.0633 11.6473 18.0483C11.5637 18.0283 11.4801 17.9883 11.4654 17.9633C11.4457 17.9382 11.3867 17.9182 11.3277 17.9182C11.2195 17.9232 11.2195 17.9232 11.3179 17.9783C11.372 18.0083 11.426 18.0483 11.4408 18.0683C11.4555 18.0834 11.5637 18.1584 11.6867 18.2335C11.9473 18.3886 12.4243 18.819 12.4243 18.899C12.4243 18.929 12.3899 18.9841 12.3505 19.0191C12.2915 19.0692 12.1489 19.0641 11.6375 18.9991C11.2834 18.9541 10.9441 18.894 10.8851 18.869C10.8261 18.849 10.654 18.7889 10.5065 18.7439C9.73934 18.5087 8.19524 17.638 7.74774 17.1926C7.70348 17.1526 7.65431 17.1326 7.63464 17.1526Z" fill="black"/>
<path d="M16.0385 19.7355C16.9581 20.5962 19.3136 23.0431 19.4611 23.2833C19.5201 23.3734 19.4513 23.4735 19.3382 23.4735C19.2841 23.4685 19.1464 23.4284 19.0382 23.3734C18.93 23.3184 18.8268 23.2783 18.8071 23.2733C18.7432 23.2733 18.2563 22.9581 18.1285 22.838C17.981 22.6979 17.9023 22.6878 17.9908 22.818C18.1334 23.0281 18.8464 23.7437 19.2939 24.134C19.4955 24.3091 20.0316 24.6844 20.2135 24.7745C20.5086 24.9246 20.5381 24.9497 20.5381 25.0447C20.5381 25.1298 20.5135 25.1348 20.2676 25.1048C20.1201 25.0898 19.9971 25.0898 19.9971 25.1148C19.9971 25.1498 20.2873 25.2949 20.6364 25.43C20.8921 25.5351 21.6052 25.5201 21.8068 25.41C21.8953 25.36 22.0182 25.325 22.0723 25.335C22.1805 25.35 22.1903 25.365 22.3428 25.7003C22.5297 26.1106 22.9624 26.676 23.0853 26.676C23.1099 26.676 23.1591 26.7061 23.1886 26.7461C23.2476 26.8162 23.9213 27.0013 23.9606 26.9613C23.9754 26.9463 23.882 26.8562 23.759 26.7561C23.4148 26.4909 23.2476 26.2407 23.2427 25.9955C23.2427 25.7303 23.3509 25.5151 23.5771 25.335C23.9066 25.0798 24.1082 25.0097 24.5901 25.0047C24.9835 25.0047 25.0622 25.0147 25.2343 25.1248C25.3425 25.1899 25.4605 25.2799 25.4949 25.325C25.5883 25.4401 25.7506 25.8204 25.7506 25.9304C25.7506 26.1006 25.8441 26.0305 25.8785 25.8354C25.9473 25.4551 25.9277 25.0447 25.8342 24.9346C25.7015 24.7845 25.3425 24.6895 24.7917 24.6494C23.8525 24.5894 23.3755 24.4292 22.9526 24.0389C22.5149 23.6386 22.5346 23.5936 23.1591 23.5635C23.6017 23.5385 23.9803 23.4585 24.3 23.3234C24.3541 23.2983 24.5114 23.2283 24.6442 23.1732C24.7819 23.1132 25.0671 22.9781 25.2835 22.873C26.1096 22.4727 26.6161 22.3526 27.4619 22.3526C28.0766 22.3526 28.2389 22.3176 28.0127 22.2475C27.9586 22.2325 27.9143 22.1925 27.9143 22.1674C27.9143 22.1424 27.8947 22.1224 27.8701 22.1224C27.8307 22.1224 27.4078 21.8622 27.2456 21.7371C27.1718 21.677 26.8964 21.5269 26.5128 21.3368C26.326 21.2417 26.1293 21.1416 26.085 21.1166C26.0358 21.0916 25.9768 21.0716 25.9522 21.0716C25.9277 21.0716 25.8441 21.0465 25.7654 21.0115C25.5638 20.9264 25.2343 20.8314 24.8409 20.7363C24.3393 20.6162 22.4559 20.6212 21.6199 20.7363C20.3758 20.9114 20.1594 20.9314 19.5791 20.9064C18.9841 20.8814 18.7678 20.8414 18.1777 20.6612C17.8187 20.5511 17.7547 20.5261 17.4351 20.376C17.3122 20.321 17.1942 20.2709 17.1794 20.2709C17.1597 20.2709 17.0024 20.1808 16.8253 20.0708C16.6483 19.9607 16.4909 19.8706 16.4811 19.8706C16.4565 19.8706 16.0434 19.5854 15.7877 19.3852C15.4533 19.13 15.5763 19.3001 16.0385 19.7355Z" fill="black"/>
</svg>
