<svg width="24" height="24" viewBox="0 0 24 24" fill="none" xmlns="http://www.w3.org/2000/svg">
<g clip-path="url(#clip0_21045_21242)">
<path d="M3.68654 4.15649L2.08984 4.955L2.08984 18.9694L3.68654 19.7633L3.69614 19.7518L3.69614 4.16749L3.68654 4.15649Z" fill="black" stroke="black" stroke-width="0.5"/>
<path d="M12.2327 17.7297L3.6875 19.7638L3.6875 4.15698L12.2327 6.14674L12.2327 17.7297Z" fill="white" stroke="black" stroke-width="0.5"/>
<path d="M8.375 14.5444L11.9996 15.0058L12.0224 14.9533L12.0427 9.00983L11.9996 8.96338L8.375 9.41814V14.5444Z" fill="white" stroke="black" stroke-width="0.5"/>
<path d="M12 17.7525L20.3126 19.7681L20.3257 19.7473L20.3254 4.17092L20.3123 4.15698L12 6.16958L12 17.7525Z" stroke="black" stroke-width="0.5"/>
<path d="M15.6256 14.5461L12 15.0075V8.96509L15.6256 9.41985V14.5461Z" fill="black" stroke="black" stroke-width="0.5"/>
<path d="M15.6252 6.93933L11.9996 7.6001L8.375 6.93933L11.9951 5.99048L15.6252 6.93933Z" fill="white" stroke="black" stroke-width="0.5"/>
<path d="M15.6252 17.0167L11.9996 16.3516L8.375 17.0167L11.9952 18.0272L15.6252 17.0167Z" fill="white" stroke="black" stroke-width="0.5"/>
<path d="M8.375 6.93917L11.9996 6.04219L12.029 6.03313V0.0242323L11.9996 0L8.375 1.81262V6.93917Z" fill="white" stroke="black" stroke-width="0.5"/>
<path d="M15.6256 6.94064L12 6.04366V0.00146484L15.6256 1.81408V6.94064Z" fill="black" stroke="black" stroke-width="0.5"/>
<path d="M12 23.9573L8.375 22.1453V17.0188L12 17.9155L12.0533 17.9761L12.0389 23.8527L12 23.9573Z" fill="white" stroke="black" stroke-width="0.5"/>
<path d="M12 23.9563L15.6253 22.1443V17.0178L12 17.9145V23.9563Z" fill="black" stroke="black" stroke-width="0.5"/>
<path d="M20.3125 4.15698L21.9099 4.95549V18.9699L20.3125 19.7681V4.15698Z" fill="black" stroke="black" stroke-width="0.5"/>
</g>
<defs>
<clipPath id="clip0_21045_21242">
<rect width="24" height="24" fill="white"/>
</clipPath>
</defs>
</svg>
