<svg width="32" height="32" viewBox="0 0 32 32" fill="none" xmlns="http://www.w3.org/2000/svg">
<g clip-path="url(#clip0_13465_5103)">
<path d="M29.5977 8.25596L29.0666 7.9529L15.7063 0.233399L2.20508 8.03399L2.20508 23.5647L2.39197 23.6696L15.712 31.3302L28.6345 23.8973L29.4051 23.4542L29.4051 14.8019L28.6345 15.245L22.468 18.7918L22.468 12.3507L29.5919 8.25514L29.5977 8.25514L29.5977 8.25596ZM16.1145 9.11909L21.6975 12.3516L21.6975 18.7984L16.1145 15.5717L16.1145 9.11909ZM15.303 1.35947L15.303 8.23215L9.33477 11.6858L3.36167 8.25596L15.303 1.35947ZM15.303 9.11909L15.303 15.5717L9.72003 18.7984L9.72003 12.3516L15.303 9.11909ZM2.97559 8.92093L8.94957 12.3516L8.94957 19.2415L2.97559 22.695L2.97559 8.92093ZM3.37888 23.3551L9.33477 19.9073L15.3145 23.3494L15.326 30.2221L3.37888 23.3543L3.37888 23.3551ZM15.7063 22.6787L15.7005 22.6787L10.1004 19.4642L15.6834 16.2375L15.7063 16.249L15.7301 16.2375L21.3122 19.4642L20.6696 19.8319L15.712 22.6852L15.7063 22.6852L15.7063 22.6795L15.7063 22.6787ZM22.854 19.4642L28.6353 16.1327L28.6353 23.0054L28.0395 23.3494L16.0916 30.2164L16.103 23.3436L22.8532 19.4577L22.8532 19.4634L22.854 19.4642ZM22.0836 11.6874L16.1153 8.23379L16.1153 1.35947L28.0567 8.25596L22.0827 11.6866L22.0836 11.6874Z" fill="black"/>
<path d="M15.7053 31.5693L2 23.6868L2 7.91687L15.7053 1.63434e-07L30 8.2551L22.6711 12.4736L22.6711 18.4479L29.6082 14.4571L29.6082 23.582L15.7045 31.575L15.7045 31.5693L15.7053 31.5693ZM2.40903 23.4477L2.491 23.4943L15.7119 31.0967L29.2074 23.3371L29.2074 15.1573L22.2703 19.1481L22.2703 12.2344L29.1902 8.2551L15.7053 0.47254L2.40903 8.15602L2.40903 23.4477ZM15.5307 30.5767L2.9697 23.3543L9.33468 19.6731L15.5184 23.2323L15.5299 30.5775L15.5307 30.5767ZM3.78693 23.3543L15.1217 29.8716L15.1102 23.4714L9.33467 20.1522L3.78693 23.3608L3.78693 23.3551L3.78693 23.3543ZM15.8865 30.5775L15.8979 23.2323L28.8385 15.7822L28.8385 23.1274L28.1377 23.5296L15.8865 30.5775ZM16.307 23.4657L16.2955 29.8659L28.4303 22.8883L28.4303 16.4824L16.3078 23.4599L16.3078 23.4657L16.307 23.4657ZM2.77133 23.0513L2.77133 8.57041L9.15348 12.2402L9.15348 19.3635L2.77052 23.057L2.77052 23.0513L2.77133 23.0513ZM3.17954 9.27636L3.17954 22.3453L8.74445 19.1252L8.74445 12.4744L3.17954 9.27636ZM15.6996 22.917L9.69041 19.4634L15.6816 16.0041L21.7194 19.4634L15.7168 22.917L15.6996 22.917ZM10.5142 19.4634L15.711 22.451L20.908 19.4634L15.7053 16.4643L10.5142 19.4634ZM21.9014 19.1547L15.9102 15.6946L15.9102 8.76863L21.9014 12.2344L21.9014 19.1538L21.9014 19.1547ZM16.3184 15.4554L21.4924 18.4421L21.4924 12.4678L16.3184 9.47453L16.3184 15.4546L16.3184 15.4554ZM9.5158 19.1547L9.5158 12.2353L15.507 8.76946L15.507 15.6946L9.5158 19.1547ZM9.92484 12.4687L9.92484 18.443L15.0988 15.4562L15.0988 9.47453L9.92484 12.4678L9.92484 12.4687ZM22.0826 11.9265L15.9102 8.35582L15.9102 1.00323L28.4655 8.2551L22.0826 11.9249L22.0826 11.9265ZM16.3193 8.11674L22.0826 11.454L27.6475 8.25674L16.3184 1.7149L16.3184 8.11509L16.3193 8.11674ZM9.33544 11.9265L2.95167 8.2551L15.507 1.00323L15.507 8.3485L9.33468 11.9191L9.33468 11.9249L9.33544 11.9265ZM3.76972 8.2551L9.33468 11.4523L15.0979 8.11509L15.0979 1.7149L3.76972 8.2551Z" fill="black"/>
</g>
<defs>
<clipPath id="clip0_13465_5103">
<rect width="32.0005" height="32" fill="white"/>
</clipPath>
</defs>
</svg>
