<svg width="72" height="72" viewBox="0 0 72 72" fill="none" xmlns="http://www.w3.org/2000/svg">
<path d="M45.3159 32.1979L55 26.719L36.112 16L18 26.2799V46.7589L36.112 56.9935V57L54.4837 46.62V34.7711L45.3159 39.953V32.1946V32.1979ZM51.8925 26.7221L44.5399 30.8741L36.9242 26.5414V18.2277L51.8925 26.7221ZM36.9209 36.0689V28.3042L43.7573 32.1914V39.9497L36.9209 36.0722V36.0689ZM42.978 41.2735L36.112 45.1446H36.1054V45.151L29.246 41.2735L36.1054 37.3798L42.9813 41.2735H42.978ZM35.3392 54.7917L20.3676 46.3327L27.6906 42.1711L35.3228 46.4812L35.3392 54.7917ZM35.2998 28.3042V36.0689L28.4633 39.9465V32.1882L35.2998 28.301V28.3042ZM20.338 26.7221L35.3096 18.2277V26.5381L27.6939 30.871L20.3413 26.719L20.338 26.7221ZM26.9146 32.1979V40.8344L19.5619 45.0154V28.0459L26.9146 32.1979ZM36.8913 54.7819L36.9077 46.4716V46.4651L52.9284 37.4023V45.7225L36.8946 54.7852L36.8913 54.7819Z" fill="white" style="fill:white;fill-opacity:1;"/>
</svg>
