<svg width="32" height="32" viewBox="0 0 32 32" fill="none" xmlns="http://www.w3.org/2000/svg">
<g clip-path="url(#clip0_13465_5019)">
<path fill-rule="evenodd" clip-rule="evenodd" d="M26.1288 22.011L23.4573 20.3099L21.2287 23.9037L18.6368 23.172L16.3546 26.5349L16.4716 27.5934L28.8802 25.3862L28.1594 17.9013L26.1288 22.011ZM14.5568 18.7839L16.5477 18.5197C16.8698 18.6594 17.094 18.7126 17.4803 18.8075C18.0818 18.9588 18.7782 19.104 19.8094 18.6022C20.0494 18.4874 20.5493 18.0461 20.7514 17.7945L28.9083 16.366L29.7404 26.0885L15.7662 28.5198L14.5568 18.7839ZM29.7089 15.2806L28.9038 15.4287L27.3569 3.14303e-07L1 2.95049L4.24708 28.3891L7.33217 27.9569C7.0858 27.6173 6.70218 27.2064 6.04706 26.6804C5.13845 25.9516 5.45982 24.7139 5.99569 23.9323C6.7048 22.6116 10.3584 20.9333 10.1514 18.8223C10.0771 18.0548 9.95076 17.0556 9.21277 16.3711C9.18502 16.6552 9.2349 16.9289 9.2349 16.9289C9.2349 16.9289 8.9319 16.5557 8.78078 16.0467C8.63078 15.8516 8.51303 15.7893 8.35366 15.5286C8.24003 15.8302 8.25503 16.1799 8.25503 16.1799C8.25503 16.1799 8.00716 15.6144 7.96704 15.1373C7.82004 15.3509 7.78291 15.7567 7.78291 15.7567C7.78291 15.7567 7.46079 14.8654 7.53429 14.3854C7.3873 13.9676 6.95155 13.1386 7.07492 11.2542C7.87929 11.7983 9.65002 11.6691 10.34 10.6873C10.5691 10.3622 10.7259 9.47451 10.2256 7.72558C9.90426 6.60403 9.10852 4.93402 8.7984 4.30048L8.76128 4.32618C8.92478 4.83663 9.2619 5.90677 9.39127 6.42555C9.78276 7.99927 9.88776 8.54701 9.70402 9.27251C9.54764 9.90315 9.17265 10.3159 8.22203 10.7771C7.27142 11.2397 6.00994 10.1138 5.93006 10.0516C5.00645 9.34129 4.29208 8.18245 4.21221 7.61951C4.12934 7.00334 4.58008 6.63335 4.80733 6.12942C4.48221 6.2192 4.11959 6.37849 4.11959 6.37849C4.11959 6.37849 4.55233 5.94623 5.08595 5.57226C5.30682 5.43107 5.43657 5.34129 5.66944 5.15449C5.33232 5.14906 5.05857 5.15847 5.05857 5.15847C5.05857 5.15847 5.62069 4.86523 6.20343 4.65164C5.77707 4.63354 5.36907 4.64874 5.36907 4.64874C5.36907 4.64874 6.62343 4.10716 7.61417 3.70965C8.29553 3.43995 8.96115 3.51959 9.33502 4.04163C9.82589 4.72549 10.3415 5.09693 11.4342 5.32717C12.1051 5.04009 12.3091 4.89238 13.1521 4.67083C13.8942 3.88306 14.477 3.78097 14.477 3.78097C14.477 3.78097 14.1878 4.03692 14.1106 4.43913C14.5313 4.1191 14.9926 3.85193 14.9926 3.85193C14.9926 3.85193 14.8141 4.0648 14.6476 4.40293L14.6862 4.45832C15.1771 4.17413 15.7542 3.95004 15.7542 3.95004C15.7542 3.95004 15.5892 4.15132 15.3957 4.41198C15.7658 4.40908 16.5166 4.42718 16.8079 4.45904C18.528 4.49561 18.885 2.68549 19.545 2.4585C20.3715 2.17359 20.7409 2.00127 22.1494 3.33677C23.358 4.4833 24.3022 6.53561 23.8335 6.99538C23.4405 7.37695 22.665 6.84659 21.8055 5.81229C21.3514 5.26454 21.0079 4.61725 20.847 3.79437C20.7113 3.10001 20.1829 2.69707 20.1829 2.69707C20.1829 2.69707 20.4896 3.35523 20.4896 3.93664C20.4896 4.25414 20.5309 5.44121 21.0581 6.10733C21.006 6.20472 20.9816 6.58919 20.9239 6.66268C20.3104 5.94696 18.993 5.4347 18.7782 5.28373C19.5053 5.85899 21.1766 7.18037 21.8186 8.44673C22.4257 9.6443 22.068 10.742 22.3751 11.0261C22.4625 11.1076 23.6808 12.5731 23.9152 13.3094C24.324 14.5928 23.9396 15.9413 23.4045 16.778L21.9101 17.0028C21.6915 16.9441 21.5441 16.9148 21.348 16.8051C21.456 16.6205 21.6709 16.16 21.6731 16.0651L21.5887 15.9222C21.1237 16.5582 20.3445 17.1758 19.6973 17.5306C18.8502 17.994 17.8737 17.9227 17.238 17.7326C15.4339 17.1954 13.7281 16.0184 13.3167 15.7093C13.3167 15.7093 13.304 15.9562 13.3816 16.0116C13.8365 16.5068 14.8786 17.4028 15.8858 18.0273L13.7386 18.2554L14.7537 25.8861C14.3037 25.9484 14.2336 25.9788 13.7408 26.0465C13.3066 24.5655 12.476 23.5985 11.5681 23.0352C10.7675 22.5385 9.66314 22.4266 8.60603 22.6286L8.53816 22.7047C9.27315 22.6308 10.1409 22.7336 11.0322 23.2785C11.9071 23.8125 12.6121 25.1918 12.8716 26.0222C13.2038 27.0837 13.4337 28.219 12.5394 29.4224C11.903 30.2778 10.0453 30.7506 8.54453 29.7279C8.9454 30.3502 9.48727 30.8592 10.2166 30.9552C11.2996 31.0971 12.3275 30.9157 13.0351 30.2145C13.6392 29.615 13.9595 28.3613 13.8751 27.041L14.831 26.907L15.1759 29.2768L31 27.4374L29.7089 15.2806ZM20.0816 8.84496C20.0374 8.94234 19.968 9.00606 20.0723 9.32283L20.0786 9.34093L20.0951 9.38184L20.1386 9.47669C20.3265 9.8474 20.5328 10.1971 20.8774 10.3756C20.9666 10.3611 21.0589 10.3513 21.1545 10.3466C21.4781 10.3329 21.6825 10.3825 21.8122 10.4498C21.8239 10.3875 21.8265 10.2963 21.8194 10.162C21.7942 9.69245 21.9157 8.89383 20.9809 8.47352C20.628 8.31532 20.133 8.36419 19.968 8.56149C19.998 8.56511 20.025 8.57127 20.046 8.57814C20.2954 8.6625 20.1263 8.7454 20.0816 8.84496ZM22.7017 13.2262C22.5791 13.161 22.0061 13.1867 21.6034 13.233C20.8361 13.3203 20.0078 13.5773 19.8263 13.7142C19.4963 13.9603 19.6463 14.3897 19.89 14.566C20.5736 15.0591 21.1729 15.3896 21.8055 15.3092C22.194 15.26 22.5364 14.6663 22.779 14.1276C22.9451 13.7565 22.9451 13.3561 22.7017 13.2262ZM15.9091 9.42637C16.1254 9.22798 14.8313 8.96732 13.8271 9.62837C13.0865 10.116 13.0628 11.1615 13.772 11.7542C13.8428 11.8128 13.9013 11.8545 13.9561 11.8885C14.1631 11.7944 14.399 11.6991 14.6705 11.6141C15.1291 11.4703 15.5104 11.3961 15.8239 11.3567C15.9739 11.1948 16.1483 10.9099 16.1048 10.3941C16.0456 9.69426 15.4962 9.8054 15.9091 9.42637Z" fill="black"/>
</g>
<defs>
<clipPath id="clip0_13465_5019">
<rect width="32" height="32" fill="white"/>
</clipPath>
</defs>
</svg>
