<svg width="32" height="32" viewBox="0 0 32 32" fill="none" xmlns="http://www.w3.org/2000/svg">
<g clip-path="url(#clip0_13465_5035)">
<path d="M28.4998 12.7793L16.0137 20.0072L2.64376 12.284L2 12.641L2 18.2489L16.0137 26.3277L28.4984 19.1281L28.4984 22.0957L16.0137 29.325L2.64376 21.6018L2 21.9588L2 22.9198L16.0137 31L30 22.9198L30 17.3133L29.3562 16.9563L16.0137 24.6512L3.50018 17.4516L3.50018 14.4825L16.0137 21.6822L30 13.6049L30 8.07726L29.3027 7.66521L16.0137 15.3334L4.14394 8.51756L16.0137 1.67495L25.7656 7.30821L26.6235 6.81435L26.6235 6.12711L16.0137 1.67112e-07L2 8.07874L2 8.95936L16.0137 17.0396L28.4984 9.81022L28.4998 12.7793Z" fill="black"/>
</g>
<defs>
<clipPath id="clip0_13465_5035">
<rect width="32" height="32" fill="white"/>
</clipPath>
</defs>
</svg>
