<svg width="32" height="32" viewBox="0 0 32 32" fill="none" xmlns="http://www.w3.org/2000/svg">
<path d="M2.58667 12L1.19467 12L1.19467 13.2331C1.19467 13.2331 1.81333 13.2331 2.24 13.2331C2.576 13.2331 2.77333 13.2331 3.01333 13.2926C4.04267 13.513 4.432 14.7401 4.432 15.9136C4.432 17.0871 4.04267 18.3142 3.01333 18.5346C2.77867 18.5942 2.576 18.5942 2.24 18.5942C1.81867 18.5942 1.19467 18.5942 1.19467 18.5942L1.19467 19.8273L2.58667 19.8273C4.85867 19.8273 5.66933 17.7424 5.66933 15.9136C5.66933 14.0849 4.85867 12 2.58667 12ZM29.9467 17.0454C29.9467 17.0335 29.9467 17.0335 29.9467 17.0454ZM29.9467 17.0692C29.5573 17.1348 29.1627 17.2063 28.7467 17.3016C28.2293 17.4207 27.6267 17.6173 27.6267 18.213C27.6267 18.6061 27.888 18.9576 28.4747 18.9576C29.3387 18.9576 29.904 18.3083 29.936 17.4088C29.9413 17.2777 29.9467 17.0692 29.9467 17.0692ZM31.1147 16.2293L31.1147 19.8332L30.0853 19.8332L30.0853 19.041C29.6107 19.7379 29.024 20 28.24 20C27.104 20 26.4747 19.2018 26.4747 18.2249C26.4747 17.3194 26.8853 16.7595 27.6747 16.4676C28.3627 16.2234 29.2267 16.1162 29.9627 15.9911C29.9147 15.2524 29.5467 15.0022 28.8853 15.0022C28.464 15.0022 27.8987 15.1929 27.7387 15.8243L26.6667 15.449C26.8 14.9546 27.0453 14.5555 27.408 14.2517C27.7707 13.9538 28.2667 13.799 28.8853 13.799C30.5493 13.799 31.0187 14.8295 31.0827 15.5264C31.104 15.7409 31.1147 15.9732 31.1147 16.2293ZM18.4907 13.799C17.7973 13.799 17.2213 14.0968 16.7733 14.758L16.7733 13.9598L15.7227 13.9598L15.7227 19.8332L16.912 19.8332L16.912 16.8191C16.912 15.8183 17.2427 15.0261 18.144 15.0261C19.12 15.0261 19.3707 15.9315 19.3707 17.0097L19.3707 19.8392L20.56 19.8392L20.56 16.557C20.56 15.1273 20.048 13.799 18.4907 13.799ZM13.696 13.376L14.8693 13.376L14.8693 12.006L13.696 12.006L13.696 13.376ZM13.696 19.8332L14.8693 19.8332L14.8693 13.9598L13.696 13.9598L13.696 19.8332ZM11.6693 19.8332L12.8427 19.8332L12.8427 12L11.6693 12L11.6693 19.8332ZM24.912 16.271C24.8213 15.4192 24.48 14.9427 23.7013 14.9427C22.9227 14.9427 22.464 15.3716 22.32 16.271L24.912 16.271ZM26.1067 17.2658L22.2987 17.2658C22.3787 18.1713 22.8107 18.7729 23.6533 18.7729C24.2293 18.7729 24.656 18.487 24.8853 17.933L26.0427 18.3261C25.632 19.4103 24.7147 20 23.7173 20C22.0907 20 21.0347 18.7252 21.0347 16.962C21.0347 14.9546 22.1653 13.793 23.648 13.793C25.376 13.799 26.2347 15.2643 26.1067 17.2658ZM9.95733 16.271C9.86667 15.4192 9.52533 14.9427 8.74667 14.9427C7.968 14.9427 7.50933 15.3716 7.37067 16.271L9.95733 16.271ZM11.1467 17.2658L7.33867 17.2658C7.41867 18.1713 7.85067 18.7729 8.69333 18.7729C9.26933 18.7729 9.69067 18.487 9.92533 17.933L11.0827 18.3261C10.672 19.4103 9.75467 20 8.75733 20C7.13067 20 6.07467 18.7252 6.07467 16.962C6.07467 14.9546 7.20533 13.793 8.688 13.793C10.416 13.799 11.2747 15.2643 11.1467 17.2658ZM1.19467 18.6001L-7.8706e-08 18.6001L-1.47041e-08 13.2331L1.19467 13.2331L1.19467 18.6001ZM31.68 19.5056L31.68 19.5354L31.5787 19.5354L31.5787 19.8332L31.5467 19.8332L31.5467 19.5354L31.4453 19.5354L31.4453 19.5056L31.68 19.5056ZM32 19.5056L32 19.8392L31.9733 19.8392L31.9733 19.583L31.8667 19.8392L31.8453 19.8392L31.7387 19.583L31.7387 19.8392L31.7067 19.8392L31.7067 19.5056L31.7333 19.5056L31.8507 19.7856L31.968 19.5056L32 19.5056Z" fill="black"/>
</svg>
