<svg width="112" height="26" viewBox="0 0 112 26" fill="none" xmlns="http://www.w3.org/2000/svg">
<path d="M29.0209 21.3167C27.8513 21.3167 26.9153 22.2194 26.9153 23.4081C26.9153 24.6439 27.8513 25.5466 29.0209 25.5466C30.1905 25.5466 31.0801 24.596 31.0801 23.4081C31.1273 22.2674 30.2377 21.3167 29.0209 21.3167ZM29.0209 25.0713C28.1785 25.0713 27.5233 24.3587 27.5233 23.4552C27.5233 22.5517 28.1785 21.8871 29.0209 21.8871C29.8633 21.8871 30.5185 22.5526 30.5185 23.4552C30.5185 24.3579 29.8633 25.0713 29.0209 25.0713ZM25.6049 21.4118H26.1665V24.0736C26.1665 24.9762 25.5113 25.5946 24.5753 25.5946C23.6393 25.5946 22.9841 24.9771 22.9841 24.0736V21.4118H23.5457V24.0736C23.5457 24.6911 23.9665 25.0713 24.5753 25.0713C25.1841 25.0713 25.6049 24.6911 25.6049 24.0736V21.4118ZM43.0585 23.4552H44.2281V25.5466H43.7137V25.3094C43.7137 25.2143 43.7137 25.1192 43.7137 25.1192C43.7137 25.1192 43.2929 25.6417 42.4505 25.6417C41.3745 25.6417 40.4385 24.7861 40.4385 23.5032C40.4385 22.3153 41.3273 21.3647 42.4977 21.3647C43.4801 21.3647 43.9953 21.84 43.9953 21.84L43.7617 22.2674C43.7617 22.2674 43.2937 21.8871 42.6385 21.8871C41.7025 21.8871 41.0945 22.5997 41.0945 23.4552C41.0945 24.4059 41.7497 25.0713 42.5921 25.0713C43.2937 25.0713 43.7617 24.5489 43.7617 24.5489V23.9314H43.1065V23.4561L43.0585 23.4552ZM34.5425 21.4118H35.1041V24.0736C35.1041 24.9762 34.4489 25.5946 33.5129 25.5946C32.5769 25.5946 31.9217 24.9771 31.9217 24.0736V21.4118H32.4833V24.0736C32.4833 24.6911 32.9041 25.0713 33.5129 25.0713C34.1217 25.0713 34.5425 24.6911 34.5425 24.0736V21.4118ZM40.4849 10.8136L40.2977 11.0037C40.2041 11.0987 37.8177 13.5224 36.9753 15.9461C36.6945 15.9461 33.3721 15.9461 32.8105 15.9461C33.7465 12.3346 38.3321 8.62712 38.3785 8.57999L38.6121 8.38987L38.3785 8.19974C38.3313 8.1518 34.3545 4.77831 32.8569 0.975811C33.4649 0.975811 36.7873 0.975811 37.0681 0.975811C38.0505 3.96987 40.1561 5.72812 40.2497 5.77606L40.3897 5.91825L40.5297 5.77606C40.6233 5.681 42.7761 3.92275 43.8049 0.975811C44.0857 0.975811 47.4081 0.975811 48.0161 0.975811C46.4249 4.7775 42.4481 8.1518 42.4009 8.19974L42.1673 8.38987L42.4009 8.57999C42.4481 8.62793 47.0337 12.2866 48.0625 15.9461C47.5009 15.9461 44.2257 15.9461 43.8977 15.9461C43.1025 13.5696 40.6225 11.0987 40.5289 11.0037L40.4817 10.8136H40.4849ZM38.4729 24.453C38.4729 25.0705 38.0049 25.5937 37.1625 25.5937C36.3201 25.5937 35.8057 25.0713 35.8057 25.0713L36.1329 24.6439C36.1329 24.6439 36.5537 25.0713 37.1625 25.0713C37.5369 25.0713 37.8641 24.8341 37.8641 24.4538C37.8641 23.5511 35.8985 23.7412 35.8985 22.5054C35.8985 21.8879 36.4601 21.3647 37.2089 21.3647C37.9577 21.3647 38.3785 21.7921 38.3785 21.7921L38.0977 22.2674C38.0977 22.2674 37.7233 21.9351 37.2089 21.9351C36.7881 21.9351 36.4601 22.2202 36.4601 22.5526C36.5073 23.3131 38.4721 23.075 38.4721 24.4538L38.4729 24.453ZM17.0417 21.4118H17.6033V25.5466H17.0417V21.4118ZM11.9417 21.4118H12.5033V25.5466H11.9417L10.1169 22.8849C9.9769 22.5997 9.7897 22.2674 9.7897 22.2674C9.7897 22.2674 9.8369 22.6476 9.8369 22.8849V25.5466H9.2753V21.4118H9.8369L11.6617 24.0736C11.8017 24.3108 11.9889 24.6911 11.9889 24.6911C11.9889 24.6911 11.9417 24.3108 11.9417 24.0736V21.4118ZM24.7625 16.2313C27.8977 16.2313 29.9097 14.9004 30.6113 14.3301C30.1433 14.0928 28.5057 13.2844 28.2713 13.1422C27.9441 13.5224 26.8673 13.9027 25.0897 13.9027C22.8905 13.9027 21.9545 12.9521 21.9545 9.72074V9.48349H22.1881C25.7913 9.48349 28.5049 8.81805 30.8449 7.29706C30.8921 7.10694 31.0321 6.48944 31.0321 5.96619C31.0321 3.49456 29.3945 0.643494 24.8089 0.643494C19.9425 0.643494 17.5561 3.21019 17.5561 8.43699C17.5561 13.9019 19.7089 16.2313 24.7625 16.2313ZM21.9553 7.345C21.9553 5.0635 22.2825 2.82994 24.9033 2.82994C26.2601 2.82994 27.1961 3.49537 27.1961 5.2065C27.1961 5.72894 26.9153 6.29931 26.9153 6.34725L26.8681 6.44231L26.7281 6.53737C25.4177 7.24994 24.7161 7.63019 22.1889 7.63019H21.9553V7.345ZM45.6793 25.0234H47.5041V25.5458H45.1177V21.411H45.6793V25.0234ZM14.4681 8.2948C14.4681 3.02006 11.8473 0.453369 6.51373 0.453369C6.51373 0.453369 1.17933 0.453369 0.711326 0.453369C0.711326 0.928686 0.711326 15.7089 0.711326 16.2313C1.88093 16.2313 6.51373 16.2313 6.51373 16.2313C11.8481 16.1842 14.4681 13.6175 14.4681 8.2948ZM4.96973 2.87706C4.96973 2.87706 5.25053 2.87706 6.65453 2.87706C7.02893 2.87706 7.40332 2.92419 7.82413 3.06719C9.1809 3.77975 9.8361 5.15856 9.8361 8.34193C9.8361 11.8584 9.0409 13.2844 7.35612 13.8068L6.65453 13.8539C5.25053 13.8539 4.96973 13.8539 4.96973 13.8539V2.87706ZM6.37293 21.3167C5.20333 21.3167 4.26733 22.2194 4.26733 23.4081C4.26733 24.6439 5.20333 25.5466 6.37293 25.5466C7.54253 25.5466 8.4321 24.596 8.4321 23.4081C8.4321 22.2674 7.54333 21.3167 6.37293 21.3167ZM6.37293 25.0713C5.53053 25.0713 4.87533 24.3587 4.87533 23.4552C4.87533 22.5517 5.53053 21.8871 6.37293 21.8871C7.21533 21.8871 7.87053 22.5526 7.87053 23.4552C7.87053 24.3579 7.16893 25.0713 6.37293 25.0713ZM21.3937 21.4118H21.9553V25.5466H21.3937L19.5689 22.8849C19.4289 22.6476 19.2417 22.2674 19.2417 22.2674C19.2417 22.2674 19.2881 22.6476 19.2881 22.8849V25.5466H18.7265V21.4118H19.2881L21.1129 24.0736C21.2529 24.3108 21.4401 24.6911 21.4401 24.6911C21.4401 24.6911 21.3937 24.3108 21.3937 24.0736V21.4118ZM3.47213 24.5481L3.79933 24.9754C3.79933 24.9754 3.23772 25.6409 2.20813 25.6409C0.99133 25.5937 0.148926 24.6431 0.148926 23.4544C0.148926 22.2186 1.03772 21.3159 2.20813 21.3159C3.19053 21.3159 3.70573 21.8384 3.70573 21.8384L3.42493 22.3137C3.42493 22.3137 2.95692 21.8863 2.25533 21.8863C1.36653 21.8863 0.757726 22.5989 0.757726 23.4544C0.757726 24.3571 1.36573 25.0705 2.25533 25.0705C3.00412 25.0705 3.47213 24.5481 3.47213 24.5481ZM13.1113 21.4118H16.4801V21.9342H15.0761V25.5458H14.5145V21.9342H13.1105L13.1113 21.4118ZM100.847 21.4118H101.409V25.5466H100.847L99.0225 22.8849C98.8825 22.6476 98.6953 22.2674 98.6953 22.2674C98.6953 22.2674 98.7417 22.6476 98.7417 22.8849V25.5466H98.1801V21.4118H98.7417L100.566 24.0736C100.706 24.3108 100.894 24.6911 100.894 24.6911C100.894 24.6911 100.847 24.3108 100.847 24.0736V21.4118ZM96.4961 21.4118H97.0577V25.5466H96.4961V21.4118ZM89.8985 21.3167C88.7289 21.3167 87.7929 22.2194 87.7929 23.4081C87.7929 24.6439 88.7289 25.5466 89.8985 25.5466C91.0681 25.5466 91.9577 24.596 91.9577 23.4081C92.0041 22.2674 91.0689 21.3167 89.8985 21.3167ZM89.8985 25.0713C89.0561 25.0713 88.4009 24.3587 88.4009 23.4552C88.4009 22.5517 89.0561 21.8871 89.8985 21.8871C90.7409 21.8871 91.3961 22.5526 91.3961 23.4552C91.3961 24.3579 90.7409 25.0713 89.8985 25.0713ZM94.7649 23.7404C95.1857 23.5982 95.5137 23.1229 95.5137 22.5997C95.5137 22.0764 95.2329 21.6491 94.8121 21.5069C94.6721 21.4597 94.4849 21.4118 94.0633 21.4118H92.8001V25.5466H93.3617V23.8834H94.2505L95.0929 25.5466H95.7481L94.9057 23.9306C94.8121 23.7884 94.7649 23.7404 94.7649 23.7404ZM94.2033 23.3602H93.4081V21.8871H94.0633C94.3905 21.8871 94.5313 21.9342 94.6249 21.9822C94.8121 22.0772 94.9521 22.3145 94.9521 22.5997C94.9057 23.075 94.6249 23.3602 94.2033 23.3602ZM84.2361 21.4118H87.6049V21.9342H86.2009V25.5458H85.6393V21.9342H84.2353L84.2361 21.4118ZM104.825 23.4552H105.994V25.5466H105.48V25.3094C105.48 25.2143 105.48 25.1192 105.48 25.1192C105.48 25.1192 105.059 25.6417 104.217 25.6417C103.141 25.6417 102.205 24.7861 102.205 23.5032C102.205 22.3153 103.094 21.3647 104.264 21.3647C105.246 21.3647 105.762 21.84 105.762 21.84L105.481 22.2674C105.481 22.2674 105.013 21.8871 104.358 21.8871C103.422 21.8871 102.814 22.5997 102.814 23.4552C102.814 24.4059 103.469 25.0713 104.311 25.0713C105.013 25.0713 105.481 24.5489 105.481 24.5489V23.9314H104.826V23.4561L104.825 23.4552ZM110.066 1.49906C109.926 1.21387 109.691 0.976623 109.41 0.833623C109.13 0.690619 108.849 0.596369 108.568 0.596369C108.287 0.596369 108.007 0.691432 107.726 0.833623C107.445 0.975811 107.211 1.21387 107.07 1.49906C106.93 1.78425 106.837 2.06944 106.837 2.40175C106.837 2.68694 106.93 3.01925 107.07 3.25731C107.21 3.5425 107.445 3.73262 107.726 3.92275C108.007 4.06494 108.287 4.16 108.568 4.16C108.849 4.16 109.176 4.06494 109.41 3.92275C109.691 3.78056 109.879 3.5425 110.066 3.25731C110.206 2.97212 110.299 2.68694 110.299 2.40175C110.299 2.06944 110.252 1.78425 110.066 1.49906ZM109.832 3.11512C109.692 3.35237 109.505 3.5425 109.318 3.63756C109.084 3.77975 108.85 3.82769 108.616 3.82769C108.382 3.82769 108.102 3.77975 107.915 3.63756C107.681 3.49537 107.494 3.30525 107.353 3.11512C107.213 2.87787 107.166 2.63981 107.166 2.40256C107.166 2.16531 107.213 1.88012 107.353 1.64206C107.493 1.40481 107.68 1.21469 107.915 1.11962C108.148 0.977436 108.382 0.929498 108.616 0.929498C108.85 0.929498 109.084 0.976623 109.318 1.11962C109.551 1.26181 109.738 1.45194 109.879 1.64206C110.019 1.87931 110.066 2.11737 110.066 2.40256C110.019 2.63981 109.973 2.87787 109.833 3.11512H109.832ZM108.896 2.59269C108.849 2.54556 108.803 2.49762 108.756 2.49762C108.896 2.49762 109.037 2.4505 109.13 2.3075C109.224 2.21244 109.271 2.07025 109.271 1.92725C109.271 1.83219 109.223 1.73712 109.177 1.64206C109.13 1.547 109.037 1.49987 108.943 1.45194C108.85 1.40481 108.71 1.40481 108.475 1.40481H107.82V3.30606H108.101V2.54556H108.288C108.382 2.54556 108.475 2.54556 108.522 2.59269C108.615 2.63981 108.709 2.78281 108.849 3.02006L109.036 3.30525H109.41L109.177 2.97294C109.037 2.83075 108.943 2.68775 108.896 2.59269ZM108.475 2.3075H108.1V1.73712H108.427C108.567 1.73712 108.661 1.73712 108.708 1.78425C108.755 1.78425 108.802 1.83137 108.848 1.87931C108.895 1.92725 108.895 1.97437 108.895 2.0215C108.895 2.06862 108.848 2.16369 108.802 2.21162C108.802 2.25875 108.662 2.3075 108.475 2.3075ZM83.0665 21.4118H83.6281V25.5466H83.0665V21.4118ZM101.783 15.899C101.783 15.4237 101.783 4.92131 101.783 4.92131C101.783 3.35319 101.596 2.87787 100.473 2.87787C98.5073 2.87787 97.7121 4.25587 97.6657 4.30381L97.6193 4.35175C97.6193 4.35175 97.6193 15.4245 97.6193 15.8998C97.1985 15.8998 93.8761 15.8998 93.4545 15.8998C93.4545 15.4245 93.4545 4.92212 93.4545 4.92212C93.4545 3.354 93.2673 2.87869 92.1441 2.87869C90.1785 2.87869 89.3833 4.25669 89.3369 4.30462L89.2905 4.35256C89.2905 4.35256 89.2905 15.4253 89.2905 15.9006C88.8697 15.9006 85.5473 15.9006 85.1729 15.9006C85.1729 15.4253 85.1729 4.01944 85.1729 4.01944C85.1729 3.02169 84.1905 2.07106 83.1137 1.50069C83.9561 1.26344 86.2953 0.550057 86.4361 0.502932C86.9041 0.693057 88.0273 1.2155 88.3545 1.69081L88.4945 1.88094L88.6817 1.73875C88.6817 1.73875 90.5537 0.550869 92.9865 0.550869C94.7649 0.550869 96.0281 0.883186 96.7769 1.59656L96.9169 1.69162L97.0569 1.6445C98.6009 0.931936 100.005 0.551682 101.268 0.551682C104.637 0.551682 105.854 1.92969 105.854 3.21344C105.854 3.21344 105.854 15.4269 105.854 15.9022C105.526 15.9022 102.204 15.9022 101.782 15.9022L101.783 15.899ZM63.4137 24.453C63.4137 25.0705 62.9457 25.5937 62.1033 25.5937C61.2609 25.5937 60.7465 25.0713 60.7465 25.0713L61.0737 24.6439C61.0737 24.6439 61.4945 25.0713 62.1033 25.0713C62.4777 25.0713 62.8049 24.8341 62.8049 24.4538C62.8049 23.5511 60.8393 23.7412 60.8393 22.5054C60.8393 21.8879 61.4009 21.3647 62.1497 21.3647C62.8985 21.3647 63.3193 21.7921 63.3193 21.7921L63.0385 22.2674C63.0385 22.2674 62.6641 21.9351 62.1497 21.9351C61.7289 21.9351 61.4009 22.2202 61.4009 22.5526C61.4473 23.3131 63.4129 23.075 63.4129 24.4538L63.4137 24.453ZM50.6393 21.4118H51.2009V24.0736C51.2009 24.9762 50.5457 25.5946 49.6097 25.5946C48.6737 25.5946 48.0185 24.9771 48.0185 24.0736V21.4118H48.5801V24.0736C48.5801 24.6911 49.0009 25.0713 49.6097 25.0713C50.2185 25.0713 50.6393 24.6911 50.6393 24.0736V21.4118ZM58.2193 21.3167C57.0497 21.3167 56.1137 22.2194 56.1137 23.4081C56.1137 24.6439 57.0497 25.5466 58.2193 25.5466C59.3889 25.5466 60.2785 24.596 60.2785 23.4081C60.2785 22.2674 59.3897 21.3167 58.2193 21.3167ZM58.2193 25.0713C57.3769 25.0713 56.7217 24.3587 56.7217 23.4552C56.7217 22.5517 57.3769 21.8871 58.2193 21.8871C59.0617 21.8871 59.7169 22.5526 59.7169 23.4552C59.7169 24.3579 59.0153 25.0713 58.2193 25.0713ZM55.3649 24.5481L55.6921 24.9754C55.6921 24.9754 55.1305 25.6409 54.1009 25.6409C52.8841 25.6409 52.0417 24.6902 52.0417 23.5024C52.0417 22.3145 52.9305 21.411 54.1009 21.411C55.0833 21.411 55.5985 21.9334 55.5985 21.9334L55.3177 22.3608C55.3177 22.3608 54.8497 21.9334 54.1481 21.9334C53.2593 21.9334 52.6505 22.646 52.6505 23.5016C52.6505 24.4042 53.2585 25.1176 54.1481 25.1176C54.8497 25.0705 55.3649 24.5481 55.3649 24.5481ZM54.9441 8.4378C54.9441 12.4296 56.0201 13.9027 58.3129 13.9027C60.0441 13.9027 60.9329 13.5704 61.2609 13.1901C61.5417 13.3323 63.1793 14.1879 63.6473 14.4259C63.0393 14.9484 61.1673 16.2792 58.2193 16.2792C53.1185 16.2792 50.4521 13.5704 50.4521 8.48574C50.4521 3.35319 53.1193 0.692244 58.2193 0.692244C61.1673 0.692244 63.0393 2.02312 63.6473 2.54556C63.1793 2.78281 61.5417 3.63837 61.2609 3.78137C60.9337 3.40112 60.0913 3.06881 58.3601 3.06881C56.0201 2.97375 54.9441 4.39887 54.9441 8.4378ZM73.0529 0.596369C68.4201 0.596369 65.6129 3.49537 65.6129 8.38987C65.6129 13.2844 68.3737 16.1842 73.0529 16.1842C77.6857 16.1842 80.3993 13.2852 80.3993 8.39068C80.4457 3.54331 77.6857 0.596369 73.0529 0.596369ZM73.0529 13.7126C71.0409 13.7126 70.1521 12.4296 70.1521 8.4378C70.1521 4.446 71.0409 3.16306 73.0529 3.16306C75.0185 3.16306 75.8601 4.39887 75.8601 8.4378C75.9065 12.4776 75.0649 13.7126 73.0529 13.7126ZM64.8177 25.0234H66.6897V25.5458H64.2569V21.411H66.5969V21.9334H64.8185V23.2164H66.2689V23.6917H64.8185V25.0226L64.8177 25.0234ZM81.3817 21.4118H81.9433V25.5466H81.3817L79.5569 22.8849C79.4169 22.6476 79.2297 22.2674 79.2297 22.2674C79.2297 22.2674 79.2761 22.6476 79.2761 22.8849V25.5466H78.7145V21.4118H79.2761L81.1009 24.0736C81.2409 24.3108 81.4281 24.6911 81.4281 24.6911C81.4281 24.6911 81.3817 24.3108 81.3817 24.0736V21.4118ZM75.8137 21.3167C74.6441 21.3167 73.7081 22.2194 73.7081 23.4081C73.7081 24.6439 74.6441 25.5466 75.8137 25.5466C76.9833 25.5466 77.8729 24.596 77.8729 23.4081C77.8729 22.2674 76.9841 21.3167 75.8137 21.3167ZM75.8137 25.0713C74.9713 25.0713 74.3161 24.3587 74.3161 23.4552C74.3161 22.5517 74.9713 21.8871 75.8137 21.8871C76.6561 21.8871 77.3113 22.5526 77.3113 23.4552C77.3113 24.3579 76.6561 25.0713 75.8137 25.0713ZM72.6785 21.4118L73.0057 25.5466H72.4441L72.2569 22.9328C72.2569 22.6956 72.2569 22.3153 72.2569 22.3153C72.2569 22.3153 72.1169 22.6956 72.0233 22.9328L71.2281 24.7861H70.7137L69.9185 22.9328C69.8249 22.6956 69.6849 22.3153 69.6849 22.3153C69.6849 22.3153 69.6849 22.6956 69.6849 22.9328L69.4977 25.5466H68.9361L69.2633 21.4118H69.8713L70.8073 23.6454C70.9009 23.8826 70.9945 24.2157 70.9945 24.2157C70.9945 24.2157 71.0881 23.8834 71.1817 23.6454L72.1177 21.4118H72.6785Z" fill="black"/>
</svg>
