<svg width="156" height="145" viewBox="0 0 156 145" fill="none" xmlns="http://www.w3.org/2000/svg">
<g filter="url(#filter0_dd_45_588)">
<path d="M94.3646 40.0087C101.502 39.9323 108.673 40.3663 115.705 41.3317L103.845 69.7777C96.5445 68.7756 88.8706 69.1908 82.0229 70.9556C75.1751 72.7205 69.5358 75.7362 65.9908 79.5337C62.4462 83.331 61.1954 87.6959 62.4285 91.9453C62.7737 93.1345 63.3147 94.2947 64.0259 95.4152L47.5692 104.86C43.2335 100.574 40.6688 95.7619 40.1143 90.7945C39.4691 85.0108 41.5645 79.2329 46.1773 74.0773C50.7905 68.922 57.7516 64.578 66.3177 61.509C72.2332 59.39 78.769 57.9323 85.5683 57.1958L87.85 56.9502L88.3488 55.6465L94.3646 40.0087Z" fill="#E6C5F7" style="fill:#E6C5F7;fill:color(display-p3 0.9033 0.7725 0.9686);fill-opacity:1;"/>
</g>
<defs>
<filter id="filter0_dd_45_588" x="0" y="0" width="155.705" height="144.86" filterUnits="userSpaceOnUse" color-interpolation-filters="sRGB">
<feFlood flood-opacity="0" result="BackgroundImageFix"/>
<feColorMatrix in="SourceAlpha" type="matrix" values="0 0 0 0 0 0 0 0 0 0 0 0 0 0 0 0 0 0 127 0" result="hardAlpha"/>
<feOffset/>
<feGaussianBlur stdDeviation="20"/>
<feComposite in2="hardAlpha" operator="out"/>
<feColorMatrix type="matrix" values="0 0 0 0 0.901961 0 0 0 0 0.772549 0 0 0 0 0.968627 0 0 0 0.55 0"/>
<feBlend mode="normal" in2="BackgroundImageFix" result="effect1_dropShadow_45_588"/>
<feColorMatrix in="SourceAlpha" type="matrix" values="0 0 0 0 0 0 0 0 0 0 0 0 0 0 0 0 0 0 127 0" result="hardAlpha"/>
<feOffset/>
<feGaussianBlur stdDeviation="20"/>
<feComposite in2="hardAlpha" operator="out"/>
<feColorMatrix type="matrix" values="0 0 0 0 0.901961 0 0 0 0 0.772549 0 0 0 0 0.968627 0 0 0 0.55 0"/>
<feBlend mode="normal" in2="effect1_dropShadow_45_588" result="effect2_dropShadow_45_588"/>
<feBlend mode="normal" in="SourceGraphic" in2="effect2_dropShadow_45_588" result="shape"/>
</filter>
</defs>
</svg>
