<svg width="200" height="40" viewBox="0 0 200 40" fill="none" xmlns="http://www.w3.org/2000/svg">
<g clip-path="url(#clip0_14824_64907)">
<path fill-rule="evenodd" clip-rule="evenodd" d="M17.6066 19.0318V23.1975H6.13858V29.7962H0.755371V18.1019C0.755371 13.6433 4.4037 10 8.8812 10H23.7297V14.4713H9.55729C7.66935 14.4713 6.13858 16 6.13858 17.8854V19.0318H17.6066ZM81.631 22.6624C81.631 26.9045 76.7325 29.758 69.4359 29.758C62.152 29.758 57.2535 26.9045 57.2535 22.6624V10.051H62.6367V22.051C62.6367 24.2166 65.2518 25.5669 69.4359 25.5669C73.6327 25.5669 76.2478 24.2166 76.2478 22.051V10.051H81.631V22.6624ZM91.1345 10.051H96.5177V29.2229H91.1345V10.051Z" fill="black"/>
<path fill-rule="evenodd" clip-rule="evenodd" d="M131.687 19.8345C131.687 22.6625 130.463 25.0064 128.065 26.8026C125.985 28.3695 123.179 29.223 120.156 29.223H106.021V10.051H119.505C126.904 10.051 131.687 13.8982 131.687 19.8345ZM119.798 14.2294H111.392V25.0574H119.824C121.788 25.0574 123.74 24.1784 124.901 22.7771C125.654 21.8854 126.062 20.8154 126.062 19.7708C126.062 16.5478 123.434 14.2294 119.798 14.2294ZM162.915 21.3249C163.948 22.4205 164.484 23.8217 164.484 25.4013V29.223H159.152V25.274C159.152 23.9873 158.042 23.1975 156.256 23.1848C155.835 23.1975 155.465 23.1975 155.159 23.1848H145.987V29.223H140.604V10.051H156.996C161.601 10.051 164.701 12.6115 164.701 16.4332V16.981C164.701 18.8154 164.101 20.2676 162.915 21.3249ZM145.987 14.2294V19.0064H156.486C158.31 19.0064 159.369 18.2166 159.369 16.8408V16.3058C159.369 15.0192 158.246 14.2294 156.448 14.2294H145.987Z" fill="black"/>
<path fill-rule="evenodd" clip-rule="evenodd" d="M36.3459 21.0574V10.051H31.001V20.8791C31.001 25.4141 34.7003 29.0956 39.2544 29.0956H51.3602V24.3185H39.5223C37.8001 24.3185 36.3459 22.8281 36.3459 21.0574Z" fill="black"/>
<path fill-rule="evenodd" clip-rule="evenodd" d="M196.732 24.1528L199.539 29.1591H194.041L191.834 25.2483C191.596 25.2483 191.353 25.2398 191.107 25.2228C190.647 25.1846 190.137 25.0954 189.487 24.9808C185.507 24.2547 181.08 23.8343 178.172 27.8088L177.406 29.1719H171.908L182.636 10.1018H188.836L194.806 20.7387C195.329 20.4967 195.916 20.1782 196.605 19.7706L196.86 19.605L198.875 22.9553L198.62 23.1082C197.919 23.5286 197.293 23.8725 196.732 24.1528ZM181.986 20.9426C183.108 20.7005 184.231 20.6114 185.277 20.6114C186.884 20.6114 188.351 20.8152 189.448 21.0063L185.698 14.3948L181.986 20.9426Z" fill="black"/>
</g>
<defs>
<clipPath id="clip0_14824_64907">
<rect width="199" height="40" fill="white" transform="translate(0.666504)"/>
</clipPath>
</defs>
</svg>
