<svg width="140" height="14" viewBox="0 0 140 14" fill="none" xmlns="http://www.w3.org/2000/svg">
<g clip-path="url(#clip0_21194_21152)">
<path fill-rule="evenodd" clip-rule="evenodd" d="M11.8675 6.38986H3.78828V5.57256C3.78828 4.2437 4.86935 3.16305 6.19874 3.16305H16.1827V0.00585938H5.72331C2.56792 0.00585938 0 2.57278 0 5.72694V13.9907H3.79131V9.33213H11.8706V6.38986H11.8675ZM56.9605 0.0361297H53.1692V8.51786C53.1692 10.0495 51.3341 11.003 48.3786 11.003C45.4261 11.003 43.591 10.0495 43.591 8.51786V0.0361297H39.7997V8.95072C39.7997 11.9535 43.2458 13.9695 48.3786 13.9695C53.5114 13.9695 56.9605 11.9535 56.9605 8.95072V0.0361297ZM63.6529 0.0361297H67.4442V13.5881H63.6529V0.0361297Z" fill="black"/>
<path d="M83.6323 0.0361328H74.1328V13.5881H84.0865C86.2154 13.5881 88.1958 12.9827 89.6584 11.8779C91.3512 10.6065 92.2082 8.95073 92.2082 6.95592C92.2112 2.7544 88.8438 0.0361328 83.6323 0.0361328ZM88.2473 6.90446C88.2473 7.64608 87.9596 8.39981 87.4357 9.03246C86.612 10.0253 85.2403 10.6428 83.8564 10.6428H77.9211V2.98748H83.8382C86.394 2.98748 88.2473 4.63419 88.2473 6.90446ZM115.462 4.93689V4.5464C115.462 1.84932 113.281 0.0361328 110.032 0.0361328H98.4917V13.5881H102.283V9.317L108.745 9.32305C108.954 9.32911 109.218 9.32911 109.517 9.32305C110.774 9.32911 111.555 9.89213 111.555 10.7942V13.5851H115.31V10.885C115.31 9.77105 114.929 8.78121 114.205 8.00327C115.035 7.25862 115.459 6.22943 115.462 4.93689ZM102.283 2.98748H109.651C110.919 2.98748 111.71 3.55051 111.71 4.45862V4.84002C111.704 5.8117 110.962 6.3717 109.672 6.3717H102.286V2.98748H102.283Z" fill="black"/>
<path fill-rule="evenodd" clip-rule="evenodd" d="M25.067 7.81862V0.0361328H21.2969V7.68846C21.2969 10.8941 23.9072 13.5034 27.1141 13.5034H35.6354V10.1222H27.2988C26.0905 10.1222 25.067 9.06878 25.067 7.81862Z" fill="black"/>
<path d="M139.347 9.2713L139.532 9.1593L138.112 6.79217L137.927 6.90417C137.439 7.19779 137.031 7.41876 136.658 7.58828L132.461 0.0751953H128.088L120.539 13.5485H124.412L124.951 12.5859C126.998 9.77682 130.111 10.0795 132.912 10.5881C133.373 10.6728 133.736 10.7364 134.057 10.7576C134.233 10.7697 134.405 10.7788 134.572 10.7818L136.122 13.5455H139.995L138.015 10.0008C138.418 9.80709 138.857 9.56795 139.347 9.2713ZM130.247 3.10828L132.885 7.782C132.113 7.64882 131.086 7.49746 129.951 7.49746C129.212 7.49746 128.428 7.56103 127.637 7.73357L130.247 3.10828Z" fill="black"/>
</g>
<defs>
<clipPath id="clip0_21194_21152">
<rect width="140" height="14" fill="white"/>
</clipPath>
</defs>
</svg>
