<svg width="72" height="72" viewBox="0 0 72 72" fill="none" xmlns="http://www.w3.org/2000/svg">
<path d="M40.0789 29.0205H41.0926L43.9805 26.1191L44.1225 24.888C38.7492 20.1233 30.5464 20.6367 25.8038 26.0352C24.4852 27.5348 23.5286 29.3184 23.0078 31.249C23.3295 31.1161 23.6859 31.0951 24.0215 31.1874L29.7959 30.2305C29.7959 30.2305 30.0897 29.7423 30.2414 29.7731C32.8105 26.9389 37.1339 26.6087 40.0998 29.0205H40.0789Z" fill="white" style="fill:white;fill-opacity:1;"/>
<path d="M48.0949 31.2486C47.4307 28.7935 46.0689 26.586 44.1738 24.8975L40.1218 28.9683C41.8331 30.3728 42.8078 32.4894 42.7661 34.7095V35.4328C44.7586 35.4328 46.3724 37.0555 46.3724 39.056C46.3724 41.0578 44.7572 42.6792 42.7661 42.6792H35.5519L34.832 43.4122V47.7587L35.5519 48.4819H42.7661C46.9016 48.5141 50.5706 45.8212 51.7987 41.8538C53.024 37.8851 51.5202 33.5764 48.0949 31.2486Z" fill="white" style="fill:white;fill-opacity:1;"/>
<path d="M28.3265 48.4417H35.5406V42.6404H28.3265C27.8127 42.6404 27.3044 42.5299 26.8366 42.3145L25.8229 42.6292L22.9155 45.5306L22.6621 46.549C24.2926 47.7856 26.2824 48.4501 28.3265 48.4417Z" fill="white" style="fill:white;fill-opacity:1;"/>
<path d="M28.3258 29.6208C24.3184 29.6446 20.7691 32.2228 19.4909 36.0376C18.2126 39.8525 19.4867 44.0633 22.6628 46.517L26.847 42.3132C25.0313 41.4893 24.2251 39.3433 25.0452 37.5191C25.8654 35.6949 28.0013 34.8849 29.8171 35.7089C30.6163 36.0726 31.2568 36.7161 31.6189 37.5191L35.8031 33.3153C34.0222 30.9777 31.2554 29.611 28.3258 29.6208Z" fill="white" style="fill:white;fill-opacity:1;"/>
</svg>
