<svg width="32" height="32" viewBox="0 0 32 32" fill="none" xmlns="http://www.w3.org/2000/svg">
<g clip-path="url(#clip0_13465_4971)">
<path d="M16.0001 0.423828C7.16461 0.423828 -8.51497e-08 7.56433 -1.9019e-07 16.3729C-2.74223e-07 23.4197 4.5845 29.398 10.9419 31.5069C11.7415 31.6546 12.0351 31.161 12.0351 30.7397C12.0351 30.3594 12.0202 29.1029 12.0134 27.7703C7.56202 28.7351 6.62276 25.8885 6.62276 25.8885C5.89494 24.045 4.84626 23.5549 4.84626 23.5549C3.39464 22.565 4.95568 22.5852 4.95568 22.5852C6.5624 22.6978 7.40843 24.2288 7.40843 24.2288C8.83545 26.6671 11.1514 25.9622 12.0645 25.5548C12.208 24.5238 12.6227 23.8203 13.0803 23.422C9.5265 23.0186 5.79054 21.6511 5.79054 15.5399C5.79054 13.7987 6.41559 12.3759 7.43917 11.259C7.27303 10.8572 6.72541 9.2351 7.59415 7.03822C7.59415 7.03822 8.93772 6.60956 11.9953 8.67309C13.2715 8.3196 14.6403 8.14248 16.0001 8.13648C17.3598 8.14248 18.7296 8.3196 20.0083 8.67309C23.0623 6.60956 24.404 7.03822 24.404 7.03822C25.2748 9.2351 24.727 10.8572 24.5608 11.259C25.5867 12.3759 26.2075 13.7986 26.2075 15.5399C26.2075 21.6656 22.4645 23.0145 18.9017 23.4093C19.4755 23.9043 19.9869 24.8749 19.9869 26.3628C19.9869 28.4968 19.9683 30.2143 19.9683 30.7397C19.9683 31.1641 20.2563 31.6614 21.0674 31.5048C27.4213 29.3935 32 23.4173 32 16.3729C32 7.56433 24.8364 0.423828 16.0001 0.423828Z" fill="#161614"/>
<path d="M5.99251 23.1435C5.95737 23.2227 5.83213 23.2464 5.71832 23.1922C5.60224 23.1401 5.53699 23.032 5.57464 22.9525C5.60915 22.8709 5.73438 22.8482 5.8502 22.903C5.96653 22.9549 6.03279 23.0639 5.99251 23.1435ZM6.77955 23.8435C6.70326 23.914 6.55405 23.8813 6.45279 23.7698C6.34813 23.6586 6.32856 23.51 6.40598 23.4383C6.48466 23.3679 6.62935 23.4008 6.73425 23.5121C6.83891 23.6246 6.85924 23.7723 6.77943 23.8436M7.31952 24.7391C7.22139 24.807 7.06102 24.7433 6.96201 24.6015C6.864 24.4598 6.864 24.2897 6.96414 24.2215C7.06353 24.1533 7.22139 24.2146 7.32178 24.3553C7.41966 24.4996 7.41966 24.6697 7.31939 24.7392M8.23255 25.7764C8.14484 25.8727 7.95811 25.847 7.82133 25.7154C7.68154 25.5868 7.64252 25.4043 7.73048 25.3079C7.8192 25.2113 8.00705 25.2384 8.14484 25.3689C8.28375 25.4972 8.32604 25.6811 8.23255 25.7764ZM9.41262 26.1267C9.3741 26.2515 9.19415 26.3083 9.01295 26.2553C8.832 26.2006 8.71354 26.0542 8.75006 25.928C8.7877 25.8023 8.9684 25.7432 9.15098 25.7999C9.33168 25.8544 9.45027 25.9996 9.41262 26.1267ZM10.7558 26.2751C10.7603 26.4067 10.6066 26.5158 10.4164 26.5182C10.225 26.5223 10.0703 26.4159 10.0683 26.2865C10.0683 26.1537 10.2185 26.0456 10.4097 26.0425C10.6 26.0387 10.7558 26.1444 10.7558 26.2751ZM12.0752 26.2247C12.098 26.3531 11.9658 26.4849 11.7769 26.5199C11.5912 26.5537 11.4193 26.4745 11.3955 26.3473C11.3725 26.2157 11.5072 26.084 11.6926 26.0499C11.8818 26.0171 12.0511 26.0943 12.0752 26.2247Z" fill="#161614"/>
</g>
<defs>
<clipPath id="clip0_13465_4971">
<rect width="32" height="32" fill="white"/>
</clipPath>
</defs>
</svg>
