<svg width="72" height="72" viewBox="0 0 72 72" fill="none" xmlns="http://www.w3.org/2000/svg">
<path d="M35.9994 17.6667C25.8754 17.6667 17.666 25.8485 17.666 35.9416C17.666 44.0161 22.9191 50.8662 30.2035 53.2827C31.1197 53.4519 31.4562 52.8863 31.4562 52.4036C31.4562 51.9678 31.4391 50.5281 31.4313 49.0011C26.3308 50.1066 25.2546 46.8449 25.2546 46.8449C24.4206 44.7326 23.219 44.171 23.219 44.171C21.5557 43.0367 23.3444 43.0599 23.3444 43.0599C25.1854 43.1889 26.1548 44.9432 26.1548 44.9432C27.7899 47.7371 30.4437 46.9293 31.4898 46.4625C31.6543 45.2812 32.1295 44.4751 32.6538 44.0188C28.5818 43.5566 24.301 41.9896 24.301 34.9872C24.301 32.9921 25.0172 31.3617 26.19 30.0819C25.9997 29.6216 25.3722 27.7629 26.3676 25.2457C26.3676 25.2457 27.9071 24.7545 31.4106 27.1189C32.8729 26.7139 34.4413 26.5109 35.9994 26.5041C37.5575 26.5109 39.127 26.7139 40.5922 27.1189C44.0915 24.7545 45.6289 25.2457 45.6289 25.2457C46.6267 27.7629 45.999 29.6216 45.8086 30.0819C46.984 31.3617 47.6954 32.9919 47.6954 34.9872C47.6954 42.0062 43.4065 43.5518 39.3242 44.0042C39.9817 44.5713 40.5676 45.6835 40.5676 47.3884C40.5676 49.8336 40.5463 51.8016 40.5463 52.4036C40.5463 52.8899 40.8763 53.4597 41.8057 53.2803C49.0862 50.8611 54.3327 44.0133 54.3327 35.9416C54.3327 25.8485 46.1244 17.6667 35.9994 17.6667Z" fill="white" style="fill:white;fill-opacity:1;"/>
<path d="M24.5301 43.6997C24.4898 43.7904 24.3463 43.8176 24.2159 43.7554C24.0829 43.6958 24.0082 43.572 24.0513 43.4808C24.0908 43.3874 24.2343 43.3613 24.367 43.424C24.5003 43.4835 24.5763 43.6085 24.5301 43.6997ZM25.4319 44.5017C25.3445 44.5826 25.1735 44.545 25.0575 44.4173C24.9376 44.2899 24.9152 44.1196 25.0039 44.0375C25.094 43.9568 25.2598 43.9945 25.38 44.122C25.4999 44.2509 25.5232 44.4202 25.4318 44.5019M26.0506 45.5279C25.9382 45.6058 25.7544 45.5328 25.641 45.3703C25.5287 45.2079 25.5287 45.013 25.6434 44.9349C25.7573 44.8567 25.9382 44.927 26.0532 45.0882C26.1654 45.2535 26.1654 45.4484 26.0505 45.5281M27.0968 46.7166C26.9963 46.8269 26.7824 46.7974 26.6256 46.6466C26.4655 46.4993 26.4207 46.2902 26.5215 46.1797C26.6232 46.069 26.8384 46.1001 26.9963 46.2496C27.1555 46.3967 27.2039 46.6073 27.0968 46.7166ZM28.449 47.1179C28.4048 47.2609 28.1986 47.326 27.991 47.2652C27.7837 47.2026 27.6479 47.0349 27.6898 46.8903C27.7329 46.7462 27.94 46.6784 28.1492 46.7435C28.3562 46.8059 28.4921 46.9723 28.449 47.1179ZM29.9881 47.288C29.9932 47.4388 29.8171 47.5638 29.5991 47.5665C29.3798 47.5712 29.2026 47.4492 29.2003 47.301C29.2003 47.1488 29.3724 47.025 29.5915 47.0214C29.8095 47.0171 29.9881 47.1382 29.9881 47.288ZM31.4998 47.2302C31.526 47.3773 31.3744 47.5284 31.158 47.5685C30.9452 47.6072 30.7483 47.5165 30.7211 47.3707C30.6946 47.2199 30.8491 47.069 31.0614 47.0299C31.2783 46.9923 31.4722 47.0808 31.4998 47.2302Z" fill="white" style="fill:white;fill-opacity:1;"/>
</svg>
