<svg width="72" height="72" viewBox="0 0 72 72" fill="none" xmlns="http://www.w3.org/2000/svg">
<path d="M51.0913 35.3658C51.1259 36.1924 51.0285 37.0158 50.8024 37.8108C50.5794 38.6057 50.2277 39.3564 49.7628 40.0373C49.3011 40.7187 48.7325 41.3198 48.0794 41.8172L48.0637 41.8299L41.7855 46.5742L38.6982 48.9337L36.817 50.3653C36.707 50.4508 36.5846 50.5141 36.4558 50.5585C36.327 50.6028 36.1888 50.625 36.0506 50.625C35.9156 50.625 35.7774 50.6028 35.6486 50.5585C35.5199 50.5141 35.3974 50.4508 35.2875 50.3653L33.4062 48.9337L30.3189 46.5742L24.0784 41.8584L24.0407 41.833L24.0281 41.8204C23.3717 41.3231 22.8033 40.7214 22.3384 40.0404C21.8736 39.3595 21.5219 38.6057 21.2957 37.8108C21.0696 37.0158 20.9722 36.1892 21.0068 35.3626C21.0445 34.536 21.2109 33.722 21.503 32.9493L21.5438 32.8384L25.6487 22.0544C25.6697 22.0016 25.6948 21.9509 25.7241 21.9023C25.7513 21.8538 25.7838 21.8084 25.8215 21.7662C25.857 21.7218 25.8958 21.6806 25.9377 21.6426C25.9795 21.6067 26.0235 21.573 26.0696 21.5413C26.1669 21.4811 26.2674 21.4368 26.3774 21.4114C26.4841 21.3829 26.5972 21.3703 26.7071 21.3766C26.8202 21.3829 26.9301 21.4051 27.0338 21.4463C27.1374 21.4843 27.2379 21.5413 27.3258 21.611C27.3677 21.6469 27.4085 21.6849 27.4483 21.725C27.486 21.7672 27.5195 21.8126 27.5488 21.8612C27.5802 21.9076 27.6074 21.9572 27.6305 22.01C27.6535 22.0607 27.6724 22.1135 27.687 22.1684L30.4539 30.7101H41.6536L44.4205 22.1684C44.4352 22.1135 44.4551 22.0607 44.4802 22.01C44.5032 21.9593 44.5305 21.9097 44.5619 21.8612C44.5912 21.8147 44.6247 21.7704 44.6624 21.7281C44.7001 21.6859 44.7409 21.6469 44.7849 21.611C44.8728 21.5413 44.9702 21.4874 45.0738 21.4463C45.1806 21.4083 45.2905 21.3861 45.4004 21.3798C45.5135 21.3734 45.6234 21.3829 45.7333 21.4114C45.8401 21.4399 45.9438 21.4843 46.038 21.5445C46.0861 21.574 46.1312 21.6078 46.173 21.6458C46.2149 21.6817 46.2537 21.7218 46.2892 21.7662C46.3248 21.8105 46.3573 21.8569 46.3866 21.9055C46.4138 21.9541 46.4379 22.0047 46.4588 22.0575L50.5574 32.8447L50.5983 32.9556C50.8903 33.7252 51.0568 34.5392 51.0913 35.3658Z" fill="white" style="fill:white;fill-opacity:1;"/>
<path d="M51.0966 35.3689C51.1311 36.1924 51.0338 37.019 50.8076 37.8139C50.5815 38.6089 50.2298 39.3627 49.7649 40.0436C49.3001 40.7245 48.7317 41.3263 48.0784 41.8235L48.0627 41.8362L41.7845 46.5805C41.7845 46.5805 39.118 44.5504 36.0527 42.2099L45.0508 35.3436C45.4559 35.0364 45.8799 34.7545 46.3165 34.4948C46.753 34.2319 47.2053 33.9976 47.667 33.7885C48.1318 33.5795 48.606 33.3926 49.0865 33.2375C49.5702 33.0791 50.0602 32.9492 50.5595 32.8447L50.6004 32.9556C50.8924 33.7284 51.0589 34.5423 51.0966 35.3689Z" fill="white" style="fill:white;fill-opacity:1;"/>
<path d="M36.0481 42.2102C39.1134 44.5444 41.783 46.5808 41.783 46.5808L38.6957 48.9403L36.8145 50.3719C36.7045 50.4574 36.5821 50.5207 36.4533 50.5651C36.3245 50.6094 36.1863 50.6316 36.0481 50.6316C35.9131 50.6316 35.7749 50.6094 35.6461 50.5651C35.5174 50.5207 35.3949 50.4574 35.285 50.3719L33.4037 48.9403L30.3164 46.5808C30.3164 46.5808 32.9828 44.5444 36.0481 42.2102Z" fill="white" style="fill:white;fill-opacity:1;"/>
<path d="M36.0506 42.204C32.9822 44.5446 30.3189 46.5747 30.3189 46.5747L24.0784 41.8588L24.0407 41.8335L24.0281 41.8208C23.3717 41.3236 22.8033 40.7218 22.3384 40.0409C21.8736 39.36 21.5219 38.6062 21.2957 37.8112C21.0696 37.0163 20.9722 36.1897 21.0068 35.3631C21.0445 34.5364 21.2109 33.7225 21.503 32.9497L21.5438 32.8389C22.0432 32.9434 22.5332 33.0732 23.0168 33.2316C23.4974 33.3899 23.9716 33.5736 24.4364 33.7858C24.8981 33.9949 25.3503 34.2324 25.7869 34.4921C26.2235 34.7518 26.6443 35.0369 27.0526 35.3441L36.0506 42.204Z" fill="white" style="fill:white;fill-opacity:1;"/>
</svg>
