<svg width="32" height="32" viewBox="0 0 32 32" fill="none" xmlns="http://www.w3.org/2000/svg">
<path d="M29.3895 15.4362C29.4202 16.171 29.3336 16.903 29.1326 17.6096C28.9344 18.3162 28.6217 18.9834 28.2086 19.5887C27.7981 20.1944 27.2927 20.7287 26.7122 21.1708L26.6982 21.1821L21.1176 25.3993L18.3734 27.4966L16.7011 28.7691C16.6034 28.8451 16.4945 28.9014 16.3801 28.9409C16.2656 28.9803 16.1428 29 16.0199 29C15.8999 29 15.7771 28.9803 15.6626 28.9409C15.5481 28.9014 15.4393 28.8451 15.3416 28.7691L13.6693 27.4966L10.9251 25.3993L5.37793 21.2074L5.34443 21.1849L5.33327 21.1737C4.7498 20.7317 4.2445 20.1968 3.83133 19.5915C3.41815 18.9862 3.10548 18.3162 2.90448 17.6096C2.70347 16.903 2.61693 16.1682 2.64764 15.4334C2.68114 14.6987 2.8291 13.9751 3.08873 13.2882L3.12502 13.1897L6.77379 3.60388C6.7924 3.55696 6.81474 3.51191 6.84079 3.46875C6.86499 3.42558 6.89384 3.38523 6.92734 3.34769C6.95898 3.30828 6.99341 3.27168 7.03063 3.2379C7.06785 3.20599 7.10694 3.17596 7.14788 3.14781C7.23442 3.09432 7.32376 3.05491 7.42147 3.03239C7.51639 3.00705 7.61689 2.99579 7.7146 3.00142C7.8151 3.00705 7.91281 3.02676 8.00494 3.06336C8.09706 3.09714 8.1864 3.14781 8.26457 3.20975C8.30179 3.24165 8.33808 3.27544 8.37344 3.3111C8.40694 3.34863 8.43672 3.38898 8.46278 3.43215C8.49069 3.47344 8.51489 3.51754 8.53536 3.56446C8.55583 3.60951 8.57258 3.65643 8.58561 3.70523L11.0451 11.2979L21.0004 11.2979L23.4599 3.70523C23.4729 3.65643 23.4906 3.60951 23.5129 3.56447C23.5334 3.51942 23.5576 3.47532 23.5855 3.43215C23.6115 3.39086 23.6413 3.35145 23.6748 3.31391C23.7083 3.27637 23.7446 3.24165 23.7837 3.20975C23.8619 3.14781 23.9484 3.09995 24.0405 3.06336C24.1355 3.02957 24.2332 3.00987 24.3309 3.00424C24.4314 2.99861 24.5291 3.00705 24.6268 3.03239C24.7217 3.05773 24.8138 3.09714 24.8976 3.15063C24.9404 3.1769 24.9804 3.20693 25.0176 3.24071C25.0549 3.27262 25.0893 3.30828 25.1209 3.34769C25.1526 3.38711 25.1814 3.4284 25.2075 3.47156C25.2317 3.51473 25.2531 3.55977 25.2717 3.60669L28.9149 13.1953L28.9512 13.2939C29.2108 13.978 29.3587 14.7015 29.3895 15.4362Z" fill="black"/>
<path d="M29.3923 15.439C29.423 16.171 29.3365 16.9058 29.1355 17.6124C28.9345 18.319 28.6218 18.989 28.2086 19.5943C27.7955 20.1996 27.2902 20.7345 26.7095 21.1765L26.6955 21.1877L21.1149 25.4049C21.1149 25.4049 18.7447 23.6004 16.02 21.5199L24.0183 15.4165C24.3784 15.1434 24.7553 14.8929 25.1433 14.662C25.5314 14.4284 25.9334 14.2201 26.3438 14.0342C26.7569 13.8484 27.1785 13.6823 27.6056 13.5444C28.0356 13.4036 28.4711 13.2882 28.9149 13.1953L28.9512 13.2938C29.2109 13.9808 29.3588 14.7043 29.3923 15.439Z" fill="black"/>
<path d="M16.0197 21.5205C18.7444 23.5953 21.1173 25.4055 21.1173 25.4055L18.3731 27.5029L16.7009 28.7753C16.6031 28.8513 16.4943 28.9076 16.3798 28.9471C16.2654 28.9865 16.1425 29.0062 16.0197 29.0062C15.8996 29.0062 15.7768 28.9865 15.6623 28.9471C15.5479 28.9076 15.439 28.8513 15.3413 28.7753L13.6691 27.5029L10.9248 25.4055C10.9248 25.4055 13.295 23.5953 16.0197 21.5205Z" fill="black"/>
<path d="M16.0199 21.515C13.2924 23.5955 10.9251 25.4 10.9251 25.4L5.37794 21.2082L5.34443 21.1857L5.33327 21.1744C4.7498 20.7324 4.2445 20.1975 3.83133 19.5922C3.41815 18.987 3.10548 18.3169 2.90448 17.6103C2.70347 16.9037 2.61693 16.1689 2.64764 15.4342C2.68114 14.6994 2.8291 13.9759 3.08873 13.289L3.12502 13.1904C3.56891 13.2833 4.00441 13.3988 4.43434 13.5395C4.86147 13.6803 5.28302 13.8436 5.69619 14.0322C6.10657 14.218 6.50858 14.4291 6.89663 14.66C7.28468 14.8908 7.65877 15.1442 8.02169 15.4173L16.0199 21.515Z" fill="black"/>
</svg>
