<svg width="32" height="32" viewBox="0 0 32 32" fill="none" xmlns="http://www.w3.org/2000/svg">
<path d="M19.9727 11.5737L20.8737 11.5737L23.4407 8.99475L23.567 7.90048C18.7906 3.66516 11.4993 4.12152 7.28366 8.92014C6.11155 10.2532 5.26124 11.8386 4.79834 13.5546C5.08425 13.4365 5.4011 13.4178 5.69939 13.4999L10.8322 12.6494C10.8322 12.6494 11.0933 12.2154 11.2282 12.2427C13.5118 9.72344 17.3549 9.42997 19.9912 11.5737L19.9727 11.5737Z" fill="black"/>
<path d="M27.0968 13.5536C26.5064 11.3713 25.2959 9.40909 23.6114 7.9082L20.0097 11.5268C21.5308 12.7752 22.3972 14.6566 22.3601 16.63L22.3601 17.2729C24.1312 17.2729 25.5657 18.7154 25.5657 20.4935C25.5657 22.273 24.13 23.7142 22.3601 23.7142L15.9475 23.7142L15.3076 24.3658L15.3076 28.2293L15.9475 28.8722L22.3601 28.8722C26.0361 28.9008 29.2974 26.5071 30.3891 22.9805C31.4783 19.4527 30.1416 15.6228 27.0968 13.5536Z" fill="black"/>
<path d="M9.52621 28.8371L15.9388 28.8371L15.9388 23.6804L9.52621 23.6804C9.0695 23.6804 8.61773 23.5821 8.20186 23.3906L7.30081 23.6704L4.71647 26.2494L4.49121 27.1547C5.94057 28.2539 7.70926 28.8446 9.52621 28.8371Z" fill="black"/>
<path d="M9.5264 12.1075C5.96427 12.1286 2.80935 14.4204 1.67314 17.8113C0.536918 21.2023 1.66942 24.9452 4.49264 27.1263L8.21195 23.3896C6.59798 22.6572 5.88135 20.7497 6.61036 19.1282C7.33937 17.5067 9.23802 16.7867 10.852 17.5191C11.5624 17.8424 12.1318 18.4144 12.4536 19.1282L16.1729 15.3915C14.5899 13.3137 12.1305 12.0988 9.5264 12.1075Z" fill="black"/>
</svg>
