<svg width="72" height="72" viewBox="0 0 72 72" fill="none" xmlns="http://www.w3.org/2000/svg">
<mask id="mask0_1_341" style="mask-type:luminance" maskUnits="userSpaceOnUse" x="19" y="19" width="35" height="35">
<path d="M52.7279 32.9094H36.8866V39.4777H46.005C45.1549 43.6506 41.6003 46.0461 36.8866 46.0461C31.3228 46.0461 26.8409 41.5641 26.8409 36.0004C26.8409 30.4366 31.3228 25.9547 36.8866 25.9547C39.2821 25.9547 41.4458 26.8047 43.1458 28.1957L48.0914 23.2501C45.0777 20.6228 41.214 19 36.8866 19C27.4591 19 19.8862 26.5729 19.8862 36.0004C19.8862 45.4279 27.4591 53.0008 36.8866 53.0008C45.3868 53.0008 53.1142 46.8188 53.1142 36.0004C53.1142 34.9958 52.9597 33.914 52.7279 32.9094Z" fill="white" style="fill:white;fill-opacity:1;"/>
</mask>
<g mask="url(#mask0_1_341)">
<path d="M18.3407 46.0444V25.9531L31.4773 35.9987L18.3407 46.0444Z" fill="white" style="fill:white;fill-opacity:1;"/>
</g>
<mask id="mask1_1_341" style="mask-type:luminance" maskUnits="userSpaceOnUse" x="19" y="19" width="35" height="35">
<path d="M52.7279 32.9094H36.8866V39.4777H46.005C45.1549 43.6506 41.6003 46.0461 36.8866 46.0461C31.3228 46.0461 26.8409 41.5641 26.8409 36.0004C26.8409 30.4366 31.3228 25.9547 36.8866 25.9547C39.2821 25.9547 41.4458 26.8047 43.1458 28.1957L48.0914 23.2501C45.0777 20.6228 41.214 19 36.8866 19C27.4591 19 19.8862 26.5729 19.8862 36.0004C19.8862 45.4279 27.4591 53.0008 36.8866 53.0008C45.3868 53.0008 53.1142 46.8188 53.1142 36.0004C53.1142 34.9958 52.9597 33.914 52.7279 32.9094Z" fill="white" style="fill:white;fill-opacity:1;"/>
</mask>
<g mask="url(#mask1_1_341)">
<path d="M18.3407 25.9538L31.4773 35.9995L36.8866 31.2858L55.4324 28.272V17.4536H18.3407V25.9538Z" fill="white" style="fill:white;fill-opacity:1;"/>
</g>
<mask id="mask2_1_341" style="mask-type:luminance" maskUnits="userSpaceOnUse" x="19" y="19" width="35" height="35">
<path d="M52.7279 32.9094H36.8866V39.4777H46.005C45.155 43.6506 41.6004 46.0461 36.8866 46.0461C31.3229 46.0461 26.841 41.5641 26.841 36.0004C26.841 30.4366 31.3229 25.9547 36.8866 25.9547C39.2822 25.9547 41.4458 26.8047 43.1459 28.1957L48.0914 23.2501C45.0777 20.6228 41.214 19 36.8866 19C27.4592 19 19.8863 26.5729 19.8863 36.0004C19.8863 45.4279 27.4592 53.0008 36.8866 53.0008C45.3868 53.0008 53.1143 46.8188 53.1143 36.0004C53.1143 34.9958 52.9597 33.914 52.7279 32.9094Z" fill="white" style="fill:white;fill-opacity:1;"/>
</mask>
<g mask="url(#mask2_1_341)">
<path d="M18.3407 46.0452L41.5231 28.272L47.6278 29.0448L55.4325 17.4536V54.5454H18.3407V46.0452Z" fill="white" style="fill:white;fill-opacity:1;"/>
</g>
<mask id="mask3_1_341" style="mask-type:luminance" maskUnits="userSpaceOnUse" x="19" y="19" width="35" height="35">
<path d="M52.7279 32.9094H36.8866V39.4777H46.005C45.155 43.6506 41.6004 46.0461 36.8866 46.0461C31.3229 46.0461 26.841 41.5641 26.841 36.0004C26.841 30.4366 31.3229 25.9547 36.8866 25.9547C39.2822 25.9547 41.4458 26.8047 43.1459 28.1957L48.0914 23.2501C45.0777 20.6228 41.214 19 36.8866 19C27.4592 19 19.8863 26.5729 19.8863 36.0004C19.8863 45.4279 27.4592 53.0008 36.8866 53.0008C45.3868 53.0008 53.1143 46.8188 53.1143 36.0004C53.1143 34.9958 52.9597 33.914 52.7279 32.9094Z" fill="white" style="fill:white;fill-opacity:1;"/>
</mask>
<g mask="url(#mask3_1_341)">
<path d="M55.432 54.5446L31.4769 35.9987L28.386 33.6805L55.432 25.9531V54.5446Z" fill="white" style="fill:white;fill-opacity:1;"/>
</g>
</svg>
