<svg width="18" height="18" viewBox="0 0 18 18" fill="none" xmlns="http://www.w3.org/2000/svg">
<path fill-rule="evenodd" clip-rule="evenodd" d="M17.341 3.65901C18.2197 4.53769 18.2197 5.96231 17.341 6.84099C16.4623 7.71967 15.0377 7.71967 14.159 6.84099C13.2803 5.96231 13.2803 4.53769 14.159 3.65901C15.0377 2.78033 16.4623 2.78033 17.341 3.65901Z" fill="black"/>
<path fill-rule="evenodd" clip-rule="evenodd" d="M3.84099 3.65901C4.71967 4.53769 4.71967 5.96231 3.84099 6.84099C2.96231 7.71967 1.53769 7.71967 0.659009 6.84099C-0.21967 5.96231 -0.21967 4.53769 0.659009 3.65901C1.53769 2.78033 2.96231 2.78033 3.84099 3.65901Z" fill="black"/>
<path fill-rule="evenodd" clip-rule="evenodd" d="M10.591 14.159C11.4697 15.0377 11.4697 16.4623 10.591 17.341C9.71231 18.2197 8.28769 18.2197 7.40901 17.341C6.53033 16.4623 6.53033 15.0377 7.40901 14.159C8.28769 13.2803 9.71231 13.2803 10.591 14.159Z" fill="black"/>
<path fill-rule="evenodd" clip-rule="evenodd" d="M12.1819 5.06808C13.9394 6.82553 13.9394 9.67447 12.1819 11.4319C10.4245 13.1894 7.57553 13.1894 5.81808 11.4319C4.06064 9.67447 4.06064 6.82553 5.81808 5.06808C7.57553 3.31064 10.4245 3.31064 12.1819 5.06808Z" fill="black"/>
<path d="M6.375 1.22249C9.04127 0.228292 12.1594 0.803064 14.3032 2.94681C14.5091 3.1527 14.7005 3.36759 14.8775 3.59019" stroke="black" stroke-width="1.4" stroke-linejoin="round"/>
<path d="M16.4968 8.53027C16.3888 11.3738 14.6588 14.031 11.8553 15.1851C11.5861 15.2959 11.3141 15.39 11.0405 15.4677" stroke="black" stroke-width="1.4" stroke-linejoin="round"/>
<path d="M5.80062 15.0354C3.22755 13.8202 1.4625 11.1862 1.50111 8.15475C1.50482 7.8636 1.52507 7.57653 1.56095 7.29443" stroke="black" stroke-width="1.4" stroke-linejoin="round"/>
</svg>
