<svg width="32" height="32" viewBox="0 0 32 32" fill="none" xmlns="http://www.w3.org/2000/svg">
<g clip-path="url(#clip0_13465_4979)">
<path d="M13.6729 0.668945L2 7.43275L2 7.43837L2 23.6782L6.38573 26.2217L6.38573 9.9762L13.6729 5.75024L13.6729 0.668945Z" fill="black"/>
<path d="M18.3297 0.668945L18.3297 13.6057L13.6724 13.6057L13.6724 8.77763L9.28662 11.3211L9.28662 27.8986L13.6724 30.4477L13.6724 17.5475L18.3297 17.5475L18.3297 22.3418L22.7155 19.8012L22.7155 3.2124L18.3297 0.668945Z" fill="black"/>
<path d="M18.3301 30.4531L30.0002 23.6893L30.0002 23.6809L30.0002 7.44385L25.6144 4.90039L25.6144 21.1459L18.3301 25.3719L18.3301 30.4531Z" fill="black"/>
</g>
<defs>
<clipPath id="clip0_13465_4979">
<rect width="32" height="32" fill="white"/>
</clipPath>
</defs>
</svg>
