<svg width="142" height="100" viewBox="0 0 142 100" fill="none" xmlns="http://www.w3.org/2000/svg">
<path d="M37.5557 60.3711H22.0001L24.4307 65.5563L22.0001 70.7415H37.5557V60.3711Z" fill="white" stroke="black"/>
<path d="M104.222 60.3711H119.778L117.347 65.5563L119.778 70.7415H104.222V60.3711Z" fill="white" stroke="black"/>
<path d="M30.889 67.7773L37.5557 70.7403" stroke="black"/>
<path d="M110.889 67.7773L104.222 70.7403" stroke="black"/>
<ellipse cx="70.8887" cy="50.0001" rx="40" ry="40.0001" fill="white" stroke="black"/>
<ellipse cx="70.8882" cy="50.0001" rx="35.8974" ry="35.8976" stroke="black"/>
<path d="M79.5448 79.1005C79.1087 79.1005 78.7184 79.0187 78.3739 78.8552C78.0294 78.6894 77.7557 78.4627 77.5529 78.1749C77.3523 77.887 77.2455 77.5578 77.2324 77.1871H78.4099C78.4317 77.4619 78.5505 77.6864 78.7664 77.8609C78.9822 78.0331 79.2417 78.1193 79.5448 78.1193C79.7824 78.1193 79.9939 78.0647 80.1793 77.9557C80.3646 77.8467 80.5107 77.6952 80.6176 77.5011C80.7244 77.307 80.7767 77.0857 80.7745 76.8372C80.7767 76.5842 80.7233 76.3596 80.6143 76.1634C80.5053 75.9672 80.3559 75.8134 80.1662 75.7022C79.9765 75.5888 79.7585 75.5322 79.5121 75.5322C79.3115 75.53 79.1141 75.567 78.9201 75.6434C78.726 75.7197 78.5723 75.82 78.4589 75.9443L77.3632 75.7644L77.7132 72.3105H81.5988V73.3245H78.7173L78.5243 75.1004H78.5636C78.6879 74.9543 78.8634 74.8333 79.0902 74.7374C79.3169 74.6393 79.5655 74.5902 79.8359 74.5902C80.2414 74.5902 80.6034 74.6861 80.9217 74.878C81.2401 75.0677 81.4908 75.3294 81.674 75.663C81.8571 75.9966 81.9487 76.3782 81.9487 76.8077C81.9487 77.2503 81.8462 77.645 81.6413 77.9917C81.4385 78.3362 81.1561 78.6077 80.7942 78.8061C80.4344 79.0023 80.0179 79.1005 79.5448 79.1005Z" fill="black"/>
<path d="M71.4953 79.0087V78.1321L73.8207 75.8525C74.0431 75.6279 74.2285 75.4284 74.3768 75.2539C74.525 75.0795 74.6362 74.9105 74.7104 74.747C74.7845 74.5834 74.8216 74.409 74.8216 74.2237C74.8216 74.0122 74.7736 73.8312 74.6777 73.6807C74.5817 73.5281 74.4498 73.4104 74.2819 73.3275C74.114 73.2446 73.9232 73.2032 73.7095 73.2032C73.4893 73.2032 73.2963 73.249 73.1306 73.3406C72.9649 73.43 72.8363 73.5575 72.7447 73.7233C72.6553 73.889 72.6106 74.0863 72.6106 74.3152H71.4561C71.4561 73.8901 71.5531 73.5205 71.7471 73.2065C71.9412 72.8925 72.2083 72.6494 72.5485 72.4771C72.8908 72.3049 73.2833 72.2188 73.7259 72.2188C74.1751 72.2188 74.5697 72.3027 74.9099 72.4706C75.25 72.6385 75.5139 72.8685 75.7014 73.1607C75.8911 73.4529 75.9859 73.7865 75.9859 74.1615C75.9859 74.4123 75.9379 74.6587 75.842 74.9007C75.7461 75.1427 75.5771 75.4109 75.3351 75.7053C75.0952 75.9996 74.7583 76.3561 74.3244 76.7748L73.1699 77.949V77.9948H76.0873V79.0087H71.4953Z" fill="black"/>
<path d="M67.8286 79.1362C67.29 79.1362 66.8278 78.9999 66.4418 78.7274C66.0581 78.4526 65.7626 78.0569 65.5555 77.5401C65.3505 77.0212 65.248 76.3965 65.248 75.666C65.2502 74.9356 65.3538 74.3142 65.5588 73.8018C65.7659 73.2872 66.0614 72.8947 66.4451 72.6243C66.831 72.3539 67.2922 72.2188 67.8286 72.2188C68.365 72.2188 68.8261 72.3539 69.2121 72.6243C69.598 72.8947 69.8935 73.2872 70.0984 73.8018C70.3056 74.3163 70.4091 74.9378 70.4091 75.666C70.4091 76.3987 70.3056 77.0245 70.0984 77.5434C69.8935 78.0602 69.598 78.4548 69.2121 78.7274C68.8283 78.9999 68.3672 79.1362 67.8286 79.1362ZM67.8286 78.1125C68.2472 78.1125 68.5776 77.9064 68.8196 77.4943C69.0638 77.0801 69.1859 76.4706 69.1859 75.666C69.1859 75.134 69.1303 74.687 69.0191 74.3251C68.9079 73.9631 68.7509 73.6906 68.5481 73.5074C68.3454 73.3221 68.1055 73.2294 67.8286 73.2294C67.4121 73.2294 67.0829 73.4365 66.8409 73.8508C66.5988 74.2629 66.4767 74.868 66.4745 75.666C66.4724 76.2002 66.5258 76.6494 66.6348 77.0136C66.746 77.3777 66.903 77.6524 67.1058 77.8378C67.3086 78.0209 67.5495 78.1125 67.8286 78.1125Z" fill="black"/>
<path d="M59.632 79.0087V78.1321L61.9575 75.8525C62.1799 75.6279 62.3652 75.4284 62.5135 75.2539C62.6617 75.0795 62.7729 74.9105 62.8471 74.747C62.9212 74.5834 62.9583 74.409 62.9583 74.2237C62.9583 74.0122 62.9103 73.8312 62.8144 73.6807C62.7184 73.5281 62.5865 73.4104 62.4186 73.3275C62.2507 73.2446 62.0599 73.2032 61.8463 73.2032C61.626 73.2032 61.4331 73.249 61.2674 73.3406C61.1016 73.43 60.973 73.5575 60.8814 73.7233C60.792 73.889 60.7473 74.0863 60.7473 74.3152H59.5928C59.5928 73.8901 59.6898 73.5205 59.8839 73.2065C60.0779 72.8925 60.345 72.6494 60.6852 72.4771C61.0275 72.3049 61.42 72.2188 61.8626 72.2188C62.3118 72.2188 62.7064 72.3027 63.0466 72.4706C63.3867 72.6385 63.6506 72.8685 63.8381 73.1607C64.0278 73.4529 64.1226 73.7865 64.1226 74.1615C64.1226 74.4123 64.0747 74.6587 63.9787 74.9007C63.8828 75.1427 63.7138 75.4109 63.4718 75.7053C63.2319 75.9996 62.895 76.3561 62.4611 76.7748L61.3066 77.949V77.9948H64.224V79.0087H59.632Z" fill="black"/>
<path d="M30.8887 55.9268H110.889V67.7786H30.8887V55.9268Z" fill="white" stroke="black"/>
<path d="M97.337 44.5773C97.3033 44.2378 97.1588 43.974 96.9035 43.786C96.6482 43.598 96.3017 43.504 95.8639 43.504C95.5665 43.504 95.3154 43.5461 95.1106 43.6303C94.9057 43.7117 94.7486 43.8253 94.6392 43.9712C94.5326 44.1171 94.4793 44.2827 94.4793 44.4679C94.4736 44.6222 94.5059 44.7569 94.5761 44.8719C94.649 44.9869 94.7486 45.0865 94.8749 45.1707C95.0011 45.2521 95.147 45.3236 95.3126 45.3854C95.4781 45.4443 95.6549 45.4948 95.8429 45.5369L96.6173 45.7221C96.9933 45.8062 97.3384 45.9185 97.6527 46.0588C97.9669 46.1991 98.2391 46.3716 98.4692 46.5764C98.6992 46.7813 98.8774 47.0226 99.0037 47.3004C99.1327 47.5781 99.1987 47.8966 99.2015 48.2557C99.1987 48.7832 99.064 49.2406 98.7974 49.6278C98.5337 50.0122 98.1521 50.311 97.6527 50.5243C97.156 50.7347 96.557 50.8399 95.8555 50.8399C95.1597 50.8399 94.5536 50.7333 94.0373 50.5201C93.5239 50.3068 93.1226 49.9912 92.8336 49.5731C92.5474 49.1522 92.3973 48.6317 92.3833 48.0116H94.1468C94.1664 48.3006 94.2492 48.5419 94.3951 48.7355C94.5438 48.9263 94.7416 49.0708 94.9885 49.169C95.2382 49.2644 95.5202 49.3121 95.8345 49.3121C96.1431 49.3121 96.4111 49.2672 96.6384 49.1775C96.8684 49.0877 97.0466 48.9628 97.1729 48.8029C97.2991 48.6429 97.3623 48.4592 97.3623 48.2515C97.3623 48.0579 97.3047 47.8952 97.1897 47.7633C97.0775 47.6314 96.9119 47.5192 96.6931 47.4266C96.477 47.334 96.2119 47.2498 95.8976 47.1741L94.9591 46.9384C94.2323 46.7616 93.6586 46.4853 93.2377 46.1093C92.8168 45.7333 92.6078 45.2268 92.6106 44.5899C92.6078 44.068 92.7467 43.6121 93.0272 43.2221C93.3106 42.832 93.6992 42.5276 94.1931 42.3088C94.6869 42.0899 95.2481 41.9805 95.8766 41.9805C96.5163 41.9805 97.0747 42.0899 97.5516 42.3088C98.0314 42.5276 98.4046 42.832 98.6712 43.2221C98.9377 43.6121 99.0752 44.0638 99.0836 44.5773H97.337Z" fill="black"/>
<path d="M84.8833 50.7182V42.0986H88.284C88.9349 42.0986 89.4905 42.2151 89.9506 42.448C90.4136 42.678 90.7657 43.0049 91.007 43.4286C91.2511 43.8495 91.3732 44.3447 91.3732 44.9143C91.3732 45.4867 91.2497 45.9791 91.0028 46.3916C90.7559 46.8012 90.3982 47.1155 89.9296 47.3343C89.4638 47.5532 88.8999 47.6626 88.2377 47.6626H85.9607V46.198H87.9431C88.291 46.198 88.58 46.1503 88.8101 46.0549C89.0401 45.9595 89.2113 45.8164 89.3235 45.6256C89.4386 45.4348 89.4961 45.1977 89.4961 44.9143C89.4961 44.6281 89.4386 44.3868 89.3235 44.1904C89.2113 43.994 89.0387 43.8453 88.8059 43.7443C88.5758 43.6404 88.2854 43.5885 87.9346 43.5885H86.7057V50.7182H84.8833ZM89.5382 46.7956L91.6804 50.7182H89.6687L87.5727 46.7956H89.5382Z" fill="black"/>
<path d="M77.6265 50.7182V42.0986H83.4345V43.6012H79.4489V45.655H83.1357V47.1576H79.4489V49.2157H83.4514V50.7182H77.6265Z" fill="black"/>
<path d="M76.1207 42.0986V50.7182H74.5467L70.7967 45.2931H70.7335V50.7182H68.9111V42.0986H70.5105L74.231 47.5195H74.3068V42.0986H76.1207Z" fill="black"/>
<path d="M67.4054 42.0986V50.7182H65.8313L62.0813 45.2931H62.0182V50.7182H60.1958V42.0986H61.7951L65.5157 47.5195H65.5914V42.0986H67.4054Z" fill="black"/>
<path d="M58.6964 42.0986V50.7182H56.874V42.0986H58.6964Z" fill="black"/>
<path d="M46.5342 50.7182L44.0679 42.0986H46.0586L47.4854 48.0877H47.5569L49.131 42.0986H50.8355L52.4054 48.1003H52.4812L53.9079 42.0986H55.8987L53.4323 50.7182H51.6563L50.0148 45.0826H49.9475L48.3103 50.7182H46.5342Z" fill="black"/>
<path d="M95.7122 33.8316C95.6926 33.6478 95.6098 33.5047 95.4639 33.4023C95.3194 33.2999 95.1314 33.2487 94.9 33.2487C94.7372 33.2487 94.5976 33.2732 94.4812 33.3223C94.3647 33.3714 94.2757 33.4381 94.2139 33.5222C94.1522 33.6064 94.1206 33.7025 94.1192 33.8105C94.1192 33.9003 94.1396 33.9782 94.1803 34.0441C94.2224 34.1101 94.2792 34.1662 94.3507 34.2125C94.4223 34.2574 94.5015 34.2952 94.5885 34.3261C94.6755 34.357 94.7632 34.3829 94.8516 34.404L95.2556 34.505C95.4183 34.5429 95.5748 34.5941 95.7249 34.6586C95.8764 34.7231 96.0118 34.8045 96.131 34.9027C96.2517 35.0009 96.3471 35.1195 96.4172 35.2584C96.4874 35.3972 96.5224 35.56 96.5224 35.7466C96.5224 35.9991 96.4579 36.2215 96.3288 36.4137C96.1998 36.6045 96.0132 36.7539 95.7691 36.8619C95.5264 36.9685 95.2325 37.0218 94.8873 37.0218C94.552 37.0218 94.2609 36.9699 94.014 36.8661C93.7685 36.7623 93.5763 36.6108 93.4374 36.4116C93.2999 36.2123 93.2256 35.9696 93.2144 35.6834H93.9825C93.9937 35.8336 94.04 35.9584 94.1213 36.058C94.2027 36.1576 94.3086 36.232 94.4391 36.2811C94.571 36.3302 94.7183 36.3547 94.881 36.3547C95.0508 36.3547 95.1995 36.3295 95.3271 36.279C95.4562 36.2271 95.5572 36.1555 95.6302 36.0643C95.7031 35.9717 95.7403 35.8637 95.7417 35.7403C95.7403 35.628 95.7073 35.5354 95.6428 35.4625C95.5783 35.3881 95.4878 35.3264 95.3713 35.2773C95.2563 35.2268 95.1216 35.1819 94.9673 35.1426L94.477 35.0163C94.122 34.9252 93.8415 34.787 93.6352 34.6018C93.4304 34.4152 93.328 34.1676 93.328 33.8589C93.328 33.605 93.3967 33.3826 93.5342 33.1918C93.6731 33.0011 93.8618 32.853 94.1003 32.7478C94.3388 32.6412 94.6089 32.5879 94.9105 32.5879C95.2163 32.5879 95.4843 32.6412 95.7144 32.7478C95.9458 32.853 96.1275 32.9996 96.2594 33.1876C96.3913 33.3742 96.4593 33.5889 96.4635 33.8316H95.7122Z" fill="black"/>
<path d="M90.6548 36.9572H89.1943V32.6475H90.6842C91.1121 32.6475 91.4797 32.7337 91.7869 32.9063C92.0956 33.0775 92.3327 33.3237 92.4982 33.6449C92.6638 33.9662 92.7465 34.3506 92.7465 34.7981C92.7465 35.2471 92.6631 35.6329 92.4961 35.9556C92.3306 36.2782 92.0914 36.5258 91.7785 36.6984C91.4671 36.871 91.0925 36.9572 90.6548 36.9572ZM89.9751 36.2817H90.6169C90.9171 36.2817 91.1675 36.227 91.3682 36.1176C91.5688 36.0068 91.7196 35.8419 91.8206 35.6231C91.9216 35.4028 91.9721 35.1278 91.9721 34.7981C91.9721 34.4685 91.9216 34.1949 91.8206 33.9774C91.7196 33.7586 91.5702 33.5951 91.3724 33.4871C91.176 33.3777 90.9318 33.323 90.64 33.323H89.9751V36.2817Z" fill="black"/>
<path d="M85.459 36.9572V32.6475H87.0751C87.4062 32.6475 87.684 32.705 87.9085 32.82C88.1343 32.9351 88.3048 33.0964 88.4198 33.304C88.5363 33.5103 88.5945 33.7509 88.5945 34.0258C88.5945 34.3022 88.5356 34.5421 88.4177 34.7455C88.3013 34.9476 88.1294 35.104 87.9022 35.2148C87.6749 35.3242 87.3957 35.379 87.0646 35.379H85.9135V34.7308H86.9594C87.153 34.7308 87.3115 34.7041 87.435 34.6508C87.5584 34.5961 87.6496 34.5169 87.7086 34.413C87.7689 34.3078 87.7991 34.1788 87.7991 34.0258C87.7991 33.8729 87.7689 33.7424 87.7086 33.6344C87.6482 33.525 87.5563 33.4422 87.4329 33.3861C87.3094 33.3286 87.1502 33.2998 86.9552 33.2998H86.2397V36.9572H85.459ZM87.6854 35.0044L88.7523 36.9572H87.8811L86.8331 35.0044H87.6854Z" fill="black"/>
<path d="M81.8426 36.9572H81.0093L82.5265 32.6475H83.4903L85.0097 36.9572H84.1764L83.0253 33.5313H82.9916L81.8426 36.9572ZM81.87 35.2674H84.1427V35.8945H81.87V35.2674Z" fill="black"/>
<path d="M76.7534 36.9572L75.5371 32.6475H76.3768L77.1533 35.8146H77.1933L78.0224 32.6475H78.7863L79.6175 35.8167H79.6554L80.4319 32.6475H81.2715L80.0552 36.9572H79.285L78.4222 33.9332H78.3885L77.5236 36.9572H76.7534Z" fill="black"/>
<path d="M72.6351 36.9572H71.8018L73.319 32.6475H74.2828L75.8022 36.9572H74.9688L73.8178 33.5313H73.7841L72.6351 36.9572ZM72.6624 35.2674H74.9352V35.8945H72.6624V35.2674Z" fill="black"/>
<path d="M70.1343 34.1009H69.3473C69.3249 33.9719 69.2835 33.8575 69.2231 33.7579C69.1628 33.6569 69.0878 33.5713 68.998 33.5012C68.9082 33.431 68.8058 33.3784 68.6907 33.3434C68.5771 33.3069 68.4543 33.2887 68.3225 33.2887C68.0882 33.2887 67.8805 33.3476 67.6996 33.4654C67.5186 33.5819 67.3769 33.753 67.2745 33.9789C67.1721 34.2034 67.1209 34.4776 67.1209 34.8017C67.1209 35.1314 67.1721 35.4092 67.2745 35.635C67.3783 35.8595 67.52 36.0293 67.6996 36.1443C67.8805 36.2579 68.0875 36.3148 68.3204 36.3148C68.4494 36.3148 68.5701 36.2979 68.6823 36.2642C68.796 36.2292 68.8977 36.178 68.9875 36.1106C69.0786 36.0433 69.1551 35.9605 69.2168 35.8623C69.28 35.7641 69.3235 35.6519 69.3473 35.5256L70.1343 35.5298C70.1049 35.7346 70.041 35.9268 69.9428 36.1064C69.846 36.286 69.7191 36.4445 69.5619 36.582C69.4048 36.7181 69.221 36.8247 69.0106 36.9019C68.8002 36.9776 68.5666 37.0155 68.3098 37.0155C67.9311 37.0155 67.593 36.9278 67.2955 36.7525C66.9981 36.5771 66.7638 36.3239 66.5927 35.9928C66.4215 35.6617 66.3359 35.2647 66.3359 34.8017C66.3359 34.3373 66.4222 33.9403 66.5948 33.6106C66.7673 33.2795 67.0023 33.0263 67.2997 32.8509C67.5972 32.6756 67.9339 32.5879 68.3098 32.5879C68.5497 32.5879 68.7728 32.6216 68.979 32.6889C69.1853 32.7562 69.369 32.8551 69.5304 32.9856C69.6917 33.1147 69.8243 33.2732 69.9281 33.4612C70.0333 33.6478 70.1021 33.861 70.1343 34.1009Z" fill="black"/>
<path d="M62.9639 36.9572V32.6475H65.7669V33.3019H63.7446V34.472H65.6217V35.1264H63.7446V36.3028H65.7837V36.9572H62.9639Z" fill="black"/>
<path d="M61.577 33.8316C61.5574 33.6478 61.4746 33.5047 61.3287 33.4023C61.1842 33.2999 60.9962 33.2487 60.7647 33.2487C60.602 33.2487 60.4624 33.2732 60.3459 33.3223C60.2295 33.3714 60.1404 33.4381 60.0787 33.5222C60.017 33.6064 59.9854 33.7025 59.984 33.8105C59.984 33.9003 60.0043 33.9782 60.045 34.0441C60.0871 34.1101 60.1439 34.1662 60.2155 34.2125C60.287 34.2574 60.3663 34.2952 60.4533 34.3261C60.5402 34.357 60.6279 34.3829 60.7163 34.404L61.1203 34.505C61.2831 34.5429 61.4395 34.5941 61.5896 34.6586C61.7411 34.7231 61.8765 34.8045 61.9958 34.9027C62.1164 35.0009 62.2118 35.1195 62.282 35.2584C62.3521 35.3972 62.3872 35.56 62.3872 35.7466C62.3872 35.9991 62.3226 36.2215 62.1936 36.4137C62.0645 36.6045 61.8779 36.7539 61.6338 36.8619C61.3911 36.9685 61.0972 37.0218 60.7521 37.0218C60.4168 37.0218 60.1257 36.9699 59.8788 36.8661C59.6333 36.7623 59.4411 36.6108 59.3022 36.4116C59.1647 36.2123 59.0903 35.9696 59.0791 35.6834H59.8472C59.8584 35.8336 59.9047 35.9584 59.9861 36.058C60.0675 36.1576 60.1734 36.232 60.3038 36.2811C60.4357 36.3302 60.583 36.3547 60.7458 36.3547C60.9155 36.3547 61.0642 36.3295 61.1919 36.279C61.321 36.2271 61.422 36.1555 61.4949 36.0643C61.5679 35.9717 61.6051 35.8637 61.6065 35.7403C61.6051 35.628 61.5721 35.5354 61.5076 35.4625C61.443 35.3881 61.3525 35.3264 61.2361 35.2773C61.121 35.2268 60.9864 35.1819 60.832 35.1426L60.3417 35.0163C59.9868 34.9252 59.7062 34.787 59.5 34.6018C59.2952 34.4152 59.1927 34.1676 59.1927 33.8589C59.1927 33.605 59.2615 33.3826 59.399 33.1918C59.5379 33.0011 59.7265 32.853 59.965 32.7478C60.2035 32.6412 60.4736 32.5879 60.7752 32.5879C61.0811 32.5879 61.349 32.6412 61.5791 32.7478C61.8106 32.853 61.9923 32.9996 62.1241 33.1876C62.256 33.3742 62.3241 33.5889 62.3283 33.8316H61.577Z" fill="black"/>
<path d="M58.6142 34.8017C58.6142 35.2661 58.5273 35.6638 58.3533 35.9949C58.1807 36.3246 57.9451 36.5771 57.6462 36.7525C57.3488 36.9278 57.0114 37.0155 56.634 37.0155C56.2566 37.0155 55.9185 36.9278 55.6197 36.7525C55.3223 36.5757 55.0866 36.3225 54.9126 35.9928C54.7401 35.6617 54.6538 35.2647 54.6538 34.8017C54.6538 34.3373 54.7401 33.9403 54.9126 33.6106C55.0866 33.2795 55.3223 33.0263 55.6197 32.8509C55.9185 32.6756 56.2566 32.5879 56.634 32.5879C57.0114 32.5879 57.3488 32.6756 57.6462 32.8509C57.9451 33.0263 58.1807 33.2795 58.3533 33.6106C58.5273 33.9403 58.6142 34.3373 58.6142 34.8017ZM57.8293 34.8017C57.8293 34.4748 57.7781 34.1991 57.6757 33.9747C57.5747 33.7488 57.4344 33.5784 57.2548 33.4633C57.0752 33.3469 56.8683 33.2887 56.634 33.2887C56.3997 33.2887 56.1928 33.3469 56.0132 33.4633C55.8337 33.5784 55.6927 33.7488 55.5903 33.9747C55.4892 34.1991 55.4387 34.4748 55.4387 34.8017C55.4387 35.1286 55.4892 35.405 55.5903 35.6308C55.6927 35.8553 55.8337 36.0258 56.0132 36.1422C56.1928 36.2572 56.3997 36.3148 56.634 36.3148C56.8683 36.3148 57.0752 36.2572 57.2548 36.1422C57.4344 36.0258 57.5747 35.8553 57.6757 35.6308C57.7781 35.405 57.8293 35.1286 57.8293 34.8017Z" fill="black"/>
<path d="M51.4097 36.9572V32.6475H54.1706V33.3019H52.1904V34.472H53.9812V35.1264H52.1904V36.9572H51.4097Z" fill="black"/>
<path d="M50.6779 32.6475V36.9572H49.9835L47.9527 34.0216H47.917V36.9572H47.1362V32.6475H47.8349L49.8635 35.5852H49.9014V32.6475H50.6779Z" fill="black"/>
<path d="M46.4091 32.6475V36.9572H45.6284V32.6475H46.4091Z" fill="black"/>
<path d="M79.666 28.8772V24.5674H80.4467V28.2227H82.3449V28.8772H79.666Z" fill="black"/>
<path d="M76.0496 28.8772H75.2163L76.7336 24.5674H77.6974L79.2167 28.8772H78.3834L77.2323 25.4512H77.1986L76.0496 28.8772ZM76.077 27.1873H78.3497V27.8144H76.077V27.1873Z" fill="black"/>
<path d="M71.7197 28.8772V24.5674H73.3696C73.681 24.5674 73.9398 24.6165 74.1461 24.7147C74.3537 24.8115 74.5087 24.9441 74.6111 25.1124C74.715 25.2808 74.7669 25.4716 74.7669 25.6848C74.7669 25.8602 74.7332 26.0103 74.6659 26.1351C74.5985 26.2586 74.508 26.3589 74.3944 26.4361C74.2808 26.5132 74.1538 26.5687 74.0135 26.6023V26.6444C74.1664 26.6528 74.313 26.6998 74.4533 26.7854C74.595 26.8696 74.7107 26.9888 74.8005 27.1431C74.8903 27.2975 74.9352 27.4841 74.9352 27.7029C74.9352 27.926 74.8812 28.1266 74.7732 28.3048C74.6652 28.4815 74.5024 28.6211 74.285 28.7235C74.0675 28.826 73.7939 28.8772 73.4643 28.8772H71.7197ZM72.5005 28.2248H73.3401C73.6235 28.2248 73.8276 28.1708 73.9525 28.0628C74.0787 27.9533 74.1419 27.813 74.1419 27.6419C74.1419 27.5142 74.1103 27.3992 74.0472 27.2968C73.984 27.193 73.8942 27.1116 73.7778 27.0527C73.6614 26.9923 73.5225 26.9622 73.3611 26.9622H72.5005V28.2248ZM72.5005 26.4003H73.2728C73.4074 26.4003 73.5288 26.3758 73.6368 26.3266C73.7448 26.2761 73.8297 26.2053 73.8914 26.1141C73.9546 26.0215 73.9861 25.9121 73.9861 25.7858C73.9861 25.6189 73.9272 25.4814 73.8094 25.3734C73.6929 25.2653 73.5197 25.2113 73.2896 25.2113H72.5005V26.4003Z" fill="black"/>
<path d="M71.1006 26.7226C71.1006 27.187 71.0136 27.5847 70.8396 27.9158C70.6671 28.2455 70.4314 28.498 70.1326 28.6734C69.8351 28.8487 69.4977 28.9364 69.1204 28.9364C68.743 28.9364 68.4049 28.8487 68.106 28.6734C67.8086 28.4966 67.5729 28.2434 67.399 27.9137C67.2264 27.5826 67.1401 27.1856 67.1401 26.7226C67.1401 26.2582 67.2264 25.8612 67.399 25.5315C67.5729 25.2004 67.8086 24.9472 68.106 24.7718C68.4049 24.5965 68.743 24.5088 69.1204 24.5088C69.4977 24.5088 69.8351 24.5965 70.1326 24.7718C70.4314 24.9472 70.6671 25.2004 70.8396 25.5315C71.0136 25.8612 71.1006 26.2582 71.1006 26.7226ZM70.3156 26.7226C70.3156 26.3957 70.2644 26.12 70.162 25.8956C70.061 25.6697 69.9207 25.4993 69.7411 25.3842C69.5616 25.2678 69.3546 25.2095 69.1204 25.2095C68.8861 25.2095 68.6791 25.2678 68.4996 25.3842C68.32 25.4993 68.179 25.6697 68.0766 25.8956C67.9756 26.12 67.9251 26.3957 67.9251 26.7226C67.9251 27.0495 67.9756 27.3259 68.0766 27.5517C68.179 27.7762 68.32 27.9467 68.4996 28.0631C68.6791 28.1781 68.8861 28.2357 69.1204 28.2357C69.3546 28.2357 69.5616 28.1781 69.7411 28.0631C69.9207 27.9467 70.061 27.7762 70.162 27.5517C70.2644 27.3259 70.3156 27.0495 70.3156 26.7226Z" fill="black"/>
<path d="M64.1792 28.8772V24.5674H64.9599V28.2227H66.8581V28.8772H64.1792Z" fill="black"/>
<path d="M62.712 25.944C62.6769 25.8303 62.6285 25.7286 62.5668 25.6388C62.5064 25.5477 62.4335 25.4698 62.3479 25.4053C62.2637 25.3407 62.1669 25.2923 62.0575 25.2601C61.9481 25.2264 61.8288 25.2095 61.6998 25.2095C61.4683 25.2095 61.262 25.2678 61.0811 25.3842C60.9001 25.5007 60.7577 25.6718 60.6539 25.8977C60.5515 26.1222 60.5003 26.3957 60.5003 26.7184C60.5003 27.0439 60.5515 27.3195 60.6539 27.5454C60.7563 27.7713 60.8987 27.9431 61.0811 28.061C61.2635 28.1774 61.4753 28.2357 61.7166 28.2357C61.9354 28.2357 62.1248 28.1936 62.2848 28.1094C62.4461 28.0252 62.5703 27.906 62.6573 27.7516C62.7442 27.5959 62.7877 27.4135 62.7877 27.2045L62.9645 27.2319H61.7945V26.6216H63.5432V27.1393C63.5432 27.5082 63.4646 27.8274 63.3075 28.0968C63.1504 28.3661 62.9343 28.5738 62.6594 28.7197C62.3844 28.8642 62.0687 28.9364 61.7124 28.9364C61.3154 28.9364 60.9667 28.8473 60.6665 28.6692C60.3677 28.4896 60.1341 28.235 59.9658 27.9053C59.7988 27.5742 59.7153 27.1814 59.7153 26.7268C59.7153 26.3789 59.7644 26.0681 59.8626 25.7946C59.9622 25.521 60.1011 25.2888 60.2793 25.098C60.4575 24.9058 60.6665 24.7599 60.9064 24.6603C61.1463 24.5593 61.4073 24.5088 61.6892 24.5088C61.9277 24.5088 62.1501 24.5439 62.3563 24.614C62.5626 24.6828 62.7456 24.781 62.9056 24.9086C63.0669 25.0363 63.1995 25.1878 63.3033 25.3632C63.4071 25.5385 63.4752 25.7321 63.5074 25.944H62.712Z" fill="black"/>
<path d="M103.356 63.5357V59.7646H105.72V60.2544H103.925V61.4034H105.597V61.8914H103.925V63.0459H105.742V63.5357H103.356Z" fill="black"/>
<path d="M102.527 59.7646V63.5357H102.004L100.087 60.77H100.052V63.5357H99.4829V59.7646H100.01L101.928 62.534H101.963V59.7646H102.527Z" fill="black"/>
<path d="M98.6544 59.7646V63.5357H98.0854V59.7646H98.6544Z" fill="black"/>
<path d="M94.6757 63.5357V63.1564L96.6589 60.2544H94.6592V59.7646H97.3549V60.144L95.3718 63.0459H97.3715V63.5357H94.6757Z" fill="black"/>
<path d="M91.4614 63.5357H90.8574L92.2145 59.7646H92.8718L94.2289 63.5357H93.6249L92.5588 60.4496H92.5293L91.4614 63.5357ZM91.5626 62.059H93.5218V62.5377H91.5626V62.059Z" fill="black"/>
<path d="M89.9275 60.9568C89.8919 60.8451 89.844 60.745 89.7839 60.6566C89.725 60.567 89.6544 60.4909 89.5721 60.4283C89.4899 60.3645 89.396 60.316 89.2904 60.2828C89.1861 60.2497 89.0713 60.2331 88.9461 60.2331C88.7337 60.2331 88.5422 60.2878 88.3716 60.397C88.201 60.5063 88.0659 60.6665 87.9665 60.8776C87.8683 61.0875 87.8192 61.3447 87.8192 61.6491C87.8192 61.9548 87.8689 62.2132 87.9683 62.4243C88.0678 62.6355 88.204 62.7956 88.3771 62.9049C88.5502 63.0142 88.7472 63.0688 88.9682 63.0688C89.1732 63.0688 89.3518 63.027 89.504 62.9436C89.6575 62.8601 89.7759 62.7423 89.8594 62.59C89.9441 62.4366 89.9864 62.2561 89.9864 62.0487L90.1337 62.0763H89.0547V61.6068H90.537V62.0358C90.537 62.3525 90.4695 62.6275 90.3345 62.8607C90.2006 63.0927 90.0153 63.2719 89.7784 63.3984C89.5427 63.5248 89.2726 63.588 88.9682 63.588C88.6269 63.588 88.3274 63.5095 88.0696 63.3523C87.8131 63.1952 87.613 62.9724 87.4693 62.6839C87.3257 62.3942 87.2539 62.0505 87.2539 61.6528C87.2539 61.352 87.2956 61.082 87.3791 60.8426C87.4626 60.6032 87.5798 60.4001 87.7308 60.2331C87.883 60.0649 88.0616 59.9367 88.2666 59.8483C88.4729 59.7587 88.6981 59.7139 88.9424 59.7139C89.1462 59.7139 89.3358 59.7439 89.5114 59.8041C89.6881 59.8642 89.8453 59.9496 89.9828 60.06C90.1215 60.1705 90.2362 60.3019 90.3271 60.4541C90.4179 60.6051 90.4793 60.7726 90.5112 60.9568H89.9275Z" fill="black"/>
<path d="M84.2407 63.5357H83.6367L84.9938 59.7646H85.6511L87.0082 63.5357H86.4042L85.3381 60.4496H85.3086L84.2407 63.5357ZM84.3419 62.059H86.3011V62.5377H84.3419V62.059Z" fill="black"/>
<path d="M79.2686 59.7646H79.9591L81.1596 62.6961H81.2038L82.4043 59.7646H83.0948V63.5357H82.5535V60.8068H82.5185L81.4063 63.5302H80.9571L79.8449 60.805H79.8099V63.5357H79.2686V59.7646Z" fill="black"/>
<path d="M74.7715 63.5357V59.7646H77.1358V60.2544H75.3405V61.4034H77.0124V61.8914H75.3405V63.0459H77.1578V63.5357H74.7715Z" fill="black"/>
<path d="M73.4916 60.7561C73.4719 60.5818 73.3909 60.4467 73.2485 60.351C73.1061 60.254 72.9269 60.2055 72.7108 60.2055C72.5562 60.2055 72.4224 60.2301 72.3094 60.2792C72.1965 60.327 72.1087 60.3933 72.0461 60.478C71.9847 60.5615 71.954 60.6566 71.954 60.7634C71.954 60.853 71.9749 60.9304 72.0167 60.9954C72.0596 61.0605 72.1155 61.1151 72.1842 61.1593C72.2542 61.2023 72.3291 61.2385 72.4089 61.268C72.4886 61.2962 72.5654 61.3195 72.639 61.3379L73.0073 61.4337C73.1276 61.4631 73.251 61.503 73.3774 61.5534C73.5038 61.6037 73.6211 61.67 73.7291 61.7522C73.8371 61.8345 73.9243 61.9364 73.9906 62.0579C74.0581 62.1794 74.0918 62.3249 74.0918 62.4943C74.0918 62.7079 74.0366 62.8975 73.9261 63.0633C73.8169 63.229 73.6579 63.3597 73.4492 63.4555C73.2418 63.5512 72.9907 63.5991 72.6961 63.5991C72.4138 63.5991 72.1695 63.5543 71.9633 63.4647C71.757 63.3751 71.5956 63.248 71.479 63.0835C71.3624 62.9178 71.2979 62.7214 71.2856 62.4943H71.8565C71.8675 62.6305 71.9117 62.7441 71.989 62.8349C72.0676 62.9245 72.1676 62.9914 72.2892 63.0356C72.4119 63.0786 72.5463 63.1001 72.6924 63.1001C72.8532 63.1001 72.9962 63.0749 73.1215 63.0246C73.2479 62.973 73.3473 62.9018 73.4197 62.811C73.4922 62.7189 73.5284 62.6115 73.5284 62.4888C73.5284 62.3771 73.4965 62.2856 73.4326 62.2144C73.37 62.1432 73.2847 62.0843 73.1767 62.0376C73.0699 61.991 72.949 61.9499 72.8139 61.9143L72.3683 61.7927C72.0664 61.7105 71.827 61.5896 71.6502 61.43C71.4747 61.2704 71.3869 61.0593 71.3869 60.7966C71.3869 60.5793 71.4458 60.3896 71.5637 60.2276C71.6815 60.0656 71.8411 59.9397 72.0424 59.8501C72.2437 59.7593 72.4708 59.7139 72.7237 59.7139C72.9791 59.7139 73.2043 59.7587 73.3995 59.8483C73.5959 59.9379 73.7506 60.0613 73.8635 60.2184C73.9764 60.3743 74.0354 60.5535 74.0403 60.7561H73.4916Z" fill="black"/>
<path d="M70.6052 59.7646V63.5357H70.0823L68.1655 60.77H68.1305V63.5357H67.5615V59.7646H68.0881L70.0068 62.534H70.0418V59.7646H70.6052Z" fill="black"/>
<path d="M64.437 63.5357V59.7646H66.8013V60.2544H65.006V61.4034H66.6779V61.8914H65.006V63.0459H66.8234V63.5357H64.437Z" fill="black"/>
<path d="M61.3989 63.5357V59.7646H63.7374V60.2544H61.9679V61.4034H63.5699V61.8914H61.9679V63.5357H61.3989Z" fill="black"/>
<path d="M58.2749 63.5357V59.7646H60.6392V60.2544H58.8439V61.4034H60.5158V61.8914H58.8439V63.0459H60.6613V63.5357H58.2749Z" fill="black"/>
<path d="M55.753 63.5357H54.5322V59.7646H55.7917C56.1612 59.7646 56.4785 59.8401 56.7437 59.9911C57.0088 60.1409 57.212 60.3563 57.3531 60.6374C57.4955 60.9173 57.5667 61.2531 57.5667 61.6447C57.5667 62.0375 57.4949 62.375 57.3513 62.6574C57.2089 62.9397 57.0027 63.157 56.7326 63.3092C56.4626 63.4602 56.136 63.5357 55.753 63.5357ZM55.1012 63.0385H55.7217C56.009 63.0385 56.2477 62.9845 56.438 62.8765C56.6283 62.7673 56.7707 62.6095 56.8652 62.4033C56.9597 62.1958 57.007 61.9429 57.007 61.6447C57.007 61.3488 56.9597 61.0978 56.8652 60.8915C56.7719 60.6853 56.6326 60.5288 56.4472 60.422C56.2619 60.3152 56.0317 60.2618 55.7567 60.2618H55.1012V63.0385Z" fill="black"/>
<path d="M49.8179 63.5357V59.7646H51.162C51.4542 59.7646 51.6966 59.815 51.8894 59.9156C52.0833 60.0163 52.2282 60.1556 52.3239 60.3336C52.4197 60.5104 52.4675 60.7148 52.4675 60.9468C52.4675 61.1776 52.4191 61.3807 52.3221 61.5563C52.2263 61.7306 52.0815 61.8662 51.8875 61.9632C51.6948 62.0602 51.4524 62.1087 51.1602 62.1087H50.1419V61.6189H51.1086C51.2928 61.6189 51.4425 61.5925 51.5579 61.5397C51.6745 61.4869 51.7599 61.4102 51.8139 61.3095C51.8679 61.2089 51.8949 61.088 51.8949 60.9468C51.8949 60.8044 51.8673 60.681 51.812 60.5767C51.758 60.4723 51.6727 60.3925 51.5561 60.3373C51.4407 60.2808 51.2891 60.2526 51.1013 60.2526H50.3868V63.5357H49.8179ZM51.6795 61.8343L52.6112 63.5357H51.963L51.0497 61.8343H51.6795Z" fill="black"/>
<path d="M46.6938 63.5357V59.7646H49.0581V60.2544H47.2628V61.4034H48.9347V61.8914H47.2628V63.0459H49.0802V63.5357H46.6938Z" fill="black"/>
<path d="M43.3013 63.5357V59.7646H44.6823C44.9499 59.7646 45.1714 59.8088 45.347 59.8972C45.5225 59.9844 45.6539 60.1028 45.741 60.2526C45.8282 60.4011 45.8718 60.5687 45.8718 60.7553C45.8718 60.9124 45.8429 61.045 45.7852 61.153C45.7275 61.2598 45.6502 61.3457 45.5532 61.4108C45.4575 61.4746 45.3519 61.5213 45.2365 61.5507V61.5876C45.3617 61.5937 45.4839 61.6342 45.6029 61.7091C45.7232 61.7828 45.8227 61.8877 45.9012 62.024C45.9798 62.1602 46.0191 62.3259 46.0191 62.5211C46.0191 62.7139 45.9737 62.8869 45.8828 63.0404C45.7932 63.1926 45.6545 63.3135 45.4667 63.4031C45.2789 63.4915 45.0389 63.5357 44.7467 63.5357H43.3013ZM43.8702 63.0478H44.6915C44.964 63.0478 45.1592 62.995 45.277 62.8894C45.3949 62.7838 45.4538 62.6519 45.4538 62.4935C45.4538 62.3744 45.4237 62.2652 45.3636 62.1658C45.3034 62.0663 45.2175 61.9871 45.1058 61.9282C44.9953 61.8693 44.8639 61.8398 44.7117 61.8398H43.8702V63.0478ZM43.8702 61.3961H44.6326C44.7602 61.3961 44.875 61.3715 44.9769 61.3224C45.08 61.2733 45.1616 61.2046 45.2218 61.1162C45.2832 61.0266 45.3138 60.921 45.3138 60.7995C45.3138 60.6436 45.2592 60.5128 45.15 60.4073C45.0407 60.3017 44.8732 60.2489 44.6473 60.2489H43.8702V61.3961Z" fill="black"/>
<path d="M39.4609 59.7646H40.1072L41.0924 61.4789H41.1329L42.118 59.7646H42.7643L41.3962 62.0553V63.5357H40.829V62.0553L39.4609 59.7646Z" fill="black"/>
<path d="M39.071 60.9918H38.4965C38.4744 60.869 38.4333 60.761 38.3731 60.6677C38.313 60.5744 38.2393 60.4952 38.1522 60.4301C38.065 60.3651 37.9674 60.316 37.8594 60.2828C37.7526 60.2497 37.6391 60.2331 37.5188 60.2331C37.3015 60.2331 37.1069 60.2878 36.9351 60.397C36.7644 60.5063 36.6294 60.6665 36.53 60.8776C36.4318 61.0887 36.3827 61.3465 36.3827 61.651C36.3827 61.9578 36.4318 62.2169 36.53 62.428C36.6294 62.6391 36.7651 62.7987 36.9369 62.9067C37.1088 63.0148 37.3021 63.0688 37.5169 63.0688C37.636 63.0688 37.7489 63.0528 37.8557 63.0209C37.9638 62.9878 38.0614 62.9393 38.1485 62.8754C38.2357 62.8116 38.3093 62.7337 38.3695 62.6416C38.4308 62.5483 38.4732 62.4415 38.4965 62.3212L39.071 62.323C39.0403 62.5084 38.9808 62.679 38.8924 62.8349C38.8052 62.9896 38.6929 63.1234 38.5554 63.2363C38.4192 63.3481 38.2633 63.4346 38.0877 63.496C37.9122 63.5573 37.7207 63.588 37.5132 63.588C37.1867 63.588 36.8958 63.5107 36.6405 63.356C36.3851 63.2001 36.1838 62.9773 36.0365 62.6876C35.8904 62.3979 35.8174 62.0524 35.8174 61.651C35.8174 61.2483 35.891 60.9028 36.0383 60.6143C36.1856 60.3246 36.387 60.1024 36.6423 59.9477C36.8976 59.7918 37.1879 59.7139 37.5132 59.7139C37.7133 59.7139 37.8999 59.7427 38.073 59.8004C38.2473 59.8569 38.4038 59.9404 38.5426 60.0508C38.6813 60.1601 38.796 60.2939 38.8869 60.4522C38.9777 60.6094 39.0391 60.7892 39.071 60.9918Z" fill="black"/>
</svg>
