<svg width="142" height="100" viewBox="0 0 142 100" fill="none" xmlns="http://www.w3.org/2000/svg">
<path d="M40 18.5754C40 16.2211 41.9086 14.3125 44.2629 14.3125H98.0912C100.446 14.3125 102.354 16.2211 102.354 18.5754V76.1001C102.354 77.9134 101.207 79.5283 99.4949 80.1254L72.5808 89.5108C71.6718 89.8278 70.6824 89.8278 69.7734 89.5108L42.8593 80.1254C41.1471 79.5283 40 77.9134 40 76.1001V18.5754Z" fill="white" stroke="black"/>
<path d="M51.4634 10H90.8933L97.6493 14.3138H44.707L51.4634 10Z" fill="white" stroke="black"/>
<path d="M51.7646 10H90.589V32.7456L71.1768 39.4124L51.7646 32.7456V10Z" fill="white" stroke="black"/>
<path d="M76.3828 17.4066C76.2044 17.404 76.0285 17.3715 75.8553 17.309C75.6834 17.2464 75.5271 17.1422 75.3864 16.9964C75.2457 16.8505 75.133 16.6544 75.0484 16.4083C74.965 16.1621 74.9233 15.8547 74.9233 15.4861C74.9233 15.137 74.9579 14.827 75.0269 14.5561C75.0972 14.2852 75.1982 14.0566 75.3297 13.8703C75.4613 13.6827 75.6202 13.5401 75.8064 13.4424C75.9927 13.3447 76.2018 13.2959 76.4336 13.2959C76.672 13.2959 76.8836 13.3428 77.0686 13.4366C77.2535 13.5304 77.4033 13.66 77.518 13.8254C77.6339 13.9908 77.7075 14.179 77.7387 14.39H77.1428C77.1025 14.2233 77.0223 14.0872 76.9025 13.9817C76.7827 13.8762 76.6264 13.8234 76.4336 13.8234C76.1405 13.8234 75.912 13.9511 75.7478 14.2064C75.585 14.4617 75.503 14.8166 75.5017 15.2712H75.531C75.6 15.1578 75.6847 15.0615 75.785 14.982C75.8866 14.9013 75.9999 14.8394 76.1249 14.7964C76.2513 14.7521 76.3841 14.73 76.5235 14.73C76.7553 14.73 76.965 14.7866 77.1526 14.9C77.3415 15.012 77.4919 15.167 77.6039 15.3649C77.7159 15.5629 77.7719 15.7896 77.7719 16.0449C77.7719 16.3002 77.714 16.5314 77.5981 16.7385C77.4834 16.9456 77.3219 17.1097 77.1135 17.2308C76.9051 17.3506 76.6616 17.4093 76.3828 17.4066ZM76.3809 16.8987C76.5346 16.8987 76.672 16.8609 76.7931 16.7853C76.9142 16.7098 77.01 16.6082 77.0803 16.4806C77.1506 16.3529 77.1858 16.2103 77.1858 16.0527C77.1858 15.899 77.1513 15.759 77.0823 15.6326C77.0145 15.5063 76.9208 15.406 76.8009 15.3317C76.6824 15.2575 76.5469 15.2204 76.3945 15.2204C76.2786 15.2204 76.1712 15.2425 76.0722 15.2868C75.9745 15.3311 75.8885 15.3923 75.8143 15.4705C75.74 15.5486 75.6814 15.6385 75.6384 15.7401C75.5967 15.8404 75.5759 15.9465 75.5759 16.0585C75.5759 16.2083 75.6104 16.347 75.6795 16.4747C75.7498 16.6023 75.8455 16.7052 75.9667 16.7834C76.0891 16.8602 76.2272 16.8987 76.3809 16.8987Z" fill="black"/>
<path d="M71.6113 17.3519V16.9143L72.9653 15.5115C73.1099 15.3591 73.2291 15.2256 73.3228 15.111C73.4179 14.995 73.4889 14.885 73.5358 14.7808C73.5827 14.6766 73.6061 14.5659 73.6061 14.4486C73.6061 14.3158 73.5749 14.2011 73.5124 14.1048C73.4498 14.0071 73.3645 13.9322 73.2564 13.8801C73.1483 13.8267 73.0265 13.8 72.8911 13.8C72.7478 13.8 72.6227 13.8293 72.5159 13.8879C72.4091 13.9465 72.3271 14.0292 72.2698 14.136C72.2124 14.2428 72.1838 14.3679 72.1838 14.5111H71.6074C71.6074 14.2676 71.6634 14.0546 71.7754 13.8723C71.8875 13.6899 72.0412 13.5486 72.2365 13.4483C72.4319 13.3467 72.654 13.2959 72.9028 13.2959C73.1542 13.2959 73.3756 13.346 73.5671 13.4463C73.7598 13.5453 73.9103 13.6808 74.0184 13.8527C74.1265 14.0234 74.1805 14.2161 74.1805 14.431C74.1805 14.5795 74.1525 14.7248 74.0965 14.8667C74.0418 15.0087 73.9461 15.167 73.8093 15.3415C73.6726 15.5147 73.4824 15.7251 73.2388 15.9726L72.4436 16.8049V16.8342H74.245V17.3519H71.6113Z" fill="black"/>
<path d="M69.4526 17.4184C69.1439 17.4171 68.8802 17.3357 68.6614 17.1741C68.4425 17.0126 68.2752 16.7775 68.1592 16.4688C68.0433 16.1601 67.9854 15.7883 67.9854 15.3532C67.9854 14.9195 68.0433 14.5489 68.1592 14.2415C68.2765 13.9341 68.4445 13.6997 68.6633 13.5382C68.8834 13.3767 69.1465 13.2959 69.4526 13.2959C69.7587 13.2959 70.0212 13.3773 70.24 13.5401C70.4588 13.7016 70.6262 13.9361 70.7421 14.2435C70.8594 14.5496 70.918 14.9195 70.918 15.3532C70.918 15.7896 70.86 16.1621 70.7441 16.4708C70.6282 16.7782 70.4608 17.0133 70.242 17.1761C70.0231 17.3376 69.76 17.4184 69.4526 17.4184ZM69.4526 16.8967C69.7236 16.8967 69.9352 16.7645 70.0876 16.5001C70.2413 16.2357 70.3182 15.8534 70.3182 15.3532C70.3182 15.0211 70.283 14.7404 70.2127 14.5111C70.1436 14.2806 70.044 14.1061 69.9137 13.9875C69.7848 13.8677 69.6311 13.8078 69.4526 13.8078C69.183 13.8078 68.9714 13.9406 68.8177 14.2064C68.664 14.4721 68.5865 14.8544 68.5852 15.3532C68.5852 15.6867 68.6197 15.9687 68.6887 16.1992C68.759 16.4285 68.8587 16.6023 68.9876 16.7209C69.1166 16.8381 69.2716 16.8967 69.4526 16.8967Z" fill="black"/>
<path d="M64.6855 17.3519V16.9143L66.0395 15.5115C66.1841 15.3591 66.3033 15.2256 66.3971 15.111C66.4921 14.995 66.5631 14.885 66.61 14.7808C66.6569 14.6766 66.6804 14.5659 66.6804 14.4486C66.6804 14.3158 66.6491 14.2011 66.5866 14.1048C66.5241 14.0071 66.4387 13.9322 66.3306 13.8801C66.2225 13.8267 66.1007 13.8 65.9653 13.8C65.822 13.8 65.697 13.8293 65.5901 13.8879C65.4833 13.9465 65.4013 14.0292 65.344 14.136C65.2867 14.2428 65.258 14.3679 65.258 14.5111H64.6816C64.6816 14.2676 64.7376 14.0546 64.8497 13.8723C64.9617 13.6899 65.1154 13.5486 65.3108 13.4483C65.5061 13.3467 65.7282 13.2959 65.977 13.2959C66.2284 13.2959 66.4498 13.346 66.6413 13.4463C66.8341 13.5453 66.9845 13.6808 67.0926 13.8527C67.2007 14.0234 67.2548 14.2161 67.2548 14.431C67.2548 14.5795 67.2268 14.7248 67.1708 14.8667C67.116 15.0087 67.0203 15.167 66.8835 15.3415C66.7468 15.5147 66.5566 15.7251 66.313 15.9726L65.5179 16.8049V16.8342H67.3192V17.3519H64.6855Z" fill="black"/>
<path d="M47.8438 42.1572H94.1192" stroke="black"/>
<path d="M55.2944 30.0654H87.0598" stroke="black"/>
<path d="M55.2944 15.3633H60.7847" stroke="black"/>
<path d="M81.5698 15.3633H87.0601" stroke="black"/>
<path d="M47.8438 69.1543H94.1192" stroke="black"/>
<path d="M82.2822 26.7793V21.0596H84.4271C84.8665 21.0596 85.2352 21.1359 85.5331 21.2886C85.8328 21.4413 86.059 21.6554 86.2117 21.9309C86.3663 22.2046 86.4435 22.5239 86.4435 22.8889C86.4435 23.2557 86.3653 23.574 86.2089 23.844C86.0544 24.1121 85.8263 24.3197 85.5247 24.4668C85.2231 24.612 84.8526 24.6846 84.4131 24.6846H82.8855V23.8245H84.2735C84.5304 23.8245 84.7408 23.7891 84.9047 23.7183C85.0685 23.6457 85.1896 23.5405 85.2677 23.4027C85.3478 23.2631 85.3878 23.0918 85.3878 22.8889C85.3878 22.6859 85.3478 22.5128 85.2677 22.3694C85.1877 22.2242 85.0657 22.1143 84.9019 22.0398C84.738 21.9635 84.5267 21.9253 84.2679 21.9253H83.3184V26.7793H82.2822ZM85.237 24.1875L86.653 26.7793H85.4968L84.1059 24.1875H85.237Z" fill="black"/>
<path d="M77.5049 26.7793V21.0596H81.2249V21.9281H78.541V23.4809H81.0322V24.3495H78.541V25.9107H81.2473V26.7793H77.5049Z" fill="black"/>
<path d="M76.3756 21.0596V26.7793H75.454L72.7589 22.8833H72.7114V26.7793H71.6753V21.0596H72.6025L75.2948 24.9583H75.3451V21.0596H76.3756Z" fill="black"/>
<path d="M70.5465 21.0596V26.7793H69.6249L66.9298 22.8833H66.8823V26.7793H65.8462V21.0596H66.7734L69.4657 24.9583H69.516V21.0596H70.5465Z" fill="black"/>
<path d="M64.7241 21.0596V26.7793H63.688V21.0596H64.7241Z" fill="black"/>
<path d="M56.9731 26.7793L55.3589 21.0596H56.4732L57.5038 25.2628H57.5568L58.6572 21.0596H59.671L60.7742 25.2656H60.8244L61.855 21.0596H62.9693L61.3551 26.7793H60.3329L59.1878 22.766H59.1432L57.9953 26.7793H56.9731Z" fill="black"/>
<path d="M86.4058 55.3033V45.9668H90.0893C90.7944 45.9668 91.3961 46.0929 91.8946 46.3452C92.396 46.5944 92.7775 46.9485 93.0388 47.4074C93.3033 47.8633 93.4355 48.3997 93.4355 49.0166C93.4355 49.6366 93.3017 50.17 93.0343 50.6168C92.7668 51.0605 92.3793 51.4009 91.8718 51.638C91.3673 51.875 90.7564 51.9936 90.0391 51.9936H87.5728V50.4071H89.72C90.0969 50.4071 90.4099 50.3554 90.6591 50.2521C90.9084 50.1488 91.0937 49.9938 91.2153 49.7871C91.3399 49.5804 91.4022 49.3236 91.4022 49.0166C91.4022 48.7066 91.3399 48.4453 91.2153 48.2325C91.0937 48.0198 90.9068 47.8587 90.6546 47.7493C90.4054 47.6368 90.0908 47.5806 89.7109 47.5806H88.3797V55.3033H86.4058ZM91.4478 51.0544L93.7683 55.3033H91.5891L89.3188 51.0544H91.4478Z" fill="black"/>
<path d="M78.0312 55.3033V45.9668H84.3224V47.5943H80.0052V49.819H83.9987V51.4465H80.0052V53.6758H84.3407V55.3033H78.0312Z" fill="black"/>
<path d="M69.0308 55.3033V45.9668H72.769C73.4559 45.9668 74.0287 46.0686 74.4877 46.2722C74.9466 46.4759 75.2915 46.7585 75.5225 47.1202C75.7535 47.4788 75.869 47.8921 75.869 48.3602C75.869 48.7249 75.796 49.0455 75.6502 49.3221C75.5043 49.5956 75.3037 49.8205 75.0484 49.9968C74.7961 50.17 74.5074 50.2931 74.1822 50.3661V50.4572C74.5378 50.4724 74.8706 50.5727 75.1806 50.7581C75.4936 50.9435 75.7474 51.2034 75.9419 51.5377C76.1364 51.8689 76.2337 52.264 76.2337 52.723C76.2337 53.2184 76.1106 53.6606 75.8644 54.0496C75.6213 54.4356 75.2611 54.741 74.784 54.9659C74.3068 55.1908 73.7187 55.3033 73.0197 55.3033H69.0308ZM71.0047 53.6894H72.614C73.1641 53.6894 73.5653 53.5846 73.8175 53.3749C74.0698 53.1621 74.1959 52.8795 74.1959 52.5269C74.1959 52.2686 74.1336 52.0407 74.009 51.8431C73.8844 51.6456 73.7066 51.4906 73.4756 51.3781C73.2477 51.2657 72.9757 51.2094 72.6596 51.2094H71.0047V53.6894ZM71.0047 49.8737H72.4681C72.7386 49.8737 72.9787 49.8266 73.1884 49.7324C73.4011 49.6351 73.5683 49.4984 73.6899 49.3221C73.8145 49.1458 73.8768 48.9346 73.8768 48.6884C73.8768 48.3511 73.7567 48.079 73.5166 47.8724C73.2796 47.6657 72.9422 47.5624 72.5046 47.5624H71.0047V49.8737Z" fill="black"/>
<path d="M58.668 45.9668H60.879L63.008 49.9877H63.0991L65.2281 45.9668H67.4391L64.0337 52.0027V55.3033H62.0734V52.0027L58.668 45.9668Z" fill="black"/>
<path d="M57.2862 49.2352H55.2894C55.2529 48.9769 55.1785 48.7474 55.066 48.5468C54.9536 48.3432 54.8092 48.1699 54.6329 48.0271C54.4567 47.8843 54.253 47.7748 54.0221 47.6989C53.7941 47.6229 53.5464 47.5849 53.279 47.5849C52.7957 47.5849 52.3748 47.7049 52.0162 47.945C51.6576 48.1821 51.3795 48.5286 51.1819 48.9845C50.9844 49.4373 50.8856 49.9874 50.8856 50.6347C50.8856 51.3003 50.9844 51.8595 51.1819 52.3124C51.3825 52.7652 51.6621 53.1071 52.0207 53.3381C52.3794 53.5691 52.7942 53.6846 53.2653 53.6846C53.5297 53.6846 53.7744 53.6496 53.9993 53.5797C54.2272 53.5098 54.4293 53.408 54.6056 53.2743C54.7819 53.1375 54.9278 52.9719 55.0432 52.7774C55.1618 52.5829 55.2438 52.361 55.2894 52.1118L57.2862 52.1209C57.2345 52.5494 57.1053 52.9628 56.8987 53.3609C56.6951 53.756 56.42 54.1101 56.0735 54.4231C55.7301 54.7331 55.3198 54.9793 54.8427 55.1616C54.3685 55.341 53.8321 55.4306 53.2334 55.4306C52.4006 55.4306 51.656 55.2422 50.9996 54.8653C50.3461 54.4885 49.8295 53.9429 49.4496 53.2287C49.0727 52.5145 48.8843 51.6498 48.8843 50.6347C48.8843 49.6166 49.0757 48.7504 49.4587 48.0362C49.8416 47.322 50.3613 46.778 51.0178 46.4042C51.6743 46.0273 52.4128 45.8389 53.2334 45.8389C53.7744 45.8389 54.2758 45.9148 54.7378 46.0668C55.2028 46.2188 55.6146 46.4406 55.9732 46.7324C56.3319 47.0211 56.6236 47.3752 56.8485 47.7946C57.0765 48.214 57.2224 48.6942 57.2862 49.2352Z" fill="black"/>
<path d="M87.0625 59.207H88.6418L90.1625 62.0791H90.2276L91.7483 59.207H93.3276L90.8952 63.5184V65.8759H89.495V63.5184L87.0625 59.207Z" fill="black"/>
<path d="M81.2573 60.3695V59.207H86.7344V60.3695H84.6927V65.8759H83.299V60.3695H81.2573Z" fill="black"/>
<path d="M80.535 59.207V65.8759H79.125V59.207H80.535Z" fill="black"/>
<path d="M73.2905 65.8759V59.207H75.9216C76.4253 59.207 76.8551 59.2971 77.2111 59.4773C77.5693 59.6553 77.8417 59.9082 78.0284 60.236C78.2173 60.5617 78.3117 60.9448 78.3117 61.3855C78.3117 61.8284 78.2162 62.2093 78.0252 62.5285C77.8341 62.8454 77.5574 63.0885 77.1948 63.2579C76.8345 63.4272 76.3981 63.5119 75.8858 63.5119H74.1241V62.3787H75.6579C75.927 62.3787 76.1506 62.3418 76.3287 62.268C76.5067 62.1941 76.6391 62.0834 76.7259 61.9358C76.8149 61.7882 76.8594 61.6048 76.8594 61.3855C76.8594 61.1641 76.8149 60.9774 76.7259 60.8254C76.6391 60.6735 76.5056 60.5584 76.3254 60.4802C76.1474 60.3999 75.9227 60.3598 75.6513 60.3598H74.7005V65.8759H73.2905ZM76.892 62.8411L78.5494 65.8759H76.9929L75.3713 62.8411H76.892Z" fill="black"/>
<path d="M70.9039 59.207H72.3139V63.5379C72.3139 64.0242 72.1977 64.4497 71.9654 64.8144C71.7353 65.1791 71.413 65.4635 70.9983 65.6675C70.5837 65.8694 70.1007 65.9704 69.5493 65.9704C68.9957 65.9704 68.5116 65.8694 68.097 65.6675C67.6823 65.4635 67.3599 65.1791 67.1298 64.8144C66.8997 64.4497 66.7847 64.0242 66.7847 63.5379V59.207H68.1946V63.4174C68.1946 63.6714 68.25 63.8972 68.3607 64.0947C68.4736 64.2923 68.6321 64.4475 68.8361 64.5604C69.0402 64.6733 69.2779 64.7297 69.5493 64.7297C69.8228 64.7297 70.0605 64.6733 70.2624 64.5604C70.4665 64.4475 70.6238 64.2923 70.7346 64.0947C70.8474 63.8972 70.9039 63.6714 70.9039 63.4174V59.207Z" fill="black"/>
<path d="M65.9569 61.5412H64.5307C64.5046 61.3567 64.4514 61.1928 64.3711 61.0495C64.2908 60.904 64.1877 60.7803 64.0618 60.6783C63.9358 60.5762 63.7904 60.4981 63.6254 60.4438C63.4626 60.3895 63.2857 60.3624 63.0946 60.3624C62.7495 60.3624 62.4488 60.4481 62.1926 60.6196C61.9365 60.789 61.7378 61.0365 61.5967 61.3621C61.4556 61.6855 61.3851 62.0785 61.3851 62.5409C61.3851 63.0163 61.4556 63.4157 61.5967 63.7392C61.74 64.0626 61.9397 64.3069 62.1959 64.4718C62.4521 64.6368 62.7484 64.7193 63.0849 64.7193C63.2737 64.7193 63.4485 64.6944 63.6091 64.6444C63.7719 64.5945 63.9163 64.5218 64.0422 64.4263C64.1681 64.3286 64.2723 64.2103 64.3548 64.0713C64.4395 63.9324 64.4981 63.7739 64.5307 63.5959L65.9569 63.6024C65.92 63.9085 65.8278 64.2037 65.6801 64.4881C65.5347 64.7703 65.3382 65.0232 65.0907 65.2468C64.8454 65.4683 64.5524 65.6441 64.2115 65.7744C63.8729 65.9024 63.4897 65.9665 63.0621 65.9665C62.4673 65.9665 61.9354 65.8319 61.4665 65.5627C60.9998 65.2935 60.6307 64.9038 60.3593 64.3937C60.0902 63.8835 59.9556 63.2659 59.9556 62.5409C59.9556 61.8136 60.0923 61.1949 60.3659 60.6848C60.6394 60.1746 61.0106 59.786 61.4795 59.519C61.9484 59.2498 62.4759 59.1152 63.0621 59.1152C63.4485 59.1152 63.8067 59.1695 64.1367 59.278C64.4688 59.3866 64.7629 59.5451 65.0191 59.7535C65.2753 59.9597 65.4837 60.2126 65.6443 60.5122C65.8071 60.8118 65.9113 61.1548 65.9569 61.5412Z" fill="black"/>
<path d="M54.6416 65.8759V59.207H59.1353V60.3695H56.0516V61.9586H58.9041V63.1211H56.0516V64.7134H59.1483V65.8759H54.6416Z" fill="black"/>
<path d="M52.4342 61.1244C52.4082 60.8617 52.2964 60.6576 52.0988 60.5122C51.9013 60.3667 51.6332 60.294 51.2945 60.294C51.0644 60.294 50.8701 60.3266 50.7116 60.3917C50.5532 60.4547 50.4316 60.5426 50.3469 60.6555C50.2644 60.7683 50.2232 60.8964 50.2232 61.0397C50.2189 61.1591 50.2438 61.2633 50.2981 61.3523C50.3545 61.4413 50.4316 61.5184 50.5293 61.5835C50.627 61.6465 50.7399 61.7018 50.8679 61.7496C50.996 61.7952 51.1328 61.8342 51.2782 61.8668L51.8774 62.0101C52.1683 62.0752 52.4353 62.162 52.6784 62.2706C52.9216 62.3791 53.1322 62.5126 53.3102 62.6711C53.4882 62.8296 53.626 63.0163 53.7237 63.2312C53.8236 63.4461 53.8746 63.6925 53.8768 63.9704C53.8746 64.3785 53.7704 64.7323 53.5642 65.0319C53.3601 65.3293 53.0649 65.5605 52.6784 65.7255C52.2942 65.8883 51.8307 65.9697 51.288 65.9697C50.7496 65.9697 50.2807 65.8872 49.8813 65.7223C49.484 65.5573 49.1736 65.3131 48.95 64.9896C48.7286 64.664 48.6124 64.2613 48.6016 63.7815H49.966C49.9811 64.0051 50.0452 64.1918 50.1581 64.3416C50.2731 64.4892 50.4262 64.601 50.6172 64.677C50.8104 64.7508 51.0286 64.7877 51.2717 64.7877C51.5105 64.7877 51.7178 64.753 51.8937 64.6835C52.0717 64.614 52.2095 64.5174 52.3072 64.3937C52.4049 64.27 52.4538 64.1278 52.4538 63.9671C52.4538 63.8173 52.4093 63.6914 52.3203 63.5894C52.2334 63.4874 52.1053 63.4005 51.936 63.3289C51.7689 63.2572 51.5637 63.1921 51.3206 63.1335L50.5944 62.9512C50.0322 62.8144 49.5882 62.6006 49.2626 62.3097C48.937 62.0188 48.7752 61.6269 48.7774 61.1341C48.7752 60.7304 48.8827 60.3776 49.0998 60.0758C49.319 59.7741 49.6197 59.5386 50.0018 59.3692C50.3838 59.1999 50.818 59.1152 51.3043 59.1152C51.7992 59.1152 52.2312 59.1999 52.6003 59.3692C52.9715 59.5386 53.2602 59.7741 53.4665 60.0758C53.6727 60.3776 53.7791 60.7271 53.7856 61.1244H52.4342Z" fill="black"/>
<path d="M84.7964 76.1793V72.3662H87.0977V72.7758H85.2581V74.0642H86.9785V74.4739H85.2581V75.7697H87.1275V76.1793H84.7964Z" fill="black"/>
<path d="M84.0498 73.5582H83.5881C83.5608 73.4254 83.513 73.3087 83.4447 73.2082C83.3777 73.1076 83.2958 73.0232 83.199 72.9549C83.1034 72.8854 82.9973 72.8333 82.8806 72.7985C82.7639 72.7638 82.6423 72.7464 82.5157 72.7464C82.2848 72.7464 82.0756 72.8047 81.8882 72.9214C81.702 73.0381 81.5537 73.21 81.4432 73.4372C81.334 73.6643 81.2794 73.943 81.2794 74.2732C81.2794 74.6033 81.334 74.882 81.4432 75.1091C81.5537 75.3363 81.702 75.5082 81.8882 75.6249C82.0756 75.7416 82.2848 75.7999 82.5157 75.7999C82.6423 75.7999 82.7639 75.7825 82.8806 75.7478C82.9973 75.713 83.1034 75.6615 83.199 75.5932C83.2958 75.5237 83.3777 75.4387 83.4447 75.3381C83.513 75.2364 83.5608 75.1197 83.5881 74.9881H84.0498C84.0151 75.183 83.9518 75.3574 83.8599 75.5113C83.7681 75.6652 83.6539 75.7962 83.5174 75.9042C83.3808 76.0109 83.2275 76.0922 83.0575 76.1481C82.8887 76.2039 82.7081 76.2318 82.5157 76.2318C82.1905 76.2318 81.9012 76.1524 81.648 75.9935C81.3948 75.8346 81.1956 75.6087 81.0504 75.3158C80.9051 75.0229 80.8325 74.6753 80.8325 74.2732C80.8325 73.871 80.9051 73.5234 81.0504 73.2305C81.1956 72.9376 81.3948 72.7117 81.648 72.5528C81.9012 72.3939 82.1905 72.3145 82.5157 72.3145C82.7081 72.3145 82.8887 72.3424 83.0575 72.3982C83.2275 72.4541 83.3808 72.536 83.5174 72.644C83.6539 72.7508 83.7681 72.8811 83.8599 73.035C83.9518 73.1877 84.0151 73.3621 84.0498 73.5582Z" fill="black"/>
<path d="M80.0574 72.3662V76.1793H79.6105L77.5327 73.1854H77.4954V76.1793H77.0337V72.3662H77.4805L79.5658 75.3676H79.6031V72.3662H80.0574Z" fill="black"/>
<path d="M73.9004 76.1793V72.3662H76.2017V72.7758H74.3621V74.0642H76.0825V74.4739H74.3621V75.7697H76.2315V76.1793H73.9004Z" fill="black"/>
<path d="M70.9512 76.1793V72.3662H71.4129V75.7697H73.1854V76.1793H70.9512Z" fill="black"/>
<path d="M68.002 76.1793V72.3662H68.4637V75.7697H70.2362V76.1793H68.002Z" fill="black"/>
<path d="M64.8687 76.1793V72.3662H67.1699V72.7758H65.3304V74.0642H67.0508V74.4739H65.3304V75.7697H67.1997V76.1793H64.8687Z" fill="black"/>
<path d="M64.1226 73.5582H63.6609C63.6335 73.4254 63.5858 73.3087 63.5175 73.2082C63.4505 73.1076 63.3685 73.0232 63.2717 72.9549C63.1761 72.8854 63.07 72.8333 62.9533 72.7985C62.8367 72.7638 62.715 72.7464 62.5884 72.7464C62.3575 72.7464 62.1484 72.8047 61.961 72.9214C61.7748 73.0381 61.6264 73.21 61.516 73.4372C61.4067 73.6643 61.3521 73.943 61.3521 74.2732C61.3521 74.6033 61.4067 74.882 61.516 75.1091C61.6264 75.3363 61.7748 75.5082 61.961 75.6249C62.1484 75.7416 62.3575 75.7999 62.5884 75.7999C62.715 75.7999 62.8367 75.7825 62.9533 75.7478C63.07 75.713 63.1761 75.6615 63.2717 75.5932C63.3685 75.5237 63.4505 75.4387 63.5175 75.3381C63.5858 75.2364 63.6335 75.1197 63.6609 74.9881H64.1226C64.0878 75.183 64.0245 75.3574 63.9327 75.5113C63.8408 75.6652 63.7266 75.7962 63.5901 75.9042C63.4536 76.0109 63.3003 76.0922 63.1302 76.1481C62.9614 76.2039 62.7808 76.2318 62.5884 76.2318C62.2632 76.2318 61.974 76.1524 61.7208 75.9935C61.4676 75.8346 61.2683 75.6087 61.1231 75.3158C60.9779 75.0229 60.9053 74.6753 60.9053 74.2732C60.9053 73.871 60.9779 73.5234 61.1231 73.2305C61.2683 72.9376 61.4676 72.7117 61.7208 72.5528C61.974 72.3939 62.2632 72.3145 62.5884 72.3145C62.7808 72.3145 62.9614 72.3424 63.1302 72.3982C63.3003 72.4541 63.4536 72.536 63.5901 72.644C63.7266 72.7508 63.8408 72.8811 63.9327 73.035C64.0245 73.1877 64.0878 73.3621 64.1226 73.5582Z" fill="black"/>
<path d="M57.9748 72.3662L58.9579 73.9525H58.9877L59.9708 72.3662H60.5144L59.3154 74.2728L60.5144 76.1793H59.9708L58.9877 74.6228H58.9579L57.9748 76.1793H57.4312L58.66 74.2728L57.4312 72.3662H57.9748Z" fill="black"/>
<path d="M54.6182 76.1793V72.3662H56.9194V72.7758H55.0799V74.0642H56.8003V74.4739H55.0799V75.7697H56.9492V76.1793H54.6182Z" fill="black"/>
<path d="M81.0612 80.0552C81.0388 79.8665 80.9482 79.7201 80.7893 79.6158C80.6304 79.5116 80.4356 79.4594 80.2047 79.4594C80.0359 79.4594 79.8882 79.4867 79.7616 79.5413C79.6362 79.596 79.5381 79.6711 79.4674 79.7666C79.3979 79.8622 79.3631 79.9708 79.3631 80.0925C79.3631 80.1942 79.3873 80.2817 79.4357 80.355C79.4854 80.427 79.5487 80.4872 79.6257 80.5356C79.7026 80.5828 79.7833 80.6219 79.8677 80.6529C79.9521 80.6827 80.0297 80.7069 80.1004 80.7255L80.4877 80.8298C80.587 80.8558 80.6975 80.8918 80.8191 80.9378C80.942 80.9837 81.0593 81.0464 81.171 81.1258C81.284 81.204 81.3771 81.3045 81.4503 81.4274C81.5235 81.5503 81.5601 81.7011 81.5601 81.8799C81.5601 82.0859 81.5062 82.2721 81.3982 82.4384C81.2914 82.6048 81.135 82.7369 80.929 82.835C80.7242 82.9331 80.4753 82.9821 80.1824 82.9821C79.9093 82.9821 79.6728 82.938 79.473 82.8499C79.2744 82.7618 79.118 82.6389 79.0038 82.4812C78.8908 82.3236 78.8269 82.1405 78.812 81.932H79.2887C79.3011 82.076 79.3495 82.1951 79.4339 82.2895C79.5195 82.3826 79.6275 82.4521 79.7578 82.498C79.8894 82.5427 80.0309 82.565 80.1824 82.565C80.3586 82.565 80.5169 82.5365 80.6571 82.4794C80.7974 82.421 80.9085 82.3404 80.9904 82.2373C81.0723 82.1331 81.1133 82.0114 81.1133 81.8724C81.1133 81.7458 81.0779 81.6428 81.0072 81.5633C80.9364 81.4839 80.8433 81.4194 80.7279 81.3697C80.6124 81.3201 80.4877 81.2766 80.3536 81.2394L79.8845 81.1053C79.5866 81.0197 79.3507 80.8974 79.1769 80.7385C79.0032 80.5796 78.9163 80.3717 78.9163 80.1148C78.9163 79.9013 78.974 79.7151 79.0894 79.5562C79.2061 79.3961 79.3625 79.272 79.5586 79.1839C79.756 79.0945 79.9763 79.0498 80.2196 79.0498C80.4654 79.0498 80.6838 79.0939 80.875 79.182C81.0661 79.2689 81.2176 79.388 81.3293 79.5395C81.4422 79.6909 81.5018 79.8628 81.508 80.0552H81.0612Z" fill="black"/>
<path d="M76.3842 82.9147H75.2075V79.1016H76.4364C76.8063 79.1016 77.1228 79.1779 77.3859 79.3306C77.6491 79.482 77.8508 79.6998 77.991 79.9841C78.1313 80.2671 78.2014 80.606 78.2014 81.0007C78.2014 81.3979 78.1307 81.7398 77.9892 82.0266C77.8477 82.3121 77.6416 82.5318 77.371 82.6857C77.1004 82.8384 76.7715 82.9147 76.3842 82.9147ZM75.6693 82.5051H76.3544C76.6697 82.5051 76.931 82.4443 77.1383 82.3226C77.3456 82.201 77.5001 82.0278 77.6019 81.8031C77.7037 81.5785 77.7546 81.311 77.7546 81.0007C77.7546 80.6928 77.7043 80.4278 77.6038 80.2057C77.5032 79.9822 77.353 79.8109 77.1532 79.6918C76.9533 79.5714 76.7045 79.5112 76.4066 79.5112H75.6693V82.5051Z" fill="black"/>
<path d="M71.854 82.9147V79.1016H73.1424C73.4403 79.1016 73.6849 79.1525 73.876 79.2542C74.0672 79.3548 74.2087 79.4932 74.3005 79.6694C74.3924 79.8457 74.4383 80.0462 74.4383 80.2708C74.4383 80.4955 74.3924 80.6947 74.3005 80.8685C74.2087 81.0423 74.0678 81.1788 73.8779 81.2781C73.688 81.3762 73.4453 81.4252 73.1499 81.4252H72.1072V81.0081H73.135C73.3385 81.0081 73.5024 80.9783 73.6265 80.9188C73.7519 80.8592 73.8425 80.7748 73.8983 80.6655C73.9554 80.5551 73.984 80.4235 73.984 80.2708C73.984 80.1181 73.9554 79.9847 73.8983 79.8705C73.8412 79.7563 73.75 79.6682 73.6247 79.6061C73.4993 79.5428 73.3336 79.5112 73.1275 79.5112H72.3158V82.9147H71.854ZM73.6489 81.2018L74.5872 82.9147H74.051L73.1275 81.2018H73.6489Z" fill="black"/>
<path d="M68.467 82.9147H67.9829L69.383 79.1016H69.8597L71.2598 82.9147H70.7757L69.6363 79.7048H69.6065L68.467 82.9147ZM68.6457 81.4252H70.597V81.8348H68.6457V81.4252Z" fill="black"/>
<path d="M64.3239 82.9147L63.2812 79.1016H63.7504L64.5473 82.2072H64.5846L65.3963 79.1016H65.9177L66.7295 82.2072H66.7667L67.5636 79.1016H68.0328L66.9901 82.9147H66.5135L65.6719 79.8761H65.6421L64.8005 82.9147H64.3239Z" fill="black"/>
<path d="M60.5407 82.9147H60.0566L61.4568 79.1016H61.9334L63.3335 82.9147H62.8495L61.71 79.7048H61.6802L60.5407 82.9147ZM60.7195 81.4252H62.6707V81.8348H60.7195V81.4252Z" fill="black"/>
<path d="M70.9828 32.7471L71.6282 33.8195L72.8477 34.102L72.0271 35.0472L72.1353 36.2942L70.9828 35.806L69.8303 36.2942L69.9385 35.0472L69.1179 34.102L70.3374 33.8195L70.9828 32.7471Z" fill="black"/>
<path d="M76.0823 32.3564L76.5987 33.2144L77.5742 33.4404L76.9178 34.1966L77.0044 35.1942L76.0823 34.8036L75.1603 35.1942L75.2469 34.1966L74.5904 33.4404L75.566 33.2144L76.0823 32.3564Z" fill="black"/>
<path d="M66.2767 32.3564L66.793 33.2144L67.7685 33.4404L67.1121 34.1966L67.1987 35.1942L66.2767 34.8036L65.3546 35.1942L65.4412 34.1966L64.7848 33.4404L65.7603 33.2144L66.2767 32.3564Z" fill="black"/>
</svg>
