<svg width="142" height="100" viewBox="0 0 142 100" fill="none" xmlns="http://www.w3.org/2000/svg">
<path d="M96.1304 10H45C42.7909 10 41 11.7909 41 14V86C41 88.2091 42.7909 90 45 90H96.1304C98.3396 90 100.13 88.2091 100.13 86V14C100.13 11.7909 98.3396 10 96.1304 10Z" stroke="black" stroke-width="0.82508"/>
<path d="M100.13 45.6523H41V72.6089H100.13V45.6523Z" fill="black"/>
<path d="M82.3716 23.043H58.0454V22.1035H82.3716V23.043ZM61.5063 16.6436C61.7339 16.6436 61.9449 16.6756 62.1382 16.7393C62.3314 16.8017 62.5012 16.8936 62.6479 17.0146C62.7948 17.1346 62.9146 17.282 63.0063 17.457C63.0981 17.632 63.1552 17.8325 63.1772 18.0576H62.2593C62.247 17.9634 62.222 17.8776 62.1841 17.8018C62.1461 17.7259 62.0951 17.6613 62.0327 17.6074C61.9704 17.5537 61.8966 17.5125 61.811 17.4844C61.7266 17.455 61.6326 17.4404 61.5298 17.4404C61.3475 17.4405 61.1903 17.4849 61.0581 17.5742C60.9271 17.6636 60.8264 17.793 60.7554 17.9619C60.6856 18.1308 60.6509 18.3353 60.6509 18.5752C60.6509 18.8248 60.6863 19.0343 60.7573 19.2031C60.8295 19.3707 60.9304 19.4974 61.0601 19.583C61.191 19.6674 61.3462 19.71 61.5249 19.71C61.6251 19.7099 61.7165 19.6966 61.7983 19.6709C61.8812 19.6453 61.9539 19.6083 62.0161 19.5596C62.0798 19.5094 62.132 19.448 62.1724 19.377C62.2139 19.3048 62.2434 19.2233 62.2593 19.1328L63.1772 19.1387C63.1613 19.3052 63.1125 19.4693 63.0317 19.6309C62.9522 19.7923 62.843 19.9399 62.7036 20.0732C62.5641 20.2054 62.3935 20.3103 62.1929 20.3887C61.9934 20.467 61.7645 20.5068 61.5063 20.5068C61.166 20.5068 60.8606 20.4316 60.5913 20.2822C60.3234 20.1317 60.1119 19.9125 59.9565 19.625C59.8011 19.3374 59.7232 18.9876 59.7231 18.5752C59.7231 18.1614 59.8025 17.8101 59.9604 17.5225C60.1183 17.235 60.3319 17.0165 60.6011 16.8672C60.8703 16.7179 61.1723 16.6436 61.5063 16.6436ZM86.2075 16.6436C86.4071 16.6436 86.5935 16.672 86.7661 16.7295C86.9398 16.7858 87.0956 16.8694 87.2339 16.9795C87.3722 17.0884 87.4871 17.222 87.5776 17.3799C87.6681 17.5365 87.7294 17.7161 87.7612 17.918H87.188C87.166 17.7956 87.1249 17.6877 87.0649 17.5947C87.005 17.5018 86.932 17.4223 86.8452 17.3574C86.7584 17.2926 86.6608 17.244 86.5532 17.2109C86.4468 17.1779 86.3333 17.1612 86.2134 17.1611C85.9968 17.1611 85.8027 17.2154 85.6313 17.3242C85.4612 17.4332 85.3262 17.5932 85.2271 17.8037C85.1291 18.0143 85.0806 18.2716 85.0806 18.5752C85.0806 18.881 85.1292 19.1392 85.2271 19.3496C85.3262 19.5602 85.4619 19.7194 85.6333 19.8271C85.8046 19.9348 85.9973 19.9893 86.2114 19.9893C86.3301 19.9893 86.4428 19.9732 86.5493 19.9414C86.657 19.9084 86.7544 19.8595 86.8413 19.7959C86.9282 19.7323 87.0011 19.6543 87.061 19.5625C87.1222 19.4695 87.1647 19.3631 87.188 19.2432L87.7612 19.2451C87.7306 19.43 87.6707 19.6004 87.5825 19.7559C87.4956 19.9099 87.3836 20.0437 87.2466 20.1562C87.1108 20.2675 86.9556 20.3539 86.7808 20.415C86.6057 20.4762 86.4144 20.5068 86.2075 20.5068C85.882 20.5068 85.5919 20.4296 85.3374 20.2754C85.0828 20.1199 84.8818 19.8973 84.7349 19.6084C84.5893 19.3196 84.5161 18.9752 84.5161 18.5752C84.5161 18.1737 84.5899 17.8287 84.7368 17.541C84.8837 17.2522 85.0848 17.0312 85.3394 16.877C85.5939 16.7215 85.8832 16.6436 86.2075 16.6436ZM89.9106 16.6436C90.2349 16.6436 90.5243 16.7216 90.7788 16.877C91.0345 17.0312 91.2365 17.2522 91.3833 17.541C91.5302 17.8287 91.603 18.1737 91.603 18.5752C91.603 18.9764 91.5301 19.3216 91.3833 19.6104C91.2364 19.898 91.0346 20.1199 90.7788 20.2754C90.5243 20.4296 90.2349 20.5068 89.9106 20.5068C89.585 20.5068 89.2934 20.4296 89.0376 20.2754C88.7831 20.1199 88.5829 19.8972 88.436 19.6084C88.2892 19.3196 88.2154 18.9753 88.2153 18.5752C88.2153 18.1737 88.2891 17.8287 88.436 17.541C88.5828 17.2524 88.7833 17.0311 89.0376 16.877C89.2934 16.7215 89.585 16.6436 89.9106 16.6436ZM52.606 17.1826H51.4331V20.4551H50.8677V17.1826H49.6958V16.6943H52.606V17.1826ZM53.7134 18.3281H55.5874V16.6943H56.1567V20.4551H55.5874V18.8154H53.7134V20.4551H53.146V16.6943H53.7134V18.3281ZM59.2378 17.1826H57.4468V18.3281H59.1147V18.8154H57.4468V19.9668H59.2593V20.4551H56.8794V16.6943H59.2378V17.1826ZM64.5024 18.2041H65.9839V16.6943H66.8911V20.4551H65.9839V18.9434H64.5024V20.4551H63.5933V16.6943H64.5024V18.2041ZM70.9419 20.4551H69.9653L69.7173 19.665H68.4194L68.1714 20.4551H67.1948L68.4634 16.6943H69.6733L70.9419 20.4551ZM73.5063 18.8613H73.5376V16.6943H74.4438V20.4551H73.6733L72.1763 18.2842H72.1528V20.4551H71.2437V16.6943H72.0259L73.5063 18.8613ZM77.1743 18.8613H77.2056V16.6943H78.1128V20.4551H77.3413L75.8452 18.2842H75.8208V20.4551H74.9126V16.6943H75.6948L77.1743 18.8613ZM81.2026 17.4326H79.4897V18.2041H81.0688V18.9434H79.4897V19.7168H81.2026V20.4551H78.5806V16.6943H81.2026V17.4326ZM82.5776 19.7168H84.1421V20.4551H81.6685V16.6943H82.5776V19.7168ZM89.9106 17.1611C89.694 17.1611 89.4997 17.2153 89.3296 17.3242C89.1596 17.4319 89.0254 17.5914 88.9263 17.8018C88.8283 18.0111 88.7788 18.2692 88.7788 18.5752C88.7788 18.8811 88.8284 19.1391 88.9263 19.3496C89.0254 19.5588 89.1596 19.7182 89.3296 19.8271C89.4997 19.9349 89.694 19.9893 89.9106 19.9893C90.1259 19.9892 90.3187 19.9348 90.4888 19.8271C90.6601 19.7182 90.7952 19.5589 90.8931 19.3496C90.9921 19.1392 91.0415 18.881 91.0415 18.5752C91.0415 18.2692 90.9922 18.0111 90.8931 17.8018C90.7951 17.5912 90.6601 17.4319 90.4888 17.3242C90.3187 17.2154 90.1259 17.1612 89.9106 17.1611ZM68.6353 18.9746H69.5005L69.0825 17.6416H69.0532L68.6353 18.9746ZM82.3716 15.2881H58.0454V14.3477H82.3716V15.2881Z" fill="black"/>
<path d="M65.792 76.2666C66.4261 76.2666 66.9705 76.4388 67.4238 76.7822C67.877 77.1229 68.2238 77.6174 68.4639 78.2656C68.7067 78.9113 68.8281 79.6916 68.8281 80.6064C68.8281 81.5268 68.7079 82.3127 68.4678 82.9639C68.2277 83.6121 67.8809 84.1077 67.4277 84.4512C66.9744 84.7919 66.4288 84.9629 65.792 84.9629C65.1527 84.9601 64.6065 84.7879 64.1533 84.4473C63.7001 84.1066 63.3534 83.6109 63.1133 82.96C62.8731 82.3088 62.7529 81.5241 62.7529 80.6064C62.7529 79.6916 62.8732 78.9101 63.1133 78.2617C63.3561 77.6134 63.7041 77.119 64.1572 76.7783C64.6131 76.4377 65.1581 76.2667 65.792 76.2666ZM85.6426 76.2666C86.174 76.2666 86.6328 76.3725 87.0186 76.584C87.4071 76.7928 87.7065 77.072 87.917 77.4209C88.1301 77.7698 88.2361 78.1516 88.2334 78.5664C88.2361 79.0388 88.1063 79.4399 87.8447 79.7695C87.5857 80.0992 87.2402 80.3209 86.8086 80.4336V80.499C87.3588 80.5842 87.7848 80.8072 88.0869 81.167C88.3918 81.5269 88.5437 81.9738 88.541 82.5068C88.5436 82.9709 88.4163 83.3869 88.1602 83.7549C87.9065 84.123 87.5599 84.4134 87.1201 84.625C86.6803 84.8338 86.177 84.9375 85.6104 84.9375C85.0546 84.9375 84.5582 84.8405 84.1211 84.6455C83.6867 84.4504 83.3425 84.1792 83.0889 83.833C82.8381 83.4842 82.7035 83.0807 82.6846 82.6221H83.9551C83.9713 82.872 84.0538 83.0894 84.2021 83.2734C84.3532 83.4546 84.5503 83.5945 84.793 83.6934C85.0358 83.7922 85.3058 83.8418 85.6025 83.8418C85.9289 83.8418 86.2179 83.7843 86.4688 83.6689C86.7223 83.5536 86.9205 83.3925 87.0635 83.1865C87.2065 82.9777 87.2773 82.7368 87.2773 82.4648C87.2773 82.1822 87.2062 81.9339 87.0635 81.7197C86.9232 81.5027 86.7168 81.3316 86.4443 81.208C86.1746 81.0844 85.8479 81.0225 85.4648 81.0225H84.7646V79.9844H85.4648C85.7724 79.9843 86.0424 79.9281 86.2744 79.8154C86.5089 79.7029 86.6921 79.5461 86.8242 79.3457C86.9564 79.1425 87.0224 78.9047 87.0225 78.6328C87.0225 78.3718 86.9647 78.1445 86.8486 77.9521C86.7353 77.7573 86.5736 77.605 86.3633 77.4951C86.1556 77.3853 85.9101 77.3301 85.627 77.3301C85.3573 77.3301 85.1047 77.3809 84.8701 77.4824C84.6381 77.5813 84.4484 77.7243 84.3027 77.9111C84.1571 78.0952 84.0792 78.317 84.0684 78.5752H82.8584C82.8719 78.1191 83.004 77.7173 83.2549 77.3711C83.5085 77.025 83.8433 76.7546 84.2588 76.5596C84.6742 76.3646 85.1354 76.2666 85.6426 76.2666ZM55.8574 76.2666C56.378 76.2666 56.8368 76.3725 57.2334 76.584C57.6327 76.7928 57.944 77.0788 58.168 77.4414C58.3919 77.8013 58.5039 78.2079 58.5039 78.6611C58.5039 78.9743 58.446 79.2807 58.3301 79.5801C58.2168 79.8796 58.0187 80.2139 57.7354 80.582C57.4521 80.9474 57.0582 81.3911 56.5537 81.9131L54.9062 83.6689V83.7305H58.6377V84.8223H53.1816V83.8994L55.9863 80.9404C56.2858 80.619 56.5333 80.3375 56.7275 80.0957C56.9244 79.8514 57.0708 79.6191 57.168 79.3994C57.2651 79.1796 57.3145 78.9455 57.3145 78.6982C57.3144 78.4181 57.2496 78.1759 57.1201 77.9727C56.9906 77.7667 56.8137 77.6089 56.5898 77.499C56.3659 77.3864 56.1135 77.3301 55.833 77.3301C55.5362 77.3301 55.2769 77.392 55.0557 77.5156C54.8344 77.6393 54.6646 77.8138 54.5459 78.0391C54.4272 78.2643 54.3682 78.5279 54.3682 78.8301H53.1738C53.1739 78.3164 53.2895 77.867 53.5215 77.4824C53.7535 77.0978 54.0719 76.7994 54.4766 76.5879C54.8813 76.3736 55.3421 76.2666 55.8574 76.2666ZM75.6738 76.2666C76.1946 76.2666 76.6541 76.3724 77.0508 76.584C77.45 76.7928 77.7615 77.0788 77.9854 77.4414C78.2093 77.8013 78.3213 78.2079 78.3213 78.6611C78.3213 78.9742 78.2634 79.2807 78.1475 79.5801C78.0341 79.8796 77.8351 80.2139 77.5518 80.582C77.2685 80.9474 76.8745 81.3912 76.3701 81.9131L74.7227 83.6689V83.7305H78.4551V84.8223H72.999V83.8994L75.8037 80.9404C76.1031 80.6191 76.3497 80.3374 76.5439 80.0957C76.7408 79.8513 76.8882 79.6191 76.9854 79.3994C77.0825 79.1796 77.1309 78.9455 77.1309 78.6982C77.1308 78.4181 77.066 78.1759 76.9365 77.9727C76.8071 77.7669 76.6308 77.6088 76.4072 77.499C76.1834 77.3864 75.9308 77.3301 75.6504 77.3301C75.3536 77.3301 75.0943 77.392 74.873 77.5156C74.6518 77.6392 74.482 77.8138 74.3633 78.0391C74.2446 78.2643 74.1846 78.5279 74.1846 78.8301H72.9912C72.9912 78.3164 73.1068 77.867 73.3389 77.4824C73.5709 77.0978 73.8893 76.7994 74.2939 76.5879C74.6986 76.3737 75.1587 76.2667 75.6738 76.2666ZM65.792 77.3467C65.2337 77.3468 64.7958 77.6272 64.4775 78.1875C64.1592 78.748 63.9978 79.5542 63.9951 80.6064C63.9951 81.3096 64.067 81.9044 64.21 82.3906C64.3556 82.8741 64.562 83.2412 64.8291 83.4912C65.0961 83.7384 65.4171 83.8622 65.792 83.8623C66.3532 83.8623 66.7917 83.5831 67.1074 83.0254C67.4258 82.4677 67.585 81.6615 67.585 80.6064C67.585 79.9059 67.5129 79.3136 67.3672 78.8301C67.2242 78.3439 67.0178 77.9756 66.748 77.7256C66.4809 77.4728 66.1616 77.3467 65.792 77.3467Z" fill="black"/>
<path d="M46.4146 61.3154C46.9203 61.3155 47.3641 61.4098 47.7446 61.5977C48.1273 61.7831 48.4279 62.0419 48.646 62.373C48.864 62.7018 48.9769 63.0802 48.9839 63.5078H47.7407C47.7082 63.184 47.5709 62.9314 47.3296 62.751C47.0906 62.5707 46.7797 62.4805 46.397 62.4805C46.1278 62.4805 45.8962 62.5238 45.7036 62.6104C45.5113 62.6968 45.3642 62.8147 45.2622 62.9629C45.1602 63.1112 45.1074 63.2805 45.105 63.4707C45.105 63.6289 45.1393 63.7666 45.2065 63.8828C45.2761 63.9988 45.3696 64.0982 45.4878 64.1797C45.6061 64.2588 45.7375 64.3255 45.8813 64.3799C46.0252 64.4343 46.1707 64.4795 46.3169 64.5166L46.9849 64.6953C47.254 64.7621 47.513 64.8521 47.7612 64.9658C48.0117 65.0795 48.2359 65.2226 48.4331 65.3955C48.6326 65.5685 48.7907 65.7779 48.9067 66.0225C49.0228 66.2672 49.0805 66.555 49.0806 66.8838C49.0805 67.3286 48.9736 67.721 48.7603 68.0596C48.5468 68.3956 48.238 68.6593 47.8345 68.8496C47.4331 69.0374 46.947 69.1308 46.3765 69.1309C45.8218 69.1309 45.3396 69.0394 44.9312 68.8564C44.5251 68.6735 44.2068 68.4067 43.9771 68.0557C43.7497 67.7046 43.6265 67.2767 43.6079 66.7725H44.8794C44.898 67.0368 44.9744 67.2572 45.1089 67.4326C45.2434 67.608 45.4187 67.7387 45.6343 67.8252C45.8524 67.9117 46.0965 67.9551 46.3657 67.9551C46.6465 67.9551 46.8929 67.9103 47.104 67.8213C47.3172 67.7298 47.4844 67.6039 47.605 67.4434C47.7255 67.2802 47.7872 67.0896 47.7896 66.8721C47.7872 66.6744 47.7322 66.5113 47.6255 66.3828C47.5187 66.2518 47.3688 66.1422 47.1763 66.0557C46.9861 65.9668 46.7633 65.8875 46.5083 65.8184L45.6968 65.5957C45.1098 65.435 44.6453 65.1916 44.3042 64.8652C43.9656 64.5364 43.7964 64.0995 43.7964 63.5557C43.7965 63.1084 43.9099 62.716 44.1372 62.3799C44.3669 62.0438 44.6794 61.7831 45.0737 61.5977C45.4682 61.4098 45.9156 61.3154 46.4146 61.3154ZM94.5767 61.3154C95.0825 61.3154 95.5262 61.4098 95.9067 61.5977C96.2895 61.7831 96.59 62.0418 96.8081 62.373C97.0261 62.7018 97.139 63.0802 97.146 63.5078H95.9028C95.8703 63.184 95.733 62.9314 95.4917 62.751C95.2527 62.5707 94.9417 62.4805 94.5591 62.4805C94.2901 62.4805 94.0592 62.5239 93.8667 62.6104C93.6742 62.6969 93.5264 62.8146 93.4243 62.9629C93.3223 63.1111 93.2695 63.2805 93.2671 63.4707C93.2671 63.6289 93.3014 63.7666 93.3687 63.8828C93.4382 63.9989 93.5326 64.0982 93.6509 64.1797C93.769 64.2586 93.8999 64.3256 94.0435 64.3799C94.1873 64.4343 94.3328 64.4795 94.479 64.5166L95.1479 64.6953C95.417 64.7621 95.6762 64.8522 95.9243 64.9658C96.1747 65.0795 96.3991 65.2226 96.5962 65.3955C96.7956 65.5685 96.9528 65.7779 97.0688 66.0225C97.1849 66.2672 97.2436 66.555 97.2437 66.8838C97.2436 67.3286 97.1367 67.721 96.9233 68.0596C96.7098 68.3958 96.4003 68.6592 95.9966 68.8496C95.5952 69.0374 95.1091 69.1308 94.5386 69.1309C93.9839 69.1309 93.5017 69.0394 93.0933 68.8564C92.6873 68.6735 92.3689 68.4067 92.1392 68.0557C91.9119 67.7047 91.7896 67.2766 91.771 66.7725H93.0415C93.0601 67.0368 93.1365 67.2572 93.271 67.4326C93.4055 67.608 93.5808 67.7387 93.7964 67.8252C94.0145 67.9117 94.2586 67.9551 94.5278 67.9551C94.8086 67.9551 95.0549 67.9103 95.2661 67.8213C95.4794 67.7298 95.6465 67.604 95.7671 67.4434C95.8877 67.2802 95.9493 67.0896 95.9517 66.8721C95.9493 66.6744 95.8943 66.5113 95.7876 66.3828C95.6809 66.2519 95.5318 66.1422 95.3394 66.0557C95.1491 65.9667 94.9257 65.8876 94.6704 65.8184L93.8599 65.5957C93.2728 65.435 92.8084 65.1916 92.4673 64.8652C92.1285 64.5364 91.9585 64.0996 91.9585 63.5557C91.9586 63.1084 92.072 62.716 92.2993 62.3799C92.529 62.0438 92.8416 61.7831 93.2358 61.5977C93.6304 61.4098 94.0777 61.3154 94.5767 61.3154ZM79.0376 66.2666C79.0376 66.5829 79.1021 66.8651 79.2319 67.1123C79.3642 67.3595 79.5506 67.5534 79.7896 67.6943C80.0286 67.8328 80.3119 67.9023 80.6392 67.9023C80.9662 67.9023 81.2489 67.8327 81.4878 67.6943C81.7291 67.5534 81.9155 67.3595 82.0454 67.1123C82.1753 66.8651 82.2407 66.583 82.2407 66.2666V61.4189H83.5317V66.3818C83.5317 66.9257 83.4107 67.4045 83.1694 67.8174C82.9305 68.23 82.5943 68.5528 82.1606 68.7852C81.7267 69.0151 81.2192 69.1298 80.6392 69.1299C80.0566 69.1299 79.5478 69.0151 79.1138 68.7852C78.6799 68.5527 78.343 68.2303 78.104 67.8174C77.865 67.4045 77.7456 66.9257 77.7456 66.3818V61.4189H79.0376V66.2666ZM56.0005 62.5723H53.7964V69.0156H52.5151V62.5723H50.312V61.4189H56.0005V62.5723ZM62.7817 69.0156H61.4028L60.812 67.1416H58.1323L57.5425 69.0156H56.1636L58.6743 61.4189H60.2681L62.7817 69.0156ZM66.7876 61.4189C67.3349 61.419 67.7944 61.5201 68.1655 61.7227C68.5391 61.9254 68.8209 62.2103 69.0112 62.5762C69.2038 62.9396 69.3003 63.3641 69.3003 63.8486C69.3002 64.3355 69.2031 64.7588 69.0083 65.1172C68.8157 65.473 68.5315 65.749 68.1558 65.9443C68.1117 65.9669 68.0655 65.9869 68.019 66.0068L69.562 69.0156H68.1206L66.7192 66.2334H65.4048V69.0156H64.1138V61.4189H66.7876ZM76.2563 62.5723H74.0532V69.0156H72.772V62.5723H70.5679V61.4189H76.2563V62.5723ZM88.0015 61.4189C88.5491 61.419 89.0091 61.5275 89.3804 61.7451C89.7539 61.9627 90.0358 62.262 90.2261 62.6426C90.4187 63.0209 90.5151 63.4515 90.5151 63.9336C90.5151 64.4205 90.4185 64.8532 90.2261 65.2314C90.0335 65.6097 89.7494 65.9084 89.3735 66.126C88.9976 66.3411 88.5339 66.4482 87.9839 66.4482H86.6196V69.0156H85.3276V61.4189H88.0015ZM58.48 66.0371H60.4634L59.4985 62.9766H59.4429L58.48 66.0371ZM86.6196 65.3174H87.8101C88.1303 65.3174 88.3929 65.2574 88.5972 65.1387C88.8011 65.02 88.9519 64.8569 89.0493 64.6494C89.149 64.4418 89.1987 64.203 89.1987 63.9336C89.1987 63.6642 89.149 63.4268 89.0493 63.2217C88.9518 63.0165 88.7998 62.8569 88.5933 62.7432C88.3891 62.627 88.1257 62.5684 87.8032 62.5684H86.6196V65.3174ZM65.4048 65.0908H66.5952C66.9154 65.0908 67.1781 65.0441 67.3823 64.9502C67.5865 64.8538 67.738 64.7132 67.8354 64.5303C67.9349 64.345 67.9848 64.1176 67.9849 63.8486C67.9848 63.5792 67.9352 63.3485 67.8354 63.1582C67.7357 62.9655 67.5834 62.8196 67.3794 62.7207C67.1752 62.6193 66.9109 62.5684 66.5884 62.5684H65.4048V65.0908ZM47.1763 49.1309C47.7753 49.1309 48.3008 49.2423 48.7515 49.4648C49.2047 49.6845 49.5606 49.9906 49.8188 50.3828C50.0771 50.7722 50.21 51.2201 50.2183 51.7266H48.7466C48.708 51.3431 48.546 51.0448 48.2603 50.8311C47.9772 50.6173 47.6091 50.5098 47.1558 50.5098C46.8371 50.5098 46.5635 50.5616 46.3354 50.6641C46.1075 50.7665 45.9329 50.9055 45.812 51.0811C45.6911 51.2567 45.6293 51.4573 45.6265 51.6826C45.6265 51.87 45.6659 52.0333 45.7456 52.1709C45.828 52.3083 45.9396 52.425 46.0796 52.5215C46.2197 52.6151 46.3751 52.6944 46.5454 52.7588C46.7158 52.8232 46.8879 52.878 47.061 52.9219L47.8521 53.1328C48.1708 53.2119 48.4779 53.3184 48.772 53.4531C49.0686 53.5878 49.3334 53.758 49.5669 53.9629C49.8032 54.1679 49.991 54.4152 50.1284 54.7051C50.2657 54.9948 50.3344 55.3345 50.3345 55.7236C50.3345 56.2507 50.2074 56.7151 49.9546 57.1162C49.7018 57.5144 49.3361 57.8263 48.8579 58.0518C48.3825 58.2743 47.8064 58.3857 47.1304 58.3857C46.4739 58.3857 45.9039 58.2771 45.4204 58.0605C44.9395 57.8439 44.5626 57.528 44.2905 57.1123C44.0213 56.6966 43.8751 56.19 43.853 55.5928H45.3579C45.38 55.9059 45.471 56.1662 45.6304 56.374C45.7897 56.5818 45.997 56.7374 46.2524 56.8398C46.5108 56.9423 46.7999 56.9932 47.1187 56.9932C47.4511 56.9931 47.7426 56.9403 47.9927 56.835C48.2453 56.7266 48.4436 56.5779 48.5864 56.3877C48.7293 56.1944 48.8014 55.9686 48.8042 55.7109C48.8015 55.4767 48.7372 55.2831 48.6108 55.1309C48.4844 54.9757 48.3066 54.8466 48.0786 54.7441C47.8534 54.6389 47.5896 54.5458 47.2876 54.4639L46.3267 54.2002C45.6317 54.0099 45.0822 53.7212 44.6782 53.335C44.277 52.9455 44.0757 52.4283 44.0757 51.7842C44.0757 51.2542 44.2107 50.7898 44.48 50.3916C44.7521 49.9934 45.1221 49.6845 45.5894 49.4648C46.0565 49.2424 46.5855 49.1309 47.1763 49.1309ZM58.5278 50.6182H55.9175V58.248H54.4009V50.6182H51.7915V49.2529H58.5278V50.6182ZM65.7817 50.6182H61.8198V53.0605H65.4976V54.4268H61.8198V56.8828H65.8149V58.248H60.2905V49.2529H65.7817V50.6182ZM69.3354 56.8828H73.0542V58.248H67.8062V49.2529H69.3354V56.8828ZM76.3755 56.8828H80.0942V58.248H74.8462V49.2529H76.3755V56.8828ZM89.4927 58.248H87.8599L87.1606 56.0303H83.9868L83.2886 58.248H81.6558L84.6284 49.2529H86.5161L89.4927 58.248ZM94.2358 49.2529C94.8844 49.2529 95.4289 49.3722 95.8687 49.6123C96.3111 49.8524 96.6453 50.1897 96.8706 50.623C97.0986 51.0535 97.2124 51.556 97.2124 52.1299C97.2124 52.7066 97.0965 53.2073 96.8657 53.6318C96.6376 54.0534 96.3011 54.38 95.856 54.6113C95.8039 54.6381 95.7497 54.662 95.6948 54.6855L97.522 58.248H95.8149L94.1558 54.9541H92.5991V58.248H91.0698V49.2529H94.2358ZM84.3989 54.7217H86.7476L85.605 51.0977H85.5396L84.3989 54.7217ZM92.5991 53.6016H94.0093C94.3884 53.6015 94.6991 53.5458 94.9409 53.4346C95.1827 53.3204 95.3616 53.1542 95.4771 52.9375C95.595 52.718 95.6538 52.4488 95.6538 52.1299C95.6538 51.8107 95.5952 51.538 95.4771 51.3125C95.3589 51.0842 95.1788 50.9111 94.937 50.7939C94.6952 50.6739 94.3825 50.6143 94.0005 50.6143H92.5991V53.6016Z" fill="white"/>
<path fill-rule="evenodd" clip-rule="evenodd" d="M55.0962 26.6534C54.358 26.7784 53.0933 27.2721 52.4227 27.697C50.6475 28.8217 49.432 30.595 49.0114 32.6737C48.448 35.4578 49.1794 38.0469 51.0759 39.9822C52.5094 41.4448 54.3349 42.1752 56.5525 42.1737C58.9368 42.1719 60.5087 41.5442 62.0687 39.9707C62.5715 39.4635 62.9763 38.8837 62.9763 38.8837C62.9763 38.8837 60.5668 37.006 60.0243 36.6192C58.9634 38.4398 56.427 39.225 54.4701 37.6765C52.715 36.2874 52.595 32.8054 54.2499 31.2823C55.0469 30.5488 55.6114 30.3177 56.6115 30.3154C58.0791 30.3119 59.2778 31.0731 59.9432 31.9275C59.9432 31.9275 62.8651 29.7261 62.8651 29.5525C62.8651 29.5525 62.5066 29.0241 62.0687 28.5968C60.3546 26.9243 57.7624 26.2018 55.0962 26.6534ZM63.927 41.9098L67.9978 41.8441L68.062 37.3366L69.8857 37.3442L72.832 41.9042C73.3275 41.9042 77.4963 41.8482 77.4963 41.8482L74.0745 36.6692C74.5318 36.3463 75.036 36.1312 75.4603 35.7551C77.5855 33.8715 77.7248 30.0338 75.4603 28.1634C74.0559 27.0032 73.347 26.8791 68.1221 26.8791H63.927V41.9098ZM78.2789 26.9735C78.2789 26.9735 78.2465 38.4373 78.254 41.9096L82.275 41.8441L82.4233 33.8806C84.5165 36.5623 86.5916 39.2607 88.724 41.9103L92.3044 41.8441V26.9392H88.3593L88.3259 34.9166L82.1681 26.9711L78.2789 26.9735ZM68.0568 34.0911H69.7533C71.6363 34.0911 72.016 33.9956 72.5954 33.3762C73.3655 32.5532 72.9251 31.1433 72.0019 30.6654C71.6131 30.4641 71.2544 30.4188 69.7972 30.3863L68.0568 30.3476V34.0911Z" fill="black"/>
</svg>
