<svg width="142" height="100" viewBox="0 0 142 100" fill="none" xmlns="http://www.w3.org/2000/svg">
<path d="M35.3706 42.5928H25.0002L27.4308 50.0002L25.0002 57.4076H35.3706V42.5928Z" fill="black"/>
<path d="M106.482 57.4082L116.852 57.4082L114.422 50.0008L116.852 42.5934L106.482 42.5934L106.482 57.4082Z" fill="black"/>
<path d="M32.186 40C36.6265 22.7477 52.2875 10 70.9259 10C89.5643 10 105.225 22.7477 109.666 40M32.186 60C36.6265 77.2523 52.2875 90 70.9259 90C89.5643 90 105.225 77.2523 109.666 60" stroke="black"/>
<circle cx="70.9262" cy="50" r="35.8974" stroke="black"/>
<path d="M82.0201 34.3707C81.6452 34.3682 81.2792 34.3031 80.9221 34.1756C80.5651 34.0455 80.2437 33.8351 79.958 33.5443C79.6724 33.251 79.4454 32.8621 79.2771 32.3775C79.1087 31.8903 79.0258 31.2871 79.0284 30.5679C79.0284 29.8971 79.0998 29.299 79.2426 28.7736C79.3854 28.2482 79.5908 27.8044 79.8586 27.4422C80.1264 27.0775 80.449 26.7995 80.8265 26.6082C81.2065 26.4169 81.6312 26.3213 82.1005 26.3213C82.5927 26.3213 83.0289 26.4182 83.4089 26.612C83.7915 26.8059 84.1001 27.0711 84.3347 27.4078C84.5694 27.7419 84.7147 28.1194 84.7709 28.5402H83.3745C83.303 28.2393 83.1564 27.9995 82.9345 27.821C82.7151 27.6399 82.4371 27.5494 82.1005 27.5494C81.5572 27.5494 81.1389 27.7853 80.8456 28.2571C80.5549 28.729 80.4082 29.3768 80.4057 30.2006H80.4592C80.5842 29.9762 80.7461 29.7836 80.9451 29.6229C81.144 29.4622 81.3685 29.3385 81.6184 29.2518C81.8709 29.1626 82.1375 29.1179 82.418 29.1179C82.8771 29.1179 83.289 29.2276 83.6537 29.4469C84.021 29.6663 84.3118 29.9685 84.526 30.3537C84.7403 30.7362 84.8461 31.1749 84.8435 31.6697C84.8461 32.1849 84.7288 32.6478 84.4916 33.0585C84.2544 33.4666 83.9241 33.7879 83.5007 34.0226C83.0773 34.2572 82.5838 34.3733 82.0201 34.3707ZM82.0125 33.223C82.2905 33.223 82.5392 33.1554 82.7585 33.0202C82.9778 32.885 83.1513 32.7027 83.2788 32.4731C83.4063 32.2436 83.4688 31.986 83.4663 31.7003C83.4688 31.4198 83.4076 31.166 83.2826 30.939C83.1602 30.712 82.9906 30.5322 82.7738 30.3996C82.557 30.2669 82.3096 30.2006 82.0316 30.2006C81.825 30.2006 81.6325 30.2402 81.4539 30.3192C81.2754 30.3983 81.1198 30.508 80.9872 30.6482C80.8545 30.786 80.75 30.9466 80.6735 31.1303C80.5995 31.3114 80.5612 31.5052 80.5587 31.7118C80.5612 31.9847 80.625 32.2359 80.75 32.4655C80.8749 32.695 81.0471 32.8787 81.2665 33.0164C81.4858 33.1541 81.7345 33.223 82.0125 33.223Z" fill="black"/>
<path d="M72.4595 34.2636V33.2383L75.1796 30.5717C75.4398 30.309 75.6566 30.0756 75.83 29.8716C76.0034 29.6676 76.1335 29.4699 76.2202 29.2786C76.3069 29.0873 76.3503 28.8833 76.3503 28.6665C76.3503 28.4191 76.2942 28.2074 76.182 28.0314C76.0697 27.8529 75.9154 27.7151 75.719 27.6182C75.5226 27.5213 75.2995 27.4728 75.0495 27.4728C74.7919 27.4728 74.5662 27.5264 74.3724 27.6335C74.1785 27.7381 74.028 27.8873 73.9209 28.0811C73.8164 28.275 73.7641 28.5058 73.7641 28.7736H72.4136C72.4136 28.2763 72.5271 27.8439 72.7541 27.4767C72.9811 27.1094 73.2935 26.825 73.6914 26.6235C74.0918 26.422 74.5509 26.3213 75.0687 26.3213C75.5941 26.3213 76.0557 26.4195 76.4536 26.6159C76.8515 26.8123 77.1601 27.0813 77.3794 27.4231C77.6013 27.7649 77.7123 28.1551 77.7123 28.5938C77.7123 28.8871 77.6562 29.1753 77.5439 29.4584C77.4317 29.7415 77.234 30.0552 76.9509 30.3996C76.6704 30.7439 76.2763 31.1609 75.7688 31.6506L74.4183 33.024V33.0776H77.8309V34.2636H72.4595Z" fill="black"/>
<path d="M68.1699 34.4128C67.5399 34.4128 66.9992 34.2534 66.5478 33.9346C66.0989 33.6132 65.7533 33.1503 65.511 32.5458C65.2712 31.9388 65.1514 31.2081 65.1514 30.3537C65.1539 29.4992 65.2751 28.7723 65.5148 28.173C65.7571 27.571 66.1027 27.1119 66.5516 26.7957C67.003 26.4794 67.5425 26.3213 68.1699 26.3213C68.7973 26.3213 69.3368 26.4794 69.7882 26.7957C70.2396 27.1119 70.5852 27.571 70.825 28.173C71.0673 28.7749 71.1884 29.5018 71.1884 30.3537C71.1884 31.2106 71.0673 31.9426 70.825 32.5496C70.5852 33.1541 70.2396 33.6158 69.7882 33.9346C69.3393 34.2534 68.7999 34.4128 68.1699 34.4128ZM68.1699 33.2153C68.6596 33.2153 69.046 32.9743 69.3291 32.4923C69.6148 32.0077 69.7576 31.2948 69.7576 30.3537C69.7576 29.7313 69.6926 29.2085 69.5625 28.7851C69.4324 28.3617 69.2488 28.0429 69.0116 27.8286C68.7744 27.6118 68.4938 27.5035 68.1699 27.5035C67.6828 27.5035 67.2976 27.7458 67.0145 28.2303C66.7314 28.7124 66.5886 29.4202 66.586 30.3537C66.5835 30.9785 66.646 31.5039 66.7735 31.9299C66.9036 32.3558 67.0872 32.6772 67.3244 32.894C67.5616 33.1082 67.8434 33.2153 68.1699 33.2153Z" fill="black"/>
<path d="M58.5825 34.2636V33.2383L61.3027 30.5717C61.5628 30.309 61.7796 30.0756 61.953 29.8716C62.1265 29.6676 62.2565 29.4699 62.3433 29.2786C62.43 29.0873 62.4733 28.8833 62.4733 28.6665C62.4733 28.4191 62.4172 28.2074 62.305 28.0314C62.1928 27.8529 62.0385 27.7151 61.8421 27.6182C61.6457 27.5213 61.4225 27.4728 61.1726 27.4728C60.915 27.4728 60.6893 27.5264 60.4954 27.6335C60.3016 27.7381 60.1511 27.8873 60.044 28.0811C59.9394 28.275 59.8871 28.5058 59.8871 28.7736H58.5366C58.5366 28.2763 58.6501 27.8439 58.8771 27.4767C59.1041 27.1094 59.4165 26.825 59.8144 26.6235C60.2149 26.422 60.674 26.3213 61.1917 26.3213C61.7171 26.3213 62.1788 26.4195 62.5766 26.6159C62.9745 26.8123 63.2831 27.0813 63.5025 27.4231C63.7244 27.7649 63.8353 28.1551 63.8353 28.5938C63.8353 28.8871 63.7792 29.1753 63.667 29.4584C63.5548 29.7415 63.3571 30.0552 63.074 30.3996C62.7934 30.7439 62.3994 31.1609 61.8918 31.6506L60.5413 33.024V33.0776H63.9539V34.2636H58.5825Z" fill="black"/>
<path d="M100.781 52.3995C100.013 52.3965 99.3523 52.2076 98.7989 51.8326C98.2484 51.4577 97.8244 50.9147 97.5268 50.2035C97.2322 49.4923 97.0864 48.6368 97.0894 47.637C97.0894 46.6402 97.2367 45.7907 97.5313 45.0884C97.8288 44.3862 98.2529 43.8521 98.8033 43.4861C99.3568 43.1171 100.016 42.9326 100.781 42.9326C101.545 42.9326 102.203 43.1171 102.753 43.4861C103.307 43.8551 103.732 44.3907 104.03 45.0929C104.328 45.7922 104.475 46.6402 104.472 47.637C104.472 48.6398 104.323 49.4968 104.026 50.208C103.731 50.9191 103.308 51.4622 102.758 51.8371C102.207 52.212 101.548 52.3995 100.781 52.3995ZM100.781 50.7971C101.304 50.7971 101.722 50.5338 102.035 50.0071C102.347 49.4804 102.502 48.6904 102.499 47.637C102.499 46.9437 102.428 46.3665 102.285 45.9052C102.145 45.444 101.946 45.0974 101.687 44.8653C101.431 44.6332 101.129 44.5171 100.781 44.5171C100.26 44.5171 99.8433 44.7775 99.5309 45.2982C99.2184 45.8189 99.0607 46.5986 99.0578 47.637C99.0578 48.3393 99.1277 48.9255 99.2675 49.3956C99.4104 49.8628 99.6112 50.2139 99.8701 50.449C100.129 50.6811 100.432 50.7971 100.781 50.7971Z" fill="black"/>
<path d="M92.6853 52.3246C92.0545 52.3246 91.4921 52.2086 90.9981 51.9765C90.5072 51.7444 90.1174 51.4245 89.8287 51.0168C89.5401 50.6092 89.3898 50.142 89.3779 49.6153H91.2526C91.2734 49.9694 91.4222 50.2566 91.6989 50.4768C91.9756 50.697 92.3044 50.8071 92.6853 50.8071C92.9888 50.8071 93.2566 50.7401 93.4887 50.6062C93.7238 50.4693 93.9068 50.2804 94.0377 50.0393C94.1716 49.7953 94.2386 49.5156 94.2386 49.2002C94.2386 48.8789 94.1701 48.5962 94.0333 48.3522C93.8994 48.1082 93.7134 47.9177 93.4753 47.7809C93.2373 47.644 92.965 47.5741 92.6585 47.5711C92.3907 47.5711 92.1304 47.6261 91.8774 47.7362C91.6275 47.8463 91.4326 47.9966 91.2927 48.187L89.5743 47.8791L90.0073 43.0586H95.5954V44.6386H91.6007L91.3641 46.9284H91.4177C91.5784 46.7022 91.8209 46.5148 92.1452 46.366C92.4696 46.2172 92.8326 46.1428 93.2343 46.1428C93.7848 46.1428 94.2758 46.2722 94.7072 46.5311C95.1387 46.79 95.4794 47.1456 95.7293 47.5979C95.9793 48.0472 96.1028 48.5649 96.0998 49.1511C96.1028 49.7671 95.96 50.3146 95.6713 50.7937C95.3857 51.2698 94.9854 51.6447 94.4707 51.9184C93.9589 52.1892 93.3637 52.3246 92.6853 52.3246Z" fill="black"/>
<path d="M87.4257 43.0586V52.1996H85.4931V44.893H85.4395L83.3462 46.2053V44.4913L85.6091 43.0586H87.4257Z" fill="black"/>
<path d="M72.8477 52.1996V43.0586H76.4541C77.1444 43.0586 77.7336 43.1821 78.2216 43.4291C78.7126 43.6731 79.086 44.0197 79.3419 44.469C79.6008 44.9154 79.7302 45.4406 79.7302 46.0446C79.7302 46.6516 79.5993 47.1738 79.3374 47.6113C79.0756 48.0457 78.6962 48.379 78.1993 48.6111C77.7053 48.8432 77.1072 48.9592 76.405 48.9592H73.9903V47.4059H76.0925C76.4615 47.4059 76.768 47.3554 77.012 47.2542C77.256 47.153 77.4375 47.0013 77.5565 46.7989C77.6785 46.5966 77.7395 46.3451 77.7395 46.0446C77.7395 45.7411 77.6785 45.4852 77.5565 45.2769C77.4375 45.0686 77.2545 44.9109 77.0075 44.8038C76.7635 44.6937 76.4556 44.6386 76.0836 44.6386H74.7803V52.1996H72.8477ZM77.7842 48.0397L80.056 52.1996H77.9225L75.6998 48.0397H77.7842Z" fill="black"/>
<path d="M65.4033 52.1996V43.0586H71.5628V44.652H67.336V46.8302H71.2459V48.4236H67.336V50.6062H71.5807V52.1996H65.4033Z" fill="black"/>
<path d="M57.3447 52.1996V43.0586H61.0047C61.6772 43.0586 62.2381 43.1583 62.6874 43.3576C63.1367 43.557 63.4745 43.8337 63.7006 44.1878C63.9268 44.539 64.0398 44.9436 64.0398 45.4019C64.0398 45.7589 63.9684 46.0729 63.8256 46.3437C63.6828 46.6115 63.4864 46.8317 63.2364 47.0042C62.9894 47.1738 62.7068 47.2944 62.3884 47.3658V47.455C62.7365 47.4699 63.0623 47.5681 63.3659 47.7496C63.6723 47.9311 63.9208 48.1856 64.1112 48.5129C64.3017 48.8372 64.3969 49.224 64.3969 49.6733C64.3969 50.1584 64.2764 50.5913 64.0354 50.9722C63.7973 51.3501 63.4447 51.6491 62.9775 51.8693C62.5104 52.0895 61.9346 52.1996 61.2502 52.1996H57.3447ZM59.2774 50.6196H60.853C61.3915 50.6196 61.7843 50.5169 62.0313 50.3116C62.2783 50.1033 62.4018 49.8266 62.4018 49.4814C62.4018 49.2285 62.3408 49.0053 62.2188 48.8119C62.0968 48.6185 61.9227 48.4667 61.6965 48.3566C61.4734 48.2466 61.2071 48.1915 60.8976 48.1915H59.2774V50.6196ZM59.2774 46.8837H60.7101C60.975 46.8837 61.21 46.8376 61.4153 46.7454C61.6236 46.6501 61.7873 46.5162 61.9063 46.3437C62.0283 46.1711 62.0893 45.9643 62.0893 45.7232C62.0893 45.393 61.9718 45.1266 61.7367 44.9243C61.5046 44.722 61.1743 44.6208 60.7458 44.6208H59.2774V46.8837Z" fill="black"/>
<path d="M47.9531 43.0586H50.1179L52.2023 46.9953H52.2915L54.376 43.0586H56.5407L53.2065 48.9681V52.1996H51.2873V48.9681L47.9531 43.0586Z" fill="black"/>
<path d="M47.3545 46.2578H45.3995C45.3638 46.0049 45.2909 45.7803 45.1808 45.5839C45.0707 45.3845 44.9293 45.2149 44.7568 45.075C44.5842 44.9352 44.3848 44.8281 44.1587 44.7537C43.9355 44.6793 43.693 44.6421 43.4311 44.6421C42.958 44.6421 42.5459 44.7596 42.1948 44.9947C41.8437 45.2268 41.5714 45.566 41.378 46.0124C41.1846 46.4557 41.0878 46.9943 41.0878 47.6281C41.0878 48.2798 41.1846 48.8273 41.378 49.2706C41.5744 49.714 41.8481 50.0488 42.1992 50.2749C42.5504 50.5011 42.9565 50.6141 43.4177 50.6141C43.6766 50.6141 43.9162 50.5799 44.1364 50.5115C44.3595 50.443 44.5574 50.3433 44.73 50.2124C44.9026 50.0785 45.0454 49.9163 45.1585 49.7259C45.2745 49.5355 45.3549 49.3183 45.3995 49.0743L47.3545 49.0832C47.3039 49.5027 47.1774 49.9074 46.9751 50.2972C46.7757 50.6841 46.5064 51.0307 46.1672 51.3372C45.831 51.6407 45.4292 51.8817 44.9621 52.0603C44.4979 52.2358 43.9727 52.3236 43.3865 52.3236C42.5712 52.3236 41.8422 52.1391 41.1994 51.7701C40.5597 51.4012 40.0538 50.8671 39.6819 50.1678C39.3129 49.4685 39.1284 48.622 39.1284 47.6281C39.1284 46.6313 39.3159 45.7832 39.6908 45.084C40.0657 44.3847 40.5746 43.8521 41.2173 43.4861C41.86 43.1171 42.5831 42.9326 43.3865 42.9326C43.9162 42.9326 44.4071 43.007 44.8594 43.1558C45.3147 43.3046 45.7179 43.5218 46.069 43.8074C46.4201 44.0901 46.7058 44.4368 46.926 44.8474C47.1491 45.258 47.292 45.7282 47.3545 46.2578Z" fill="black"/>
<path d="M87.2214 74.238C86.9485 74.238 86.7282 74.1566 86.5607 73.9938C86.3931 73.8262 86.3093 73.5796 86.3093 73.254V71.3363C86.1752 71.3172 86.022 71.3076 85.8496 71.3076C85.8496 71.2071 85.8544 71.1137 85.864 71.0275C85.9837 70.9796 86.1297 70.9341 86.3021 70.891L87.0131 69.8496L87.1927 69.8999V70.8839C87.5279 70.8743 87.8319 70.8527 88.1048 70.8192C88.1048 71.0012 88.0833 71.164 88.0402 71.3076H87.1927L87.1999 73.2109C87.1999 73.4934 87.31 73.6347 87.5303 73.6347C87.7122 73.6347 87.8966 73.5628 88.0833 73.4192L88.2341 73.6131C87.942 74.0297 87.6045 74.238 87.2214 74.238Z" fill="black"/>
<path d="M84.1695 73.8292C84.3467 73.8292 84.4879 73.7885 84.5933 73.7071C84.6986 73.6257 84.7513 73.5251 84.7513 73.4054C84.7513 73.2857 84.6986 73.1804 84.5933 73.0894C84.4879 72.9936 84.361 72.9074 84.2126 72.8308C84.0642 72.7542 83.9157 72.6728 83.7673 72.5866C83.6189 72.5005 83.492 72.3879 83.3866 72.2491C83.2813 72.1054 83.2286 71.9402 83.2286 71.7535C83.2286 71.4279 83.3435 71.1837 83.5734 71.0209C83.808 70.8533 84.0929 70.7695 84.4281 70.7695C84.7632 70.7695 85.0816 70.8198 85.3833 70.9204C85.3833 70.9778 85.3833 71.0808 85.3833 71.2292C85.3833 71.3728 85.3689 71.5668 85.3402 71.811C85.2157 71.811 85.1223 71.8014 85.0601 71.7822C85.0649 71.7296 85.0673 71.6817 85.0673 71.6386C85.0673 71.313 84.8901 71.1502 84.5358 71.1502C84.3921 71.1502 84.2724 71.1885 84.1767 71.2651C84.0857 71.3417 84.0402 71.4423 84.0402 71.5668C84.0402 71.6913 84.0929 71.799 84.1982 71.89C84.3084 71.9761 84.44 72.0552 84.5933 72.127C84.7513 72.194 84.9069 72.2706 85.0601 72.3568C85.2181 72.4382 85.3498 72.5507 85.4551 72.6944C85.5652 72.838 85.6203 73.0056 85.6203 73.1971C85.6203 73.5084 85.4862 73.7621 85.2181 73.9584C84.95 74.15 84.6172 74.2457 84.2198 74.2457C83.8224 74.2457 83.4656 74.1979 83.1496 74.1021C83.14 73.992 83.1353 73.8579 83.1353 73.6999C83.1353 73.5371 83.152 73.3504 83.1855 73.1397C83.1951 73.1397 83.2933 73.1469 83.48 73.1612C83.48 73.1899 83.48 73.2402 83.48 73.312C83.48 73.3791 83.4968 73.4557 83.5303 73.5419C83.5686 73.6281 83.6284 73.6903 83.7098 73.7286C83.8391 73.7957 83.9923 73.8292 84.1695 73.8292Z" fill="black"/>
<path d="M81.3382 71.2076C81.1801 71.2076 81.0341 71.2771 80.9 71.4159C80.7708 71.5548 80.6846 71.7727 80.6415 72.0695L81.3094 72.0192L81.8194 72.0049C81.805 71.4734 81.6446 71.2076 81.3382 71.2076ZM80.6127 72.3927V72.4645C80.6127 73.2785 80.9216 73.6855 81.5393 73.6855C81.8649 73.6855 82.2072 73.5993 82.5663 73.427L82.6884 73.6352C82.2958 74.0422 81.8266 74.2457 81.2807 74.2457C81.0317 74.2457 80.7875 74.1907 80.5481 74.0805C80.3135 73.9656 80.1076 73.7765 79.9304 73.5131C79.7581 73.2498 79.6719 72.9386 79.6719 72.5795C79.6719 72.024 79.8442 71.5835 80.189 71.2579C80.5385 70.9323 80.9479 70.7695 81.4172 70.7695C81.7811 70.7695 82.0875 70.8821 82.3365 71.1071C82.5903 71.3321 82.7171 71.6841 82.7171 72.1629C82.6884 72.2491 82.6501 72.3257 82.6022 72.3927H80.6127Z" fill="black"/>
<path d="M75.7763 71.1855C75.7571 71.0993 75.7476 71.0323 75.7476 70.9844C75.7476 70.9317 75.75 70.891 75.7547 70.8623H77.5431C77.5623 70.9198 77.5719 71.0275 77.5719 71.1855C77.366 71.1951 77.2199 71.2166 77.1337 71.2501L77.9094 73.6921C77.9286 73.558 77.9812 73.3641 78.0674 73.1103L78.5917 71.6452C78.6205 71.5638 78.6348 71.4967 78.6348 71.4441C78.6348 71.3914 78.6252 71.3507 78.6061 71.322C78.563 71.2549 78.4505 71.2094 78.2685 71.1855C78.2446 71.1137 78.2326 71.049 78.2326 70.9916C78.2326 70.9341 78.2326 70.891 78.2326 70.8623H79.7337C79.7385 70.9676 79.7169 71.0754 79.6691 71.1855C79.4967 71.1951 79.353 71.2262 79.2381 71.2789L78.0674 74.1949H77.3205L76.2862 71.6021C76.2383 71.468 76.1809 71.3722 76.1139 71.3148C76.0468 71.2573 75.9343 71.2142 75.7763 71.1855Z" fill="black"/>
<path d="M73.8183 73.4198V71.4088C73.7417 71.3992 73.6603 71.3944 73.5741 71.3944C73.4927 71.3944 73.4113 71.3968 73.3299 71.4016C73.3395 71.2579 73.3563 71.1526 73.3802 71.0855C73.7776 70.9419 74.1918 70.8485 74.6227 70.8054C74.6706 71.1023 74.6994 71.4303 74.7089 71.7894C74.8286 71.4878 74.9986 71.2436 75.2189 71.0568C75.4439 70.8653 75.6929 70.7695 75.9658 70.7695C75.9898 70.8557 76.0017 70.9658 76.0017 71.0999C76.0017 71.2292 75.9778 71.3968 75.9299 71.6027C75.2021 71.6027 74.7951 71.8804 74.7089 72.4358V73.6855C74.91 73.7621 75.1327 73.8076 75.3769 73.822C75.3769 73.8459 75.3769 73.8866 75.3769 73.9441C75.3769 73.9968 75.3673 74.0662 75.3481 74.1524H73.3299C73.3251 74.1189 73.3228 74.0734 73.3228 74.0159C73.3228 73.9537 73.3347 73.889 73.3587 73.822C73.5167 73.798 73.6316 73.7597 73.7034 73.7071C73.78 73.6496 73.8183 73.5538 73.8183 73.4198Z" fill="black"/>
<path d="M70.9082 73.2546C70.9082 73.3839 70.9441 73.4868 71.0159 73.5634C71.0925 73.64 71.2074 73.6783 71.3606 73.6783C71.5187 73.6783 71.6599 73.6089 71.7844 73.4701V72.5364L71.4684 72.6226C71.0949 72.7279 70.9082 72.9386 70.9082 73.2546ZM72.5242 74.2457C72.3614 74.2457 72.2129 74.2122 72.0789 74.1452C71.9496 74.0734 71.861 73.9728 71.8131 73.8435C71.5833 74.1117 71.308 74.2457 70.9872 74.2457C70.6711 74.2457 70.4222 74.1596 70.2402 73.9872C70.0583 73.8148 69.9673 73.5945 69.9673 73.3264C69.9673 73.0583 70.0535 72.8452 70.2258 72.6872C70.3982 72.5292 70.6592 72.4143 71.0087 72.3424L71.7844 72.1844V71.9259C71.7844 71.7439 71.7389 71.6122 71.6479 71.5308C71.5617 71.4447 71.4013 71.4016 71.1667 71.4016C70.9369 71.4016 70.6711 71.4542 70.3695 71.5596L70.1899 71.2938C70.5921 70.9443 71.0566 70.7695 71.5833 70.7695C71.9424 70.7695 72.2129 70.8677 72.3949 71.064C72.5768 71.2603 72.6678 71.538 72.6678 71.8971V73.3264C72.6678 73.5706 72.7444 73.6927 72.8976 73.6927C72.9216 73.6927 73.0102 73.6783 73.1634 73.6496L73.2352 73.8363C73.015 74.1093 72.7779 74.2457 72.5242 74.2457Z" fill="black"/>
<path d="M69.1227 70.3162V73.735C69.2616 73.7924 69.4268 73.8212 69.6183 73.8212C69.6183 73.9504 69.6111 74.0606 69.5968 74.1515H67.7222C67.7222 73.9983 67.7318 73.8882 67.7509 73.8212C67.9089 73.7972 68.0239 73.7589 68.0957 73.7062C68.1675 73.6536 68.2034 73.5602 68.2034 73.4261V72.1046H66.3719V73.735C66.5108 73.7924 66.676 73.8212 66.8675 73.8212C66.8675 73.8403 66.8675 73.8738 66.8675 73.9217C66.8675 73.9696 66.8603 74.0462 66.846 74.1515H64.9786C64.9786 74.1228 64.9786 74.0797 64.9786 74.0223C64.9786 73.96 64.9905 73.893 65.0145 73.8212C65.1725 73.7972 65.2874 73.7589 65.3592 73.7062C65.4311 73.6536 65.467 73.5602 65.467 73.4261V70.0146C65.3281 69.9523 65.1581 69.9212 64.957 69.9212C64.957 69.7776 64.969 69.6674 64.9929 69.5908H66.8531C66.8579 69.6243 66.8603 69.6722 66.8603 69.7345C66.8603 69.7919 66.8484 69.8542 66.8244 69.9212C66.6712 69.9404 66.5563 69.9787 66.4797 70.0361C66.4078 70.0888 66.3719 70.1822 66.3719 70.3162V71.6593H68.2034V70.0074C68.0646 69.9499 67.8994 69.9212 67.7078 69.9212C67.7078 69.8925 67.7078 69.8518 67.7078 69.7991C67.7078 69.7464 67.7174 69.677 67.7366 69.5908H69.6039C69.6039 69.6243 69.6039 69.6722 69.6039 69.7345C69.6039 69.7919 69.5944 69.8542 69.5752 69.9212C69.4172 69.9404 69.3023 69.9787 69.2305 70.0361C69.1586 70.0888 69.1227 70.1822 69.1227 70.3162Z" fill="black"/>
<path d="M64.2847 72.2347H61.3328L61.0239 71.617V71.5596H63.9758L64.2847 72.1844V72.2347Z" fill="black"/>
<path d="M60.5457 69.5908C60.5696 69.7967 60.5816 69.9954 60.5816 70.1869C60.5816 70.3785 60.5768 70.5556 60.5673 70.7184C60.505 70.7376 60.4021 70.7472 60.2584 70.7472C60.2345 70.4551 60.1746 70.2516 60.0789 70.1367C59.9831 70.0218 59.8323 69.9643 59.6264 69.9643H59.1164V73.7278C59.284 73.79 59.4708 73.8212 59.6767 73.8212C59.6767 73.8403 59.6767 73.8738 59.6767 73.9217C59.6767 73.9696 59.6695 74.0462 59.6551 74.1515H57.6513C57.6513 74.1228 57.6513 74.0797 57.6513 74.0223C57.6513 73.96 57.6632 73.893 57.6872 73.8212C57.8739 73.7972 58.0056 73.7589 58.0822 73.7062C58.1636 73.6536 58.2043 73.5602 58.2043 73.4261V69.9643H57.7015C57.4909 69.9643 57.3376 70.0218 57.2419 70.1367C57.1461 70.2516 57.0887 70.4551 57.0695 70.7472C56.9211 70.7472 56.8157 70.7376 56.7535 70.7184C56.7391 70.5652 56.7319 70.3952 56.7319 70.2085C56.7319 70.0218 56.7463 69.8159 56.775 69.5908H60.5457Z" fill="black"/>
<path d="M56.0155 70.3162V73.735C56.1543 73.7924 56.3195 73.8212 56.5111 73.8212C56.5111 73.8403 56.5111 73.8738 56.5111 73.9217C56.5111 73.9696 56.5039 74.0462 56.4895 74.1515H54.6221C54.6221 74.1228 54.6221 74.0797 54.6221 74.0223C54.6221 73.96 54.6341 73.893 54.658 73.8212C54.8161 73.7972 54.931 73.7589 55.0028 73.7062C55.0746 73.6536 55.1105 73.5602 55.1105 73.4261V70.0146C54.9717 69.9523 54.8017 69.9212 54.6006 69.9212C54.6006 69.7776 54.6126 69.6674 54.6365 69.5908H56.4967C56.5015 69.6243 56.5039 69.6722 56.5039 69.7345C56.5039 69.7919 56.4919 69.8542 56.468 69.9212C56.3147 69.9404 56.1998 69.9787 56.1232 70.0361C56.0514 70.0888 56.0155 70.1822 56.0155 70.3162Z" fill="black"/>
<path d="M95.6392 60.7293V57.7911H96.192V58.2578H96.2226C96.2761 58.0997 96.3705 57.9753 96.5057 57.8848C96.6421 57.793 96.7965 57.7471 96.9686 57.7471C97.0043 57.7471 97.0464 57.7483 97.0949 57.7509C97.1446 57.7534 97.1835 57.7566 97.2116 57.7605V58.3075C97.1886 58.3012 97.1478 58.2942 97.0891 58.2865C97.0305 58.2776 96.9718 58.2731 96.9131 58.2731C96.778 58.2731 96.6575 58.3018 96.5516 58.3592C96.447 58.4153 96.3641 58.4937 96.3029 58.5945C96.2417 58.6939 96.2111 58.8074 96.2111 58.935V60.7293H95.6392Z" fill="black"/>
<path d="M93.6313 60.7887C93.3559 60.7887 93.1155 60.7256 92.9102 60.5993C92.7049 60.4731 92.5455 60.2964 92.432 60.0694C92.3185 59.8424 92.2617 59.5772 92.2617 59.2737C92.2617 58.9689 92.3185 58.7024 92.432 58.4741C92.5455 58.2458 92.7049 58.0686 92.9102 57.9423C93.1155 57.8161 93.3559 57.7529 93.6313 57.7529C93.9068 57.7529 94.1472 57.8161 94.3525 57.9423C94.5578 58.0686 94.7172 58.2458 94.8307 58.4741C94.9442 58.7024 95.001 58.9689 95.001 59.2737C95.001 59.5772 94.9442 59.8424 94.8307 60.0694C94.7172 60.2964 94.5578 60.4731 94.3525 60.5993C94.1472 60.7256 93.9068 60.7887 93.6313 60.7887ZM93.6333 60.3085C93.8118 60.3085 93.9597 60.2614 94.077 60.167C94.1944 60.0726 94.2811 59.947 94.3372 59.7902C94.3946 59.6333 94.4233 59.4605 94.4233 59.2718C94.4233 59.0843 94.3946 58.9121 94.3372 58.7553C94.2811 58.5971 94.1944 58.4703 94.077 58.3746C93.9597 58.279 93.8118 58.2312 93.6333 58.2312C93.4534 58.2312 93.3042 58.279 93.1856 58.3746C93.0683 58.4703 92.981 58.5971 92.9236 58.7553C92.8675 58.9121 92.8394 59.0843 92.8394 59.2718C92.8394 59.4605 92.8675 59.6333 92.9236 59.7902C92.981 59.947 93.0683 60.0726 93.1856 60.167C93.3042 60.2614 93.4534 60.3085 93.6333 60.3085Z" fill="black"/>
<path d="M90.1216 60.7865C89.8844 60.7865 89.6727 60.7259 89.4865 60.6048C89.3016 60.4823 89.1563 60.3083 89.0504 60.0826C88.9458 59.8556 88.8936 59.5833 88.8936 59.2658C88.8936 58.9482 88.9465 58.6766 89.0523 58.4509C89.1594 58.2251 89.3061 58.0523 89.4923 57.9325C89.6785 57.8126 89.8895 57.7527 90.1255 57.7527C90.3078 57.7527 90.4545 57.7833 90.5654 57.8445C90.6776 57.9044 90.7644 57.9746 90.8256 58.0549C90.8881 58.1352 90.9365 58.206 90.9709 58.2672H91.0054V56.8115H91.5773V60.7291H91.0188V60.2719H90.9709C90.9365 60.3344 90.8868 60.4058 90.8217 60.4862C90.758 60.5665 90.67 60.6367 90.5578 60.6966C90.4455 60.7565 90.3002 60.7865 90.1216 60.7865ZM90.2479 60.2987C90.4124 60.2987 90.5514 60.2554 90.6649 60.1686C90.7797 60.0806 90.8664 59.9589 90.925 59.8033C90.985 59.6477 91.0149 59.4666 91.0149 59.26C91.0149 59.056 90.9856 58.8774 90.927 58.7244C90.8683 58.5714 90.7822 58.4521 90.6687 58.3667C90.5552 58.2813 90.4149 58.2385 90.2479 58.2385C90.0757 58.2385 89.9323 58.2832 89.8175 58.3724C89.7027 58.4617 89.616 58.5835 89.5573 58.7378C89.4999 58.8921 89.4712 59.0662 89.4712 59.26C89.4712 59.4564 89.5006 59.633 89.5592 59.7899C89.6179 59.9467 89.7046 60.0711 89.8194 60.1629C89.9354 60.2534 90.0783 60.2987 90.2479 60.2987Z" fill="black"/>
<path d="M86.3742 58.9848V60.7294H85.8022V57.7912H86.3512V58.2694H86.3876C86.4552 58.1138 86.561 57.9889 86.7051 57.8945C86.8505 57.8001 87.0335 57.7529 87.2541 57.7529C87.4543 57.7529 87.6297 57.795 87.7802 57.8792C87.9306 57.9621 88.0473 58.0858 88.1302 58.2503C88.2131 58.4148 88.2546 58.6182 88.2546 58.8605V60.7294H87.6826V58.9294C87.6826 58.7164 87.6271 58.55 87.5162 58.4301C87.4052 58.3089 87.2528 58.2484 87.059 58.2484C86.9264 58.2484 86.8084 58.2771 86.7051 58.3344C86.6031 58.3918 86.5221 58.476 86.4622 58.5869C86.4035 58.6966 86.3742 58.8292 86.3742 58.9848Z" fill="black"/>
<path d="M83.9071 60.7887C83.6176 60.7887 83.3683 60.7268 83.1592 60.6031C82.9513 60.4782 82.7906 60.3028 82.6771 60.0771C82.5649 59.8501 82.5088 59.5842 82.5088 59.2794C82.5088 58.9785 82.5649 58.7132 82.6771 58.4837C82.7906 58.2541 82.9488 58.0749 83.1515 57.9461C83.3556 57.8173 83.594 57.7529 83.8669 57.7529C84.0327 57.7529 84.1934 57.7803 84.349 57.8352C84.5046 57.89 84.6442 57.9761 84.7679 58.0934C84.8916 58.2107 84.9892 58.3631 85.0606 58.5506C85.132 58.7368 85.1677 58.9631 85.1677 59.2297V59.4324H82.8321V59.004H84.6072C84.6072 58.8535 84.5766 58.7202 84.5154 58.6042C84.4542 58.4868 84.3681 58.3944 84.2572 58.3268C84.1475 58.2592 84.0187 58.2254 83.8708 58.2254C83.7101 58.2254 83.5698 58.2649 83.4499 58.344C83.3313 58.4218 83.2395 58.5238 83.1745 58.6501C83.1107 58.775 83.0788 58.9109 83.0788 59.0575V59.3923C83.0788 59.5887 83.1133 59.7557 83.1821 59.8934C83.2523 60.0312 83.3498 60.1364 83.4748 60.2091C83.5998 60.2805 83.7458 60.3162 83.9128 60.3162C84.0212 60.3162 84.1201 60.3009 84.2093 60.2703C84.2986 60.2384 84.3758 60.1912 84.4408 60.1287C84.5058 60.0662 84.5556 59.9891 84.59 59.8973L85.1314 59.9948C85.088 60.1542 85.0102 60.2939 84.898 60.4138C84.787 60.5324 84.6474 60.6248 84.4791 60.6911C84.312 60.7562 84.1214 60.7887 83.9071 60.7887Z" fill="black"/>
<path d="M79.552 56.8115L80.6423 60.0022H80.6863L81.7767 56.8115H82.4156L81.0058 60.7291H80.3229L78.9131 56.8115H79.552Z" fill="black"/>
<path d="M75.0695 58.9846V60.7291H74.4976V56.8115H75.0619V58.2691H75.0982C75.1671 58.111 75.2723 57.9854 75.4138 57.8923C75.5554 57.7992 75.7403 57.7527 75.9686 57.7527C76.1701 57.7527 76.346 57.7941 76.4965 57.877C76.6483 57.9599 76.7656 58.0836 76.8485 58.2481C76.9327 58.4113 76.9747 58.6154 76.9747 58.8602V60.7291H76.4028V58.9291C76.4028 58.7136 76.3473 58.5465 76.2364 58.4279C76.1254 58.308 75.9711 58.2481 75.7735 58.2481C75.6383 58.2481 75.5171 58.2768 75.41 58.3342C75.3042 58.3916 75.2206 58.4757 75.1594 58.5867C75.0995 58.6964 75.0695 58.829 75.0695 58.9846Z" fill="black"/>
<path d="M73.8022 57.7909V58.2499H72.1973V57.7909H73.8022ZM72.6277 57.0869H73.1996V59.8663C73.1996 59.9773 73.2162 60.0608 73.2494 60.1169C73.2825 60.1718 73.3252 60.2094 73.3775 60.2298C73.4311 60.2489 73.4891 60.2585 73.5516 60.2585C73.5975 60.2585 73.6377 60.2553 73.6721 60.2489C73.7065 60.2425 73.7333 60.2374 73.7524 60.2336L73.8557 60.7061C73.8226 60.7188 73.7754 60.7316 73.7142 60.7444C73.653 60.7584 73.5765 60.766 73.4846 60.7673C73.3342 60.7699 73.1939 60.7431 73.0638 60.687C72.9337 60.6309 72.8285 60.5441 72.7482 60.4268C72.6678 60.3095 72.6277 60.1622 72.6277 59.9849V57.0869Z" fill="black"/>
<path d="M68.6224 60.7292L67.7578 57.791H68.3489L68.9247 59.9488H68.9534L69.5311 57.791H70.1221L70.696 59.9392H70.7247L71.2967 57.791H71.8877L71.025 60.7292H70.4416L69.8448 58.6078H69.8008L69.204 60.7292H68.6224Z" fill="black"/>
<path d="M66.0664 60.7887C65.7909 60.7887 65.5506 60.7256 65.3452 60.5993C65.1399 60.4731 64.9805 60.2964 64.867 60.0694C64.7535 59.8424 64.6968 59.5772 64.6968 59.2737C64.6968 58.9689 64.7535 58.7024 64.867 58.4741C64.9805 58.2458 65.1399 58.0686 65.3452 57.9423C65.5506 57.8161 65.7909 57.7529 66.0664 57.7529C66.3419 57.7529 66.5822 57.8161 66.7876 57.9423C66.9929 58.0686 67.1523 58.2458 67.2658 58.4741C67.3793 58.7024 67.436 58.9689 67.436 59.2737C67.436 59.5772 67.3793 59.8424 67.2658 60.0694C67.1523 60.2964 66.9929 60.4731 66.7876 60.5993C66.5822 60.7256 66.3419 60.7887 66.0664 60.7887ZM66.0683 60.3085C66.2469 60.3085 66.3948 60.2614 66.5121 60.167C66.6294 60.0726 66.7161 59.947 66.7723 59.7902C66.8296 59.6333 66.8583 59.4605 66.8583 59.2718C66.8583 59.0843 66.8296 58.9121 66.7723 58.7553C66.7161 58.5971 66.6294 58.4703 66.5121 58.3746C66.3948 58.279 66.2469 58.2312 66.0683 58.2312C65.8885 58.2312 65.7393 58.279 65.6207 58.3746C65.5034 58.4703 65.416 58.5971 65.3586 58.7553C65.3025 58.9121 65.2745 59.0843 65.2745 59.2718C65.2745 59.4605 65.3025 59.6333 65.3586 59.7902C65.416 59.947 65.5034 60.0726 65.6207 60.167C65.7393 60.2614 65.8885 60.3085 66.0683 60.3085Z" fill="black"/>
<path d="M62.8667 60.7293V57.7911H63.4195V58.2578H63.4501C63.5037 58.0997 63.5981 57.9753 63.7332 57.8848C63.8697 57.793 64.024 57.7471 64.1962 57.7471C64.2319 57.7471 64.2739 57.7483 64.3224 57.7509C64.3721 57.7534 64.411 57.7566 64.4391 57.7605V58.3075C64.4161 58.3012 64.3753 58.2942 64.3167 58.2865C64.258 58.2776 64.1993 58.2731 64.1407 58.2731C64.0055 58.2731 63.885 58.3018 63.7791 58.3592C63.6746 58.4153 63.5917 58.4937 63.5305 58.5945C63.4693 58.6939 63.4387 58.8074 63.4387 58.935V60.7293H62.8667Z" fill="black"/>
<path d="M61.5295 58.049C61.4925 57.933 61.4427 57.829 61.3803 57.7372C61.319 57.6441 61.2457 57.565 61.1603 57.5C61.0748 57.4337 60.9773 57.3833 60.8676 57.3489C60.7592 57.3145 60.64 57.2972 60.5099 57.2972C60.2893 57.2972 60.0903 57.354 59.9131 57.4675C59.7358 57.581 59.5955 57.7474 59.4922 57.9668C59.3902 58.1848 59.3392 58.452 59.3392 58.7683C59.3392 59.0858 59.3909 59.3542 59.4942 59.5736C59.5974 59.7929 59.739 59.9593 59.9188 60.0728C60.0986 60.1863 60.3033 60.2431 60.5328 60.2431C60.7458 60.2431 60.9314 60.1997 61.0895 60.113C61.2489 60.0263 61.372 59.9039 61.4587 59.7457C61.5467 59.5863 61.5907 59.3989 61.5907 59.1834L61.7437 59.212H60.6228V58.7243H62.1626V59.17C62.1626 59.499 62.0925 59.7846 61.9522 60.0269C61.8132 60.268 61.6206 60.4541 61.3745 60.5855C61.1297 60.7168 60.8491 60.7825 60.5328 60.7825C60.1783 60.7825 59.8672 60.7009 59.5994 60.5377C59.3328 60.3744 59.125 60.143 58.9758 59.8433C58.8266 59.5423 58.752 59.1853 58.752 58.7721C58.752 58.4596 58.7953 58.1791 58.882 57.9304C58.9687 57.6817 59.0905 57.4707 59.2474 57.2972C59.4055 57.1225 59.5911 56.9893 59.804 56.8975C60.0183 56.8044 60.2523 56.7578 60.5061 56.7578C60.7178 56.7578 60.9148 56.7891 61.0971 56.8515C61.2808 56.914 61.444 57.0027 61.5868 57.1174C61.731 57.2322 61.8502 57.3687 61.9446 57.5268C62.0389 57.6836 62.1027 57.8577 62.1358 58.049H61.5295Z" fill="black"/>
<path d="M56.7739 57.7909V58.2499H55.1689V57.7909H56.7739ZM55.5993 57.0869H56.1713V59.8663C56.1713 59.9773 56.1879 60.0608 56.221 60.1169C56.2542 60.1718 56.2969 60.2094 56.3492 60.2298C56.4028 60.2489 56.4608 60.2585 56.5233 60.2585C56.5692 60.2585 56.6093 60.2553 56.6438 60.2489C56.6782 60.2425 56.705 60.2374 56.7241 60.2336L56.8274 60.7061C56.7943 60.7188 56.7471 60.7316 56.6859 60.7444C56.6247 60.7584 56.5481 60.766 56.4563 60.7673C56.3058 60.7699 56.1656 60.7431 56.0355 60.687C55.9054 60.6309 55.8002 60.5441 55.7199 60.4268C55.6395 60.3095 55.5993 60.1622 55.5993 59.9849V57.0869Z" fill="black"/>
<path d="M54.7161 58.5085L54.1977 58.6003C54.176 58.534 54.1416 58.4709 54.0944 58.411C54.0485 58.351 53.986 58.3019 53.9069 58.2637C53.8279 58.2254 53.729 58.2063 53.6104 58.2063C53.4485 58.2063 53.3133 58.2426 53.2049 58.3153C53.0965 58.3867 53.0423 58.4792 53.0423 58.5927C53.0423 58.6909 53.0787 58.7699 53.1513 58.8299C53.224 58.8898 53.3414 58.9389 53.5033 58.9772L53.9701 59.0843C54.2404 59.1468 54.4419 59.2431 54.5745 59.3731C54.7072 59.5032 54.7735 59.6722 54.7735 59.8801C54.7735 60.056 54.7225 60.2129 54.6204 60.3506C54.5197 60.4871 54.3788 60.5942 54.1977 60.672C54.0179 60.7498 53.8094 60.7887 53.5722 60.7887C53.2432 60.7887 52.9747 60.7185 52.7669 60.5783C52.559 60.4367 52.4315 60.2359 52.3843 59.9757L52.9371 59.8915C52.9715 60.0356 53.0423 60.1447 53.1494 60.2186C53.2566 60.2913 53.3962 60.3277 53.5684 60.3277C53.7558 60.3277 53.9057 60.2888 54.0179 60.211C54.1301 60.1319 54.1862 60.0356 54.1862 59.9221C54.1862 59.8303 54.1518 59.7532 54.0829 59.6907C54.0153 59.6282 53.9114 59.581 53.7711 59.5491L53.2738 59.4401C52.9996 59.3776 52.7968 59.2781 52.6655 59.1417C52.5354 59.0052 52.4704 58.8324 52.4704 58.6233C52.4704 58.4499 52.5188 58.2981 52.6157 58.168C52.7127 58.0379 52.8466 57.9366 53.0174 57.8639C53.1883 57.7899 53.3841 57.7529 53.6047 57.7529C53.9222 57.7529 54.1722 57.8218 54.3545 57.9595C54.5369 58.096 54.6574 58.279 54.7161 58.5085Z" fill="black"/>
<path d="M50.3024 60.7944C50.1162 60.7944 49.9478 60.76 49.7974 60.6911C49.6469 60.621 49.5276 60.5196 49.4396 60.387C49.3529 60.2543 49.3096 60.0918 49.3096 59.8992C49.3096 59.7334 49.3415 59.597 49.4052 59.4898C49.469 59.3827 49.5551 59.2979 49.6635 59.2354C49.7719 59.1729 49.893 59.1257 50.0269 59.0939C50.1608 59.062 50.2973 59.0378 50.4363 59.0212C50.6122 59.0008 50.7551 58.9842 50.8647 58.9714C50.9744 58.9574 51.0541 58.9351 51.1039 58.9045C51.1536 58.8739 51.1785 58.8241 51.1785 58.7553V58.7419C51.1785 58.5748 51.1313 58.4454 51.0369 58.3536C50.9438 58.2618 50.8048 58.2158 50.6199 58.2158C50.4273 58.2158 50.2756 58.2586 50.1646 58.344C50.055 58.4282 49.9791 58.5219 49.937 58.6252L49.3995 58.5028C49.4632 58.3242 49.5563 58.1801 49.6788 58.0705C49.8025 57.9595 49.9446 57.8792 50.1053 57.8294C50.266 57.7784 50.435 57.7529 50.6122 57.7529C50.7296 57.7529 50.8539 57.767 50.9853 57.795C51.1179 57.8218 51.2416 57.8715 51.3564 57.9442C51.4724 58.0169 51.5674 58.1208 51.6414 58.256C51.7153 58.3899 51.7523 58.564 51.7523 58.7782V60.7294H51.1938V60.3277H51.1708C51.1338 60.4016 51.0784 60.4743 51.0044 60.5457C50.9304 60.6172 50.8354 60.6765 50.7194 60.7236C50.6033 60.7708 50.4643 60.7944 50.3024 60.7944ZM50.4267 60.3353C50.5848 60.3353 50.72 60.3041 50.8322 60.2416C50.9457 60.1791 51.0318 60.0975 51.0905 59.9967C51.1504 59.8947 51.1804 59.7857 51.1804 59.6696V59.2909C51.16 59.3113 51.1204 59.3304 51.0618 59.3483C51.0044 59.3649 50.9387 59.3795 50.8647 59.3923C50.7908 59.4037 50.7187 59.4146 50.6486 59.4248C50.5785 59.4337 50.5198 59.4414 50.4726 59.4477C50.3617 59.4618 50.2603 59.4854 50.1685 59.5185C50.0779 59.5517 50.0052 59.5995 49.9504 59.662C49.8968 59.7232 49.87 59.8048 49.87 59.9068C49.87 60.0484 49.9223 60.1555 50.0269 60.2282C50.1315 60.2996 50.2647 60.3353 50.4267 60.3353Z" fill="black"/>
<path d="M46.3477 60.7291V56.8115H48.777V57.3204H46.9387V58.514H48.6029V59.0209H46.9387V60.7291H46.3477Z" fill="black"/>
</svg>
