<svg width="142" height="100" viewBox="0 0 142 100" fill="none" xmlns="http://www.w3.org/2000/svg">
<circle cx="71.1525" cy="32.5949" r="23.0499" fill="white" stroke="black"/>
<path d="M60.3786 51.1536C60.1726 51.0175 60.2055 50.9307 60.5909 50.5939C61.0211 50.2178 61.3152 50.1195 61.8114 50.1854C61.9681 50.2062 61.9524 50.1051 61.7524 49.8035C61.4419 49.3354 61.5484 48.2673 61.9056 48.2673C62.5064 48.2673 62.9981 49.5523 62.6512 50.2157C62.2499 50.9831 61.8075 51.3199 61.2039 51.3172C60.8841 51.3159 60.5128 51.2423 60.3786 51.1536ZM79.4533 50.9582C78.9113 50.3702 78.7147 49.868 78.8211 49.3425C78.9325 48.7922 79.3452 48.2672 79.6664 48.2672C80.0235 48.2672 80.13 49.3353 79.8195 49.8034C79.6195 50.1049 79.6039 50.2061 79.7606 50.1852C80.2568 50.1192 80.5508 50.2177 80.981 50.5937C81.3664 50.9305 81.3994 51.0175 81.1934 51.1535C80.7428 51.4511 79.8113 51.3465 79.4533 50.9582ZM59.0367 50.3429C58.8801 50.2528 58.7521 50.1093 58.7521 50.0241C58.7521 49.738 59.7939 49.2206 60.1834 49.3132C60.5142 49.3918 60.5378 49.3653 60.3867 49.0863C60.1714 48.6889 60.1698 47.9407 60.3836 47.6247C60.5214 47.4212 60.6092 47.4538 60.9502 47.8345C61.4111 48.3492 61.4608 48.8819 61.1107 49.5509C60.6636 50.4051 59.7506 50.7536 59.0367 50.3429ZM81.0648 50.2657C80.5957 49.9412 80.2165 49.2084 80.2165 48.6268C80.2165 48.1917 80.7184 47.464 81.0185 47.464C81.3579 47.464 81.4695 48.5587 81.1836 49.0863C81.0324 49.3653 81.0562 49.3918 81.3869 49.3132C81.778 49.2201 82.8183 49.7385 82.8183 50.0265C82.8183 50.4964 81.6321 50.6583 81.0648 50.2657ZM57.6536 49.3551C57.4523 49.2592 57.2878 49.1213 57.2878 49.0483C57.2878 48.7999 58.1174 48.3781 58.5805 48.3911C59.0229 48.4036 59.039 48.3784 58.96 47.7958C58.9137 47.4552 58.9668 47.0226 59.0805 46.8124L59.2837 46.4372L59.6679 46.8784C60.1205 47.3984 60.1479 47.7767 59.787 48.5281C59.3327 49.4739 58.5446 49.7796 57.6536 49.3551ZM82.3498 49.2893C81.9456 49.0095 81.5177 48.1601 81.5177 47.6375C81.5177 47.4628 81.6906 47.1213 81.9019 46.8787L82.2861 46.4375L82.4894 46.8127C82.6032 47.0228 82.6563 47.4555 82.6101 47.7961C82.531 48.3785 82.5472 48.4037 82.9896 48.3914C83.4515 48.3784 84.2823 48.8 84.2823 49.0473C84.2823 49.2313 83.5259 49.5514 83.0912 49.5514C82.8918 49.5514 82.5581 49.4334 82.3498 49.2893ZM56.3533 48.2305C55.8823 48.0062 55.8919 47.8532 56.3972 47.5261C56.6736 47.3473 56.9911 47.2905 57.3732 47.3518C57.8995 47.4362 57.9272 47.4199 57.7657 47.1219C57.5626 46.747 57.7016 45.9567 58.016 45.699C58.3227 45.4476 58.7519 46.0848 58.7519 46.7916C58.7519 47.1944 58.6096 47.4749 58.199 47.8804C57.6146 48.4577 57.0535 48.5642 56.3533 48.2305ZM83.372 47.8804C82.9301 47.4439 82.8191 47.2069 82.8191 46.7004C82.8191 46.2751 82.9239 45.9729 83.1378 45.7817C83.4469 45.5054 83.4648 45.514 83.7351 46.0739C83.9564 46.5327 83.9764 46.7318 83.8317 47.0454C83.6547 47.4293 83.6647 47.4375 84.2071 47.3505C84.5794 47.2909 84.9002 47.3492 85.1739 47.5264C85.6903 47.8607 85.6893 48.0063 85.1695 48.2404C84.4564 48.5615 83.9608 48.462 83.372 47.8804ZM55.0616 46.9112L54.6052 46.5202L55.2072 46.2695C55.6388 46.0898 55.9233 46.0618 56.2119 46.1701C56.5967 46.3146 56.6109 46.2984 56.5302 45.8075C56.4686 45.4323 56.5423 45.1726 56.8032 44.8448C57.1395 44.4224 57.1736 44.413 57.3818 44.6842C57.887 45.3424 57.4873 46.6269 56.643 47.0582C55.9757 47.3991 55.5892 47.3631 55.0613 46.911L55.0616 46.9112ZM84.916 47.0616C84.0524 46.5979 83.6657 45.348 84.1736 44.6618C84.3772 44.3868 84.4108 44.3965 84.7574 44.8319C85.0283 45.172 85.1029 45.4295 85.0409 45.8077C84.9603 46.2986 84.9745 46.3147 85.3591 46.1703C85.6479 46.0618 85.9323 46.0899 86.3638 46.2697L86.9658 46.5204L86.5095 46.9113C85.9954 47.3518 85.5366 47.3951 84.9157 47.0617L84.916 47.0616ZM53.9777 45.6839C53.742 45.5007 53.5492 45.2873 53.5492 45.2095C53.5492 44.9646 54.6825 44.7377 55.1079 44.8975C55.4725 45.0345 55.5008 45.0078 55.5041 44.5268C55.5086 43.8905 56.0488 43.1222 56.3107 43.38C56.4082 43.476 56.5314 43.8185 56.5844 44.1413C56.6711 44.669 56.6152 44.7928 56.0284 45.3726C55.2742 46.1177 54.6566 46.2113 53.9777 45.6839ZM85.5439 45.3724C84.9573 44.7928 84.9014 44.669 84.988 44.1412C85.041 43.8184 85.1642 43.4759 85.2617 43.3799C85.5236 43.1221 86.0638 43.8903 86.0682 44.5267C86.0715 45.0077 86.1 45.0343 86.4645 44.8974C86.8899 44.7376 88.0232 44.9645 88.0232 45.2094C88.0232 45.4934 87.1532 46.0167 86.6811 46.0167C86.3319 46.0167 86.0136 45.8366 85.5439 45.3724ZM53.4673 44.5782C53.2884 44.5067 52.9987 44.2907 52.8234 44.0981C52.5517 43.7998 52.5396 43.7262 52.7421 43.5997C53.0603 43.4008 53.8218 43.4075 54.2098 43.6127C54.4881 43.7599 54.5244 43.7238 54.5244 43.3004C54.5244 42.8214 55.2145 41.8264 55.4118 42.0208C55.677 42.2822 55.6925 43.297 55.4372 43.6821C54.9637 44.3962 54.0507 44.8114 53.4673 44.5782ZM87.1152 44.5019C86.135 44.0828 85.5976 42.8704 86.0774 42.1611C86.2152 41.9575 86.3031 41.9901 86.6441 42.3708C86.8814 42.6358 87.0477 43.0188 87.0477 43.3003C87.0477 43.7237 87.084 43.7597 87.3622 43.6126C87.7541 43.4055 88.513 43.4012 88.8365 43.6043C89.0435 43.7344 89.0188 43.8167 88.6739 44.1477C88.133 44.6666 87.7204 44.7605 87.1152 44.5019ZM52.1627 42.7789C51.7272 42.401 51.6326 42.2381 51.7911 42.1387C52.1527 41.9121 53.1012 41.9867 53.414 42.2663C53.6969 42.5191 53.7114 42.504 53.7114 41.9567C53.7114 41.5243 53.8195 41.2972 54.1459 41.0434C54.6501 40.6516 54.8431 40.8073 54.8471 41.609C54.8498 42.1632 54.2481 42.8347 53.4975 43.1149C52.8543 43.3549 52.8155 43.345 52.1627 42.7789ZM88.0227 43.1056C87.3119 42.8265 86.7215 42.1459 86.7243 41.609C86.7283 40.8073 86.9212 40.6516 87.4255 41.0434C87.7521 41.2972 87.86 41.5243 87.86 41.9567C87.86 42.5041 87.8745 42.5193 88.1573 42.2663C88.4702 41.9867 89.4185 41.9121 89.7802 42.1387C89.9388 42.2381 89.8443 42.401 89.4086 42.7789C88.7826 43.3221 88.652 43.3528 88.0227 43.1056ZM51.3871 41.2676C51.1395 41.023 50.963 40.7445 50.9949 40.6487C51.0871 40.3708 52.072 40.3488 52.484 40.6155C52.8444 40.8488 52.8644 40.8394 52.9548 40.3929C53.0547 39.8994 53.7426 39.3313 54.0288 39.5059C54.3589 39.7075 54.2063 40.541 53.7461 41.0498C53.4044 41.4275 53.1152 41.5699 52.5654 41.6312C51.9292 41.702 51.7804 41.6561 51.3871 41.2676ZM88.4112 41.5217C87.6385 41.2132 87.0358 39.8153 87.5422 39.5059C87.8293 39.3306 88.5165 39.9001 88.617 40.3968C88.7064 40.8389 88.7328 40.8529 89.0541 40.6305C89.4525 40.3548 90.3936 40.3152 90.5514 40.5676C90.6112 40.6632 90.4555 40.9523 90.2053 41.2102C89.7341 41.6962 89.1169 41.8034 88.4112 41.5217ZM51.3355 40.0719C50.9167 39.9096 50.2674 39.1249 50.3899 38.9292C50.5463 38.679 51.3868 38.7776 51.7802 39.0923C52.1609 39.3967 52.1617 39.3966 52.3544 38.9438C52.4605 38.6943 52.7425 38.364 52.9808 38.2098C53.3492 37.9713 53.4367 37.9635 53.5646 38.1575C53.8573 38.6021 53.3981 39.5728 52.7378 39.9046C52.2813 40.1341 51.6809 40.2058 51.3355 40.0719ZM89.2342 40.06C88.3453 39.8078 87.6409 38.7149 88.008 38.1575C88.1358 37.9635 88.2233 37.9713 88.5917 38.2098C88.8302 38.364 89.112 38.6945 89.2181 38.9438C89.4108 39.3966 89.4117 39.3967 89.7923 39.0923C90.1934 38.7714 91.0271 38.6806 91.1895 38.9402C91.3161 39.1425 90.4698 40.0266 90.0561 40.1242C89.8772 40.1664 89.5074 40.1376 89.2342 40.06ZM50.7936 38.4232C50.575 38.3139 50.2571 37.9897 50.0875 37.7027L49.7791 37.1809H50.3935C50.7923 37.1809 51.1344 37.2985 51.3688 37.5159L51.7298 37.8509L51.836 37.52C51.958 37.1404 52.6731 36.5382 53.002 36.5382C53.3431 36.5382 53.2718 37.3986 52.8913 37.8765C52.7084 38.1063 52.2876 38.3687 51.9563 38.4597C51.2175 38.6623 51.2756 38.6642 50.7936 38.4232ZM89.5381 38.4529C89.2531 38.3696 88.8689 38.1119 88.6844 37.8802C88.3016 37.3995 88.2287 36.5383 88.571 36.5383C88.8998 36.5383 89.6149 37.1406 89.7369 37.5202L89.8432 37.851L90.2042 37.5161C90.4363 37.3006 90.7808 37.1811 91.1687 37.1811H91.7722L91.5347 37.6346C91.1025 38.4604 90.4621 38.7227 89.5381 38.4529ZM50.666 36.9066C50.2353 36.8251 49.6464 36.1361 49.6464 35.7133C49.6464 35.2793 50.3387 35.3265 50.8937 35.7981L51.346 36.1825L51.6191 35.7388C51.7693 35.4947 52.1187 35.217 52.3954 35.1218C52.8856 34.953 52.8986 34.9611 52.8986 35.4346C52.8986 35.9588 52.1439 36.8597 51.7048 36.8597C51.5499 36.8624 51.3957 36.8818 51.245 36.9175C51.1259 36.9492 50.8654 36.9443 50.666 36.9066ZM89.8635 36.8392C89.221 36.6604 88.6743 35.9991 88.6743 35.4004C88.6743 34.965 88.6927 34.9548 89.1775 35.1218C89.4542 35.2171 89.8036 35.4947 89.9539 35.7388L90.227 36.1825L90.6793 35.7981C91.6228 34.9965 92.3842 35.5449 91.5607 36.4331C91.1249 36.9032 90.5705 37.0359 89.8635 36.8392ZM49.8832 34.8588C49.4315 34.4125 49.3384 33.6467 49.7361 33.6467C50.1849 33.6467 50.9216 34.1158 51.037 34.475C51.1443 34.8087 51.1587 34.8029 51.3504 34.3523C51.5299 33.9305 52.1616 33.4861 52.5813 33.4861C52.9249 33.4861 52.7154 34.3347 52.2609 34.7836C51.6195 35.4173 50.4849 35.4533 49.8832 34.8588ZM89.3116 34.7836C89.0322 34.5075 88.8363 34.1434 88.8363 33.9001C88.8363 33.42 88.7983 33.4336 89.4796 33.6683C89.8208 33.7859 90.0823 34.0236 90.2161 34.3377C90.4125 34.7992 90.4293 34.8064 90.5358 34.475C90.6512 34.1158 91.3879 33.6467 91.8367 33.6467C92.2342 33.6467 92.1413 34.4125 91.6896 34.8588C91.088 35.4531 89.953 35.4173 89.3116 34.7836ZM50.1857 33.4934C49.9903 33.411 49.7525 33.1995 49.6573 33.0236C49.4346 32.6127 49.433 31.8795 49.6547 31.8795C50.022 31.8795 50.7673 32.3748 50.867 32.6849C50.9666 32.9951 50.9962 32.9865 51.4316 32.526C52.3394 31.5659 53.2258 32.1025 52.365 33.0912C51.9557 33.5613 50.8359 33.7679 50.1857 33.4934ZM89.7073 33.496C89.2839 33.3168 88.8362 32.7151 88.8362 32.3258C88.8362 31.8445 89.6157 31.9708 90.1531 32.5392C90.4888 32.8942 90.6249 32.963 90.6249 32.7779C90.6249 32.5139 91.513 31.8813 91.8853 31.8803C92.1912 31.8795 92.1313 32.7558 91.7975 33.1631C91.4715 33.5608 90.3007 33.7471 89.7073 33.496ZM50.2617 31.7997C49.8227 31.5553 49.3098 30.3908 49.5407 30.1628C49.7317 29.9741 50.7828 30.5761 50.9696 30.9809L51.1491 31.37L51.4952 30.9878C51.6856 30.7777 52.0609 30.585 52.3292 30.5598C52.7634 30.519 52.812 30.5581 52.7713 30.9156C52.7462 31.1366 52.5897 31.4517 52.4236 31.6162C52.0189 32.0167 50.8323 32.1173 50.2617 31.7997ZM89.5367 31.8779C89.0795 31.6959 88.6095 30.9905 88.7334 30.6719C88.8654 30.3319 89.6293 30.5173 90.0766 30.998L90.4227 31.37L90.598 30.9898C90.8011 30.5493 91.7329 30.0181 91.9412 30.2239C92.0203 30.302 92.0089 30.624 91.915 30.9602C91.6612 31.8683 90.5702 32.2892 89.5367 31.8779ZM50.2072 29.8785C49.7688 29.4454 49.6315 28.345 50.0158 28.345C50.3605 28.345 50.9573 28.8345 51.1163 29.2477L51.2657 29.6359L51.5938 29.3117C52 28.9104 53.0603 28.8555 53.0603 29.2358C53.0603 29.3723 52.8807 29.6616 52.6612 29.8784C52.3419 30.1938 52.0963 30.2727 51.4341 30.2727C50.7719 30.2727 50.5265 30.194 50.2072 29.8785ZM88.9087 29.8785C88.6892 29.6617 88.5096 29.3725 88.5096 29.2359C88.5096 28.8529 89.4714 28.9188 89.917 29.3324L90.2885 29.6771L90.4457 29.2684C90.6115 28.8379 91.203 28.3452 91.5541 28.3452C91.9385 28.3452 91.8011 29.4456 91.3627 29.8787C91.0434 30.1941 90.7978 30.273 90.1358 30.273C89.4737 30.273 89.2279 30.194 88.9087 29.8785ZM51.1706 28.6024C50.8915 28.4789 50.5438 28.2098 50.3982 28.0044C50.1344 27.6323 50.0415 26.8829 50.2353 26.6914C50.4365 26.4927 51.23 27.0544 51.4333 27.5395C51.6185 27.9812 51.669 28.0092 51.9034 27.8006C52.2705 27.4738 52.9848 27.3234 53.3114 27.504C53.5572 27.64 53.5372 27.7087 53.1198 28.1615C52.5709 28.7572 51.876 28.9143 51.1706 28.6024ZM89.0607 28.6756C88.8719 28.5969 88.5578 28.3321 88.3629 28.0874C88.0459 27.6892 88.0362 27.6269 88.2709 27.4972C88.5869 27.3224 89.3048 27.4785 89.6667 27.8006C89.9011 28.0092 89.9516 27.9812 90.1368 27.5395C90.2509 27.2675 90.5518 26.9387 90.8054 26.8091C91.2496 26.5822 91.2707 26.5889 91.3723 26.9891C91.6428 28.0543 90.162 29.1347 89.0607 28.6756ZM51.6781 27.0686C51.2349 26.8893 50.8211 26.4042 50.7801 26.0155C50.7103 25.3529 50.7904 24.9712 50.9993 24.9712C51.2776 24.9712 51.8541 25.5941 51.9918 26.044C52.0946 26.3795 52.1179 26.3832 52.5563 26.1346C52.9135 25.9321 53.1342 25.91 53.5654 26.0339L54.1172 26.1926L53.6013 26.7064C53.0691 27.2364 52.4036 27.3619 51.6781 27.0686ZM87.9898 26.7267L87.4536 26.1927L88.0054 26.0341C88.4366 25.9101 88.6571 25.9321 89.0145 26.1348C89.4531 26.3835 89.4762 26.3797 89.579 26.0441C89.7169 25.5943 90.2932 24.9714 90.5715 24.9714C90.7173 24.9714 90.7871 25.1963 90.7871 25.6664C90.7871 26.5693 90.287 27.0645 89.2601 27.1789C88.593 27.2531 88.4771 27.2118 87.9898 26.7267ZM52.3018 25.5405C52.0182 25.4185 51.7071 25.1732 51.6106 24.995C50.8124 22.8029 52.518 23.3621 52.5736 24.5174C52.5736 25.0445 52.6133 25.0583 53.1419 24.7161C53.5952 24.4227 54.525 24.5409 54.525 24.892C54.525 25.2246 53.7191 25.7753 53.2428 25.7682C53.009 25.7648 52.5854 25.6623 52.3018 25.5405ZM87.4765 25.4417C87.2408 25.2586 87.048 25.0113 87.048 24.8922C87.048 24.5411 87.9777 24.4228 88.431 24.7163C88.9595 25.0583 88.9993 25.0445 88.9993 24.5176C88.9993 24.018 89.6743 23.2617 89.963 23.438C90.1891 23.5761 90.1885 24.5776 89.9622 24.9957C89.7636 25.3621 88.8808 25.7749 88.295 25.7749C88.0806 25.7749 87.7122 25.6249 87.4765 25.4417Z" fill="black"/>
<path d="M63.5475 46.2669C63.03 46.1662 62.5147 45.4323 62.5914 44.9055C62.6265 44.6644 62.5862 44.4437 62.5018 44.4154C62.4175 44.387 62.2982 43.4804 62.2365 42.4006L62.1244 40.4375L61.3349 39.6079C60.9007 39.1517 60.4236 38.5794 60.2747 38.3364C59.9519 37.8091 59.8948 36.9816 60.1481 36.504C60.3946 36.0394 60.3788 35.577 60.1087 35.3508C59.9378 35.2078 59.8701 35.2124 59.8169 35.3713C59.7719 35.5057 59.539 35.368 59.1509 34.9779C58.8228 34.648 58.4988 34.3778 58.4308 34.3778C58.3628 34.3778 58.2186 34.2697 58.1099 34.1378C58.0012 34.0059 57.7605 33.8976 57.5748 33.8971C56.9707 33.8962 56.262 33.316 55.8841 32.5131C55.6832 32.0865 55.3853 31.5425 55.2219 31.3044C54.9532 30.9124 54.9425 30.768 55.1104 29.7842C55.351 28.3734 56.0872 26.2481 56.7895 24.9366C57.3771 23.8394 58.884 21.7362 59.0825 21.7362C59.1469 21.7362 59.5626 21.3795 60.0064 20.9434L60.8133 20.1507L61.526 20.6359C61.918 20.9027 62.1981 21.1871 62.1488 21.2678C62.0994 21.3485 62.2414 21.4984 62.4643 21.601C62.9313 21.8156 62.9646 21.9378 62.6319 22.2161C62.4411 22.3758 62.3404 22.3719 62.1239 22.1957C61.8708 21.99 61.8701 22.0001 62.113 22.3559C62.6149 23.0917 61.7308 23.598 61.1715 22.8951C61.0613 22.7566 60.8431 22.6911 60.6559 22.7405C60.4426 22.7968 60.3314 22.749 60.3314 22.6011C60.3314 22.4774 60.4665 22.3761 60.6317 22.3761C60.7969 22.3761 60.9754 22.2622 61.0284 22.123C61.1743 21.7395 61.1459 21.6792 60.9118 21.8751C60.621 22.1185 60.4657 21.9211 60.6598 21.555C60.7839 21.3211 60.7634 21.2561 60.5656 21.2561C60.4054 21.2561 60.3563 21.3294 60.4318 21.4561C60.5128 21.592 60.465 21.5858 60.2826 21.4365C60.0488 21.2452 60.0118 21.2555 59.9954 21.5165C59.985 21.6813 59.9843 21.8679 59.9939 21.9314C60.0034 21.9949 59.8689 22.1233 59.6953 22.2171C59.5217 22.3109 59.3796 22.3516 59.3796 22.3077C59.3796 22.2638 59.0583 22.566 58.6657 22.9794C58.273 23.3927 57.9517 23.8522 57.9517 24.0006C57.9517 24.4274 58.1268 24.7766 58.341 24.7766C58.7697 24.7766 59.5384 25.2917 59.5384 25.5789C59.5384 25.7433 59.6097 25.9223 59.697 25.9766C59.7874 26.0329 59.8557 25.8945 59.8557 25.6545C59.8557 25.423 59.9508 25.1376 60.067 25.0204C60.1961 24.8902 60.2624 24.5219 60.2374 24.0739C60.2149 23.6705 60.2638 23.2985 60.3464 23.247C60.6422 23.0626 61.6008 23.5071 61.6008 23.8287C61.6008 24.203 61.8904 24.2357 62.0269 23.8768C62.1111 23.6554 62.1683 23.6731 62.4151 23.9968C62.5743 24.2056 62.7061 24.4458 62.708 24.5304C62.71 24.6151 62.9079 24.8487 63.1478 25.0493L63.5841 25.4143L63.1081 25.8195C62.2644 26.5375 62.2572 26.5418 62.1552 26.375C62.1018 26.2878 61.9731 26.2222 61.8691 26.2293C61.7329 26.2383 61.7355 26.2644 61.8785 26.3227C61.9876 26.3671 62.0769 26.5414 62.0769 26.7101C62.0769 26.9849 62.245 27.0912 62.5925 27.0357C62.6579 27.0253 62.7115 27.0862 62.7115 27.1711C62.7115 27.3797 62.106 27.6945 61.8697 27.6088C61.6043 27.5126 61.1248 27.7865 61.1248 28.0346C61.1248 28.1481 60.9463 28.4102 60.7281 28.6169C60.5099 28.8236 60.3314 29.1319 60.3314 29.3019C60.3314 29.4719 60.1498 29.8285 59.928 30.0945C59.5806 30.5108 59.5391 30.6752 59.6286 31.2777C59.7492 32.0891 59.6439 32.1682 59.31 31.5168C59.0639 31.037 58.5989 30.7498 58.44 30.9796C58.3894 31.0528 58.1817 31.1232 57.9784 31.1361C57.4208 31.1713 57.1581 31.4761 57.1581 32.0876C57.1581 33.1065 57.7366 33.6153 58.1875 32.9932C58.4493 32.6324 58.7685 32.8668 58.6521 33.3345C58.5756 33.6421 58.6266 33.7216 58.9292 33.7648C59.2295 33.8077 59.3094 33.9289 59.3484 34.4009C59.3903 34.9066 59.4574 34.993 59.8537 35.0517C60.1628 35.0974 60.3914 35.0244 60.5601 34.8256C60.7424 34.6109 60.9266 34.5604 61.2448 34.6377C61.4843 34.6958 61.9479 34.7349 62.2752 34.7243C62.6168 34.7133 62.8703 34.7807 62.8703 34.8827C62.8703 35.1412 63.508 35.658 63.8271 35.658C64.1169 35.658 64.4153 35.9527 64.6918 36.5121C64.8078 36.7467 65.1204 36.9103 65.7007 37.0403C67.0402 37.3402 67.5274 37.9755 67.083 38.8423C66.9476 39.1064 66.8357 39.5961 66.8344 39.9304C66.8315 40.6484 66.7532 40.778 66.1229 41.1068C65.7708 41.2903 65.6603 41.4492 65.6982 41.7169C65.7613 42.1622 65.3671 42.7997 64.9452 42.9349C64.7642 42.9929 64.6671 43.128 64.7152 43.2548C64.7612 43.3759 64.6499 43.5548 64.4668 43.6535C64.0771 43.8639 63.6396 44.8101 63.8635 44.9588C63.9556 45.02 63.9453 45.1871 63.8366 45.3922C63.6893 45.6699 63.7132 45.7548 63.9789 45.8983C64.1546 45.9931 64.2982 46.1401 64.2982 46.225C64.2982 46.3823 64.175 46.3891 63.5475 46.2669ZM58.7826 27.9011C58.8239 27.6837 58.7965 27.544 58.7218 27.5904C58.5903 27.6724 58.5241 28.2963 58.6468 28.2963C58.6802 28.2963 58.7415 28.1184 58.7826 27.9011ZM59.3291 27.6263C59.2785 27.4986 59.2409 27.5365 59.2333 27.7229C59.2265 27.8916 59.2639 27.9862 59.3167 27.933C59.3694 27.8798 59.375 27.7418 59.3291 27.6263ZM58.7724 26.9801C58.6851 26.8921 58.5284 26.8732 58.4244 26.9382C58.2804 27.0279 58.2849 27.0873 58.4427 27.1858C58.7134 27.3545 58.9791 27.1886 58.7724 26.9801ZM81.9805 43.5655L81.8298 42.7783H80.9572C79.993 42.7783 80.0456 42.8814 80.3034 41.4981C80.429 40.8242 80.7319 40.1504 80.9231 40.1196C80.9855 40.1096 81.2444 40.077 81.4984 40.0473C81.7525 40.0175 82.0096 39.9129 82.0696 39.8149C82.2283 39.5557 83.0198 39.1693 83.0198 39.3509C83.0198 39.4357 83.1867 39.3948 83.3906 39.26C83.7299 39.0358 83.7843 39.0404 84.0293 39.3134C84.2555 39.5655 84.263 39.6404 84.0773 39.7958C83.9454 39.9063 83.8897 40.1494 83.938 40.4042L84.0184 40.8285L84.9253 39.7379L84.8663 40.3458C84.8008 41.0193 84.1067 42.1282 82.8992 43.4878L82.1311 44.3527L81.9805 43.5655ZM71.7003 41.2167C71.5394 40.6673 71.3391 40.0313 71.255 39.8032C71.171 39.5751 71.1357 39.0257 71.1766 38.5823C71.2327 37.9732 71.1766 37.653 70.9474 37.2729C70.7806 36.9961 70.644 36.5818 70.644 36.3519C70.644 35.7976 69.9365 35.1206 69.564 35.3184C68.8861 35.6783 67.6294 35.2209 67.6294 34.6141C67.6294 34.5111 67.4979 34.3067 67.3372 34.1601C67.1005 33.9441 67.0515 33.6883 67.0795 32.8152C67.1261 31.3622 67.1058 31.4524 67.5256 30.8284C67.7303 30.5242 67.9458 30.082 68.0046 29.8459C68.0633 29.6097 68.1814 29.4166 68.267 29.4166C68.3526 29.4166 68.4227 29.2725 68.4227 29.0965C68.4227 28.9204 68.3476 28.7764 68.2558 28.7764C68.1541 28.7764 68.1075 28.4481 68.1368 27.9362C68.1835 27.117 68.1975 27.0948 68.7003 27.046C69.2764 26.99 69.4063 26.5745 68.9636 26.204C68.7342 26.012 68.737 25.9739 68.994 25.7843C69.2467 25.598 69.2487 25.576 69.0133 25.576C68.8444 25.576 68.7827 25.4899 68.8412 25.336C68.9072 25.1626 68.8239 25.096 68.5409 25.096C68.2101 25.096 68.1608 25.0348 68.2242 24.7008C68.2654 24.4836 68.3983 24.2227 68.5195 24.1211C68.6406 24.0196 68.7399 23.804 68.7399 23.6417C68.7399 23.4795 68.8828 23.2699 69.0573 23.1756C69.3472 23.0192 69.3747 23.0539 69.3747 23.5757C69.3747 23.8899 69.4879 24.3213 69.6262 24.5342C69.8403 24.8638 69.9231 24.893 70.1816 24.7302C70.3486 24.6249 70.4853 24.366 70.4853 24.155C70.4853 23.9439 70.6102 23.674 70.7629 23.5554C71.0165 23.3584 71.0063 23.3431 70.6439 23.3778C70.3001 23.4106 70.2403 23.3436 70.196 22.8753C70.1551 22.4447 70.2479 22.2274 70.6521 21.8069C70.9564 21.4901 71.1595 21.1137 71.1595 20.8661C71.1595 20.5968 71.3475 20.2868 71.7006 19.9742C72.29 19.4522 72.8724 19.3583 73.1825 19.7352C73.2912 19.8673 73.4567 19.9752 73.5503 19.9752C73.6438 19.9752 73.9292 20.1733 74.1843 20.4152C74.6223 20.8309 74.6422 20.8352 74.5394 20.4952C74.4249 20.1167 74.5913 20.0198 74.8712 20.3019C74.9859 20.4176 75.0988 20.3932 75.2396 20.222C75.3514 20.0862 75.591 19.9751 75.7723 19.9751C76.1545 19.9751 75.9814 19.7364 75.3776 19.4304C75.0702 19.2746 75.0141 19.1349 75.048 18.6088C75.1107 17.6354 75.2188 17.2992 75.5046 17.1886C75.8939 17.0379 75.9315 17.17 75.6535 17.712C75.5162 17.9799 75.4038 18.3826 75.4038 18.607C75.4038 19.0827 75.9099 19.6551 76.3307 19.6551C76.5877 19.6551 76.6098 19.5675 76.5134 18.9271C76.4267 18.3504 76.4484 18.2164 76.6179 18.282C76.7357 18.3275 76.833 18.277 76.8343 18.1698C76.836 18.0358 76.8802 18.044 76.9756 18.1959C77.0841 18.3687 77.1387 18.3401 77.2254 18.0643C77.3572 17.6454 77.444 17.6694 78.9737 18.5486C81.2462 19.8547 83.4126 22.0034 84.7773 24.305C85.4299 25.4055 85.5423 26.1013 85.2672 27.3361C85.1918 27.6745 85.215 28.1494 85.3259 28.5362C85.5019 29.1498 85.5149 29.1598 85.6407 28.7762C85.7127 28.5561 85.7587 27.9081 85.7428 27.3361C85.7264 26.749 85.7705 26.3832 85.8439 26.4964C86.0938 26.8809 86.0663 29.1519 85.8077 29.497C85.6761 29.6726 85.5579 29.9964 85.545 30.2165C85.5255 30.5489 85.5086 30.5624 85.4453 30.2965C85.4033 30.1204 85.3044 29.9081 85.2256 29.8244C85.1469 29.7408 85.0824 29.475 85.0824 29.2337C85.0824 28.9925 85.0185 28.7553 84.9404 28.7065C84.6878 28.5491 84.5928 29.1299 84.7784 29.6972C84.8779 30.0011 84.9134 30.5376 84.8573 30.8909C84.7903 31.3134 84.8249 31.6171 84.9586 31.7807C85.12 31.9779 85.1209 32.0426 84.9634 32.0961C84.8542 32.1331 84.76 32.2835 84.7538 32.4302C84.7446 32.6508 84.7223 32.6445 84.6247 32.3938C84.5157 32.1137 84.4802 32.1246 84.1599 32.5354C83.9691 32.7801 83.8129 33.0827 83.8129 33.2081C83.8129 33.3335 83.7367 33.3884 83.6434 33.3304C83.5501 33.2724 83.5188 33.1061 83.5735 32.9609C83.6454 32.7702 83.6248 32.7452 83.4991 32.8711C83.3762 32.9939 83.3734 33.1733 83.4897 33.4815C83.7409 34.1478 83.6906 34.4778 83.2626 34.9685C82.8819 35.405 82.8708 35.4075 82.8659 35.0574C82.8631 34.8593 82.8051 34.6974 82.7367 34.6974C82.6683 34.6974 82.6148 35.4534 82.6176 36.3776C82.6214 37.6122 82.6754 38.0579 82.8212 38.0579C82.9303 38.0579 83.0195 38.13 83.0195 38.218C83.0195 38.4883 83.7111 38.3886 84.1302 38.058C84.4349 37.8178 84.4655 37.7443 84.2624 37.7416C84.1169 37.7396 83.9619 37.648 83.918 37.538C83.8671 37.4106 83.8334 37.4326 83.8254 37.5984C83.8185 37.7416 83.709 37.9457 83.5821 38.052C83.3839 38.2179 83.3723 38.1713 83.5 37.7221C83.6608 37.1569 83.5907 36.8635 83.4225 37.3978C83.2884 37.8238 82.8609 37.66 82.8609 37.1825C82.8609 36.9838 83.0739 36.5774 83.3344 36.2794C83.5949 35.9815 83.8111 35.6656 83.8152 35.5777C83.8192 35.4898 83.8939 35.5411 83.9812 35.6921C84.0915 35.8827 84.0797 36.0639 83.9428 36.2849C83.6857 36.7001 83.8525 36.8533 84.2995 36.6121C84.6011 36.4493 84.6404 36.4576 84.5605 36.6674C84.5089 36.8033 84.5694 37.0005 84.6951 37.1056C84.8207 37.2107 84.9236 37.3961 84.9236 37.5174C84.9236 37.6387 84.9993 37.7378 85.0916 37.7378C85.1839 37.7378 85.2186 37.6708 85.1684 37.5888C85.1182 37.5068 85.1574 37.3899 85.2553 37.3288C85.4574 37.2028 85.288 38.2386 85.0837 38.3778C85.0192 38.4219 84.9123 38.6324 84.8461 38.8455L84.726 39.2332L84.5213 38.8475C84.4087 38.6353 84.3514 38.4051 84.3939 38.3358C84.4364 38.2665 84.2169 38.3539 83.9062 38.5298L83.3414 38.8498L82.7838 38.5179C82.4772 38.3354 82.2173 38.1212 82.2064 38.0419C82.1804 37.8527 82.1392 37.7093 82.0275 37.4177C81.9768 37.2856 81.9364 36.9256 81.9377 36.6176C81.9389 36.3096 81.9063 35.8415 81.8655 35.5774C81.8246 35.3133 81.8263 35.2054 81.8691 35.3374C81.9119 35.4695 82.0301 35.6973 82.1318 35.8439C82.2805 36.0582 82.3235 35.8765 82.352 34.9136C82.3748 34.142 82.3306 33.7522 82.2275 33.8166C82.1355 33.874 82.0629 33.7257 82.0564 33.4667C82.041 32.8471 81.8624 32.4464 81.6625 32.583C81.5706 32.6458 81.2875 32.9763 81.0333 33.3176C80.6505 33.8315 80.5732 34.0858 80.5835 34.7978C80.5928 35.4528 80.5402 35.6575 80.3627 35.6575C80.2174 35.6575 80.1652 35.5641 80.2242 35.4092C80.2763 35.2727 80.2556 35.2003 80.1785 35.2483C79.9855 35.3686 79.8831 35.0443 79.7559 33.9108C79.6962 33.3783 79.5493 32.8605 79.4294 32.7603C79.3095 32.6601 79.2116 32.49 79.2116 32.3824C79.2116 32.0514 78.684 31.7146 78.1117 31.6802C77.5898 31.6489 77.5783 31.6599 77.835 31.9459C78.0821 32.2211 78.0832 32.2839 77.8499 32.7555C77.6379 33.184 76.545 33.9936 75.8003 34.2738C75.4134 34.4194 75.8725 34.517 76.3265 34.3857C76.732 34.2685 76.8316 34.2864 76.8316 34.4764C76.8316 34.8878 76.3377 35.7116 75.6295 36.4813C74.9688 37.1993 74.9456 37.2599 74.9592 38.2267C74.9719 39.1333 74.9334 39.2576 74.5538 39.5365C74.3231 39.706 74.1343 39.9842 74.1343 40.1546C74.1343 40.4822 73.5486 41.506 73.1056 41.9528C72.9608 42.0988 72.6509 42.2178 72.4172 42.2171C72.0332 42.2158 71.964 42.1192 71.6997 41.2169L71.7003 41.2167ZM84.2098 37.0974C84.2638 37.0094 84.2322 36.9374 84.1399 36.9374C84.0475 36.9374 83.9719 37.0094 83.9719 37.0974C83.9719 37.1854 84.0033 37.2574 84.0418 37.2574C84.0803 37.2574 84.1559 37.1854 84.2098 37.0974ZM75.287 32.8979C75.1074 32.5233 74.8723 31.9804 74.7643 31.6916C74.6563 31.4028 74.5359 31.1988 74.4967 31.2383C74.4098 31.326 75.0788 33.2558 75.2947 33.5409C75.6084 33.9548 75.6035 33.5581 75.287 32.8979ZM76.9235 31.1235C76.4488 30.6447 76.4201 30.6881 76.7662 31.3629C76.9325 31.6874 77.071 31.7997 77.1751 31.6946C77.2791 31.5895 77.1941 31.3963 76.9235 31.1235ZM72.1523 29.9482C72.3252 29.7097 72.4057 29.7044 72.875 29.9005C73.7688 30.2739 74.4426 30.0754 74.4496 29.4367C74.4515 29.2597 74.4059 29.2557 74.214 29.4163C74.0183 29.5801 73.9761 29.5672 73.9761 29.3445C73.9761 29.1434 73.8635 29.0862 73.5398 29.1231C73.2501 29.1561 73.1175 29.1039 73.1453 28.9677C73.1766 28.8144 73.1113 28.8036 72.8876 28.9242C72.654 29.0503 72.5224 29.0128 72.2903 28.7542C72.1267 28.5718 72.0159 28.3778 72.0443 28.3233C72.0727 28.2689 72.036 28.204 71.9629 28.1794C71.8897 28.1549 71.7095 28.4052 71.5625 28.7356C71.4155 29.066 71.2914 29.2103 71.2869 29.0562C71.2825 28.9022 71.2073 28.7762 71.1201 28.7762C71.0781 28.776 71.0378 28.7591 71.0081 28.7291C70.9784 28.6992 70.9617 28.6586 70.9614 28.6162C70.9614 28.5282 71.0686 28.4562 71.1994 28.4562C71.572 28.4562 71.4784 28.0402 71.0407 27.7508C70.646 27.49 70.644 27.4911 70.644 28.0045C70.644 28.3997 70.6004 28.4763 70.4576 28.3322C70.3216 28.1951 70.3154 27.9984 70.4349 27.6059C70.5921 27.0895 70.5849 27.0744 70.2574 27.2302C70.0697 27.3196 69.7851 27.5677 69.6251 27.7817C69.3365 28.1676 69.3371 28.1698 69.6917 28.0563C69.9354 27.9783 70.0147 27.9983 69.9407 28.1191C69.881 28.2165 69.7369 28.2963 69.6205 28.2963C69.5041 28.2963 69.3677 28.4043 69.3175 28.5362C69.2673 28.6681 69.1168 28.7762 68.9832 28.7762C68.8496 28.7762 68.7402 28.8559 68.7402 28.9534C68.7402 29.0595 68.8517 29.0842 69.0179 29.0149C69.4276 28.8444 70.2026 28.6813 70.5649 28.6892C70.8129 28.6947 70.875 28.7937 70.8492 29.1427C70.8243 29.4815 70.9069 29.6241 71.1908 29.7329C71.3967 29.8119 71.6122 29.953 71.6694 30.0464C71.814 30.2824 71.9265 30.2597 72.1523 29.9482ZM72.7068 29.2563C72.707 29.2139 72.7238 29.1734 72.7535 29.1434C72.7832 29.1135 72.8234 29.0965 72.8654 29.0963C72.9074 29.0965 72.9476 29.1135 72.9773 29.1434C73.007 29.1734 73.0238 29.2139 73.024 29.2563C73.0238 29.2987 73.007 29.3392 72.9773 29.3692C72.9476 29.3991 72.9074 29.4161 72.8654 29.4163C72.8234 29.4161 72.7832 29.3991 72.7535 29.3692C72.7238 29.3392 72.707 29.2987 72.7068 29.2563ZM76.9028 28.4169C76.8406 28.1312 76.6743 27.6515 76.5333 27.3509C76.3356 26.9296 76.3225 26.7888 76.4761 26.7365C76.5857 26.6991 76.6329 26.5992 76.581 26.5145C76.4678 26.3299 76.0384 26.6482 76.0398 26.9156C76.0402 27.0148 76.1497 27.3069 76.283 27.5646C76.4163 27.8224 76.5068 28.1463 76.4843 28.2847C76.4348 28.5891 76.6319 28.9363 76.8542 28.9363C76.9542 28.9363 76.9728 28.738 76.9028 28.4169ZM72.8851 28.2535C72.7284 28.0966 72.7102 28.115 72.7963 28.3431C72.8559 28.501 72.9446 28.5897 72.9934 28.5405C73.0422 28.4912 72.9935 28.3621 72.8851 28.2535ZM84.9239 28.2868C84.9239 28.1935 84.8586 28.158 84.7788 28.2078C84.6991 28.2576 84.5976 28.2078 84.5534 28.0972C84.5048 27.9759 84.468 28.0073 84.4605 28.1762C84.4536 28.3303 84.555 28.4562 84.686 28.4562C84.8169 28.4562 84.9239 28.3799 84.9239 28.2868ZM71.9135 27.6947C71.9135 27.6278 71.7529 27.4736 71.5565 27.352C71.2008 27.1316 71.2006 27.1321 71.5018 27.4735C71.8252 27.8401 71.9135 27.8875 71.9135 27.6947ZM75.0867 27.6082C75.0867 27.2898 74.7457 27.0161 74.3489 27.0161C74.1525 27.0161 73.927 26.8991 73.8476 26.7562C73.729 26.5425 73.6714 26.5893 73.5224 27.0202C73.2794 27.7232 73.2682 27.7057 73.8843 27.5892C74.1992 27.5296 74.4697 27.5557 74.5283 27.6514C74.673 27.8873 75.0867 27.8552 75.0867 27.6082ZM72.1544 24.1406C72.1142 24.075 72.1453 23.7959 72.2236 23.5205C72.3096 23.2179 72.3078 22.9836 72.219 22.9283C72.1381 22.8779 72.072 22.649 72.072 22.4194C72.072 21.6429 71.8375 22.2323 71.8207 23.0512C71.8093 23.6079 71.7213 23.9246 71.5414 24.0574C71.1608 24.3381 71.2162 24.4096 71.753 24.3302C72.0139 24.2916 72.1946 24.2062 72.1544 24.1406ZM74.9968 40.7274C74.8631 40.376 75.2252 39.1771 75.4651 39.1771C75.5793 39.1771 75.7475 39.0151 75.8389 38.817C75.9901 38.4892 76.0154 38.4827 76.1208 38.7441C76.1931 38.9233 76.083 39.3733 75.8281 39.9416C75.4026 40.8901 75.1497 41.1292 74.9968 40.7274ZM84.3301 35.8597C84.1999 35.8141 84.18 35.7003 84.2715 35.5237C84.3476 35.3768 84.4172 34.8743 84.4262 34.407C84.4542 32.9578 84.7331 32.868 84.7464 34.3039C84.7587 35.6255 84.6647 35.9767 84.3301 35.8597ZM84.0614 35.1296C84.121 34.9717 84.2097 34.883 84.2585 34.9322C84.3073 34.9815 84.2586 35.1106 84.1502 35.2192C83.9935 35.3761 83.9754 35.3577 84.0614 35.1296ZM81.7505 34.6258C81.7505 34.499 81.8153 34.3549 81.8944 34.3056C81.9736 34.2562 82.0009 34.36 81.9553 34.5361C81.8584 34.9098 81.7505 34.9569 81.7505 34.6258ZM85.8883 34.283C85.8958 34.0966 85.9334 34.0587 85.9841 34.1864C86.03 34.3019 86.0242 34.4399 85.9716 34.4931C85.919 34.5463 85.8814 34.4517 85.8883 34.283ZM60.7484 33.1793C60.8025 33.037 60.9488 32.9419 61.0733 32.9683C61.4391 33.0456 61.3933 33.3317 61.0061 33.3873C60.7333 33.4264 60.6728 33.3775 60.7484 33.1793ZM59.7864 32.761C59.5306 32.6027 59.2449 32.516 59.1518 32.5682C59.0586 32.6204 59.0715 32.5662 59.1803 32.448C59.3454 32.2686 59.4886 32.2867 60.0411 32.5566C60.4641 32.7633 60.6222 32.9108 60.4777 32.9646C60.3532 33.0109 60.0423 32.9193 59.7864 32.761ZM55.1649 32.0639C55.0248 31.8482 54.9338 31.5623 54.9629 31.4284C54.9927 31.2908 55.1314 31.4613 55.2816 31.8206C55.584 32.5435 55.5383 32.6387 55.1649 32.0639ZM85.2539 31.2426C85.2614 31.0562 85.2991 31.0183 85.3497 31.1459C85.3956 31.2615 85.3899 31.3995 85.3373 31.4526C85.2847 31.5058 85.247 31.4113 85.2539 31.2426ZM63.0684 26.9093C62.9592 26.865 62.87 26.7355 62.87 26.6215C62.87 26.3168 63.2691 26.0354 63.5483 26.1435C63.8067 26.2435 64.0404 26.8553 63.8202 26.8553C63.7483 26.8553 63.5943 26.8856 63.4781 26.9226C63.3618 26.9595 63.1773 26.9537 63.0684 26.9093ZM59.2065 23.0774C59.0267 22.8589 59.0394 22.7871 59.2914 22.6013C59.5475 22.4124 59.6157 22.4201 59.7903 22.6586C59.9639 22.8954 59.9455 22.9424 59.6602 22.9892C59.3975 23.0323 59.3749 23.0738 59.552 23.1868C59.6774 23.2669 59.6973 23.3309 59.5971 23.3322C59.4988 23.3335 59.323 23.2191 59.2065 23.0774ZM64.6392 22.3791C64.0931 21.9902 63.5796 20.6144 63.9805 20.6144C64.2676 20.6144 64.146 20.3335 63.8219 20.2481C63.6126 20.1929 63.5047 20.0298 63.5047 19.7689C63.5047 19.2407 63.137 18.962 62.5541 19.0482C62.2916 19.0871 62.0767 19.0988 62.0767 19.0744C62.0767 19.05 62.5423 18.7674 63.1112 18.4465C64.8113 17.4875 68.676 16.2321 68.365 16.7397C68.3109 16.8281 68.3891 16.9479 68.5389 17.0058C68.6943 17.0659 68.745 17.159 68.657 17.2226C68.5722 17.2838 68.5027 17.5468 68.5027 17.8068C68.5027 18.1749 68.4147 18.3044 68.106 18.3909C67.7294 18.4965 67.7275 18.503 68.0663 18.5181C68.4227 18.5341 68.5223 18.7821 68.3018 19.1047C68.2378 19.1986 67.864 19.4989 67.4713 19.772C66.1966 20.659 65.7417 21.1796 65.6309 21.8785C65.5414 22.4434 65.4779 22.5235 65.143 22.4956C64.9312 22.478 64.7044 22.4255 64.6392 22.3791ZM67.5322 21.6639C67.3432 21.1673 67.5435 20.855 68.0682 20.8285C68.7099 20.7959 68.7785 21.2479 68.1909 21.6363C67.7114 21.9531 67.6434 21.9558 67.5322 21.6639ZM74.9285 20.0449C74.9285 19.9076 75.0011 19.8406 75.0898 19.8959C75.1785 19.9512 75.21 20.0635 75.1598 20.1453C75.0238 20.3673 74.9285 20.3259 74.9285 20.0449ZM71.8866 17.8653C71.7298 17.3373 71.729 17.1828 71.8831 17.131C71.9904 17.0949 72.1823 16.9603 72.3096 16.8321C72.4881 16.6519 72.6154 16.6388 72.8665 16.7744C73.0456 16.871 73.1451 17.0265 73.0879 17.12C73.0307 17.2136 73.0822 17.3586 73.2025 17.4425C73.3557 17.5495 73.3101 17.5634 73.0506 17.4895C72.7171 17.3944 72.6972 17.4164 72.8527 17.7093C73.0355 18.0538 72.8455 18.3193 72.5485 18.1342C72.4613 18.0798 72.3899 18.1477 72.3899 18.2848C72.3899 18.7779 72.0813 18.5207 71.8866 17.8653Z" fill="black"/>
<path d="M47.5568 65.4827C45.981 64.6185 44.6696 63.7743 43.4687 62.851C42.9291 62.4361 42.5492 62.2045 42.6246 62.3364C42.7357 62.5308 42.7195 62.5371 42.5388 62.3693C42.2764 62.1257 41.452 62.093 41.3114 62.3206C41.1559 62.5724 42.0082 63.037 42.4652 62.9496C43.0424 62.8391 42.9801 63.0657 42.3212 63.4732C41.1215 64.2153 39.4424 63.7621 37.821 62.2583L37.0058 61.5024L37.3941 61.172C38.4121 60.3056 39.568 60.3795 41.3101 61.4223L42.2993 62.0144L40.6321 60.3087C38.6574 58.2886 37.9242 57.4006 36.7627 55.6232C36.2867 54.8948 35.8248 54.3193 35.7363 54.3444C35.6478 54.3695 35.6174 54.3215 35.6691 54.238C35.7207 54.1545 35.3564 53.2401 34.8595 52.2059C32.318 46.9163 31.2223 40.7452 31.8025 34.9894C32.2995 30.0568 33.794 25.4504 36.2257 21.3556C37.8751 18.5783 41.0136 15.1271 43.747 13.0852C44.4521 12.5585 45.0289 12.0755 45.0289 12.0119C45.0289 11.7197 46.2909 10.4658 46.8957 10.157C47.6482 9.77283 49.4953 9.52909 49.4953 9.81384C49.4953 10.138 47.9334 11.5564 47.237 11.8646C46.8578 12.0325 46.1873 12.2162 45.7469 12.2728C45.1279 12.3525 44.676 12.5772 43.7563 13.2618C36.0109 19.0284 31.4436 29.607 32.2769 39.8499C32.4936 42.5141 32.9431 44.9966 33.5293 46.7671C33.7553 47.45 33.9067 47.8194 33.8657 47.588C33.4432 45.2062 33.6961 43.8697 34.7497 42.9172C35.5028 42.2363 36.527 41.8348 36.804 42.112C37.1203 42.4286 37.0508 45.5747 36.7076 46.4644C36.4417 47.1539 35.0301 48.7356 34.8456 48.551C34.8086 48.5139 34.8647 48.2548 34.9702 47.9752C35.0986 47.6452 35.1122 47.2816 35.0087 46.943C34.8701 46.4695 34.8259 46.4409 34.5494 46.6445C34.3811 46.7684 34.1835 47.1978 34.1103 47.5989C33.9983 48.2116 34.0537 48.5213 34.4572 49.5377C34.9385 50.7503 36.0519 53.0581 36.1554 53.0581C36.1858 53.0581 36.0757 52.667 35.9106 52.189C35.2652 50.3196 35.6446 48.7065 36.9525 47.7583C37.3276 47.4864 37.6842 47.2638 37.7448 47.2638C37.9738 47.2638 38.4665 49.2158 38.5394 50.4118C38.6025 51.4471 38.5551 51.7842 38.257 52.4188C38.06 52.8383 37.7351 53.3354 37.535 53.5235L37.1711 53.8657V52.979C37.1711 51.9709 37.0484 51.7545 36.6601 52.077C36.45 52.2514 36.4102 52.4807 36.4831 53.0962C36.5561 53.7117 36.8028 54.217 37.5765 55.3366C39.0446 57.4612 39.3383 57.7937 38.7873 56.7069C38.4221 55.9868 38.3292 55.5783 38.3292 54.6944C38.3292 53.7004 38.3826 53.5193 38.8433 52.9492C39.6333 51.9718 39.8197 52.0252 40.48 53.4179C41.1521 54.8359 41.3305 55.8553 41.0735 56.8102C40.8752 57.5473 40.161 58.6231 40.337 57.9196C40.4321 57.5398 39.9944 56.5345 39.7341 56.5345C39.3975 56.5345 39.3835 57.3344 39.7089 57.9638C40.013 58.552 41.3416 59.9495 42.1338 60.5144C42.4504 60.74 42.453 60.7361 42.1951 60.422C41.1625 59.1644 41.1189 57.2117 42.1052 56.3927C42.3036 56.2279 42.4554 56.3185 42.9577 56.9013C44.1378 58.2709 44.5491 59.5473 44.2126 60.7972C44.0375 61.4483 43.6552 61.9952 43.8075 61.3769C43.8963 61.0164 43.2632 59.9578 43.0409 60.0953C42.7972 60.2461 42.8443 60.7988 43.1392 61.2492C43.4856 61.7783 45.8741 63.4026 47.8911 64.4806C49.2427 65.2031 49.5045 65.4062 49.4625 65.7005C49.3833 66.2557 48.8548 66.1955 47.5564 65.4834L47.5568 65.4827ZM45.9387 11.8351C46.1262 11.6277 46.1627 11.504 46.0361 11.504C45.6886 11.504 45.1803 11.8443 45.2821 12.009C45.4294 12.2475 45.6088 12.1999 45.9387 11.8351ZM92.6155 66.0242C92.243 65.6514 92.5949 65.2883 94.1181 64.4742C96.1272 63.4003 98.5151 61.7757 98.861 61.2475C99.1559 60.7971 99.203 60.2443 98.9593 60.0936C98.7371 59.9561 98.1041 61.0147 98.1928 61.3752C98.3451 61.9934 97.9628 61.4465 97.7876 60.7955C97.4513 59.5455 97.8625 58.2692 99.0428 56.8996C99.545 56.3166 99.6969 56.2261 99.8952 56.3909C100.882 57.21 100.838 59.1628 99.8054 60.4202C99.5475 60.7343 99.5501 60.7382 99.8666 60.5126C100.659 59.9478 101.987 58.5504 102.292 57.9621C102.617 57.3325 102.603 56.5328 102.266 56.5328C102.006 56.5328 101.568 57.5381 101.663 57.9179C101.839 58.6214 101.125 57.5455 100.927 56.8085C100.67 55.8537 100.848 54.8343 101.52 53.4161C102.181 52.0233 102.367 51.9699 103.157 52.9475C103.618 53.5177 103.671 53.6987 103.671 54.6926C103.671 55.5765 103.578 55.985 103.213 56.7052C102.662 57.7918 102.956 57.4593 104.424 55.3348C105.197 54.2151 105.444 53.7092 105.517 53.0944C105.59 52.4797 105.55 52.2497 105.34 52.0753C104.952 51.7527 104.829 51.9692 104.829 52.9772V53.8639L104.465 53.5218C104.265 53.3337 103.94 52.8365 103.743 52.4171C103.445 51.7826 103.398 51.4453 103.461 50.4101C103.534 49.2139 104.027 47.2621 104.255 47.2621C104.316 47.2621 104.673 47.4845 105.048 47.7565C106.356 48.7046 106.735 50.3177 106.09 52.1872C105.925 52.6652 105.815 53.0563 105.845 53.0563C105.948 53.0563 107.062 50.7486 107.543 49.536C107.946 48.5196 108.002 48.2097 107.89 47.5972C107.817 47.1961 107.619 46.7667 107.451 46.6428C107.174 46.4392 107.13 46.4678 106.992 46.9413C106.888 47.2799 106.902 47.6435 107.03 47.9734C107.136 48.2531 107.192 48.5123 107.155 48.5492C106.97 48.734 105.559 47.1522 105.293 46.4627C104.95 45.573 104.88 42.4268 105.196 42.1102C105.473 41.8331 106.497 42.2346 107.251 42.9155C108.304 43.8679 108.557 45.2044 108.135 47.5862C108.093 47.8177 108.245 47.4483 108.471 46.7654C110.329 41.1525 110.226 33.6751 108.206 27.488C106.328 21.7378 102.731 16.6009 98.244 13.2602C97.3243 12.5754 96.8723 12.3509 96.2534 12.2712C95.8129 12.2145 95.1425 12.0309 94.7633 11.863C94.0671 11.5548 92.505 10.1363 92.505 9.81224C92.505 9.52734 94.352 9.77108 95.1046 10.1554C95.7094 10.4642 96.9714 11.7181 96.9714 12.0103C96.9714 12.0739 97.5483 12.5569 98.2535 13.0836C100.987 15.1255 104.125 18.5767 105.775 21.354C108.206 25.4488 109.701 30.0552 110.198 34.9878C110.778 40.7443 109.682 46.9154 107.141 52.2043C106.644 53.2383 106.28 54.1529 106.331 54.2364C106.383 54.3199 106.353 54.3677 106.264 54.3428C106.176 54.3178 105.714 54.8933 105.238 55.6216C104.076 57.3992 103.343 58.287 101.368 60.3071L99.7011 62.0128L100.69 61.4207C102.432 60.3779 103.588 60.304 104.606 61.1704L104.995 61.5008L104.179 62.2567C102.558 63.7603 100.879 64.2136 99.6792 63.4716C99.0204 63.0641 98.9582 62.8375 99.5353 62.948C99.9922 63.0354 100.845 62.5708 100.689 62.319C100.548 62.0914 99.724 62.1241 99.4616 62.3676C99.2809 62.5355 99.2647 62.5294 99.3759 62.3348C99.4513 62.203 99.0574 62.4459 98.5007 62.8745C96.7476 64.2246 93.497 66.1338 92.9517 66.1338C92.8273 66.1338 92.676 66.0842 92.6153 66.0234L92.6155 66.0242ZM96.7183 12.0088C96.82 11.8442 96.3119 11.5038 95.9643 11.5038C95.8379 11.5038 95.8743 11.6276 96.0618 11.835C96.3916 12.1997 96.571 12.2473 96.7183 12.0088ZM36.1675 59.8621C35.3081 59.4715 34.444 58.7102 33.6843 57.6744C32.9866 56.7232 33.0577 56.5052 34.157 56.2283C34.869 56.0489 35.7201 56.1546 36.3711 56.5033C36.8833 56.7775 38.4613 58.1524 38.6441 58.4836C38.7805 58.7305 38.7657 58.739 38.5327 58.5482C38.2188 58.2912 37.5571 58.3471 37.4612 58.6387C37.3737 58.9045 38.4123 59.5413 38.784 59.4496C39.2579 59.3327 38.9162 59.6918 38.3139 59.9437C37.5743 60.253 36.9773 60.2302 36.1675 59.8621ZM103.649 59.9365C103.07 59.6845 102.761 59.3375 103.215 59.4496C103.587 59.5413 104.625 58.9045 104.538 58.6387C104.442 58.3471 103.78 58.2912 103.466 58.5482C103.233 58.739 103.219 58.7305 103.355 58.4836C103.538 58.1524 105.116 56.7775 105.628 56.5033C106.279 56.1546 107.13 56.0489 107.842 56.2283C108.941 56.5052 109.013 56.7232 108.315 57.6744C106.812 59.723 105.083 60.5612 103.649 59.9365ZM33.2015 55.1268C32.301 54.8108 31.122 53.496 30.3654 51.9638C29.8526 50.9253 29.7883 50.688 29.9859 50.5628C30.3457 50.3349 31.9008 50.3774 32.5088 50.6317C33.0811 50.8709 34.8141 52.6662 35.3324 53.5564L35.6437 54.0912L35.1305 53.7115C34.732 53.4167 34.538 53.3672 34.263 53.4901L33.9086 53.6483L34.348 54.171C34.5897 54.4584 34.9517 54.7468 35.1523 54.8119C35.5025 54.9253 35.4972 54.9388 35.0209 55.1443C34.3871 55.4179 34.0212 55.4143 33.2015 55.1268ZM106.98 55.1521C106.503 54.9388 106.498 54.9256 106.849 54.812C107.05 54.7469 107.411 54.4585 107.653 54.1711L108.093 53.6485L107.738 53.4903C107.463 53.3674 107.269 53.417 106.871 53.7117L106.357 54.0913L106.669 53.5565C107.187 52.6662 108.92 50.871 109.492 50.6318C110.1 50.3775 111.656 50.3351 112.015 50.5629C112.564 50.9106 110.362 54.3652 109.212 54.9604C108.517 55.3198 107.542 55.4034 106.98 55.1519L106.98 55.1521ZM30.8039 49.3157C29.6704 48.8239 28.9497 47.8815 28.2795 46.0149C28.0517 45.3804 27.8125 44.5447 27.7479 44.1577L27.6307 43.454H28.4201C29.3983 43.454 30.453 43.9452 31.1288 44.7155C31.6323 45.2894 32.8011 47.4658 33.0296 48.255L33.1495 48.6689L32.8543 48.255C32.47 47.7163 32.2883 47.5983 31.8369 47.5953C31.3827 47.5922 31.382 47.6093 31.8016 48.4324C32.0564 48.9322 32.2663 49.119 32.6624 49.1983C33.1114 49.2882 33.14 49.3211 32.863 49.4296C32.3382 49.6351 31.4236 49.5844 30.8042 49.3156L30.8039 49.3157ZM109.139 49.4297C108.862 49.3213 108.89 49.2883 109.339 49.1984C109.735 49.1192 109.945 48.9323 110.2 48.4326C110.62 47.6094 110.619 47.5923 110.165 47.5954C109.713 47.5985 109.532 47.7164 109.147 48.2551L108.852 48.669L108.972 48.2551C109.2 47.4659 110.369 45.2895 110.873 44.7156C111.549 43.9454 112.603 43.4542 113.581 43.4542H114.371L114.254 44.1578C113.976 45.8212 113.012 47.9213 112.168 48.7025C111.372 49.4385 110.001 49.7675 109.139 49.4297ZM29.6445 42.7724C28.0508 42.1399 27.0054 39.8077 27.0002 36.8738C26.9979 35.5576 27.0116 35.508 27.3788 35.508C27.5884 35.508 28.1535 35.7043 28.6346 35.9442C29.6393 36.4453 30.2965 37.2554 30.8081 38.6237C31.2163 39.7156 31.7017 41.9472 31.5616 42.0875C31.5079 42.1412 31.4641 42.0708 31.4641 41.9315C31.4641 41.5353 30.8129 40.8054 30.4596 40.8054C29.8365 40.8054 30.2949 42.4099 31.0179 42.7594C31.3391 42.9149 31.3046 42.9353 30.7196 42.9359C30.3557 42.9362 29.872 42.8628 29.6445 42.7724ZM110.982 42.7594C111.705 42.4099 112.164 40.8054 111.54 40.8054C111.187 40.8054 110.536 41.5352 110.536 41.9315C110.536 42.071 110.492 42.1412 110.438 42.0875C110.298 41.9472 110.784 39.7156 111.192 38.6237C111.703 37.2554 112.361 36.4453 113.365 35.9442C113.846 35.7043 114.412 35.508 114.621 35.508C114.988 35.508 115.002 35.5576 115 36.8738C114.993 40.5506 113.479 42.9879 111.228 42.9464C110.677 42.9362 110.654 42.9182 110.982 42.7594ZM33.327 42.4195C33.8603 42.0142 34.1781 40.4743 33.7285 40.4743C33.3028 40.4743 32.9072 40.9257 32.7736 41.5638C32.6742 42.0393 32.6484 41.7902 32.6774 40.6304C32.7111 39.2804 32.785 38.9091 33.1819 38.0974C33.7935 36.8462 34.5964 36.2986 35.9638 36.1996L36.96 36.1275L36.8381 37.1835C36.53 39.854 35.8515 41.2429 34.4427 42.0884C33.5504 42.6237 32.7426 42.8635 33.327 42.4195ZM107.556 42.0884C106.147 41.2429 105.469 39.8538 105.161 37.1835L105.039 36.1275L106.035 36.1996C107.403 36.2986 108.205 36.8463 108.817 38.0974C109.214 38.9091 109.288 39.2804 109.322 40.6304C109.35 41.7902 109.325 42.0393 109.225 41.5638C109.092 40.9257 108.696 40.4743 108.271 40.4743C107.821 40.4743 108.139 42.0142 108.672 42.4195C109.256 42.8635 108.449 42.6238 107.556 42.0884ZM33.2949 35.5205C33.9052 34.9097 33.9714 34.1329 33.4062 34.2132C33.1784 34.2456 32.9173 34.4908 32.733 34.8455L32.4319 35.4249L32.5473 34.6822C32.943 32.1352 34.2039 30.7035 36.0463 30.7094C37.2154 30.7132 37.3411 30.8409 37.1036 31.7849C36.8237 32.8972 36.0512 34.343 35.4055 34.9627C34.8674 35.4792 33.7094 36.0043 33.1085 36.0043C32.8648 36.0043 32.8986 35.9172 33.2949 35.5205ZM107.809 35.7399C106.552 35.2795 105.369 33.6751 104.894 31.785C104.656 30.841 104.782 30.7133 105.951 30.7095C107.793 30.7037 109.054 32.1353 109.45 34.6823L109.565 35.4251L109.264 34.8456C109.08 34.4908 108.819 34.2456 108.591 34.2134C108.026 34.1331 108.092 34.9097 108.702 35.5207C109.158 35.9768 109.165 36.0039 108.827 35.993C108.629 35.9865 108.171 35.8725 107.809 35.7399ZM29.942 35.5011C29.0719 35.0412 28.527 34.2389 28.2091 32.9494C27.9747 31.9987 27.9603 31.5973 28.114 30.2833C28.3605 28.1756 28.4006 28.1197 29.3214 28.6021C30.2246 29.0753 31.0368 30.2229 31.2836 31.3746C31.5009 32.389 31.5115 35.3495 31.2951 34.6282C30.961 33.5141 30.3053 33.3342 30.3053 34.3566C30.3053 34.8469 30.4141 35.1351 30.7113 35.4327C31.0428 35.7644 31.0655 35.8377 30.8354 35.8317C30.6804 35.8276 30.2783 35.6787 29.942 35.5011ZM111.287 35.4325C111.584 35.135 111.693 34.8468 111.693 34.3564C111.693 33.334 111.037 33.514 110.703 34.628C110.487 35.3493 110.497 32.3888 110.715 31.3745C110.961 30.2227 111.774 29.0751 112.677 28.6019C113.598 28.1196 113.638 28.1755 113.884 30.2832C114.187 32.8725 113.52 34.7439 112.021 35.5093C111.105 35.9766 110.777 35.9423 111.287 35.4325ZM33.8608 29.8792C33.5459 29.7437 33.5479 29.7363 33.9045 29.7253C34.1424 29.7179 34.3989 29.5172 34.6069 29.1757C35.031 28.4795 35.0211 28.3893 34.52 28.3893C34.2281 28.3893 34.0062 28.55 33.7762 28.9273C33.3112 29.6905 33.3691 29.3819 33.9184 28.1695C34.7694 26.2912 36.1654 25.3528 37.5414 25.734C38.6447 26.0398 38.6594 26.0799 38.0838 27.221C37.3793 28.6174 36.3684 29.6051 35.3911 29.8513C34.5125 30.0727 34.3193 30.0764 33.8608 29.8792ZM106.496 29.8392C105.644 29.6137 104.572 28.5274 103.913 27.2211C103.338 26.0799 103.352 26.0398 104.456 25.7341C105.831 25.3529 107.227 26.2912 108.079 28.1696C108.628 29.3821 108.686 29.6906 108.221 28.9274C107.991 28.55 107.769 28.3894 107.477 28.3894C106.976 28.3894 106.966 28.4796 107.39 29.1758C107.598 29.5174 107.855 29.7182 108.092 29.7255C108.449 29.7366 108.451 29.744 108.136 29.8793C107.711 30.0621 107.3 30.052 106.496 29.8392ZM31.2123 28.8613C30.5087 28.2432 30.2191 27.7214 30.0655 26.7959C29.8616 25.5672 30.7022 22.264 31.2188 22.264C31.6811 22.264 32.6246 23.4671 32.897 24.4042C33.1264 25.1929 33.1375 25.5352 32.974 26.7654C32.8689 27.5568 32.714 28.3762 32.6297 28.5865C32.4923 28.9293 32.4754 28.9074 32.4659 28.3737C32.4595 28.0057 32.3332 27.6679 32.1351 27.4885C31.8245 27.2072 31.8112 27.2176 31.6967 27.8281C31.6122 28.2793 31.6539 28.589 31.8439 28.9203C32.1932 29.5293 31.9458 29.5064 31.212 28.8616L31.2123 28.8613ZM110.154 28.92C110.344 28.5885 110.386 28.279 110.301 27.8278C110.186 27.2173 110.173 27.2069 109.863 27.4882C109.664 27.6676 109.538 28.0054 109.532 28.3734C109.522 28.9073 109.505 28.9292 109.368 28.5862C109.284 28.3759 109.129 27.5565 109.024 26.7651C108.86 25.5349 108.871 25.1926 109.101 24.4039C109.373 23.4668 110.317 22.2637 110.779 22.2637C111.296 22.2637 112.136 25.5667 111.932 26.7957C111.779 27.7213 111.489 28.2429 110.785 28.861C110.052 29.5058 109.804 29.5287 110.153 28.9197L110.154 28.92ZM36.0541 24.7986C35.8147 24.736 35.8713 24.6199 36.385 24.1201C36.9653 23.5551 36.9815 23.5133 36.6408 23.4595C36.4408 23.4278 36.1188 23.4868 35.9253 23.5904C35.5986 23.7654 35.5871 23.7533 35.765 23.4207C36.1674 22.6683 37.1375 21.7755 37.8476 21.504C38.4812 21.2619 38.6868 21.2511 39.2846 21.4287C40.666 21.839 40.6958 22.0742 39.528 23.3529C38.3416 24.6521 37.2423 25.1096 36.0544 24.7987L36.0541 24.7986ZM104.001 24.604C103.316 24.2926 101.603 22.5667 101.603 22.188C101.603 21.8801 101.917 21.6653 102.714 21.4286C103.312 21.2509 103.517 21.2617 104.151 21.5039C104.861 21.7753 105.831 22.668 106.233 23.4205C106.411 23.7531 106.4 23.7652 106.073 23.5902C105.88 23.4866 105.558 23.4277 105.357 23.4593C105.016 23.5133 105.032 23.5539 105.607 24.1144C106.196 24.6877 106.206 24.7158 105.855 24.8098C105.232 24.9771 104.689 24.9171 104.001 24.604ZM33.5441 23.3423C32.5663 22.3637 32.528 20.6201 33.4438 18.7646C34.1208 17.3928 34.3355 17.1695 34.6925 17.4661C35.6798 18.2862 35.8487 20.0375 35.1436 22.1455C34.6993 23.4735 34.6874 23.4898 34.6362 22.8433C34.5748 22.0674 34.3365 21.7337 34.1053 22.0996C33.8835 22.4508 33.9074 23.485 34.1428 23.7206C34.252 23.8299 34.2917 23.9192 34.231 23.9192C34.1704 23.9192 33.8612 23.6596 33.5441 23.3423ZM107.846 23.7474C108.089 23.4834 108.117 22.4558 107.892 22.0996C107.661 21.7336 107.423 22.0674 107.361 22.8433C107.31 23.4898 107.298 23.4735 106.854 22.1455C106.149 20.0375 106.318 18.2862 107.305 17.4661C107.663 17.1687 107.876 17.3924 108.565 18.7871C109.555 20.7928 109.387 22.7745 108.157 23.6183C107.872 23.8133 107.733 23.8715 107.846 23.7474ZM39.1547 20.6477C38.9727 20.6041 38.6377 20.4958 38.4103 20.407L37.9967 20.2458L38.5736 20.0546C39.2002 19.8469 39.4792 19.2839 38.9555 19.2839C38.787 19.2839 38.4653 19.4079 38.2403 19.5592C37.8815 19.8006 37.8923 19.7675 38.3275 19.2896C39.2778 18.2462 40.0483 17.7941 40.875 17.7946C41.682 17.7952 42.7112 18.2843 42.7112 18.667C42.7112 18.921 41.5147 19.9544 40.8066 20.3122C40.1832 20.6271 39.58 20.7496 39.1547 20.6477ZM101.924 20.6128C100.99 20.3383 99.2866 19.0815 99.2866 18.667C99.2866 18.2843 100.316 17.7952 101.123 17.7946C101.949 17.7941 102.72 18.2461 103.67 19.2896C104.106 19.7675 104.116 19.8006 103.758 19.5592C103.533 19.4079 103.211 19.2839 103.042 19.2839C102.519 19.2839 102.798 19.8469 103.424 20.0546L104.001 20.2458L103.588 20.4028C102.865 20.6771 102.359 20.7408 101.924 20.6128ZM36.5456 18.9939C35.8639 18.2401 35.7525 16.9586 36.2696 15.818C36.6323 15.0181 37.7359 13.4898 37.9509 13.4898C38.0245 13.4898 38.2322 13.7319 38.4125 14.0278C39.0013 14.9941 38.7904 16.5057 37.8406 18.1251L37.5008 18.7045L37.4491 18.1665C37.4206 17.8705 37.33 17.6285 37.2481 17.6285C36.9857 17.6285 36.7222 18.3129 36.7945 18.8064C36.8771 19.3689 36.8816 19.3655 36.5456 18.9939ZM105.204 18.8023C105.276 18.3122 105.011 17.6284 104.75 17.6284C104.668 17.6284 104.577 17.8705 104.549 18.1664L104.497 18.7044L104.157 18.1249C103.207 16.5056 102.996 14.994 103.585 14.0276C103.765 13.7316 103.973 13.4897 104.047 13.4897C104.262 13.4897 105.365 15.0179 105.728 15.8179C106.254 16.977 106.092 18.4808 105.379 19.0729C105.171 19.2454 105.145 19.2048 105.204 18.8023ZM41.2636 16.9681C40.6058 16.5668 40.5941 16.5076 41.1902 16.5952C41.4831 16.6383 41.7361 16.565 41.8755 16.397C42.1956 16.0111 41.9524 15.8757 41.34 16.099L40.8087 16.2926L41.305 15.8758C42.5219 14.8536 43.7955 14.6132 44.6426 15.2459C45.3588 15.7809 45.2414 16.1149 44.1173 16.7409C42.9539 17.3886 42.0682 17.4591 41.2636 16.9681ZM97.8795 16.7409C96.7552 16.115 96.6378 15.7809 97.3541 15.2459C98.2011 14.6132 99.4748 14.8536 100.692 15.8758L101.188 16.2926L100.657 16.099C100.044 15.8757 99.801 16.0111 100.121 16.397C100.261 16.5651 100.513 16.6383 100.806 16.5952C101.402 16.5076 101.391 16.5668 100.733 16.9681C99.9285 17.4591 99.0429 17.3886 97.8795 16.7409ZM39.5805 15.1461C39.2613 14.5805 39.2891 13.5225 39.6412 12.844C40.013 12.127 41.5043 10.6259 41.7151 10.7563C41.803 10.8106 41.956 11.1567 42.0552 11.5253C42.2919 12.4049 41.9665 13.3857 41.0387 14.5892C40.3341 15.5032 40.0894 15.7169 40.3892 15.1561C40.4835 14.98 40.5605 14.6705 40.5605 14.4683C40.5605 14.1146 40.5482 14.1117 40.2389 14.3918C40.062 14.5519 39.894 14.8801 39.8655 15.121L39.8137 15.559L39.5805 15.1461ZM100.874 14.4709C99.9563 13.2495 99.6982 12.4271 99.9449 11.5104C100.042 11.15 100.193 10.8107 100.281 10.7564C100.492 10.6261 101.983 12.1272 102.355 12.8441C102.707 13.5226 102.735 14.5806 102.416 15.1462L102.182 15.5594L102.131 15.1214C102.102 14.8804 101.934 14.5523 101.757 14.3922C101.448 14.1121 101.436 14.1151 101.436 14.4687C101.436 14.6708 101.513 14.9804 101.607 15.1566C101.928 15.7566 101.63 15.4784 100.874 14.4709ZM44.2052 14.3283L43.7982 14.0152L44.2752 13.9595C44.5376 13.9288 44.7862 13.8001 44.8279 13.6734C44.8848 13.5004 44.7873 13.4653 44.4371 13.5323L43.9705 13.6216L44.3732 13.3177C44.9211 12.9041 46.0641 12.603 46.5388 12.7473C47.0122 12.8912 47.6727 13.4734 47.6727 13.7467C47.6727 14.0554 46.1217 14.6491 45.3261 14.645C44.8847 14.6427 44.4571 14.522 44.2052 14.3283ZM95.1071 14.2911C94.6749 14.1003 94.3213 13.855 94.3213 13.7459C94.3213 13.4733 94.9824 12.8911 95.4552 12.7473C95.9299 12.603 97.0727 12.9039 97.6208 13.3177L98.0235 13.6216L97.5569 13.5323C97.2065 13.4653 97.1095 13.5003 97.1669 13.6734C97.2091 13.8001 97.4572 13.9411 97.7184 13.9868L98.1932 14.0698L97.7519 14.3592C97.1614 14.7464 96.0753 14.7184 95.1071 14.2911ZM42.8197 12.4268C42.6412 11.9614 42.6916 11.3552 42.9504 10.8543C43.2504 10.2739 44.8431 8.82166 45.0906 8.90295C45.2981 8.97112 45.4244 10.0484 45.2884 10.5907C45.193 10.9711 43.93 12.4966 43.7105 12.4966C43.6399 12.4966 43.621 12.2917 43.6685 12.0414C43.7483 11.6216 43.7321 11.605 43.4617 11.8287C43.3004 11.9621 43.1149 12.2162 43.0494 12.3933C42.9402 12.6888 42.9214 12.6916 42.8197 12.4268ZM98.9558 12.4808C98.9545 12.3356 98.7937 12.0748 98.5984 11.9014C98.2443 11.5867 98.2437 11.587 98.3273 12.0412C98.3734 12.2917 98.3534 12.4964 98.2826 12.4964C98.0631 12.4964 96.8001 10.9709 96.7048 10.5906C96.5687 10.0482 96.695 8.97097 96.9025 8.90282C97.1502 8.82152 98.7429 10.2737 99.0428 10.8542C99.3188 11.3885 99.3533 12.133 99.1186 12.4963C98.9783 12.7135 98.958 12.7119 98.9558 12.4808Z" fill="black"/>
<path d="M56.1808 19.2097L56.2341 19.7418C55.8826 19.7682 55.6054 19.9059 55.4025 20.1547C55.2256 20.3715 55.1497 20.6117 55.1747 20.8752C55.2005 21.1377 55.317 21.3523 55.524 21.5192C55.7382 21.6917 55.9816 21.762 56.2544 21.7299C56.5272 21.6979 56.7544 21.5705 56.9361 21.3476C57.0542 21.2028 57.123 21.0561 57.1424 20.9078C57.1626 20.7585 57.1321 20.6007 57.0511 20.4345L56.5303 21.073L56.1337 20.7536L57.0383 19.6446L57.1343 19.7168C57.3284 19.8732 57.4717 20.0713 57.5642 20.3113C57.6567 20.5513 57.6838 20.7876 57.6457 21.0201C57.6076 21.2527 57.5014 21.4758 57.3269 21.6897C57.1403 21.9184 56.9238 22.0827 56.6776 22.1824C56.4312 22.2802 56.1726 22.3071 55.9021 22.263C55.6322 22.2179 55.3903 22.1091 55.1761 21.9366C54.8825 21.7001 54.7058 21.398 54.6458 21.0303C54.5741 20.5933 54.6877 20.1915 54.9868 19.8248C55.1433 19.633 55.3253 19.4824 55.5328 19.373C55.7081 19.2807 55.9241 19.2262 56.181 19.2095L56.1808 19.2097ZM56.6164 18.1497L57.0152 17.7825L58.6043 19.486L59.1852 18.9509L59.5376 19.3286L58.558 20.2309L56.6164 18.1497ZM59.2841 15.8818C59.6164 15.6538 59.985 15.5775 60.3898 15.6529C60.7957 15.7276 61.1181 15.9369 61.3572 16.2808C61.594 16.6216 61.6763 16.9911 61.6038 17.3894C61.5325 17.7869 61.3285 18.1012 60.9921 18.3321C60.6395 18.5741 60.2624 18.6539 59.8608 18.5716C59.4591 18.4893 59.1424 18.2815 58.9107 17.9482C58.7556 17.7249 58.6672 17.4823 58.6456 17.2205C58.624 16.9586 58.6701 16.7081 58.7839 16.4691C58.8981 16.2282 59.0649 16.0325 59.2842 15.8819L59.2841 15.8818ZM59.5816 16.3201C59.3643 16.4692 59.2339 16.6697 59.1904 16.9215C59.1468 17.1733 59.2055 17.4151 59.3666 17.6469C59.5461 17.9052 59.7813 18.0455 60.0721 18.0678C60.2986 18.0859 60.5055 18.0306 60.693 17.902C60.905 17.7566 61.0325 17.5565 61.0757 17.3018C61.1189 17.047 61.0629 16.808 60.9077 16.5848C60.7532 16.3626 60.5476 16.2263 60.2908 16.1759C60.0332 16.1244 59.7968 16.1725 59.5817 16.3201H59.5816ZM62.637 17.2298L61.4045 14.6698L61.8091 14.4775C62.0438 14.3659 62.2226 14.2994 62.3457 14.278C62.5193 14.2453 62.6783 14.2624 62.8224 14.3293C62.9666 14.3962 63.0748 14.5045 63.1468 14.6542C63.1938 14.7516 63.2155 14.8503 63.212 14.9503C63.2091 15.0487 63.1778 15.1548 63.1178 15.2688C63.3095 15.2675 63.468 15.3048 63.5934 15.3806C63.7183 15.4552 63.8168 15.5673 63.8888 15.717C63.9581 15.8608 63.9839 16.0097 63.9661 16.1636C63.9483 16.3175 63.8947 16.452 63.8053 16.5672C63.7153 16.6813 63.5664 16.7877 63.3585 16.8865L62.637 17.2298ZM62.1186 14.9014L62.3784 15.4408L62.4852 15.39C62.6043 15.3334 62.6804 15.2666 62.7137 15.1895C62.748 15.1119 62.7445 15.0302 62.7032 14.9443C62.6646 14.8642 62.6067 14.814 62.5295 14.7937C62.4517 14.7723 62.3567 14.7882 62.2446 14.8414L62.1186 14.9014ZM62.5878 15.876L62.9037 16.5322L63.0262 16.4739C63.2294 16.3773 63.3537 16.2868 63.3992 16.2025C63.4458 16.1176 63.4457 16.0264 63.3987 15.9289C63.3457 15.8187 63.2624 15.7514 63.1487 15.727C63.035 15.7026 62.8819 15.7362 62.6892 15.8278L62.5878 15.876ZM63.8296 13.5899L65.3074 13.0962L65.4769 13.5973L64.5108 13.92L64.6754 14.4064L65.6415 14.0837L65.808 14.5756L64.8419 14.8983L65.0813 15.6059L66.0474 15.2832L66.2175 15.7861L64.7398 16.2799L63.8296 13.5899ZM66.1177 12.8859L67.6426 12.5636L67.7532 13.0807L66.7562 13.2913L66.8635 13.7933L67.8606 13.5826L67.9692 14.0902L66.9722 14.3008L67.1285 15.0311L68.1256 14.8204L68.2367 15.3394L66.7117 15.6617L66.1177 12.8859ZM73.2681 12.3939L73.8159 12.4571L74.5776 15.402L74.0164 15.3373L73.8626 14.7311L72.7055 14.5974L72.4061 15.1513L71.8449 15.0865L73.2681 12.3939ZM73.4584 13.1734L72.9672 14.0973L73.7213 14.1844L73.4584 13.1734ZM75.6311 12.7059L76.1432 12.8626L75.9999 14.7143L77.0245 13.1324L77.4568 13.2648L77.4136 15.147L78.3399 13.535L78.852 13.6918L77.3971 16.2159L76.898 16.0631L76.9387 14.1559L75.9016 15.7582L75.408 15.6071L75.6311 12.7059ZM80.4859 14.4978L80.9746 14.7515L80.6261 17.7724L80.1253 17.5124L80.1999 16.8916L79.1674 16.3556L78.6886 16.7665L78.1879 16.5066L80.4859 14.4978ZM80.3831 15.2932L79.5918 15.9817L80.2646 16.331L80.3831 15.2932ZM82.6717 15.7499L83.139 16.0857C83.3949 16.2696 83.5601 16.4233 83.6347 16.5468C83.7111 16.6701 83.7441 16.808 83.7336 16.9607C83.7231 17.1135 83.6654 17.2617 83.5607 17.4055C83.4507 17.5566 83.3218 17.6568 83.174 17.7062C83.028 17.7553 82.8627 17.7531 82.678 17.6997L82.4812 19.1154L81.9997 18.7694L82.188 17.4214L82.1471 17.3921L81.4382 18.3659L80.9977 18.0492L82.6717 15.7499ZM82.4579 16.9652L82.5963 17.0647C82.7368 17.1657 82.8466 17.2169 82.9257 17.2181C83.0057 17.22 83.0764 17.1788 83.1378 17.0945C83.1743 17.0444 83.1926 16.9918 83.1929 16.9364C83.194 16.8801 83.1782 16.8283 83.1456 16.7809C83.1137 16.7326 83.039 16.6662 82.9215 16.5818L82.8004 16.4948L82.4579 16.9652ZM84.8052 17.3578L85.2689 17.8027C85.5677 18.0894 85.7539 18.3395 85.8272 18.553C85.9015 18.7654 85.9052 18.9995 85.8383 19.2554C85.7715 19.5113 85.6306 19.7498 85.4157 19.971C85.2629 20.1283 85.0956 20.2476 84.914 20.329C84.7342 20.4103 84.5555 20.4498 84.3779 20.4475C84.2012 20.4462 84.0427 20.4103 83.9023 20.3398C83.7619 20.2696 83.5585 20.1067 83.2922 19.8512L82.8214 19.3996L84.8052 17.3578ZM84.8307 18.1064L83.5806 19.393L83.7622 19.5671C83.941 19.7386 84.0902 19.8424 84.2099 19.8785C84.3305 19.9155 84.4631 19.9105 84.6078 19.8634C84.7525 19.8163 84.8932 19.7224 85.0298 19.5818C85.2402 19.3652 85.3424 19.1388 85.3364 18.9025C85.3309 18.6898 85.2066 18.4669 84.9635 18.2336L84.8307 18.1064ZM87.6392 21.0176L87.1115 20.922C87.1789 20.691 87.1673 20.5184 87.0768 20.4042C87.0328 20.3486 86.9815 20.315 86.923 20.3036C86.8655 20.2912 86.818 20.2998 86.7803 20.3292C86.7426 20.3587 86.717 20.3991 86.7035 20.4506C86.6859 20.5199 86.6719 20.6987 86.6613 20.9868C86.653 21.2551 86.6447 21.4203 86.6363 21.4825C86.6168 21.6368 86.5809 21.763 86.5286 21.8613C86.4781 21.9597 86.4055 22.0459 86.3109 22.1199C86.1268 22.2638 85.9247 22.3196 85.7047 22.2871C85.4846 22.2547 85.2941 22.1368 85.1332 21.9336C85.0076 21.7749 84.9371 21.6059 84.9218 21.4264C84.9073 21.2479 84.9507 21.0511 85.0521 20.836L85.5509 21.0228C85.4374 21.2851 85.4359 21.4859 85.5463 21.6253C85.604 21.6981 85.6738 21.7426 85.7557 21.7587C85.8377 21.7748 85.9066 21.7609 85.9624 21.7172C86.0133 21.6774 86.0493 21.6189 86.0707 21.5418C86.092 21.4646 86.1045 21.3214 86.1084 21.1121C86.1157 20.7136 86.1453 20.4369 86.197 20.2818C86.2499 20.126 86.3302 20.0059 86.438 19.9216C86.5937 19.7999 86.7734 19.7543 86.9771 19.7849C87.1826 19.8156 87.3539 19.9174 87.4908 20.0902C87.5788 20.2014 87.6365 20.3273 87.6639 20.468C87.692 20.6096 87.6839 20.7927 87.6395 21.0173L87.6392 21.0176ZM69.9953 52.4778L69.2442 51.8495L70.2991 51.7242L70.6595 50.7489L71.0722 51.7192L72.1014 51.8368L71.3733 52.5176L71.6711 53.5293L70.6659 52.8969L69.7514 53.5169L69.9953 52.4778ZM73.4633 52.2548L72.6005 51.7892L73.6087 51.456L73.7648 50.4286L74.365 51.2968L75.3969 51.2069L74.821 52.019L75.3171 52.9508L74.2047 52.5315L73.434 53.3212L73.4633 52.2548ZM67.9575 52.259L68.8202 51.7934L67.812 51.4602L67.656 50.4328L67.0557 51.3011L66.0238 51.2112L66.5997 52.0232L66.1036 52.955L67.216 52.5358L67.9867 53.3254L67.9575 52.259ZM64.704 51.4829L65.6287 51.1552L64.6844 50.6714L64.6898 49.6325L63.9618 50.3983L62.9562 50.1512L63.399 51.0418L62.7642 51.8864L63.9284 51.6428L64.5672 52.5413L64.704 51.4829ZM76.6997 51.4731L75.7749 51.1453L76.7193 50.6616L76.7139 49.6226L77.4419 50.3884L78.4475 50.1413L78.0047 51.032L78.6395 51.8765L77.4752 51.6329L76.8365 52.5314L76.6997 51.4731Z" fill="black"/>
<path d="M78.9562 67.5164C78.5237 67.5164 78.1367 67.4354 77.795 67.2732C77.4534 67.1089 77.182 66.884 76.9809 66.5986C76.782 66.3132 76.6761 65.9867 76.6631 65.6191H77.8307C77.8523 65.8915 77.9702 66.1142 78.1842 66.2872C78.3983 66.458 78.6556 66.5434 78.9562 66.5434C79.1918 66.5434 79.4016 66.4894 79.5854 66.3813C79.7692 66.2732 79.914 66.1229 80.02 65.9304C80.1259 65.738 80.1778 65.5185 80.1757 65.272C80.1778 65.0212 80.1248 64.7985 80.0167 64.6039C79.9086 64.4093 79.7605 64.2569 79.5724 64.1466C79.3843 64.0341 79.1681 63.9779 78.9237 63.9779C78.7248 63.9758 78.5291 64.0125 78.3367 64.0882C78.1442 64.1639 77.9918 64.2633 77.8794 64.3866L76.7928 64.2082L77.1399 60.7832H80.993V61.7886H78.1356L77.9442 63.5498H77.9831C78.1064 63.4049 78.2804 63.2849 78.5053 63.1898C78.7302 63.0925 78.9767 63.0438 79.2448 63.0438C79.647 63.0438 80.0059 63.139 80.3216 63.3293C80.6373 63.5174 80.886 63.7768 81.0676 64.1077C81.2492 64.4385 81.34 64.8169 81.34 65.2428C81.34 65.6818 81.2384 66.0731 81.0352 66.4169C80.8341 66.7586 80.5541 67.0278 80.1951 67.2245C79.8383 67.4191 79.4254 67.5164 78.9562 67.5164Z" fill="black"/>
<path d="M70.9745 67.4266V66.5574L73.2805 64.2967C73.5011 64.074 73.6848 63.8762 73.8319 63.7032C73.9789 63.5302 74.0892 63.3627 74.1627 63.2005C74.2362 63.0383 74.273 62.8653 74.273 62.6815C74.273 62.4718 74.2254 62.2923 74.1303 62.1431C74.0351 61.9918 73.9043 61.875 73.7378 61.7929C73.5713 61.7107 73.3821 61.6696 73.1702 61.6696C72.9518 61.6696 72.7605 61.715 72.5962 61.8058C72.4318 61.8945 72.3043 62.021 72.2134 62.1853C72.1248 62.3496 72.0805 62.5453 72.0805 62.7724H70.9355C70.9355 62.3507 71.0318 61.9842 71.2242 61.6729C71.4166 61.3615 71.6815 61.1204 72.0188 60.9496C72.3583 60.7788 72.7475 60.6934 73.1864 60.6934C73.6319 60.6934 74.0232 60.7766 74.3605 60.9431C74.6979 61.1096 74.9595 61.3377 75.1454 61.6275C75.3336 61.9172 75.4276 62.248 75.4276 62.6199C75.4276 62.8686 75.38 63.1129 75.2849 63.3529C75.1898 63.5929 75.0222 63.8589 74.7822 64.1508C74.5443 64.4427 74.2103 64.7962 73.78 65.2114L72.6351 66.3757V66.4212H75.5282V67.4266H70.9745Z" fill="black"/>
<path d="M67.3378 67.5531C66.8038 67.5531 66.3454 67.418 65.9626 67.1477C65.5821 66.8752 65.2891 66.4828 65.0837 65.9703C64.8804 65.4557 64.7788 64.8362 64.7788 64.1119C64.781 63.3875 64.8837 62.7713 65.0869 62.2632C65.2923 61.7529 65.5853 61.3637 65.9659 61.0955C66.3486 60.8274 66.8059 60.6934 67.3378 60.6934C67.8697 60.6934 68.3271 60.8274 68.7098 61.0955C69.0925 61.3637 69.3855 61.7529 69.5887 62.2632C69.7941 62.7734 69.8968 63.3897 69.8968 64.1119C69.8968 64.8384 69.7941 65.459 69.5887 65.9736C69.3855 66.486 69.0925 66.8774 68.7098 67.1477C68.3292 67.418 67.8719 67.5531 67.3378 67.5531ZM67.3378 66.5379C67.753 66.5379 68.0806 66.3336 68.3206 65.9249C68.5627 65.5141 68.6838 64.9097 68.6838 64.1119C68.6838 63.5843 68.6287 63.141 68.5184 62.7821C68.4081 62.4232 68.2525 62.1529 68.0514 61.9712C67.8503 61.7875 67.6124 61.6956 67.3378 61.6956C66.9248 61.6956 66.5983 61.901 66.3583 62.3118C66.1183 62.7205 65.9972 63.3205 65.9951 64.1119C65.9929 64.6416 66.0459 65.087 66.154 65.4481C66.2643 65.8092 66.42 66.0817 66.621 66.2655C66.8221 66.4471 67.0611 66.5379 67.3378 66.5379Z" fill="black"/>
<path d="M59.2098 67.4266V66.5574L61.5159 64.2967C61.7364 64.074 61.9202 63.8762 62.0672 63.7032C62.2143 63.5302 62.3245 63.3627 62.3981 63.2005C62.4716 63.0383 62.5083 62.8653 62.5083 62.6815C62.5083 62.4718 62.4608 62.2923 62.3656 62.1431C62.2705 61.9918 62.1397 61.875 61.9732 61.7929C61.8067 61.7107 61.6175 61.6696 61.4056 61.6696C61.1872 61.6696 60.9958 61.715 60.8315 61.8058C60.6672 61.8945 60.5396 62.021 60.4488 62.1853C60.3601 62.3496 60.3158 62.5453 60.3158 62.7724H59.1709C59.1709 62.3507 59.2671 61.9842 59.4596 61.6729C59.652 61.3615 59.9169 61.1204 60.2542 60.9496C60.5937 60.7788 60.9829 60.6934 61.4218 60.6934C61.8672 60.6934 62.2586 60.7766 62.5959 60.9431C62.9332 61.1096 63.1948 61.3377 63.3808 61.6275C63.5689 61.9172 63.663 62.248 63.663 62.6199C63.663 62.8686 63.6154 63.1129 63.5203 63.3529C63.4251 63.5929 63.2575 63.8589 63.0175 64.1508C62.7797 64.4427 62.4456 64.7962 62.0153 65.2114L60.8704 66.3757V66.4212H63.7635V67.4266H59.2098Z" fill="black"/>
<path d="M96.8496 90.9172V85.0898H99.1487C99.5888 85.0898 99.9644 85.1686 100.275 85.326C100.588 85.4816 100.827 85.7026 100.99 85.989C101.155 86.2735 101.237 86.6083 101.237 86.9934C101.237 87.3804 101.154 87.7133 100.987 87.9921C100.82 88.2691 100.578 88.4815 100.261 88.6295C99.9463 88.7775 99.5651 88.8514 99.1174 88.8514H97.578V87.8613H98.9182C99.1534 87.8613 99.3488 87.829 99.5044 87.7645C99.6599 87.7 99.7756 87.6033 99.8515 87.4743C99.9293 87.3453 99.9682 87.185 99.9682 86.9934C99.9682 86.7999 99.9293 86.6368 99.8515 86.504C99.7756 86.3712 99.659 86.2707 99.5015 86.2024C99.346 86.1322 99.1496 86.0971 98.9125 86.0971H98.0817V90.9172H96.8496ZM99.9966 88.2653L101.445 90.9172H100.085L98.6678 88.2653H99.9966Z" fill="black"/>
<path d="M91.9434 90.9172V85.0898H95.87V86.1056H93.1754V87.4942H95.668V88.51H93.1754V89.9014H95.8814V90.9172H91.9434Z" fill="black"/>
<path d="M90.9254 85.0898V90.9172H89.8612L87.326 87.2495H87.2833V90.9172H86.0513V85.0898H87.1325L89.6478 88.7547H89.6991V85.0898H90.9254Z" fill="black"/>
<path d="M85.0333 85.0898V90.9172H83.9692L81.4339 87.2495H81.3912V90.9172H80.1592V85.0898H81.2404L83.7558 88.7547H83.807V85.0898H85.0333Z" fill="black"/>
<path d="M79.1456 85.0898V90.9172H77.9136V85.0898H79.1456Z" fill="black"/>
<path d="M70.9233 90.9172L69.2559 85.0898H70.6017L71.5663 89.1388H71.6147L72.6789 85.0898H73.8312L74.8926 89.1474H74.9438L75.9084 85.0898H77.2542L75.5869 90.9172H74.3861L73.2764 87.1072H73.2309L72.124 90.9172H70.9233Z" fill="black"/>
<path d="M62.4985 90.9172V85.0898H64.7976C65.2377 85.0898 65.6133 85.1686 65.9244 85.326C66.2374 85.4816 66.4754 85.7026 66.6386 85.989C66.8036 86.2735 66.8861 86.6083 66.8861 86.9934C66.8861 87.3804 66.8027 87.7133 66.6357 87.9921C66.4688 88.2691 66.2269 88.4815 65.9102 88.6295C65.5953 88.7775 65.214 88.8514 64.7663 88.8514H63.227V87.8613H64.5671C64.8024 87.8613 64.9977 87.829 65.1533 87.7645C65.3088 87.7 65.4245 87.6033 65.5004 87.4743C65.5782 87.3453 65.6171 87.185 65.6171 86.9934C65.6171 86.7999 65.5782 86.6368 65.5004 86.504C65.4245 86.3712 65.3079 86.2707 65.1504 86.2024C64.9949 86.1322 64.7986 86.0971 64.5614 86.0971H63.7306V90.9172H62.4985ZM65.6455 88.2653L67.0938 90.9172H65.7337L64.3167 88.2653H65.6455Z" fill="black"/>
<path d="M57.5923 90.9172V85.0898H61.5189V86.1056H58.8243V87.4942H61.3169V88.51H58.8243V89.9014H61.5303V90.9172H57.5923Z" fill="black"/>
<path d="M52.6518 85.0898L54.0603 89.5173H54.1144L55.5257 85.0898H56.8915L54.8826 90.9172H53.2949L51.2832 85.0898H52.6518Z" fill="black"/>
<path d="M47.6782 90.9172V85.0898H48.9103V89.9014H51.4085V90.9172H47.6782Z" fill="black"/>
<path d="M46.6647 85.0898V90.9172H45.4326V85.0898H46.6647Z" fill="black"/>
<path d="M43.3437 86.7654C43.3209 86.5358 43.2232 86.3575 43.0506 86.2304C42.878 86.1033 42.6437 86.0398 42.3478 86.0398C42.1467 86.0398 41.9769 86.0682 41.8384 86.1252C41.7 86.1802 41.5937 86.257 41.5198 86.3556C41.4477 86.4543 41.4116 86.5662 41.4116 86.6914C41.4078 86.7957 41.4297 86.8868 41.4771 86.9645C41.5264 87.0423 41.5937 87.1097 41.6791 87.1666C41.7645 87.2216 41.8631 87.27 41.975 87.3117C42.0869 87.3515 42.2064 87.3857 42.3335 87.4141L42.8571 87.5393C43.1113 87.5962 43.3446 87.6721 43.5571 87.7669C43.7695 87.8618 43.9535 87.9785 44.1091 88.1169C44.2646 88.2554 44.3851 88.4185 44.4704 88.6063C44.5577 88.7941 44.6023 89.0094 44.6042 89.2522C44.6023 89.6089 44.5112 89.9181 44.331 90.1798C44.1527 90.4397 43.8947 90.6417 43.5571 90.7859C43.2213 90.9282 42.8163 90.9993 42.3421 90.9993C41.8716 90.9993 41.4619 90.9272 41.1129 90.7831C40.7657 90.6389 40.4945 90.4255 40.2991 90.1428C40.1056 89.8583 40.0041 89.5064 39.9946 89.0872H41.1868C41.2001 89.2826 41.2561 89.4457 41.3547 89.5766C41.4553 89.7056 41.589 89.8033 41.7559 89.8697C41.9248 89.9342 42.1154 89.9664 42.3278 89.9664C42.5365 89.9664 42.7177 89.9361 42.8713 89.8754C43.0269 89.8147 43.1473 89.7303 43.2327 89.6221C43.318 89.514 43.3607 89.3898 43.3607 89.2494C43.3607 89.1185 43.3218 89.0085 43.2441 88.9193C43.1682 88.8302 43.0563 88.7543 42.9083 88.6917C42.7622 88.6291 42.583 88.5722 42.3705 88.521L41.736 88.3616C41.2447 88.2421 40.8568 88.0553 40.5722 87.8011C40.2877 87.5469 40.1464 87.2045 40.1483 86.7739C40.1464 86.4211 40.2403 86.1128 40.43 85.8492C40.6216 85.5855 40.8843 85.3797 41.2181 85.2317C41.552 85.0837 41.9314 85.0098 42.3563 85.0098C42.7888 85.0098 43.1663 85.0837 43.4888 85.2317C43.8131 85.3797 44.0654 85.5855 44.2456 85.8492C44.4258 86.1128 44.5188 86.4182 44.5245 86.7654H43.3437Z" fill="black"/>
<path d="M103.606 75.1921C103.584 74.9626 103.486 74.7843 103.313 74.6572C103.141 74.5301 102.906 74.4666 102.61 74.4666C102.409 74.4666 102.24 74.495 102.101 74.5519C101.963 74.6069 101.856 74.6838 101.782 74.7824C101.71 74.881 101.674 74.993 101.674 75.1181C101.671 75.2225 101.692 75.3135 101.74 75.3913C101.789 75.4691 101.856 75.5364 101.942 75.5933C102.027 75.6483 102.126 75.6967 102.238 75.7384C102.35 75.7783 102.469 75.8124 102.596 75.8409L103.12 75.9661C103.374 76.023 103.607 76.0989 103.82 76.1937C104.032 76.2886 104.216 76.4052 104.372 76.5437C104.527 76.6822 104.648 76.8453 104.733 77.0331C104.82 77.2209 104.865 77.4362 104.867 77.679C104.865 78.0356 104.774 78.3448 104.594 78.6066C104.415 78.8665 104.157 79.0685 103.82 79.2127C103.484 79.3549 103.079 79.4261 102.605 79.4261C102.134 79.4261 101.725 79.354 101.376 79.2098C101.028 79.0657 100.757 78.8522 100.562 78.5696C100.368 78.2851 100.267 77.9332 100.257 77.514H101.45C101.463 77.7093 101.519 77.8725 101.617 78.0034C101.718 78.1324 101.852 78.2301 102.019 78.2964C102.187 78.3609 102.378 78.3932 102.591 78.3932C102.799 78.3932 102.98 78.3628 103.134 78.3021C103.29 78.2414 103.41 78.157 103.495 78.0489C103.581 77.9408 103.623 77.8165 103.623 77.6762C103.623 77.5453 103.585 77.4352 103.507 77.3461C103.431 77.2569 103.319 77.1811 103.171 77.1185C103.025 77.0559 102.846 76.999 102.633 76.9477L101.999 76.7884C101.507 76.6689 101.119 76.482 100.835 76.2279C100.55 75.9737 100.409 75.6313 100.411 75.2007C100.409 74.8478 100.503 74.5396 100.693 74.2759C100.884 74.0122 101.147 73.8064 101.481 73.6585C101.815 73.5105 102.194 73.4365 102.619 73.4365C103.051 73.4365 103.429 73.5105 103.751 73.6585C104.076 73.8064 104.328 74.0122 104.508 74.2759C104.689 74.5396 104.781 74.845 104.787 75.1921H103.606Z" fill="black"/>
<path d="M96.6815 79.343H94.6157V73.5156H96.6985C97.2847 73.5156 97.7893 73.6323 98.2123 73.8656C98.6353 74.097 98.9606 74.4299 99.1883 74.8643C99.4178 75.2987 99.5326 75.8185 99.5326 76.4236C99.5326 77.0306 99.4178 77.5523 99.1883 77.9886C98.9606 78.4249 98.6334 78.7597 98.2066 78.993C97.7817 79.2263 97.2733 79.343 96.6815 79.343ZM95.8478 78.2873H96.6303C96.9945 78.2873 97.3008 78.2228 97.5493 78.0939C97.7997 77.963 97.9875 77.7609 98.1127 77.4878C98.2398 77.2127 98.3033 76.858 98.3033 76.4236C98.3033 75.993 98.2398 75.6411 98.1127 75.368C97.9875 75.0948 97.8007 74.8937 97.5522 74.7648C97.3037 74.6358 96.9973 74.5713 96.6331 74.5713H95.8478V78.2873Z" fill="black"/>
<path d="M89.3574 79.343V73.5156H91.6565C92.0966 73.5156 92.4722 73.5943 92.7833 73.7518C93.0963 73.9073 93.3343 74.1283 93.4975 74.4148C93.6625 74.6993 93.745 75.0341 93.745 75.4192C93.745 75.8062 93.6615 76.1391 93.4946 76.4179C93.3277 76.6949 93.0858 76.9073 92.769 77.0553C92.4542 77.2032 92.0729 77.2772 91.6252 77.2772H90.0858V76.287H91.426C91.6612 76.287 91.8566 76.2548 92.0122 76.1903C92.1677 76.1258 92.2834 76.0291 92.3593 75.9001C92.4371 75.7711 92.476 75.6108 92.476 75.4192C92.476 75.2257 92.4371 75.0626 92.3593 74.9298C92.2834 74.797 92.1668 74.6965 92.0093 74.6282C91.8538 74.558 91.6574 74.5229 91.4203 74.5229H90.5895V79.343H89.3574ZM92.5044 76.6911L93.9527 79.343H92.5926L91.1756 76.6911H92.5044Z" fill="black"/>
<path d="M84.3681 79.343H83.0479L85.0595 73.5156H86.6473L88.6561 79.343H87.3359L85.8762 74.8473H85.8306L84.3681 79.343ZM84.2856 77.0524H87.4041V78.0142H84.2856V77.0524Z" fill="black"/>
<path d="M76.9599 79.343L75.2925 73.5156H76.6383L77.6029 77.5646H77.6513L78.7155 73.5156H79.8679L80.9292 77.5731H80.9804L81.945 73.5156H83.2909L81.6235 79.343H80.4227L79.313 75.533H79.2675L78.1606 79.343H76.9599Z" fill="black"/>
<path d="M71.246 79.343H69.9258L71.9375 73.5156H73.5252L75.534 79.343H74.2138L72.7541 74.8473H72.7086L71.246 79.343ZM71.1635 77.0524H74.2821V78.0142H71.1635V77.0524Z" fill="black"/>
<path d="M63.4805 79.343V73.5156H67.4071V74.5314H64.7125V75.92H67.2051V76.9358H64.7125V78.3272H67.4185V79.343H63.4805Z" fill="black"/>
<path d="M58.5742 79.343V73.5156H62.5009V74.5314H59.8063V75.92H62.2988V76.9358H59.8063V78.3272H62.5122V79.343H58.5742Z" fill="black"/>
<path d="M53.2769 79.343V73.5156H55.6101C56.0388 73.5156 56.3964 73.5792 56.6828 73.7063C56.9692 73.8334 57.1845 74.0098 57.3287 74.2355C57.4729 74.4593 57.5449 74.7173 57.5449 75.0095C57.5449 75.2371 57.4994 75.4372 57.4084 75.6098C57.3173 75.7806 57.1921 75.9209 57.0328 76.0309C56.8753 76.1391 56.6951 76.2159 56.4921 76.2614V76.3183C56.7141 76.3278 56.9218 76.3904 57.1153 76.5061C57.3107 76.6218 57.4691 76.784 57.5905 76.9927C57.7119 77.1995 57.7726 77.4461 57.7726 77.7325C57.7726 78.0417 57.6957 78.3177 57.5421 78.5605C57.3903 78.8014 57.1656 78.9921 56.8677 79.1324C56.5699 79.2728 56.2029 79.343 55.7666 79.343H53.2769ZM54.5089 78.3357H55.5133C55.8567 78.3357 56.1071 78.2703 56.2645 78.1394C56.422 78.0066 56.5007 77.8302 56.5007 77.6101C56.5007 77.4489 56.4618 77.3066 56.384 77.1833C56.3062 77.06 56.1953 76.9633 56.0511 76.8931C55.9088 76.8229 55.7391 76.7878 55.5418 76.7878H54.5089V78.3357ZM54.5089 75.9541H55.4223C55.5911 75.9541 55.741 75.9247 55.8719 75.8659C56.0046 75.8052 56.109 75.7199 56.1848 75.6098C56.2626 75.4998 56.3015 75.368 56.3015 75.2143C56.3015 75.0038 56.2266 74.834 56.0767 74.705C55.9288 74.576 55.7182 74.5115 55.445 74.5115H54.5089V75.9541Z" fill="black"/>
<path d="M52.3642 76.4299C52.3642 77.0653 52.2437 77.606 52.0028 78.0517C51.7638 78.4975 51.4375 78.838 51.024 79.0732C50.6124 79.3066 50.1495 79.4232 49.6355 79.4232C49.1176 79.4232 48.6529 79.3056 48.2412 79.0704C47.8296 78.8352 47.5043 78.4947 47.2653 78.0489C47.0262 77.6031 46.9067 77.0634 46.9067 76.4299C46.9067 75.7944 47.0262 75.2538 47.2653 74.808C47.5043 74.3622 47.8296 74.0227 48.2412 73.7894C48.6529 73.5541 49.1176 73.4365 49.6355 73.4365C50.1495 73.4365 50.6124 73.5541 51.024 73.7894C51.4375 74.0227 51.7638 74.3622 52.0028 74.808C52.2437 75.2538 52.3642 75.7944 52.3642 76.4299ZM51.1151 76.4299C51.1151 76.0182 51.0534 75.6711 50.9301 75.3885C50.8087 75.1058 50.637 74.8915 50.4151 74.7454C50.1932 74.5993 49.9333 74.5263 49.6355 74.5263C49.3376 74.5263 49.0778 74.5993 48.8558 74.7454C48.6339 74.8915 48.4613 75.1058 48.338 75.3885C48.2166 75.6711 48.1559 76.0182 48.1559 76.4299C48.1559 76.8415 48.2166 77.1886 48.338 77.4713C48.4613 77.7539 48.6339 77.9683 48.8558 78.1143C49.0778 78.2604 49.3376 78.3334 49.6355 78.3334C49.9333 78.3334 50.1932 78.2604 50.4151 78.1143C50.637 77.9683 50.8087 77.7539 50.9301 77.4713C51.0534 77.1886 51.1151 76.8415 51.1151 76.4299Z" fill="black"/>
<path d="M42.6899 79.343V73.5156H43.922V78.3272H46.4202V79.343H42.6899Z" fill="black"/>
<path d="M40.4582 75.3998C40.4183 75.2614 40.3624 75.139 40.2903 75.0328C40.2182 74.9247 40.13 74.8336 40.0257 74.7596C39.9232 74.6838 39.8056 74.6259 39.6728 74.5861C39.542 74.5462 39.3968 74.5263 39.2375 74.5263C38.9397 74.5263 38.6779 74.6003 38.4522 74.7482C38.2283 74.8962 38.0538 75.1115 37.9286 75.3942C37.8034 75.6749 37.7408 76.0182 37.7408 76.4242C37.7408 76.8301 37.8025 77.1754 37.9258 77.4599C38.0491 77.7444 38.2236 77.9616 38.4493 78.1115C38.6751 78.2595 38.9416 78.3334 39.2489 78.3334C39.5277 78.3334 39.7658 78.2841 39.9631 78.1855C40.1623 78.0849 40.314 77.9436 40.4183 77.7615C40.5246 77.5794 40.5777 77.3641 40.5777 77.1156L40.8281 77.1526H39.3257V76.225H41.7642V76.9591C41.7642 77.4713 41.6561 77.9114 41.4398 78.2794C41.2236 78.6455 40.9258 78.9281 40.5464 79.1273C40.167 79.3246 39.7326 79.4232 39.2432 79.4232C38.6969 79.4232 38.217 79.3028 37.8034 79.0619C37.3899 78.8191 37.0674 78.4748 36.836 78.029C36.6065 77.5813 36.4917 77.0502 36.4917 76.4356C36.4917 75.9632 36.56 75.5421 36.6966 75.1722C36.835 74.8004 37.0285 74.4855 37.277 74.2275C37.5255 73.9696 37.8148 73.7732 38.1449 73.6385C38.4749 73.5039 38.8325 73.4365 39.2176 73.4365C39.5476 73.4365 39.8549 73.4849 40.1395 73.5816C40.424 73.6765 40.6763 73.8112 40.8964 73.9857C41.1183 74.1602 41.2995 74.3679 41.4398 74.6088C41.5802 74.8478 41.6703 75.1115 41.7101 75.3998H40.4582Z" fill="black"/>
</svg>
