<svg width="142" height="100" viewBox="0 0 142 100" fill="none" xmlns="http://www.w3.org/2000/svg">
<path d="M118.505 46.0926L118.229 49.4107H116.874C114.71 49.4107 113.586 51.145 113.586 52.807V60.301H109.751V46.0926H113.383L113.466 47.866C114.228 46.6499 115.561 46.0926 117.206 46.0926H118.505ZM91.9209 60.3009H88.083V52.7897C88.083 51.2166 87.9471 49.2368 85.7346 49.2368C83.6038 49.2368 82.755 50.7746 82.755 52.5652V60.3009H78.9183V46.0925H82.4755L82.5567 47.9089C83.3192 46.6928 84.7391 45.7459 86.8338 45.7459C90.7005 45.7459 91.9209 48.5066 91.9209 51.3796V60.3009ZM77.2448 56.9818L76.9765 60.2148C76.0562 60.4616 75.2392 60.5502 74.2506 60.5502C70.6345 60.5502 69.5857 58.892 69.5857 55.5593V42.0858H73.4232V46.0928H77.2418L76.9765 49.4104H73.4232V55.2708C73.4232 56.6082 73.79 57.3306 75.1618 57.3306C75.7582 57.3306 76.4217 57.2588 77.2448 56.9818ZM68.3256 46.0926L68.0284 49.4107H66.9856C64.8265 49.4107 63.7527 51.1428 63.7527 52.807V60.301H59.9148V46.0926H63.5485L63.6241 47.866C64.3904 46.6499 65.7239 46.0926 67.3705 46.0926H68.3256ZM42.5966 58.7268C39.9937 60.1192 37.3938 60.9225 33.9596 60.8227C27.5931 60.6284 23 56.6751 23 49.9977C23 43.3496 27.6374 39.1018 33.9626 39.002C37.1689 38.953 40.038 39.7666 42.2806 41.7456L39.5792 44.4784C38.1915 43.2954 36.1497 42.6039 33.7098 42.7144C29.729 42.8998 27.3303 45.7925 27.2774 49.7698C27.2254 54.0791 29.8679 57.0488 33.9987 57.1572C35.9424 57.2058 37.3349 56.9448 38.5398 56.4038V51.9991H34.2464L34.5363 48.3864H42.5966V58.7268ZM108.037 54.5471H97.516C97.8157 56.3626 99.243 57.4549 101.02 57.5043C102.748 57.5512 103.715 57.0291 104.979 55.7494L107.483 57.6587C105.703 59.8505 103.568 60.6482 101.135 60.6482C96.8563 60.6482 93.6509 57.6566 93.6509 53.1963C93.6509 48.7409 96.8404 45.7457 100.975 45.7457C105.532 45.7457 108.037 48.5065 108.037 53.4071V54.5471ZM104.193 51.5764C104.075 49.7815 102.73 48.6467 100.878 48.7189C99.0142 48.7895 97.7732 50.0034 97.516 51.5764H104.193ZM57.4988 50.9969V60.3009H54.1154L54.0315 58.8998C52.9934 60.1856 51.3082 60.6483 49.573 60.6483C46.9602 60.6483 44.4914 59.36 44.4398 56.3593C44.362 51.6428 49.748 51.3078 53.1306 51.3078H53.8066V51.1211C53.8066 49.5614 52.7745 48.719 50.8313 48.719C49.4363 48.719 48.0593 49.2785 47.041 50.2331L44.8268 47.9837C46.8372 46.3539 48.9288 45.7458 51.1572 45.7458C55.5585 45.7458 57.4988 47.7798 57.4988 50.9969ZM53.8066 54.1046H53.2729C51.4561 54.1085 48.2649 54.198 48.2769 56.0978C48.2941 58.7743 53.8066 57.9237 53.8066 54.6959V54.1046ZM115.512 58.6481C115.512 57.7438 116.194 57.0622 117.069 57.0622C117.934 57.0622 118.617 57.7438 118.617 58.6481C118.617 59.5684 117.934 60.2478 117.069 60.2478C116.194 60.2478 115.512 59.5684 115.512 58.6481ZM117.069 60.5656C118.111 60.5656 119 59.7563 119 58.6481C119 57.5511 118.111 56.7435 117.069 56.7435C116.018 56.7435 115.128 57.5511 115.128 58.6481C115.128 59.7563 116.018 60.5656 117.069 60.5656ZM116.665 58.8012H117.049L117.63 59.7563H118.004L117.378 58.7857C117.702 58.7461 117.949 58.5724 117.949 58.1781C117.949 57.7438 117.691 57.5511 117.17 57.5511H116.332V59.7563H116.665V58.8012ZM116.665 58.5169V57.8354H117.119C117.352 57.8354 117.6 57.8857 117.6 58.1587C117.6 58.4972 117.347 58.5169 117.065 58.5169H116.665Z" fill="black"/>
</svg>
