<svg width="142" height="100" viewBox="0 0 142 100" fill="none" xmlns="http://www.w3.org/2000/svg">
<path fill-rule="evenodd" clip-rule="evenodd" d="M87.3962 62.2521C86.5873 62.2838 85.5506 62.4929 84.797 62.7765C82.4787 63.6489 80.7808 65.4192 80.0182 67.7592C79.7886 68.4634 79.7306 68.7211 79.5722 69.7376C79.4981 70.2133 79.5114 72.4025 79.592 73.0172C79.748 74.2051 79.8474 74.6631 80.1248 75.4715C80.3087 76.0077 80.6674 76.7517 80.8922 77.0634C80.9653 77.1648 81.0252 77.2577 81.0252 77.2697C81.0252 77.2926 81.1721 77.4931 81.3357 77.6934C81.5892 78.004 82.335 78.6902 82.6544 78.9067C83.5487 79.5131 84.5843 79.9246 85.7091 80.1204C85.9598 80.1641 86.2617 80.2211 86.38 80.2471C86.5278 80.2796 87.0283 80.2937 87.9825 80.2923C89.4466 80.2901 89.5522 80.2806 90.6012 80.0572C91.0649 79.9584 92.004 79.6341 92.4043 79.4346C93.3931 78.9415 94.2172 78.2545 94.7481 77.4805C94.896 77.2649 94.9731 77.1333 95.1796 76.7431C95.5584 76.0277 95.7704 74.9941 95.7569 73.9293C95.7438 72.8973 95.5547 72.0592 95.1598 71.2825C94.4848 69.9547 93.1643 69.0006 91.5393 68.6663C90.6541 68.4842 89.1293 68.4668 88.4515 68.631C87.9841 68.7443 87.961 68.7521 87.5389 68.9395C87.132 69.1201 86.5634 69.6 86.2136 70.0578C86.1279 70.1699 86.0424 70.2616 86.0235 70.2616C85.9578 70.2616 86.0155 69.6633 86.1428 69.0247C86.3704 67.8825 86.9705 67.1529 87.8107 66.9969C88.1712 66.93 88.7502 66.9713 88.9401 67.0775C89.1881 67.2162 89.3049 67.3711 89.3878 67.6709L89.4388 67.8553H92.428H95.4173L95.3957 67.768C95.3838 67.7199 95.3628 67.5846 95.3489 67.4672C95.2768 66.8551 95.05 66.0608 94.7962 65.5317C93.7894 63.4329 91.6077 62.3196 88.3733 62.2544C87.9971 62.2468 87.5574 62.2458 87.3962 62.2521ZM104.594 62.2658C103.954 62.3176 103.465 62.3915 103.07 62.4963C102.994 62.5162 102.81 62.5614 102.659 62.5967C102.509 62.632 102.35 62.6755 102.307 62.6934C102.264 62.7113 102.097 62.7734 101.936 62.8314C100.31 63.4164 98.882 64.5652 98.0055 65.9923C97.5142 66.7924 97.0856 67.8977 96.9295 68.7674C96.7751 69.6276 96.739 70.1055 96.7392 71.2901C96.7393 73.0678 96.8586 73.9464 97.2712 75.2101C97.3479 75.4449 97.4233 75.6544 97.4388 75.6758C97.4542 75.6971 97.4993 75.8019 97.5389 75.9087C97.6086 76.0965 97.6726 76.2227 97.9192 76.658C98.5868 77.8366 99.6229 78.7972 100.897 79.4186C101.279 79.6049 101.93 79.8556 102.21 79.9242C102.285 79.9426 102.443 79.9838 102.562 80.0156C102.68 80.0475 102.944 80.1025 103.148 80.1378C103.352 80.1731 103.616 80.2228 103.734 80.2482C104.031 80.312 106.521 80.3115 106.841 80.2476C106.97 80.2218 107.243 80.1716 107.447 80.136C107.996 80.0401 108.478 79.9118 109.011 79.7201C110.387 79.2244 111.623 78.3279 112.472 77.2088C112.577 77.0701 112.677 76.9507 112.694 76.9436C112.71 76.9365 112.724 76.916 112.724 76.8982C112.724 76.8803 112.808 76.7289 112.911 76.5618C113.136 76.1953 113.391 75.6825 113.505 75.3653C113.551 75.2372 113.604 75.0975 113.623 75.0548C113.709 74.8569 113.918 74.0731 113.991 73.677C114.175 72.6723 114.223 72.0071 114.196 70.8438C114.173 69.8264 114.161 69.6366 114.089 69.1361C113.559 65.444 111.226 63.0663 107.486 62.4078C106.666 62.2633 105.396 62.201 104.594 62.2658ZM104.888 67.1635C104.361 67.2631 103.897 67.6271 103.648 68.1359C103.332 68.7807 103.264 69.2412 103.237 70.8826C103.208 72.7134 103.287 73.5076 103.565 74.1815C103.891 74.9733 104.499 75.3431 105.473 75.3431C105.895 75.3431 106.177 75.2909 106.499 75.1526C106.749 75.0455 107.149 74.6382 107.26 74.3782C107.301 74.2807 107.351 74.166 107.37 74.1233C107.44 73.9652 107.52 73.6864 107.56 73.4618C107.582 73.3347 107.622 73.1084 107.648 72.959C107.711 72.6014 107.708 69.9534 107.644 69.5104C107.387 67.7153 106.799 67.1 105.363 67.1222C105.209 67.1246 104.995 67.1432 104.888 67.1635ZM87.426 72.455C86.8456 72.6667 86.4497 73.2416 86.3926 73.9558C86.3314 74.7219 86.6747 75.3868 87.2789 75.6722C87.5104 75.7815 87.5678 75.7922 87.9239 75.7922C88.2926 75.7922 88.3299 75.7846 88.5831 75.6572C89.1239 75.3851 89.4103 74.9003 89.4548 74.1815C89.5066 73.3464 89.1232 72.6904 88.4467 72.4565C88.2319 72.3822 87.6279 72.3813 87.426 72.455Z" fill="black"/>
<path fill-rule="evenodd" clip-rule="evenodd" d="M35.8463 40.2762C35.1977 40.3298 34.8204 40.38 34.4441 40.463C34.0955 40.5398 33.4592 40.705 33.3777 40.7399C33.3342 40.7585 33.2009 40.8048 33.0815 40.8429C32.5057 41.0264 31.6167 41.4603 31.0078 41.8551C30.0152 42.4985 28.836 43.7258 28.3107 44.6619C28.1851 44.886 27.8434 45.5885 27.6811 45.9567C27.5798 46.1864 27.3274 46.9982 27.2755 47.261C27.211 47.5876 27.0854 48.3227 27.0405 48.6364C26.9863 49.015 26.9865 50.8493 27.0408 51.2924C27.1031 51.8009 27.195 52.4165 27.2358 52.5989C27.3632 53.1676 27.4195 53.3772 27.5701 53.843C28.1345 55.5888 29.2504 57.0647 30.7116 57.9978C31.0507 58.2143 31.7045 58.5645 31.9953 58.6854C32.5993 58.9365 32.7053 58.9703 33.8615 59.2808C33.943 59.3027 34.1874 59.3484 34.4046 59.3822C34.6219 59.4161 34.8544 59.4526 34.9212 59.4634C36.1066 59.6542 38.0694 59.6441 39.1839 59.4414C39.3142 59.4176 39.5247 59.3803 39.6516 59.3583C39.7785 59.3364 39.9829 59.2904 40.1058 59.2562C40.2287 59.222 40.3826 59.1794 40.4478 59.1614C40.9968 59.0105 41.9242 58.6273 42.2824 58.4034C42.3928 58.3343 42.4916 58.2779 42.5019 58.2779C42.5122 58.2779 42.6497 58.1941 42.8074 58.0918C43.8324 57.427 44.6638 56.5006 45.2337 55.3882C45.4564 54.9535 45.642 54.5145 45.6419 54.423C45.6418 54.3888 45.6572 54.3436 45.676 54.3226C45.7116 54.2831 45.8682 53.722 45.922 53.4417C46.0454 52.7981 46.0712 52.6204 46.0966 52.2426L46.1252 51.8163H42.7039H39.2826V51.9173C39.2826 51.9729 39.2461 52.158 39.2014 52.3287C38.9548 53.2708 38.3994 53.8204 37.5143 53.9982C36.3987 54.2223 35.3818 53.8086 34.8469 52.9131C34.6731 52.6221 34.4639 52.1231 34.4639 51.9993C34.4639 51.9516 34.4486 51.8954 34.4299 51.8745C34.3384 51.7715 34.1897 50.5313 34.1897 49.8698C34.1897 49.3863 34.2795 48.4437 34.3598 48.0838C34.5418 47.2674 34.7633 46.8149 35.1971 46.3728C35.5232 46.0405 35.6693 45.9508 36.1392 45.7939C36.4374 45.6943 37.1216 45.6861 37.384 45.779C37.7539 45.9098 37.9254 46.0151 38.1556 46.2526C38.4881 46.5956 38.662 46.9727 38.7687 47.5821C38.7958 47.7366 38.8242 47.8857 38.8319 47.9134C38.843 47.9535 39.5659 47.9617 42.3524 47.9535L45.859 47.9433L45.8555 47.7025C45.8521 47.4707 45.752 46.7692 45.6809 46.4784C45.4135 45.3854 45.2011 44.7986 44.828 44.1224C44.4665 43.4673 44.2296 43.1513 43.6895 42.6033C42.9619 41.865 42.1277 41.3197 41.1785 40.9618C41.0156 40.9004 40.8467 40.836 40.8033 40.8188C40.2832 40.6126 39.0777 40.3678 38.2557 40.3014C37.3661 40.2296 36.5185 40.2207 35.8463 40.2762ZM44.7399 40.5334C44.698 40.5605 44.7094 40.6114 44.7963 40.7838C44.8563 40.9028 44.935 41.0453 44.9712 41.1004C45.0074 41.1556 45.1046 41.3272 45.1873 41.4817C45.3855 41.8523 45.4927 42.0494 45.6022 42.2443C45.6518 42.3326 45.7856 42.5764 45.8995 42.7861C46.2786 43.4835 46.4787 43.8458 46.713 44.2589C46.8407 44.484 46.9452 44.6785 46.9452 44.6911C46.9452 44.7038 46.9866 44.7815 47.0373 44.8638C47.0879 44.9461 47.1881 45.1219 47.2598 45.2543C47.3316 45.3868 47.4791 45.6577 47.5877 45.8563C47.6963 46.055 47.8275 46.2957 47.8792 46.3913C47.9309 46.4868 48.0287 46.6674 48.0964 46.7926C48.1641 46.9178 48.2324 47.0383 48.2481 47.0604C48.2638 47.0824 48.3447 47.2269 48.4279 47.3814C48.5111 47.5359 48.6181 47.7346 48.6657 47.8229C48.7134 47.9112 48.8195 48.1099 48.9016 48.2644C48.9837 48.4189 49.0808 48.5905 49.1175 48.6457C49.154 48.7008 49.2557 48.8814 49.3433 49.047C49.5779 49.4905 49.7169 49.7442 49.7498 49.7895C49.7659 49.8116 49.8411 49.947 49.9169 50.0905C49.9927 50.234 50.0952 50.4236 50.1445 50.5119C50.1938 50.6002 50.2704 50.7447 50.3148 50.833C50.3591 50.9213 50.4323 51.0477 50.4773 51.1139C50.5585 51.2333 50.5594 51.2685 50.579 55.2277L50.5987 59.221L54.0252 59.2313L57.4516 59.2415V55.2689V51.2963L57.5748 51.0647C57.6425 50.9372 57.8088 50.6253 57.9443 50.3714C58.0798 50.1176 58.2934 49.7112 58.419 49.4684C58.5445 49.2256 58.6961 48.9366 58.7559 48.8263C58.8748 48.6066 59.0683 48.2395 59.327 47.7426C59.5832 47.2507 59.8012 46.8383 59.9104 46.639C59.9648 46.5396 60.0893 46.3048 60.1871 46.1172C60.2848 45.9296 60.4313 45.6496 60.5126 45.4951C60.5939 45.3406 60.8918 44.7717 61.1747 44.2309C61.4576 43.6901 61.7334 43.1663 61.7877 43.067C61.8878 42.8838 62.1009 42.4808 62.3289 42.0436C62.398 41.9111 62.5083 41.7035 62.574 41.582C62.8005 41.1632 63.0998 40.5816 63.0998 40.5601C63.0998 40.5483 61.6428 40.5386 59.862 40.5386H56.6241L56.5395 40.7292C56.493 40.834 56.3771 41.089 56.2818 41.2956C56.1866 41.5023 56.1087 41.6778 56.1087 41.6855C56.1087 41.6932 56.0131 41.9034 55.8962 42.1525C55.5508 42.8888 55.3582 43.3083 55.3582 43.3246C55.3582 43.3329 55.2597 43.552 55.1393 43.8114C55.0189 44.0708 54.8835 44.3662 54.8384 44.4677C54.6578 44.8749 54.4089 45.4182 54.3781 45.4727C54.3171 45.5806 54.2683 45.5571 54.1971 45.3854C54.1581 45.2912 54.0761 45.1058 54.015 44.9734C53.9166 44.7602 53.6864 44.235 53.5137 43.8296C53.4808 43.7523 53.4036 43.5807 53.342 43.4483C53.2805 43.3158 53.1955 43.1262 53.1532 43.0269C53.0343 42.7475 52.4871 41.5074 52.2766 41.0402C52.2368 40.9519 52.1744 40.8029 52.1378 40.7091L52.0714 40.5386H48.4846C46.5118 40.5386 44.8741 40.5297 44.8452 40.5189C44.8162 40.5081 44.7689 40.5146 44.7399 40.5334ZM64.1827 40.5352C64.1737 40.5444 64.1663 44.757 64.1663 49.8965V59.2411H69.2498C74.4856 59.2411 74.638 59.2371 75.6996 59.0735C76.4465 58.9584 76.5604 58.9347 76.9241 58.8192C77.1087 58.7604 77.322 58.694 77.398 58.6715C77.9336 58.5129 78.7925 57.9812 79.2426 57.5295C79.7117 57.0589 79.9351 56.7083 80.1728 56.0698C80.6745 54.7226 80.6278 52.9592 80.06 51.8061C79.9151 51.5118 79.6651 51.1251 79.6038 51.1005C79.5854 51.0932 79.5704 51.0727 79.5704 51.0551C79.5704 50.964 78.9033 50.3877 78.6228 50.2365C78.5466 50.1955 78.3954 50.1132 78.2868 50.0538C78.1781 49.9943 77.9826 49.9138 77.8523 49.8748C77.7219 49.836 77.5797 49.79 77.5363 49.7726C77.4928 49.7553 77.3373 49.7171 77.1907 49.6877C76.9417 49.6378 76.858 49.5855 76.9734 49.5518C77.8154 49.3065 78.1446 49.1634 78.5779 48.8543C78.9316 48.602 79.0767 48.4658 79.3144 48.1632C79.863 47.4645 80.1207 46.61 80.1226 45.4828C80.1236 44.9025 79.9993 44.0363 79.8841 43.8201C79.8636 43.7818 79.8469 43.7295 79.8469 43.7039C79.8469 43.6159 79.5592 43.0465 79.3628 42.7459C79.1862 42.4754 78.8133 42.0643 78.541 41.8397C78.3514 41.6833 77.8764 41.3858 77.6468 41.2796C77.2357 41.0896 77.1837 41.0679 76.9438 40.9863C76.732 40.9143 76.4775 40.8438 76.0551 40.7404C75.2747 40.5492 74.8619 40.536 69.3668 40.527C66.5246 40.5223 64.1918 40.526 64.1827 40.5352ZM81.9403 49.8897V59.2411H89.0104H96.0805V56.5922V53.9434H92.4072H88.7339V53.1048C88.7339 52.3696 88.7418 52.2633 88.7978 52.2414C88.8329 52.2277 90.0637 52.2173 91.533 52.2182L94.2044 52.2198L94.2146 49.8307L94.2248 47.4416H91.4785H88.7323L88.743 46.6289L88.7537 45.8162L92.2199 45.806L95.6861 45.7957L95.6759 43.1772L95.6658 40.5586L88.8031 40.5485L81.9403 40.5383V49.8897ZM97.8184 49.8898V59.2411H101.215H104.612V56.275V53.309L104.813 53.2951C104.923 53.2874 105.027 53.2992 105.044 53.3213C105.06 53.3434 105.19 53.6052 105.333 53.9032C105.475 54.2012 105.826 54.9327 106.114 55.5287C106.401 56.1247 106.813 56.9825 107.029 57.435C107.246 57.8876 107.531 58.4791 107.662 58.7494L107.9 59.2411H111.45C113.403 59.2411 115 59.2336 115 59.2244C115 59.2153 114.931 59.0753 114.847 58.9134C114.663 58.5586 114.216 57.68 113.707 56.6725C113.501 56.2641 113.185 55.641 113.006 55.2879C112.826 54.9347 112.528 54.3477 112.344 53.9835C111.582 52.4764 111.314 51.9547 111.282 51.9186C111.205 51.8321 111.263 51.7486 111.493 51.6156C111.757 51.4633 112.276 51.056 112.507 50.8199C113.183 50.1301 113.599 49.3128 113.825 48.2262C113.898 47.878 113.909 47.6913 113.908 46.8597C113.908 46.1305 113.891 45.8038 113.84 45.5152C113.618 44.2588 113.164 43.3249 112.395 42.5441C111.679 41.8174 110.81 41.3388 109.49 40.9433C109.234 40.8667 108.517 40.7199 108.108 40.6603C107.392 40.5562 106.549 40.5386 102.294 40.5386H97.8184V49.8898ZM70.8198 45.0038C70.8093 45.0317 70.8055 45.6231 70.8112 46.3182L70.8217 47.5821L71.6314 47.5943C72.585 47.6088 72.9306 47.5628 73.2269 47.3822C73.5841 47.1645 73.7613 46.7132 73.708 46.1573C73.6364 45.4118 73.2877 45.0792 72.488 44.9936C71.937 44.9346 70.8435 44.9413 70.8198 45.0038ZM104.642 45.6978C104.625 45.7151 104.612 46.4386 104.612 47.3055C104.612 48.5001 104.624 48.889 104.66 48.9119C104.728 48.9545 105.765 48.931 106.073 48.8799C106.599 48.793 107.043 48.4771 107.224 48.061C107.346 47.7817 107.4 47.2595 107.345 46.8994C107.248 46.2686 107.018 46.0148 106.31 45.7589C106.153 45.702 104.688 45.6484 104.642 45.6978ZM70.8315 51.6382C70.8153 51.6552 70.8019 52.3628 70.8019 53.2108V54.7524L71.74 54.7377C72.6008 54.7241 72.6965 54.7155 72.9016 54.6326C73.3518 54.4507 73.6051 54.1579 73.7254 53.6799C73.8198 53.3049 73.8238 53.0732 73.7422 52.7157C73.6159 52.1621 73.4059 51.9245 72.8734 51.7327C72.6698 51.6595 72.5202 51.6454 71.7499 51.6277C71.2611 51.6165 70.8478 51.6212 70.8315 51.6382Z" fill="black"/>
<path fill-rule="evenodd" clip-rule="evenodd" d="M33.364 23.6125C32.9934 23.7381 32.7849 23.9146 32.6471 24.2194C32.6182 24.2834 32.579 24.3661 32.56 24.4032C32.541 24.4403 32.5255 25.1952 32.5255 26.0807V27.6907L32.6202 27.8956C32.7956 28.275 33.0881 28.5069 33.4969 28.5908C33.9933 28.6926 34.4354 28.4707 34.7444 27.9647L34.8511 27.79V26.099V24.4081L34.7566 24.2256C34.6249 23.9714 34.3444 23.7233 34.0757 23.6235C33.8097 23.5247 33.6312 23.5219 33.364 23.6125ZM29.9458 26.0817V28.5469H30.3751H30.8044L30.8148 27.5087L30.8252 26.4705L31.2063 26.4594L31.5874 26.4483V26.0227V25.5972H31.1955H30.8035L30.8144 25.0441L30.8252 24.4911L31.4226 24.4804L32.02 24.4697L32.0089 24.0534L31.9978 23.6372L30.9718 23.6269L29.9458 23.6165V26.0817ZM35.6784 23.6437C35.6641 23.6579 35.6523 24.7669 35.6523 26.1082V28.5469H36.0819H36.5115L36.5216 26.519L36.5318 24.4911L36.7182 24.4792C36.8827 24.4688 36.9191 24.4816 37.0261 24.5879L37.1475 24.7084L37.1303 25.2432C37.1104 25.8645 37.0539 26.0084 36.7838 26.1267C36.6989 26.1639 36.6295 26.2154 36.6295 26.241C36.6295 26.2667 36.7001 26.5559 36.7865 26.8836C36.8728 27.2114 37.0047 27.7117 37.0796 27.9955C37.1545 28.2792 37.2158 28.5194 37.2158 28.5291C37.2158 28.5389 37.418 28.5469 37.6653 28.5469C37.9125 28.5469 38.1147 28.5363 38.1147 28.5234C38.1147 28.5105 38.0696 28.349 38.0144 28.1644C37.9171 27.8391 37.8409 27.5755 37.7043 27.0914C37.6682 26.9634 37.6227 26.8184 37.6031 26.7694C37.5486 26.6328 37.5584 26.5969 37.6874 26.4603C37.92 26.2138 37.9696 26.0318 37.9898 25.3504C38.0114 24.6214 37.9697 24.3779 37.7792 24.1188C37.4815 23.714 37.2064 23.6188 36.3331 23.6182C35.9873 23.618 35.6927 23.6295 35.6784 23.6437ZM38.4926 23.6437C38.4782 23.6579 38.4665 23.8494 38.4665 24.0692V24.4688L38.8281 24.4799L39.1896 24.4911L39.2091 26.5093L39.2287 28.5275L39.6489 28.5385L40.069 28.5495V26.5106V24.4717H40.4404H40.8117V24.0447V23.6178H39.6652C39.0345 23.6178 38.5069 23.6295 38.4926 23.6437ZM41.4846 25.7233L41.4957 27.8289L41.5851 27.9841C41.7151 28.2096 42.0104 28.4588 42.2576 28.5515C42.826 28.7646 43.5125 28.4319 43.7377 27.8342C43.8205 27.6145 43.8218 27.5759 43.8119 25.6239L43.8017 23.6372L43.3873 23.6263L42.973 23.6153L42.9457 24.2667C42.9307 24.6249 42.9202 25.4944 42.9223 26.1988C42.9245 26.9032 42.9254 27.5014 42.9243 27.5281C42.9232 27.5548 42.8871 27.6115 42.8441 27.6542C42.7366 27.7609 42.5192 27.7572 42.4157 27.6469C42.3377 27.5637 42.336 27.5209 42.336 25.5899V23.6178H41.9048H41.4735L41.4846 25.7233ZM44.5639 26.0823V28.5469H44.9939H45.4238V27.4602C45.4238 26.8625 45.4372 26.3734 45.4536 26.3734C45.47 26.3734 45.5166 26.4913 45.5572 26.6354C45.5978 26.7795 45.6414 26.9149 45.6539 26.9362C45.6665 26.9575 45.7058 27.0798 45.7412 27.2079C45.8258 27.5135 46.0847 28.3482 46.1296 28.4595C46.1633 28.5433 46.1838 28.5469 46.6346 28.5469H47.1045V26.0823V23.6178H46.6745H46.2446V24.821C46.2446 25.4827 46.2314 26.0241 46.2153 26.024C46.1888 26.0239 46.053 25.6274 45.903 25.1121C45.84 24.8958 45.7833 24.7241 45.7364 24.6075C45.7193 24.5648 45.6757 24.4251 45.6396 24.297C45.5694 24.0482 45.5281 23.92 45.4582 23.7343L45.4143 23.6178H44.9891H44.5639V26.0823ZM47.9129 23.643C47.8982 23.6576 47.8862 24.7669 47.8862 26.1082V28.5469H48.922H49.9578V28.121V27.695L49.3698 27.6843L48.7819 27.6736L48.7795 27.072L48.777 26.4705L49.1524 26.4594L49.5278 26.4483V26.0241V25.6L49.152 25.5889L48.7763 25.5778L48.7741 25.0344L48.7719 24.4911L49.3661 24.4804L49.9604 24.4697L49.9493 24.0534L49.9382 23.6372L48.9389 23.6269C48.3893 23.6212 47.9276 23.6285 47.9129 23.643ZM33.4794 24.5146C33.4088 24.5919 33.4049 24.6754 33.4049 26.0823C33.4049 27.4893 33.4088 27.5728 33.4794 27.6501C33.5911 27.7727 33.8248 27.762 33.9297 27.6296C34.0084 27.5303 34.0107 27.4854 34.0107 26.0828V24.6382L33.9149 24.5356C33.7933 24.4053 33.5879 24.3954 33.4794 24.5146Z" fill="black"/>
<path d="M80.68 62.2402H27V79.8402H80.68" stroke="black"/>
<path d="M114.12 20H27V37.6H114.12V20Z" stroke="black"/>
</svg>
