<svg width="20" height="18" viewBox="0 0 20 18" fill="none" xmlns="http://www.w3.org/2000/svg">
<g clip-path="url(#clip0_11811_1906)">
<path d="M11.3592 3.76752C12.6888 2.85898 16.4961 3.16296 16.4961 3.16296L16.6776 2.59257L14.7478 1.99826C11.9838 1.14778 8.96865 1.75575 6.77357 3.60016L5.15082 4.96296C5.15082 4.96296 5.18571 6.3531 4.55057 6.97814C3.91194 7.60319 2.78473 7.28213 2.78473 7.28213L1.38184 8.65518L4.22253 11.4355L5.55214 10.1341C5.55214 10.1341 5.07753 9.17093 6.02675 8.24532C6.97249 7.3197 9.21294 9.04797 9.21294 9.04797L11.8722 6.44532C11.8722 6.44532 10.033 4.67947 11.3627 3.77093L11.3592 3.76752Z" fill="black"/>
<path d="M12.4273 7.41162L10.0605 9.71971L16.1317 16.8438L19.2891 13.7646L12.4273 7.41162Z" fill="black"/>
</g>
<defs>
<clipPath id="clip0_11811_1906">
<rect width="19" height="18" fill="white" transform="translate(0.832031)"/>
</clipPath>
</defs>
</svg>
