<svg width="18" height="18" viewBox="0 0 18 18" fill="none" xmlns="http://www.w3.org/2000/svg">
<path d="M5 9H13" stroke="black" stroke-width="1.4"/>
<path d="M5.80005 9.0001H7.00005C8.10462 9.0001 9.00005 8.10467 9.00005 7.0001V4.6001C9.00005 3.49553 9.89548 2.6001 11 2.6001H13" stroke="black" stroke-width="1.4"/>
<path d="M6.6001 8.9999H8.6001C9.70467 8.9999 10.6001 9.89533 10.6001 10.9999V13.3999C10.6001 14.5045 11.4955 15.3999 12.6001 15.3999H13.0001" stroke="black" stroke-width="1.4"/>
<path d="M16.2 8.9999C16.2 9.88356 15.4837 10.5999 14.6 10.5999C13.7163 10.5999 13 9.88356 13 8.9999C13 8.11625 13.7163 7.3999 14.6 7.3999C15.4837 7.3999 16.2 8.11625 16.2 8.9999Z" stroke="black" stroke-width="1.4"/>
<path d="M16.2 2.6C16.2 3.48366 15.4837 4.2 14.6 4.2C13.7163 4.2 13 3.48366 13 2.6C13 1.71634 13.7163 1 14.6 1C15.4837 1 16.2 1.71634 16.2 2.6Z" stroke="black" stroke-width="1.4"/>
<path d="M16.2 15.3998C16.2 16.2835 15.4837 16.9998 14.6 16.9998C13.7163 16.9998 13 16.2835 13 15.3998C13 14.5161 13.7163 13.7998 14.6 13.7998C15.4837 13.7998 16.2 14.5161 16.2 15.3998Z" stroke="black" stroke-width="1.4"/>
<path d="M1 9.0001L3.4 6.6001L5.8 9.0001L3.4 11.4001L1 9.0001Z" stroke="black" stroke-width="1.4"/>
</svg>
