<svg width="1124" height="680" viewBox="0 0 1124 680" fill="none" xmlns="http://www.w3.org/2000/svg">
<g clip-path="url(#clip0_12838_19967)">
<path fill-rule="evenodd" clip-rule="evenodd" d="M1173.88 341.581L1097.88 300.988L1021.87 341.58L1097.88 382.173L1173.88 341.581ZM1021.87 259.927L1097.88 300.517L1124.78 286.149L1125.22 286.385L1098.32 300.753L1174.32 341.345L1201.23 326.977L1201.67 327.213L1174.76 341.581L1196.42 353.145L1195.98 353.38L1174.32 341.816L1098.32 382.408L1119.97 393.971L1119.53 394.207L1097.88 382.644L1021.87 423.235L1043.53 434.799L1043.09 435.035L1021.43 423.47L945.431 464.061L967.085 475.625L966.644 475.861L944.99 464.296L868.985 504.889L890.637 516.452L890.196 516.688L868.544 505.124L792.54 545.716L814.192 557.279L813.751 557.515L792.099 545.951L716.094 586.543L737.747 598.107L737.306 598.342L715.653 586.778L639.653 627.368L661.303 638.931L660.862 639.167L639.212 627.604L563.206 668.196L584.859 679.76L584.418 679.996L562.765 668.431L541.104 680L540.662 679.765L562.324 668.196L486.318 627.603L464.656 639.172L464.215 638.937L485.877 627.368L409.874 586.777L388.213 598.346L387.772 598.11L409.433 586.542L333.427 545.949L311.766 557.518L311.325 557.282L332.986 545.713L256.985 505.123L235.32 516.694L234.879 516.458L256.544 504.888L180.539 464.296L158.877 475.864L158.436 475.629L180.098 464.06L104.097 423.47L82.4355 435.039L81.9945 434.804L103.656 423.235L27.6501 382.642L5.98838 394.211L5.54734 393.976L27.209 382.407L-48.7945 341.816L-70.457 353.385L-70.8981 353.149L-49.2355 341.58L-76.1455 327.208L-75.7045 326.973L-48.7945 341.345L27.2112 300.752L0.298828 286.379L0.739868 286.144L27.6522 300.517L103.653 259.927L76.7422 245.555L77.1832 245.319L104.094 259.691L180.098 219.1L153.187 204.728L153.628 204.492L180.539 218.864L256.543 178.273L229.633 163.901L230.074 163.665L256.984 178.037L332.99 137.445L306.08 123.073L306.521 122.838L333.431 137.209L409.433 96.6189L382.523 82.2473L382.964 82.0117L409.874 96.3833L485.877 55.7922L458.965 41.4191L459.406 41.1836L486.318 55.5567L562.323 14.9651L535.412 0.592969L535.853 0.357422L562.764 14.7295L589.665 0.362027L590.107 0.597574L563.205 14.9651L639.208 55.5563L666.111 41.1884L666.552 41.4239L639.649 55.7918L715.655 96.3844L742.558 82.0163L742.999 82.2519L716.096 96.6199L792.097 137.21L818.999 122.842L819.44 123.077L792.538 137.445L868.543 178.037L895.443 163.671L895.884 163.906L868.984 178.273L944.985 218.863L971.888 204.495L972.329 204.73L945.426 219.098L1021.43 259.691L1048.34 245.323L1048.78 245.559L1021.87 259.927ZM562.764 15.2006L486.759 55.7922L562.763 96.3835L638.767 55.7918L562.764 15.2006ZM486.318 56.0278L410.315 96.6189L486.319 137.21L562.322 96.619L486.318 56.0278ZM409.874 96.8544L333.872 137.445L409.875 178.036L485.878 137.446L409.874 96.8544ZM333.431 137.681L257.425 178.273L333.429 218.864L409.434 178.272L333.431 137.681ZM256.984 178.508L180.98 219.1L256.984 259.691L332.988 219.099L256.984 178.508ZM180.539 219.335L104.535 259.927L180.538 300.518L256.543 259.927L180.539 219.335ZM104.094 260.163L28.0932 300.752L104.097 341.343L180.097 300.754L104.094 260.163ZM27.6522 300.988L-48.3535 341.58L27.65 382.171L103.656 341.579L27.6522 300.988ZM104.097 422.999L28.0911 382.407L104.097 341.814L180.103 382.407L104.097 422.999ZM180.544 382.171L104.538 341.579L180.538 300.989L256.544 341.582L180.544 382.171ZM256.985 341.346L180.979 300.754L256.984 260.162L332.99 300.755L256.985 341.346ZM333.431 300.519L257.425 259.927L333.429 219.335L409.435 259.928L333.431 300.519ZM409.876 259.692L333.87 219.099L409.875 178.507L485.881 219.1L409.876 259.692ZM486.322 218.864L410.316 178.272L486.319 137.681L562.325 178.274L486.322 218.864ZM562.766 178.038L486.76 137.446L562.763 96.8546L638.769 137.447L562.766 178.038ZM639.21 137.212L563.204 96.619L639.208 56.0274L715.214 96.6199L639.21 137.212ZM715.655 96.8554L639.651 137.447L715.651 178.037L791.656 137.445L715.655 96.8554ZM639.21 137.683L563.207 178.274L639.207 218.863L715.21 178.272L639.21 137.683ZM562.766 178.509L486.763 219.1L562.764 259.689L638.766 219.099L562.766 178.509ZM486.322 219.335L410.317 259.928L486.317 300.517L562.323 259.925L486.322 219.335ZM409.876 260.163L333.872 300.755L409.872 341.344L485.876 300.753L409.876 260.163ZM333.431 300.99L257.426 341.582L333.427 382.171L409.431 341.58L333.431 300.99ZM256.985 341.817L180.985 382.407L256.985 422.997L332.986 382.407L256.985 341.817ZM180.544 382.643L104.538 423.235L180.539 463.825L256.544 423.232L180.544 382.643ZM256.985 504.652L180.98 464.06L256.985 423.468L332.99 464.06L256.985 504.652ZM333.431 463.824L257.426 423.232L333.427 382.643L409.432 423.235L333.431 463.824ZM409.873 422.999L333.868 382.407L409.872 341.815L485.877 382.407L409.873 422.999ZM486.318 382.172L410.313 341.58L486.317 300.988L562.323 341.58L486.318 382.172ZM562.764 341.345L486.758 300.753L562.764 260.161L638.769 300.753L562.764 341.345ZM639.21 300.517L563.205 259.925L639.207 219.334L715.212 259.926L639.21 300.517ZM715.653 259.691L639.648 219.099L715.651 178.508L791.656 219.1L715.653 259.691ZM792.097 218.864L716.092 178.272L792.097 137.681L868.102 178.273L792.097 218.864ZM868.543 178.508L792.538 219.1L868.54 259.69L944.544 219.098L868.543 178.508ZM792.097 219.335L716.094 259.926L792.096 300.517L868.099 259.926L792.097 219.335ZM715.653 260.162L639.651 300.753L715.652 341.343L791.655 300.752L715.653 260.162ZM639.21 300.988L563.205 341.58L639.206 382.17L715.211 341.578L639.21 300.988ZM562.764 341.816L486.759 382.407L562.761 422.998L638.765 382.406L562.764 341.816ZM486.318 382.643L410.314 423.235L486.316 463.825L562.32 423.233L486.318 382.643ZM409.873 423.47L333.872 464.06L409.874 504.65L485.874 464.06L409.873 423.47ZM333.431 464.295L257.426 504.888L333.427 545.478L409.433 504.885L333.431 464.295ZM409.874 586.306L333.868 545.713L409.874 505.121L485.88 545.714L409.874 586.306ZM486.321 545.478L410.315 504.885L486.315 464.296L562.322 504.888L486.321 545.478ZM562.763 504.653L486.757 464.06L562.761 423.469L638.767 464.061L562.763 504.653ZM639.208 463.826L563.202 423.233L639.206 382.642L715.212 423.234L639.208 463.826ZM715.653 422.999L639.647 382.406L715.652 341.814L791.658 382.406L715.653 422.999ZM792.1 382.171L716.093 341.578L792.096 300.988L868.102 341.58L792.1 382.171ZM868.543 341.345L792.537 300.752L868.54 260.161L944.546 300.754L868.543 341.345ZM944.987 300.518L868.981 259.926L944.985 219.334L1020.99 259.927L944.987 300.518ZM1021.43 260.162L945.428 300.754L1021.43 341.344L1097.43 300.753L1021.43 260.162ZM944.987 300.989L868.984 341.58L944.986 382.171L1020.99 341.58L944.987 300.989ZM868.543 341.816L792.541 382.406L868.543 422.997L944.545 382.406L868.543 341.816ZM792.099 382.642L716.094 423.234L792.097 463.825L868.102 423.233L792.099 382.642ZM715.653 423.47L639.649 464.061L715.651 504.652L791.656 464.06L715.653 423.47ZM639.208 464.297L563.204 504.888L639.206 545.479L715.21 504.887L639.208 464.297ZM562.763 505.124L486.762 545.714L562.765 586.304L638.765 545.715L562.763 505.124ZM486.321 545.949L410.315 586.542L486.318 627.132L562.323 586.54L486.321 545.949ZM562.765 667.96L486.759 627.368L562.765 586.775L638.771 627.368L562.765 667.96ZM639.212 627.132L563.206 586.54L639.206 545.95L715.212 586.543L639.212 627.132ZM715.653 586.307L639.647 545.715L715.651 505.123L791.657 545.716L715.653 586.307ZM792.099 545.48L716.092 504.887L792.097 464.296L868.103 504.888L792.099 545.48ZM868.544 504.653L792.538 464.06L868.543 423.468L944.549 464.061L868.544 504.653ZM944.99 463.825L868.984 423.233L944.986 382.642L1020.99 423.235L944.99 463.825ZM1021.43 422.999L945.427 382.406L1021.43 341.815L1097.44 382.408L1021.43 422.999Z" fill="url(#paint0_radial_12838_19967)"/>
</g>
<defs>
<radialGradient id="paint0_radial_12838_19967" cx="0" cy="0" r="1" gradientUnits="userSpaceOnUse" gradientTransform="translate(562.761 340.179) rotate(90) scale(243.156 572.335)">
<stop stop-opacity="0.3"/>
<stop offset="1" stop-opacity="0"/>
</radialGradient>
<clipPath id="clip0_12838_19967">
<rect width="1124" height="680" fill="white"/>
</clipPath>
</defs>
</svg>
