<svg width="50" height="50" viewBox="0 0 50 50" fill="none" xmlns="http://www.w3.org/2000/svg">
<circle cx="25" cy="25" r="24" fill="white" stroke="black" stroke-width="0.5"/>
<circle cx="25" cy="25" r="21" fill="white" stroke="#DFDFDF" stroke-width="0.5"/>
<path d="M18.0859 16V24H16.8789V16H18.0859ZM24.207 18.1016C24.1654 17.7318 23.9935 17.4453 23.6914 17.2422C23.3893 17.0365 23.0091 16.9336 22.5508 16.9336C22.2227 16.9336 21.9388 16.9857 21.6992 17.0898C21.4596 17.1914 21.2734 17.332 21.1406 17.5117C21.0104 17.6888 20.9453 17.8906 20.9453 18.1172C20.9453 18.3073 20.9896 18.4714 21.0781 18.6094C21.1693 18.7474 21.2878 18.8633 21.4336 18.957C21.582 19.0482 21.7409 19.125 21.9102 19.1875C22.0794 19.2474 22.2422 19.2969 22.3984 19.3359L23.1797 19.5391C23.4349 19.6016 23.6966 19.6862 23.9648 19.793C24.2331 19.8997 24.4818 20.0404 24.7109 20.2148C24.9401 20.3893 25.125 20.6055 25.2656 20.8633C25.4089 21.1211 25.4805 21.4297 25.4805 21.7891C25.4805 22.2422 25.3633 22.6445 25.1289 22.9961C24.8971 23.3477 24.5599 23.625 24.1172 23.8281C23.6771 24.0313 23.1445 24.1328 22.5195 24.1328C21.9206 24.1328 21.4023 24.0378 20.9648 23.8477C20.5273 23.6576 20.1849 23.388 19.9375 23.0391C19.6901 22.6875 19.5534 22.2708 19.5273 21.7891H20.7383C20.7617 22.0781 20.8555 22.319 21.0195 22.5117C21.1862 22.7018 21.3984 22.8437 21.6563 22.9375C21.9167 23.0286 22.2018 23.0742 22.5117 23.0742C22.8529 23.0742 23.1563 23.0208 23.4219 22.9141C23.6901 22.8047 23.901 22.6536 24.0547 22.4609C24.2083 22.2656 24.2852 22.0378 24.2852 21.7773C24.2852 21.5404 24.2174 21.3464 24.082 21.1953C23.9492 21.0443 23.7682 20.9193 23.5391 20.8203C23.3125 20.7214 23.056 20.6341 22.7695 20.5586L21.8242 20.3008C21.1836 20.1263 20.6758 19.8698 20.3008 19.5312C19.9284 19.1927 19.7422 18.7448 19.7422 18.1875C19.7422 17.7266 19.8672 17.3242 20.1172 16.9805C20.3672 16.6367 20.7057 16.3698 21.1328 16.1797C21.5599 15.987 22.0417 15.8906 22.5781 15.8906C23.1198 15.8906 23.5977 15.9857 24.0117 16.1758C24.4284 16.3659 24.7565 16.6276 24.9961 16.9609C25.2357 17.2917 25.3607 17.6719 25.3711 18.1016H24.207ZM33.8721 20C33.8721 20.8542 33.7158 21.5885 33.4033 22.2031C33.0908 22.8151 32.6624 23.2865 32.1182 23.6172C31.5765 23.9453 30.9606 24.1094 30.2705 24.1094C29.5778 24.1094 28.9593 23.9453 28.415 23.6172C27.8734 23.2865 27.4463 22.8138 27.1338 22.1992C26.8213 21.5846 26.665 20.8516 26.665 20C26.665 19.1458 26.8213 18.4128 27.1338 17.8008C27.4463 17.1862 27.8734 16.7148 28.415 16.3867C28.9593 16.056 29.5778 15.8906 30.2705 15.8906C30.9606 15.8906 31.5765 16.056 32.1182 16.3867C32.6624 16.7148 33.0908 17.1862 33.4033 17.8008C33.7158 18.4128 33.8721 19.1458 33.8721 20ZM32.6768 20C32.6768 19.349 32.5713 18.8008 32.3604 18.3555C32.152 17.9076 31.8656 17.569 31.501 17.3398C31.139 17.1081 30.7288 16.9922 30.2705 16.9922C29.8096 16.9922 29.3981 17.1081 29.0361 17.3398C28.6742 17.569 28.3877 17.9076 28.1768 18.3555C27.9684 18.8008 27.8643 19.349 27.8643 20C27.8643 20.651 27.9684 21.2005 28.1768 21.6484C28.3877 22.0937 28.6742 22.4323 29.0361 22.6641C29.3981 22.8932 29.8096 23.0078 30.2705 23.0078C30.7288 23.0078 31.139 22.8932 31.501 22.6641C31.8656 22.4323 32.152 22.0937 32.3604 21.6484C32.5713 21.2005 32.6768 20.651 32.6768 20Z" fill="black"/>
<path d="M13.6023 34V33.4886L15.5227 31.3864C15.7481 31.1402 15.9337 30.9261 16.0795 30.7443C16.2254 30.5606 16.3333 30.3883 16.4034 30.2273C16.4754 30.0644 16.5114 29.8939 16.5114 29.7159C16.5114 29.5114 16.4621 29.3343 16.3636 29.1847C16.267 29.035 16.1345 28.9195 15.9659 28.8381C15.7973 28.7566 15.608 28.7159 15.3977 28.7159C15.1742 28.7159 14.9792 28.7623 14.8125 28.8551C14.6477 28.946 14.5199 29.0739 14.429 29.2386C14.34 29.4034 14.2955 29.5966 14.2955 29.8182H13.625C13.625 29.4773 13.7036 29.178 13.8608 28.9205C14.018 28.6629 14.232 28.4621 14.5028 28.3182C14.7756 28.1742 15.0814 28.1023 15.4205 28.1023C15.7614 28.1023 16.0634 28.1742 16.3267 28.3182C16.59 28.4621 16.7964 28.6562 16.946 28.9006C17.0956 29.1449 17.1705 29.4167 17.1705 29.7159C17.1705 29.9299 17.1316 30.1392 17.054 30.3438C16.9782 30.5464 16.8456 30.7727 16.6562 31.0227C16.4688 31.2708 16.2083 31.5739 15.875 31.9318L14.5682 33.3295V33.375H17.2727V34H13.6023ZM18.6278 34L21.2301 28.8523V28.8068H18.2301V28.1818H21.9574V28.8409L19.3665 34H18.6278ZM24.7891 34.0795C24.361 34.0795 23.9964 33.9631 23.6953 33.7301C23.3942 33.4953 23.1641 33.1553 23.005 32.7102C22.8459 32.2633 22.7663 31.7235 22.7663 31.0909C22.7663 30.4621 22.8459 29.9252 23.005 29.4801C23.166 29.0331 23.397 28.6922 23.6982 28.4574C24.0012 28.2206 24.3648 28.1023 24.7891 28.1023C25.2133 28.1023 25.576 28.2206 25.8771 28.4574C26.1802 28.6922 26.4112 29.0331 26.5703 29.4801C26.7313 29.9252 26.8118 30.4621 26.8118 31.0909C26.8118 31.7235 26.7322 32.2633 26.5732 32.7102C26.4141 33.1553 26.1839 33.4953 25.8828 33.7301C25.5817 33.9631 25.2171 34.0795 24.7891 34.0795ZM24.7891 33.4545C25.2133 33.4545 25.5429 33.25 25.7777 32.8409C26.0125 32.4318 26.13 31.8485 26.13 31.0909C26.13 30.5871 26.076 30.1581 25.968 29.804C25.862 29.4498 25.7086 29.1799 25.5078 28.9943C25.3089 28.8087 25.0694 28.7159 24.7891 28.7159C24.3686 28.7159 24.04 28.9233 23.8033 29.3381C23.5665 29.7509 23.4482 30.3352 23.4482 31.0909C23.4482 31.5947 23.5012 32.0227 23.6072 32.375C23.7133 32.7273 23.8658 32.9953 24.0646 33.179C24.2654 33.3627 24.5069 33.4545 24.7891 33.4545ZM29.7891 34.0795C29.361 34.0795 28.9964 33.9631 28.6953 33.7301C28.3942 33.4953 28.1641 33.1553 28.005 32.7102C27.8459 32.2633 27.7663 31.7235 27.7663 31.0909C27.7663 30.4621 27.8459 29.9252 28.005 29.4801C28.166 29.0331 28.397 28.6922 28.6982 28.4574C29.0012 28.2206 29.3648 28.1023 29.7891 28.1023C30.2133 28.1023 30.576 28.2206 30.8771 28.4574C31.1802 28.6922 31.4112 29.0331 31.5703 29.4801C31.7313 29.9252 31.8118 30.4621 31.8118 31.0909C31.8118 31.7235 31.7322 32.2633 31.5732 32.7102C31.4141 33.1553 31.1839 33.4953 30.8828 33.7301C30.5817 33.9631 30.2171 34.0795 29.7891 34.0795ZM29.7891 33.4545C30.2133 33.4545 30.5429 33.25 30.7777 32.8409C31.0125 32.4318 31.13 31.8485 31.13 31.0909C31.13 30.5871 31.076 30.1581 30.968 29.804C30.862 29.4498 30.7086 29.1799 30.5078 28.9943C30.3089 28.8087 30.0694 28.7159 29.7891 28.7159C29.3686 28.7159 29.04 28.9233 28.8033 29.3381C28.5665 29.7509 28.4482 30.3352 28.4482 31.0909C28.4482 31.5947 28.5012 32.0227 28.6072 32.375C28.7133 32.7273 28.8658 32.9953 29.0646 33.179C29.2654 33.3627 29.5069 33.4545 29.7891 33.4545ZM34.9368 28.1818V34H34.2322V28.9205H34.1982L32.7777 29.8636V29.1477L34.2322 28.1818H34.9368Z" fill="black"/>
</svg>
