<svg width="32" height="32" viewBox="0 0 32 32" fill="none" xmlns="http://www.w3.org/2000/svg">
<g clip-path="url(#clip0_13465_5171)">
<path d="M4.5899 30.9998L3.37115 30.9998C3.33977 30.9185 3.31059 30.8364 3.28365 30.7535C3.0149 29.921 2.54115 28.891 2.41865 28.061C2.23615 26.831 3.39365 26.7623 4.13615 26.2298C5.2799 25.4048 6.1799 24.9485 7.4199 24.2048C7.78865 23.981 8.8974 23.4248 9.02115 23.1685C9.2724 22.6585 8.5899 21.941 8.40865 21.5435C8.1274 20.9098 7.9774 20.3723 7.93865 19.7498C6.90865 19.5873 6.1199 18.966 5.63365 18.2685C4.84615 17.1123 4.30115 14.9748 4.9774 13.3485C5.03365 13.2198 5.2949 12.9673 5.33365 12.7698C5.40865 12.3848 5.2024 11.8698 5.18365 11.4598C5.10865 9.34477 5.53865 7.52227 6.9649 6.88477C7.54365 4.58477 9.60615 3.81852 11.5562 2.67602C12.2812 2.24852 13.0862 1.97352 13.9187 1.66727C16.8837 0.571016 21.4524 0.777266 23.9112 2.64602C24.9562 3.43727 26.6312 5.10852 27.2312 6.31977C28.8087 9.51352 28.6937 14.851 27.5899 18.7373C27.4399 19.2635 27.2274 20.0273 26.9237 20.6535C26.7137 21.091 26.0624 21.966 26.1424 22.3535C26.2224 22.746 27.6299 23.816 27.9324 24.0973C28.4749 24.6248 29.5074 25.316 29.5874 25.9723C29.6749 26.6685 29.2774 27.6423 29.0749 28.316C28.8037 29.2173 28.5299 30.1173 28.2574 30.9798L4.5874 30.9798L4.5899 30.9998ZM18.4699 26.5748C17.659 26.1378 16.7898 25.8192 15.8887 25.6285C14.8012 25.4235 14.9137 27.1135 14.9512 28.121C14.9887 28.9248 15.4011 29.766 15.5886 30.301C15.6836 30.5473 15.7012 30.8135 15.9087 30.8623C16.2837 30.9473 17.5212 30.4548 17.8774 30.2635C18.6274 29.8535 19.2074 29.2085 19.8449 28.7773C19.8649 28.5648 19.8649 28.3523 19.8824 28.1423C19.4564 27.9298 18.9895 27.8116 18.5136 27.796C18.9061 27.6085 19.4511 27.6085 19.8074 27.381L19.8274 27.1398C19.2074 27.1023 18.9649 26.8223 18.5512 26.5948L18.4699 26.5748ZM27.7874 30.2435C28.0183 29.5239 28.2123 28.7929 28.3687 28.0535C28.4437 27.6948 28.6374 26.906 28.5912 26.5835C28.5174 26.0098 27.7362 25.5848 27.3362 25.226C26.6062 24.5698 26.1487 24.0073 25.3862 23.3898C25.0749 23.8585 24.4112 24.1585 24.1574 24.5323C25.9662 23.671 26.2949 27.8135 25.5837 29.1448C25.6962 29.556 26.0724 29.7073 26.2262 30.0635L26.1187 30.271L27.7312 30.271C27.7474 30.271 27.7687 30.271 27.7862 30.2885L27.7874 30.2435ZM19.4949 30.2285C19.4324 30.136 19.3699 30.0598 19.3074 29.9673L18.9312 30.211L19.4937 30.211L19.4949 30.2285ZM22.9574 30.2285C22.9674 29.9673 22.9799 29.7235 22.9949 29.481C22.3324 29.5173 21.9636 28.881 21.4999 28.8223C21.0949 28.766 20.7499 29.2735 20.2249 29.066C20.1062 29.1973 19.9961 29.3498 19.8699 29.461C20.0624 29.686 20.2387 29.9298 20.3999 30.191L21.4186 30.191C21.4229 30.0946 21.4643 30.0036 21.5342 29.9372C21.6042 29.8707 21.6972 29.834 21.7937 29.8348C21.9999 29.8348 22.1487 29.986 22.1487 30.1723L22.9737 30.1723L22.9574 30.2285ZM25.6024 30.2285C25.2099 29.6298 24.4187 29.106 23.5024 29.5348L23.4649 30.211L25.6024 30.211L25.6024 30.2285ZM14.9649 30.2285L14.8349 29.7985C14.5537 28.8985 14.3849 28.2235 14.3287 27.6985C13.1862 27.1535 11.9849 26.611 11.0112 25.916C10.8237 25.7848 9.6249 24.2285 9.47365 24.2848C7.2999 25.1298 5.2749 26.6098 3.45615 28.0148C3.77615 28.711 4.05615 29.441 4.31865 30.1898L14.9499 30.1898L14.9649 30.2285ZM25.2962 27.5873C25.2599 26.9473 25.0912 25.6373 24.6962 25.4123C23.8712 24.9248 22.3887 26.3873 21.7712 26.591C21.8274 26.7785 21.9399 26.9298 21.9587 27.191C22.3149 27.0985 22.7649 27.1548 23.0812 27.306C22.7074 27.3435 22.2949 27.3435 22.0511 27.511C21.9586 27.7548 22.0712 28.111 22.0149 28.466C22.8774 28.7123 23.8899 28.8448 24.9962 28.881C25.2012 28.5973 25.2774 28.0748 25.2599 27.5285L25.2962 27.5873ZM20.1962 27.1373C20.1412 27.606 20.2537 27.7748 20.3462 28.316C21.9212 28.8048 21.6387 26.141 20.1774 27.1173L20.1962 27.1373ZM11.9499 25.3748C11.3874 25.946 13.5374 26.7273 14.2174 26.7685C14.2174 26.406 14.4236 26.0635 14.3861 25.806C13.5736 25.6585 12.5087 25.7535 11.9549 25.3723L11.9499 25.3748ZM18.9062 25.6435C18.9062 25.6973 18.8299 25.681 18.8212 25.7235C19.5462 26.2873 20.0887 26.4048 21.0737 26.361C21.5162 26.0335 21.9111 25.6573 22.3774 25.3523C21.3086 25.4448 19.9637 26.111 18.9099 25.6398L18.9062 25.6435ZM23.1812 3.48602C21.1737 2.35352 17.7437 1.49727 15.5862 2.57227C13.8612 3.43727 11.4987 4.87227 10.7124 6.68727C11.4624 8.43977 10.5049 10.0448 10.4299 11.8235C10.4074 12.7698 10.8799 13.5985 10.9187 14.626C10.6687 15.0485 9.8874 15.101 9.34365 15.071C9.16115 14.1598 8.84365 13.1348 7.8999 13.0335C6.5699 12.8885 5.59365 13.9885 5.5374 15.1373C5.4624 16.4873 6.57865 18.7173 8.14365 18.5685C8.75365 18.511 8.90365 17.8935 9.5674 17.8935C9.92365 18.606 9.01115 18.831 8.91365 19.336C8.89365 19.4673 8.98865 19.9748 9.04365 20.2173C9.3349 21.3973 9.97365 22.9173 10.5999 23.8173C11.3937 24.9423 12.9549 25.131 14.6362 25.2435C14.9362 24.5873 16.0424 24.6435 16.7687 24.811C15.9049 24.4735 15.0986 23.6298 14.4249 22.8998C13.6562 22.0548 12.8874 21.1373 12.8487 20.0498C14.2924 22.0548 15.4737 23.7998 18.0987 24.6798C20.0862 25.336 22.4112 24.3623 23.9287 23.2935C24.5662 22.8448 24.9424 22.131 25.3912 21.4948C27.0787 19.0748 27.8662 15.6073 27.6987 12.2523C27.6237 10.8635 27.6237 9.47602 27.1537 8.55852C26.6674 7.58227 25.0349 6.71977 24.0599 7.58227C23.8724 6.62727 24.8474 6.04477 25.9912 6.38227C25.1662 5.31477 24.3212 4.05977 23.1587 3.40227L23.1812 3.48602ZM17.9749 19.6198C18.7437 21.5498 21.3799 21.3235 23.6062 21.2735C23.5012 21.516 23.2862 21.8173 23.0249 21.9173C22.3124 22.2073 20.3436 22.4273 19.3536 21.9023C18.7211 21.5648 18.3237 20.811 17.9762 20.3685C17.8049 20.1535 16.9824 19.6085 17.9612 19.6073L17.9749 19.6198ZM18.1799 18.5323C19.2962 19.1123 21.3299 19.1785 22.8437 19.1323C22.9262 19.466 22.9262 19.8735 22.9287 20.2735C20.9912 20.3735 18.6961 19.8935 18.1861 18.5298L18.1799 18.5298L18.1799 18.5323ZM26.5237 17.7998C25.9324 18.9248 25.0924 20.171 23.3499 20.2098C23.3212 19.8548 23.2937 19.291 23.3499 19.0798C24.6799 18.951 25.5087 18.2723 26.5287 17.8085L26.5237 17.7998ZM25.7124 16.966C24.4374 17.791 23.0199 18.6848 20.9324 18.4785C20.4937 18.091 20.3262 17.2285 20.7574 16.656C20.9837 17.0473 20.8324 17.7623 21.4699 17.8685C22.6499 18.0748 24.0174 17.1448 24.8824 16.8185C25.4074 15.9273 24.8249 15.5985 24.3574 15.0273C23.3799 13.8648 22.0699 12.4023 22.1049 10.6398C22.4974 10.3598 22.5374 11.0723 22.5937 11.2023C23.0987 12.4023 24.3737 13.921 25.3112 14.9523C25.5362 15.2148 25.9112 15.4398 25.9487 15.6073C26.0637 16.0948 25.6312 16.6748 25.6874 16.9948L25.7124 16.966ZM8.91365 16.1223C8.52115 15.8923 8.4224 14.8848 7.95365 14.8598C7.2849 14.8223 7.40615 16.1723 7.40865 16.9598C6.94615 16.5473 6.8649 15.2535 7.20365 14.5973C6.81865 14.4098 6.6474 14.8023 6.43115 14.9523C6.70615 12.9648 9.35615 14.0348 8.91865 16.1523L8.91365 16.1223ZM6.89115 8.49351C6.0349 9.43851 6.21615 11.211 6.3174 12.4785C7.8724 11.4973 9.9399 12.5535 9.92115 14.221C10.6649 14.201 10.1999 13.291 10.0649 12.7023C9.62365 10.7923 10.8049 8.71851 10.1162 6.96477C8.78615 7.06977 7.6924 7.61477 6.89365 8.48352L6.89115 8.49351ZM18.2912 9.88476C18.6749 10.5873 18.7962 11.3198 19.3412 11.8473C19.5849 12.0848 20.0587 12.3773 19.8249 13.0348C19.7687 13.186 19.3687 13.5235 19.1362 13.5973C18.2937 13.841 16.3187 13.6348 16.9849 12.5848C17.6887 12.6035 18.6274 13.0348 19.1499 12.5285C18.7574 11.8735 18.0437 10.616 18.3074 9.86602L18.2912 9.88476ZM26.0387 9.86851L26.1237 9.86851C26.5362 10.7035 26.8737 11.5873 27.3787 12.3248C27.0412 13.1098 24.8124 13.8123 24.8499 12.396C25.3374 12.1835 26.1624 12.3523 26.5937 12.0835C26.3524 11.3885 25.9937 10.826 26.0512 9.86977L26.0387 9.86851ZM17.3799 7.84727C15.6024 7.43477 14.7162 8.58727 14.1799 9.78852C13.6999 9.67102 13.8912 9.01976 14.0112 8.68476C14.3299 7.80851 15.6112 6.64352 16.6599 6.80227C17.1087 6.87352 17.7199 7.28477 17.3799 7.84477L17.3799 7.84727ZM13.0524 2.99102C11.1024 3.54102 8.6024 4.95852 7.8024 6.70852C8.42115 6.62102 8.8524 6.30727 9.4649 6.26977C9.6974 6.24977 9.9999 6.36227 10.2662 6.28852C10.7962 6.15852 11.2412 4.95727 11.6437 4.52602C12.0312 4.09477 12.4999 3.90602 12.8187 3.51352C13.0274 3.40102 13.3299 3.42102 13.3437 3.10102C13.2524 3.00727 13.1562 2.93227 13.0537 2.96977L13.0524 2.99102Z" fill="black"/>
</g>
<defs>
<clipPath id="clip0_13465_5171">
<rect width="30" height="30" fill="white" transform="translate(1 1)"/>
</clipPath>
</defs>
</svg>
