<svg width="32" height="32" viewBox="0 0 32 32" fill="none" xmlns="http://www.w3.org/2000/svg">
<path d="M10.5 27H8.5C6.43182 27 4.66477 26.2781 3.19886 24.8344C1.73295 23.3906 1 21.626 1 19.5406C1 17.7531 1.53409 16.1604 2.60227 14.7625C3.67045 13.3646 5.06818 12.4708 6.79545 12.0813C7.36364 9.97292 8.5 8.26562 10.2045 6.95938C11.9091 5.65313 13.8409 5 16 5C18.6591 5 20.9148 5.93385 22.767 7.80156C24.6193 9.66927 25.5455 11.9437 25.5455 14.625C27.1136 14.8083 28.4148 15.4901 29.4489 16.6703C30.483 17.8505 31 19.2312 31 20.8125C31 22.5312 30.4034 23.9922 29.2102 25.1953C28.017 26.3984 26.5682 27 24.8636 27H21.5" stroke="black" stroke-width="1.4"/>
<circle cx="16" cy="25" r="6" stroke="black" stroke-width="1.4"/>
<path d="M19.5 20V16.5C19.5 14.567 17.933 13 16 13C14.067 13 12.5 14.567 12.5 16.5V20" stroke="black" stroke-width="1.4"/>
<circle cx="16" cy="24" r="1" stroke="black" stroke-width="1.4"/>
<line x1="15.9998" y1="25" x2="15.9998" y2="28" stroke="black" stroke-width="1.4"/>
</svg>
