<svg width="32" height="32" viewBox="0 0 32 32" fill="none" xmlns="http://www.w3.org/2000/svg">
<path fill-rule="evenodd" clip-rule="evenodd" d="M26.9741 6.54535C27.4807 6.81561 27.8859 7.25477 28.0548 7.79527L30.6216 18.8418C30.6891 19.4161 30.554 19.9904 30.2163 20.4634L23.0901 29.2803C22.7186 29.7871 22.1445 30.0573 21.5365 29.9898L10.1887 29.9898C9.61453 29.956 9.04038 29.6857 8.6351 29.2803L1.50891 20.4634C1.17117 19.9904 1.03608 19.4161 1.1374 18.8418L3.67041 7.72771C3.8055 7.15342 4.17701 6.71426 4.68361 6.47779L14.9845 1.5119C15.2547 1.44434 15.5586 1.44434 15.8288 1.44434C16.099 1.44434 16.403 1.47812 16.6732 1.61324L26.9741 6.54535ZM26.3998 18.3688C26.3998 18.4026 26.4336 18.4026 26.4674 18.4026C26.7713 18.4702 27.0415 18.7404 27.0753 19.112C26.974 19.3823 26.7038 19.585 26.3998 19.585C26.3323 19.585 26.2985 19.585 26.231 19.5512C26.1972 19.5174 26.1972 19.5174 26.1634 19.5174C26.1238 19.5174 26.0959 19.5058 26.0727 19.4962C26.0563 19.4894 26.0423 19.4836 26.0283 19.4836C25.9281 19.4586 25.8465 19.4149 25.7559 19.3665C25.7244 19.3496 25.6917 19.3322 25.6568 19.3147C25.5893 19.3147 25.5217 19.2809 25.4542 19.2471L25.4204 19.2471C25.0827 19.112 24.7112 19.0107 24.3397 18.9431L24.3059 18.9431C24.2046 18.9431 24.1032 18.9769 24.0357 19.0445C24.0357 19.0445 24.0357 19.0782 24.0019 19.0782L23.7317 19.0445C23.1238 20.97 21.8066 22.5915 20.0842 23.6387L20.1855 23.909C20.1855 23.909 20.1517 23.909 20.1517 23.9428C20.0842 24.0441 20.0842 24.1793 20.118 24.2806C20.2531 24.6184 20.4219 24.9562 20.6583 25.2603L20.6583 25.3278C20.7259 25.3954 20.7597 25.4292 20.7934 25.4967C20.8948 25.5981 20.9623 25.6994 21.0299 25.8345C21.0636 25.8683 21.0974 25.9021 21.0974 25.9359C21.0974 25.9359 21.1312 25.9359 21.1312 25.9697C21.1987 26.1386 21.1987 26.3075 21.1649 26.4764C21.1312 26.6453 20.9961 26.7804 20.861 26.848C20.8398 26.855 20.8202 26.8621 20.8013 26.8688C20.73 26.8944 20.671 26.9156 20.5908 26.9156C20.3206 26.9156 20.0842 26.7467 19.9491 26.5102C19.9153 26.5102 19.9153 26.4764 19.9153 26.4764C19.8984 26.4595 19.89 26.4426 19.8816 26.4257C19.8731 26.4088 19.8647 26.3919 19.8478 26.3751C19.7802 26.2737 19.7465 26.1386 19.7127 26.0035L19.6451 25.8008L19.6451 25.767C19.5438 25.3954 19.375 25.0576 19.2061 24.7198C19.1385 24.6184 19.0372 24.5509 18.9359 24.5171C18.9359 24.4833 18.9359 24.4833 18.9021 24.4833L18.767 24.2468C18.6811 24.2726 18.593 24.3006 18.5032 24.3291C18.2402 24.4126 17.9633 24.5005 17.6863 24.5509C17.0784 24.7198 16.4704 24.7873 15.8625 24.7873C14.8493 24.7873 13.8699 24.6184 12.9242 24.2468L12.7891 24.5171C12.7891 24.534 12.7891 24.5424 12.7849 24.5466C12.7807 24.5509 12.7723 24.5509 12.7554 24.5509C12.654 24.5846 12.5527 24.6522 12.4852 24.7535C12.3163 25.0914 12.1474 25.4292 12.0461 25.8008L11.9786 26.0035C11.9617 26.071 11.9364 26.1301 11.911 26.1893C11.8857 26.2484 11.8604 26.3075 11.8435 26.3751C11.8097 26.4088 11.7759 26.4426 11.7759 26.4764C11.7422 26.4764 11.7422 26.5102 11.7422 26.5102C11.6071 26.7467 11.3707 26.9156 11.1005 26.9156C11.0329 26.9156 10.9316 26.8818 10.8641 26.848C10.5601 26.6791 10.425 26.2737 10.5939 25.9359C10.6276 25.9359 10.6276 25.9021 10.6276 25.9021C10.6445 25.8852 10.653 25.8683 10.6614 25.8514C10.6699 25.8345 10.6783 25.8177 10.6952 25.8008C10.7396 25.7415 10.7775 25.6823 10.8118 25.6287C10.8557 25.5601 10.8937 25.5009 10.9316 25.463C10.9992 25.3954 11.0329 25.3616 11.0667 25.294L11.0667 25.2603C11.2693 24.9562 11.472 24.6184 11.6071 24.2806C11.6408 24.1793 11.6408 24.0441 11.5733 23.9428C11.5733 23.9428 11.5395 23.9428 11.5395 23.909L11.7084 23.6725C11.3707 23.5036 11.1005 23.3009 10.7965 23.0645C9.47935 22.051 8.53369 20.666 8.02709 19.112L7.72313 19.1458C7.72313 19.1458 7.72313 19.112 7.68936 19.112C7.62181 19.0445 7.52049 19.0107 7.41917 19.0107L7.3854 19.0107C6.98012 19.0782 6.64238 19.1796 6.27087 19.3147L6.2371 19.3147C6.16955 19.3147 6.10201 19.3485 6.03446 19.3823C5.99674 19.3948 5.95434 19.4121 5.909 19.4306C5.83255 19.4617 5.74775 19.4962 5.66295 19.5174C5.65273 19.5174 5.63631 19.5143 5.61839 19.5109C5.57711 19.5031 5.52786 19.4938 5.52786 19.5174C5.52786 19.5343 5.52786 19.5427 5.52364 19.547C5.51941 19.5512 5.51097 19.5512 5.49409 19.5512C5.42654 19.585 5.39277 19.585 5.32522 19.585C5.02126 19.6187 4.7173 19.4161 4.64975 19.112C4.5822 18.7404 4.81862 18.4026 5.19012 18.335C5.20955 18.3156 5.2178 18.3074 5.22773 18.3039C5.23507 18.3013 5.24332 18.3013 5.25767 18.3013C5.29724 18.3013 5.32522 18.2897 5.3484 18.2801C5.36479 18.2733 5.37878 18.2675 5.39277 18.2675C5.46031 18.2675 5.52786 18.259 5.59541 18.2506C5.66295 18.2421 5.7305 18.2337 5.79805 18.2337C5.86559 18.1999 5.93314 18.1999 6.00069 18.1999C6.40597 18.1661 6.77747 18.0986 7.14898 17.9972C7.2503 17.9297 7.35162 17.8621 7.3854 17.7608C7.3854 17.7608 7.41917 17.7608 7.41917 17.727L7.68936 17.6594C7.3854 15.7339 7.82445 13.7745 8.87143 12.1192C8.88831 12.0854 8.9052 12.0601 8.92209 12.0348C8.93897 12.0094 8.95586 11.9841 8.97275 11.9503L8.77669 11.7542C8.79211 11.657 8.73045 11.5391 8.66879 11.4774C8.3986 11.2071 8.06086 11.0044 7.72313 10.8018L7.52049 10.7004C7.3854 10.6328 7.2503 10.5653 7.14898 10.4977C7.11521 10.4977 7.04766 10.4302 7.04766 10.4302C7.04766 10.4302 7.04766 10.3964 7.01389 10.3964C6.7437 10.1599 6.67615 9.75452 6.8788 9.45049C6.98012 9.28158 7.14898 9.21402 7.35162 9.21402C7.52049 9.21402 7.68936 9.28158 7.82445 9.38292L7.85822 9.41671C7.87511 9.4336 7.892 9.44204 7.90888 9.45049C7.92577 9.45893 7.94266 9.46738 7.95954 9.48427C8.0102 9.53494 8.05242 9.58561 8.09464 9.63629C8.13686 9.68696 8.17907 9.73763 8.22973 9.7883C8.23996 9.79853 8.25328 9.80876 8.26782 9.81993C8.30131 9.84564 8.34128 9.87632 8.36483 9.92343C8.60124 10.1937 8.9052 10.4639 9.20916 10.7004C9.27671 10.7342 9.34425 10.768 9.4118 10.768C9.45137 10.768 9.47935 10.7564 9.50253 10.7468C9.51892 10.74 9.53291 10.7342 9.54689 10.7342L9.58067 10.7342L9.78331 10.8693C10.8978 9.68696 12.3501 8.84242 13.9374 8.5046C13.9959 8.49485 14.0537 8.4851 14.1109 8.47545C14.45 8.41824 14.7679 8.3646 15.0857 8.3357L15.1195 8.06544L15.1195 7.99788C15.2208 7.93032 15.2546 7.82897 15.2884 7.72763C15.2884 7.32225 15.2884 6.95065 15.2208 6.57906L15.2208 6.54527C15.2208 6.47771 15.2208 6.41015 15.1871 6.34258C15.1533 6.20746 15.1195 6.07233 15.1195 5.93721L15.1195 5.7683C15.1195 5.59939 15.1871 5.43048 15.3221 5.29535C15.491 5.12645 15.6937 5.0251 15.8963 5.05888C16.234 5.09267 16.5042 5.43048 16.4704 5.7683L16.4704 5.97099C16.4536 6.03855 16.4451 6.10611 16.4367 6.17368C16.4282 6.24124 16.4198 6.3088 16.4029 6.37637C16.4029 6.41015 16.3945 6.44393 16.386 6.47771C16.3776 6.51149 16.3691 6.54527 16.3691 6.57906L16.3691 6.61284C16.3016 7.01821 16.3016 7.38981 16.3016 7.76141C16.3354 7.86275 16.3691 7.9641 16.4704 8.03166L16.4704 7.99788L16.5042 8.26813C18.0916 8.43704 19.6451 9.04511 20.8948 10.0248C21.0299 10.1599 21.1734 10.295 21.3169 10.4301C21.4605 10.5653 21.604 10.7004 21.7391 10.8355L22.0093 10.6666L22.0431 10.6666C22.0768 10.7004 22.1444 10.7004 22.1782 10.7004C22.2457 10.7004 22.3132 10.6666 22.3808 10.6328C22.6848 10.4302 22.9887 10.1599 23.2251 9.88965C23.2354 9.87942 23.2487 9.86919 23.2632 9.85803C23.2967 9.83231 23.3367 9.80163 23.3602 9.75452C23.4278 9.65318 23.5291 9.55183 23.6304 9.45049C23.6642 9.45049 23.698 9.41671 23.7317 9.38292L23.7655 9.34914C23.9006 9.2478 24.0695 9.18024 24.2383 9.18024C24.4072 9.18024 24.6098 9.28158 24.7112 9.41671C24.9476 9.72074 24.88 10.1261 24.5761 10.3626C24.5761 10.3755 24.581 10.3835 24.5852 10.3903C24.592 10.4013 24.5969 10.4093 24.5761 10.4302C24.5592 10.447 24.5423 10.4555 24.5254 10.4639C24.5085 10.4724 24.4916 10.4808 24.4747 10.4977C24.4072 10.5315 24.3481 10.5653 24.289 10.5991C24.2299 10.6328 24.1708 10.6666 24.1032 10.7004L23.9006 10.8018C23.5629 11.0044 23.2589 11.2071 22.9549 11.4774C22.8874 11.5449 22.8536 11.6801 22.8536 11.7814L22.8536 11.8152L22.651 12.0179C23.1914 12.8624 23.5966 13.8083 23.833 14.788C24.0357 15.7676 24.1032 16.7811 23.9681 17.7608L24.2383 17.8283C24.2721 17.9297 24.3734 18.031 24.4747 18.0648C24.8463 18.1661 25.2515 18.2337 25.623 18.2675L25.6568 18.2675C25.7244 18.3013 25.7919 18.3013 25.8595 18.3013C25.9945 18.3013 26.1296 18.3013 26.2647 18.335C26.3323 18.335 26.3998 18.335 26.3998 18.3688ZM8.77669 11.7542L8.77011 11.7476L8.77011 11.7814C8.77305 11.7726 8.77522 11.7635 8.77669 11.7542ZM15.795 17.7945L16.7069 17.3554L16.9433 16.3757L16.3016 15.565L15.2884 15.565L14.6467 16.3757L14.8831 17.3554L15.795 17.7945ZM22.347 17.2878C22.4146 16.5784 22.3808 15.869 22.2119 15.1596C22.0431 14.4502 21.7729 13.7745 21.4014 13.1665L18.8684 15.4636C18.8008 15.5312 18.767 15.5987 18.7333 15.7001C18.6657 16.0041 18.8346 16.3081 19.1385 16.3757L22.347 17.2878ZM17.6187 13.8759L20.3882 11.9165C19.375 10.9031 18.0578 10.2612 16.5718 10.0923L16.7744 13.5043C16.7744 13.6056 16.8082 13.6732 16.8757 13.7407C17.0446 13.9772 17.3823 14.011 17.6187 13.8759ZM14.9506 10.0586L14.2752 10.1937C13.0931 10.4639 12.0124 11.072 11.1342 11.9165L13.9374 13.9097C13.9586 13.9167 13.9783 13.9238 13.9971 13.9305C14.0684 13.9561 14.1275 13.9772 14.2076 13.9772C14.5116 13.9772 14.7818 13.7407 14.7818 13.4367L14.9506 10.0586ZM12.654 15.396L10.1548 13.1665C9.4118 14.4164 9.07407 15.869 9.17539 17.2878L12.4514 16.3419C12.5865 16.3081 12.654 16.2744 12.7216 16.173C12.9242 15.9365 12.8905 15.5987 12.654 15.396ZM12.9242 18.3013L9.58067 18.8755C10.0535 20.2268 10.9992 21.4092 12.1812 22.1861L13.4646 19.0782C13.5322 18.9769 13.5322 18.8418 13.4984 18.7404C13.4646 18.4702 13.1944 18.3013 12.9242 18.3013ZM15.795 23.2334C16.3016 23.2334 16.7744 23.1658 17.2472 23.0645C17.4836 22.9969 17.6863 22.9631 17.8889 22.9293L16.2678 19.9903C16.1665 19.889 16.0989 19.8214 15.9976 19.7539C15.7612 19.6187 15.491 19.6863 15.3221 19.889L13.6673 22.8956C14.3427 23.0982 15.0857 23.2334 15.795 23.2334ZM19.3412 22.1524C20.1517 21.6456 20.861 20.9362 21.3676 20.1255C21.6378 19.7539 21.8404 19.3147 22.0093 18.8418L18.6319 18.2675C18.5306 18.2675 18.4293 18.3013 18.328 18.335C18.0916 18.4364 17.9565 18.7066 18.024 18.9769L19.3412 22.1524Z" fill="black"/>
</svg>
