<svg width="24" height="24" viewBox="0 0 24 24" fill="none" xmlns="http://www.w3.org/2000/svg">
<path d="M11.9745 12.5555C11.895 12.665 11.8275 12.755 11.763 12.8465L8.6625 17.2505C7.7025 18.6155 6.7395 19.9805 5.7765 21.3455C5.76023 21.3673 5.73951 21.3854 5.71572 21.3986C5.69193 21.4118 5.66561 21.4197 5.6385 21.422C4.2795 21.4115 2.919 21.3965 1.56 21.38C1.545 21.38 1.53 21.3755 1.5 21.371C1.51078 21.3437 1.5233 21.3172 1.5375 21.2915C4.25907 17.2175 6.98207 13.1445 9.7065 9.07249C9.8445 8.86549 9.9885 8.66299 10.119 8.45299C10.1521 8.39696 10.1618 8.33013 10.146 8.26699C9.8955 7.49449 9.639 6.72199 9.384 5.95249C9.2745 5.62249 9.159 5.29249 9.057 4.96249C9.024 4.85449 8.9685 4.82149 8.856 4.82299C8.001 4.82599 7.152 4.82449 6.3 4.82449C6.138 4.82449 6.138 4.82449 6.138 4.66999C6.138 3.65899 6.138 2.64949 6.135 1.63849C6.135 1.52599 6.174 1.50049 6.2835 1.50049C7.998 1.50349 9.7125 1.50349 11.4285 1.50049C11.4683 1.49522 11.5087 1.50425 11.5425 1.52599C11.5754 1.54723 11.5994 1.57978 11.61 1.61749C13.5687 6.37304 15.5287 11.128 17.49 15.8825C17.817 16.6775 18.147 17.471 18.471 18.2675C18.51 18.3635 18.5505 18.3815 18.651 18.3515C19.551 18.0845 20.451 17.8235 21.351 17.555C21.4635 17.5205 21.504 17.543 21.54 17.651C21.846 18.581 22.158 19.5095 22.47 20.438L22.5 20.5475C22.4355 20.57 22.3755 20.5955 22.314 20.612L16.1865 22.487C16.089 22.517 16.059 22.487 16.0275 22.406L14.1525 17.834L12.3135 13.358L12.039 12.6845C12.024 12.6455 12.0045 12.614 11.9745 12.5555Z" fill="black"/>
</svg>
