<svg width="72" height="72" viewBox="0 0 72 72" fill="none" xmlns="http://www.w3.org/2000/svg">
<path d="M46.6421 31.4089C46.1135 31.4089 45.6165 31.6109 45.2445 31.9779L43.7411 33.4569C43.3356 33.8559 43.1272 34.4099 43.1699 34.9779C43.1729 35.0089 43.176 35.0399 43.179 35.0719C43.2329 35.5079 43.4271 35.9009 43.7411 36.2089C43.9576 36.4219 44.1965 36.5569 44.4862 36.6509C44.5014 36.7369 44.5096 36.8239 44.5096 36.9109C44.5096 37.3029 44.3551 37.6709 44.0745 37.9469L43.982 38.0379C43.4799 37.8689 43.0611 37.6219 42.683 37.2499C42.1809 36.7559 41.8485 36.1319 41.7235 35.4469L41.7062 35.3519L41.6299 35.4129C41.5781 35.4539 41.5293 35.4979 41.4836 35.5429L39.9802 37.0219C39.2097 37.7799 39.2097 39.0149 39.9802 39.7729C40.3654 40.1519 40.8716 40.3419 41.3789 40.3419C41.8861 40.3419 42.3913 40.1519 42.7765 39.7729L44.2799 38.2939C45.0504 37.5359 45.0504 36.3019 44.2799 35.5429C44.0745 35.3409 43.8296 35.1889 43.5521 35.0909C43.5368 35.0019 43.5287 34.9129 43.5287 34.8259C43.5287 34.3999 43.6995 33.9959 44.0125 33.6879C44.5157 33.8569 44.9619 34.1309 45.339 34.5019C45.8401 34.9949 46.1715 35.6179 46.2985 36.3049L46.3158 36.3999L46.3921 36.3389C46.4439 36.2979 46.4927 36.2539 46.5395 36.2079L48.0428 34.7289C48.8133 33.9709 48.8143 32.7359 48.0428 31.9779C47.6698 31.6109 47.1737 31.4089 46.6442 31.4089H46.6421Z" fill="white" style="fill:white;fill-opacity:1;"/>
<path d="M45.8353 26H26.1647C20.5599 26 16 30.486 16 36C16 41.514 20.5599 46 26.1647 46H45.8353C51.4401 46 56 41.514 56 36C56 30.486 51.4401 26 45.8353 26ZM36.1332 41.678C35.8089 41.744 35.444 41.756 35.196 41.501C35.1045 41.708 34.891 41.599 34.7263 41.572C34.7111 41.614 34.6979 41.651 34.6837 41.693C34.1358 41.729 33.7251 41.179 33.4639 40.764C32.9455 40.488 32.357 40.32 31.8274 40.031C31.7969 40.507 31.9026 41.097 31.4421 41.404C31.4188 42.319 32.849 41.512 32.9801 42.194C32.8784 42.205 32.7656 42.178 32.6843 42.255C32.3112 42.612 31.8833 41.985 31.4533 42.244C30.876 42.53 30.818 42.764 30.1034 42.823C30.0638 42.764 30.0801 42.725 30.1136 42.689C30.3149 42.459 30.3291 42.188 30.6727 42.09C30.319 42.035 30.0232 42.227 29.7253 42.379C29.338 42.535 29.3411 42.027 28.7455 42.406C28.6794 42.353 28.7109 42.305 28.7485 42.264C28.9 42.082 29.0992 42.055 29.3239 42.065C28.2189 41.459 27.6985 42.806 27.1882 42.136C27.0348 42.176 26.9768 42.312 26.8803 42.408C26.7969 42.318 26.8599 42.209 26.864 42.103C26.7644 42.057 26.6383 42.035 26.6678 41.878C26.4726 41.813 26.3365 41.927 26.1911 42.035C26.06 41.935 26.2795 41.789 26.3202 41.685C26.4371 41.485 26.7034 41.644 26.8386 41.5C27.2228 41.285 27.7585 41.634 28.1976 41.575C28.5361 41.617 28.9548 41.275 28.7851 40.934C28.4233 40.479 28.4873 39.884 28.4791 39.34C28.4344 39.023 27.6609 38.619 27.4373 38.277C27.1608 37.969 26.9453 37.612 26.7298 37.261C25.9522 35.78 26.1972 33.877 25.2173 32.502C24.7741 32.743 24.1968 32.629 23.8146 32.306C23.6082 32.491 23.5991 32.733 23.5828 32.99C23.0878 32.503 23.1498 31.583 23.5452 31.041C23.7069 30.827 23.9 30.651 24.1155 30.496C24.1642 30.461 24.1805 30.427 24.1795 30.373C24.5708 28.641 27.2401 28.975 28.0837 30.202C28.6957 30.957 28.8807 31.956 29.5749 32.657C30.509 33.663 31.5733 34.549 32.4352 35.62C33.2504 36.599 33.8329 37.747 34.3411 38.904C34.5485 39.288 34.5505 39.759 34.8575 40.087C35.0089 40.285 35.7489 40.824 35.5883 41.015C35.6808 41.213 36.372 41.486 36.1321 41.678H36.1332ZM49.0971 35.77L47.5938 37.249C47.1933 37.643 46.6983 37.937 46.1616 38.098L46.1342 38.106L46.124 38.132C45.9492 38.586 45.6839 38.991 45.3342 39.334L43.8308 40.813C43.1752 41.458 42.3031 41.813 41.374 41.813C40.445 41.813 39.5728 41.458 38.9172 40.813C37.5623 39.48 37.5623 37.312 38.9172 35.979L40.4206 34.5C40.8231 34.104 41.3049 33.819 41.8508 33.654L41.8782 33.646L41.8884 33.62C42.0632 33.166 42.3295 32.76 42.6802 32.414L44.1835 30.935C44.8392 30.29 45.7113 29.935 46.6403 29.935C47.5694 29.935 48.4415 30.29 49.0971 30.935C49.7528 31.58 50.1136 32.438 50.1136 33.352C50.1136 34.266 49.7528 35.125 49.0971 35.769V35.77Z" fill="white" style="fill:white;fill-opacity:1;"/>
<path d="M30.019 39.8879C29.8869 40.394 29.8442 41.2549 29.1754 41.28C29.1205 41.572 29.3807 41.6819 29.6186 41.5879C29.8534 41.482 29.9651 41.672 30.0444 41.8609C30.4073 41.9129 30.944 41.7419 30.9644 41.319C30.4226 41.012 30.2548 40.428 30.02 39.887L30.019 39.8879Z" fill="white" style="fill:white;fill-opacity:1;"/>
</svg>
