<svg width="32" height="32" viewBox="0 0 32 32" fill="none" xmlns="http://www.w3.org/2000/svg">
<path d="M6.49063 16.8401C6.49063 18.4048 5.26682 19.6633 3.74532 19.6633C2.22382 19.6633 1 18.4048 1 16.8401C1 15.2755 2.22382 14.017 3.74532 14.017C5.26682 14.017 6.49063 15.2755 6.49063 16.8401ZM12.8743 14.017C11.3528 14.017 10.129 15.2755 10.129 16.8401C10.129 18.4048 11.3528 19.6633 12.8743 19.6633C14.3958 19.6633 15.6196 18.4048 15.6196 16.8401C15.6196 15.2755 14.3958 14.017 12.8743 14.017ZM22.0033 14.017C20.4818 14.017 19.258 15.2755 19.258 16.8401C19.258 18.4048 20.4818 19.6633 22.0033 19.6633C23.5248 19.6633 24.7486 18.4048 24.7486 16.8401C24.7486 15.2755 23.5083 14.017 22.0033 14.017ZM30.1566 9C29.6935 9 29.3131 9.39116 29.3131 9.86735L29.3131 23.1327C29.3131 23.6088 29.6935 24 30.1566 24C30.6196 24 31 23.6088 31 23.1327L31 9.86735C31 9.37415 30.6196 9 30.1566 9Z" fill="black"/>
</svg>
