<svg width="18" height="18" viewBox="0 0 18 18" fill="none" xmlns="http://www.w3.org/2000/svg">
<path fill-rule="evenodd" clip-rule="evenodd" d="M2.75 2.25C1.64543 2.25 0.75 3.14543 0.75 4.25V7.9248H5.12012L6.08594 5.02832L7.44531 5.17285L7.84277 8.75586L7.96094 8.40332L8.12012 7.9248H9.62012L10.5859 5.02832L11.9453 5.17285L12.251 7.9248H17.25V4.25C17.25 3.14543 16.3546 2.25 15.25 2.25H2.75ZM17.25 9.3252H13.3115L12.6836 12.1514L11.3047 12.0771L10.9062 8.49414L10.7891 8.84668L10.6299 9.3252H9.12988L8.16406 12.2217L6.80469 12.0771L6.40625 8.49414L6.28906 8.84668L6.12988 9.3252H0.75V12.25C0.75 13.3546 1.64543 14.25 2.75 14.25H15.25C16.3546 14.25 17.25 13.3546 17.25 12.25V9.3252Z" fill="black"/>
<line x1="4.5" y1="15.8" x2="13.5" y2="15.8" stroke="black" stroke-width="1.4"/>
</svg>
