<svg width="54" height="49" viewBox="0 0 54 49" fill="none" xmlns="http://www.w3.org/2000/svg">
<path d="M0.25 45.8612V18.9759V0.25H53.1978V18.9759V45.8612L26.7239 40.2464L0.25 45.8612Z" fill="white" stroke="black" stroke-width="0.5"/>
<path d="M3.37109 21.0566H50.0769" stroke="#DFDFDF" stroke-width="0.5"/>
<path d="M53.1978 48.0221L52.6299 47.903L26.8274 42.4903L26.724 42.4688L0.999817 47.8704L0.25 48.0279" stroke="#DFDFDF" stroke-width="0.5"/>
<path d="M22.229 4.67188H24.3205V4.88375H23.3998V7.28614H23.1497V4.88734H22.229V4.67188Z" fill="black"/>
<path d="M24.5669 4.67188H24.817V5.80664H26.3829V4.67188H26.633V7.28614H26.3829V6.0221H24.817V7.28614H24.5669V4.67188Z" fill="black"/>
<path d="M27.1696 4.67188H28.9929V4.88375H27.4234V5.82819H28.8914V6.04006H27.4197V7.07068H29.0074V7.28614H27.166V4.67188H27.1696Z" fill="black"/>
<path d="M22.229 13.7715H23.9036V13.9834H22.4827V14.9278H23.7441V15.1397H22.4791V16.3858H22.229V13.7715Z" fill="black"/>
<path d="M25.3172 13.7168C26.1436 13.7168 26.5569 14.3596 26.5569 15.0778C26.5569 15.796 26.1436 16.4388 25.3172 16.4388C24.4872 16.4388 24.0703 15.796 24.0703 15.0778C24.0703 14.3596 24.4835 13.7168 25.3172 13.7168ZM25.3172 16.2269C26.0132 16.2269 26.3067 15.6488 26.3067 15.0778C26.3067 14.5068 26.0095 13.9287 25.3172 13.9287C24.6176 13.9287 24.324 14.5068 24.324 15.0778C24.324 15.6488 24.6176 16.2269 25.3172 16.2269Z" fill="black"/>
<path d="M26.9233 13.7715H27.1734V15.391C27.1734 15.9943 27.4562 16.2277 27.9455 16.2277C28.4385 16.2277 28.7212 15.9943 28.7212 15.391V13.7715H28.9713V15.4449C28.9713 15.9836 28.6777 16.4396 27.9455 16.4396C27.2169 16.4396 26.9233 15.9836 26.9233 15.4449L26.9233 13.7715Z" fill="black"/>
<path d="M29.478 13.7715H29.7571L31.294 15.9836H31.3013V13.7715H31.5514V16.3858H31.2723L29.7354 14.1737H29.7281V16.3858H29.478V13.7715Z" fill="black"/>
<path d="M32.0845 13.7715H32.9979C33.7953 13.7894 34.2085 14.2132 34.2085 15.0786C34.2085 15.9441 33.7953 16.3678 32.9979 16.3858H32.0845V13.7715ZM32.3346 16.1739H32.871C33.6286 16.1739 33.9584 15.8615 33.9584 15.0786C33.9584 14.2958 33.6286 13.9834 32.871 13.9834H32.3346V16.1739Z" fill="black"/>
<path d="M35.3865 13.7715H35.6656L36.6986 16.3858H36.4304L36.1078 15.5742H34.908L34.589 16.3858H34.3208L35.3865 13.7715ZM34.9877 15.3623H36.0244L35.5133 14.0229L34.9877 15.3623Z" fill="black"/>
<path d="M36.4048 13.7715H38.4962V13.9834H37.5756V16.3858H37.3255V13.9834H36.4048V13.7715Z" fill="black"/>
<path d="M38.7651 13.7715H39.0152V16.3858H38.7651V13.7715Z" fill="black"/>
<path d="M40.6712 13.7168C41.4976 13.7168 41.9109 14.3596 41.9109 15.0778C41.9109 15.796 41.4976 16.4388 40.6712 16.4388C39.8412 16.4388 39.4243 15.796 39.4243 15.0778C39.4243 14.3596 39.8375 13.7168 40.6712 13.7168ZM40.6712 16.2269C41.3672 16.2269 41.6608 15.6488 41.6608 15.0778C41.6608 14.5068 41.3635 13.9287 40.6712 13.9287C39.9716 13.9287 39.678 14.5068 39.678 15.0778C39.678 15.6488 39.9716 16.2269 40.6712 16.2269Z" fill="black"/>
<path d="M42.2988 13.7715H42.5779L44.1148 15.9836H44.1221V13.7715H44.3722V16.3858H44.0931L42.5562 14.1737H42.5489V16.3858H42.2988V13.7715Z" fill="black"/>
<path d="M22.2292 8.06445H23.6827V11.5406H25.7705V12.74H22.2256V8.06445H22.2292Z" fill="black"/>
<path d="M26.7236 8.06445H28.1771V12.74H26.7236V8.06445Z" fill="black"/>
<path d="M29.2607 8.06445H30.7469L32.1206 10.5674H32.1351V8.06445H33.5089V12.74H32.0953L30.649 10.1868H30.6345V12.74H29.2607V8.06445Z" fill="black"/>
<path d="M38.8843 10.9337C38.8843 12.2372 38.1919 12.8513 36.7348 12.8513C35.2813 12.8513 34.5781 12.2372 34.5781 10.9337V8.06445H36.0316V10.6105C36.0316 11.0809 36.0244 11.6842 36.7384 11.6842C37.4271 11.6842 37.4271 11.0809 37.4271 10.6105V8.06445H38.8806V10.9337H38.8843Z" fill="black"/>
<path d="M41.1973 10.2514L39.6423 8.06445H41.3495L42.0636 9.33568L42.7631 8.06445H44.3761L42.8646 10.2658L44.5501 12.74H42.7994L41.9947 11.3467L41.161 12.74H39.4937L41.1973 10.2514Z" fill="black"/>
<path opacity="0.8" d="M10.6805 14.0327V9.33203H8.30273V16.3848H15.4253V14.0327H10.6805Z" fill="black"/>
<path d="M20.1664 4.62891H8.30273V8.1553H10.6769V6.9918H17.7958V14.0338H16.6105V16.3859H20.1664V4.62891Z" fill="black"/>
<path d="M16.9069 28.9305C16.9069 28.6586 16.8034 28.4309 16.5963 28.2473C16.3892 28.0638 16.022 27.9095 15.4947 27.7844C14.857 27.6336 14.3593 27.4115 14.0019 27.1181C13.6443 26.8248 13.4656 26.456 13.4656 26.0118C13.4656 25.5457 13.6582 25.1564 14.0433 24.8439C14.4284 24.5313 14.9274 24.375 15.5403 24.375C16.2001 24.375 16.7253 24.5542 17.116 24.9124C17.5066 25.2708 17.6951 25.6865 17.6813 26.1597L17.673 26.1843H16.8945C16.8945 25.8342 16.7778 25.5511 16.5445 25.3351C16.3112 25.119 15.9765 25.011 15.5403 25.011C15.1345 25.011 14.8232 25.1019 14.6065 25.2838C14.3897 25.4657 14.2814 25.703 14.2814 25.9956C14.2814 26.2554 14.3987 26.4722 14.6334 26.6459C14.868 26.8196 15.249 26.972 15.7763 27.1033C16.4113 27.2592 16.8945 27.489 17.2258 27.7925C17.557 28.0962 17.7227 28.4723 17.7227 28.9208C17.7227 29.4022 17.5239 29.7892 17.1264 30.0818C16.7288 30.3746 16.2097 30.5208 15.5693 30.5208C14.9674 30.5208 14.4353 30.3588 13.9729 30.0347C13.5104 29.7105 13.2861 29.2777 13.2999 28.7362L13.3082 28.7116H14.0868C14.0868 29.0945 14.2289 29.3858 14.5133 29.5855C14.7976 29.7851 15.1496 29.8849 15.5693 29.8849C15.9806 29.8849 16.3064 29.7993 16.5466 29.628C16.7868 29.4567 16.9069 29.2242 16.9069 28.9305Z" fill="black"/>
<path d="M19.7404 30.4344H18.9204V24.4609H19.7404V30.4344Z" fill="black"/>
<path d="M22.0278 29.7985H24.881V30.4344H21.2119V24.4609H22.0278V29.7985Z" fill="black"/>
<path d="M26.9584 28.9493L27.0951 29.4211H27.1199L27.2566 28.9493L28.8137 24.4609H29.6957L27.4554 30.4344H26.7555L24.5151 24.4609H25.4014L26.9584 28.9493Z" fill="black"/>
<path d="M34.2464 27.6651H31.4843V29.7985H34.6689V30.4344H30.6685V24.4609H34.6233V25.0968H31.4843V27.0292H34.2464V27.6651Z" fill="black"/>
<path d="M36.5117 27.8455V30.4342H35.6958V24.4648H37.8782C38.538 24.4648 39.0419 24.6098 39.3897 24.8997C39.7376 25.1897 39.9115 25.6109 39.9115 26.1633C39.9115 26.4697 39.8308 26.7364 39.6693 26.9634C39.5078 27.1904 39.2724 27.371 38.9632 27.5049C39.2945 27.6116 39.5326 27.7846 39.6775 28.0239C39.8225 28.2633 39.895 28.5593 39.895 28.9121V29.4742C39.895 29.6603 39.9157 29.827 39.9571 29.9747C39.9985 30.1224 40.0702 30.2428 40.1724 30.3358V30.4342H39.3317C39.2241 30.3413 39.1551 30.2045 39.1247 30.024C39.0943 29.8435 39.0792 29.6575 39.0792 29.466V28.9204C39.0792 28.5976 38.9839 28.3377 38.7934 28.1408C38.6029 27.9439 38.3475 27.8455 38.0273 27.8455H36.5117ZM36.5117 27.2095H37.7954C38.2564 27.2095 38.5884 27.1229 38.7913 26.9495C38.9942 26.7762 39.0957 26.5121 39.0957 26.1572C39.0957 25.8214 38.997 25.5614 38.7996 25.3772C38.6022 25.1929 38.2951 25.1007 37.8782 25.1007H36.5117V27.2095Z" fill="black"/>
<path d="M17.0007 32.9102L18.1483 35.8089H18.1631L19.3107 32.9102H19.934V36.4778H19.4468V35.0664L19.4962 33.6159L19.4839 33.6134L18.3165 36.4778H17.9925L16.83 33.6207L16.8177 33.6232L16.8647 35.0664V36.4778H16.3774V32.9102H17.0007Z" fill="black"/>
<path d="M22.964 34.8239H21.3144V36.098H23.2163V36.4778H20.8271V32.9102H23.1891V33.29H21.3144V34.4441H22.964V34.8239Z" fill="black"/>
<path d="M24.4109 32.9102L25.5585 35.8089H25.5733L26.7209 32.9102H27.3442V36.4778H26.8569V35.0664L26.9064 33.6159L26.894 33.6134L25.7267 36.4778H25.4026L24.2402 33.6207L24.2279 33.6232L24.2748 35.0664V36.4778H23.7876V32.9102H24.4109Z" fill="black"/>
<path d="M28.2368 36.4778V32.9102H29.4116C29.7875 32.9102 30.0819 32.9906 30.2946 33.1515C30.5073 33.3124 30.6136 33.5538 30.6136 33.8756C30.6136 34.0341 30.5625 34.1757 30.4603 34.3007C30.358 34.4257 30.2236 34.5184 30.0571 34.5788C30.2748 34.6245 30.4458 34.7299 30.5703 34.8949C30.6948 35.0599 30.7571 35.2518 30.7571 35.4707C30.7571 35.7974 30.6503 36.047 30.4368 36.2193C30.2232 36.3916 29.9335 36.4778 29.5674 36.4778H28.2368ZM28.7241 34.4269H29.513C29.6944 34.4269 29.8419 34.3775 29.9557 34.2787C30.0695 34.1799 30.1264 34.0422 30.1264 33.8658C30.1264 33.6731 30.0649 33.5289 29.9421 33.4333C29.8193 33.3378 29.6425 33.29 29.4116 33.29H28.7241V34.4269ZM28.7241 34.8067V36.098H29.5674C29.7884 36.098 29.9607 36.0439 30.0843 35.9357C30.208 35.8275 30.2698 35.6741 30.2698 35.4755C30.2698 35.2673 30.2183 35.1037 30.1153 34.9849C30.0122 34.8661 29.8535 34.8067 29.6391 34.8067H28.7241Z" fill="black"/>
<path d="M33.6115 34.8239H31.9619V36.098H33.8638V36.4778H31.4746V32.9102H33.8366V33.29H31.9619V34.4441H33.6115V34.8239Z" fill="black"/>
<path d="M34.9223 34.9312V36.4773H34.4351V32.9121H35.7385C36.1325 32.9121 36.4334 32.9987 36.6412 33.1718C36.8489 33.345 36.9528 33.5966 36.9528 33.9265C36.9528 34.1095 36.9046 34.2688 36.8082 34.4043C36.7117 34.5399 36.5711 34.6477 36.3864 34.7278C36.5843 34.7915 36.7266 34.8948 36.8131 35.0377C36.8997 35.1807 36.9429 35.3575 36.9429 35.5682V35.9039C36.9429 36.015 36.9553 36.1146 36.98 36.2028C37.0048 36.291 37.0476 36.363 37.1086 36.4184V36.4773H36.6066C36.5423 36.4218 36.5011 36.3401 36.4829 36.2323C36.4647 36.1244 36.4557 36.0134 36.4557 35.899V35.5731C36.4557 35.3804 36.3988 35.2252 36.2851 35.1076C36.1713 34.99 36.0187 34.9312 35.8275 34.9312H34.9223ZM34.9223 34.5513H35.689C35.9643 34.5513 36.1626 34.4996 36.2838 34.3961C36.405 34.2925 36.4656 34.1348 36.4656 33.9228C36.4656 33.7223 36.4067 33.5671 36.2888 33.457C36.1709 33.3469 35.9874 33.2919 35.7385 33.2919H34.9223V34.5513Z" fill="black"/>
</svg>
