<svg width="170" height="50" viewBox="0 0 170 50" fill="none" xmlns="http://www.w3.org/2000/svg">
  <!-- Shield Icon -->
  <path d="M 24 5 C 33.5 8 39 12 39 12 C 39 25 32 37 24 43 C 16 37 9 25 9 12 C 9 12 14.5 8 24 5 Z" fill="black" />
  <path d="M 24 11 C 28.5 13 32 16 32 16 C 32 23.5 28 31 24 35.5 C 20 31 16 23.5 16 16 C 16 16 19.5 13 24 11 Z" fill="white" />
  <path d="M 24 15 C 21.5 16 20 18.5 20 20.5 C 20 22.5 22 23.5 24 24.5 C 26 25.5 28 26.5 28 28.5 C 28 31 25.5 32 24 32 C 21.5 32 20 30 20 30 L 18 32 C 18 32 20.5 34.5 24 34.5 C 27.5 34.5 30.5 32.5 30.5 28.5 C 30.5 24.5 27 23.5 25 22.5 C 23 21.5 21.8 21 21.8 19.8 C 21.8 18.5 23 17.5 24 17.5 C 25.5 17.5 26.8 18.5 26.8 18.5 L 28.5 16.5 C 28.5 16.5 26.8 15 24 15 Z" fill="black" />
  
  <!-- Text "snapsec" -->
  <text x="52" y="32" font-family="'Space Grotesk', 'Inter', sans-serif" font-weight="800" font-size="22" fill="black" letter-spacing="-0.02em">snapsec</text>
  <text x="133" y="32" font-family="'Space Grotesk', 'Inter', sans-serif" font-weight="800" font-size="22" fill="#004DFF" letter-spacing="-0.02em">.</text>
</svg>
