<svg width="72" height="72" viewBox="0 0 72 72" fill="none" xmlns="http://www.w3.org/2000/svg">
<path fill-rule="evenodd" clip-rule="evenodd" d="M40.9161 23.2035C40.2719 22.5765 39.4085 22.2257 38.5095 22.2257C37.6105 22.2257 36.7471 22.5765 36.1029 23.2035L23.2683 35.79C23.0535 35.9988 22.7658 36.1155 22.4663 36.1155C22.1668 36.1155 21.8791 35.9988 21.6643 35.79C21.5592 35.6877 21.4756 35.5654 21.4185 35.4303C21.3614 35.2952 21.332 35.15 21.332 35.0033C21.332 34.8567 21.3614 34.7115 21.4185 34.5764C21.4756 34.4412 21.5592 34.3189 21.6643 34.2167L34.4989 21.6301C35.5725 20.5853 37.0114 20.0007 38.5095 20.0007C40.0076 20.0007 41.4465 20.5853 42.5201 21.6301C43.1413 22.2343 43.6107 22.9769 43.8897 23.7973C44.1687 24.6177 44.2495 25.4925 44.1254 26.3501C44.9944 26.2265 45.8802 26.3041 46.7145 26.5769C47.5488 26.8496 48.3093 27.3103 48.9374 27.9234L49.0041 27.9901C49.5298 28.5014 49.9477 29.1129 50.2331 29.7885C50.5185 30.4641 50.6655 31.19 50.6655 31.9234C50.6655 32.6568 50.5185 33.3827 50.2331 34.0583C49.9477 34.7339 49.5298 35.3454 49.0041 35.8567L37.3962 47.2392C37.3611 47.2733 37.3333 47.314 37.3143 47.359C37.2952 47.404 37.2854 47.4524 37.2854 47.5012C37.2854 47.5501 37.2952 47.5984 37.3143 47.6434C37.3333 47.6885 37.3611 47.7292 37.3962 47.7632L39.7802 50.1019C39.8853 50.2041 39.9689 50.3264 40.026 50.4616C40.083 50.5967 40.1124 50.7419 40.1124 50.8885C40.1124 51.0352 40.083 51.1804 40.026 51.3155C39.9689 51.4506 39.8853 51.5729 39.7802 51.6752C39.5654 51.8839 39.2777 52.0007 38.9782 52.0007C38.6786 52.0007 38.3909 51.8839 38.1762 51.6752L35.7922 49.3379C35.5466 49.0993 35.3515 48.8139 35.2182 48.4985C35.0849 48.1832 35.0162 47.8443 35.0162 47.5019C35.0162 47.1595 35.0849 46.8206 35.2182 46.5053C35.3515 46.1899 35.5466 45.9045 35.7922 45.6659L47.4001 34.282C47.7154 33.9751 47.966 33.6082 48.1371 33.2029C48.3082 32.7975 48.3964 32.362 48.3964 31.922C48.3964 31.4821 48.3082 31.0465 48.1371 30.6412C47.966 30.2359 47.7154 29.8689 47.4001 29.5621L47.3334 29.4967C46.6899 28.8704 45.8276 28.5196 44.9296 28.5189C44.0316 28.5181 43.1687 28.8675 42.5241 29.4927L32.9615 38.8713L32.9589 38.874L32.8282 39.0033C32.6134 39.2125 32.3254 39.3295 32.0256 39.3295C31.7257 39.3295 31.4377 39.2125 31.2229 39.0033C31.1177 38.901 31.0342 38.7787 30.9771 38.6436C30.92 38.5085 30.8906 38.3633 30.8906 38.2166C30.8906 38.07 30.92 37.9248 30.9771 37.7897C31.0342 37.6546 31.1177 37.5322 31.2229 37.43L40.9201 27.9194C41.2346 27.6123 41.4843 27.2454 41.6547 26.8403C41.8251 26.4352 41.9127 26.0001 41.9124 25.5606C41.912 25.1211 41.8237 24.6861 41.6526 24.2813C41.4815 23.8765 41.2311 23.51 40.9161 23.2035Z" fill="white" style="fill:white;fill-opacity:1;"/>
<path fill-rule="evenodd" clip-rule="evenodd" d="M39.3122 26.3501C39.4173 26.2478 39.5009 26.1255 39.558 25.9904C39.615 25.8553 39.6444 25.7101 39.6444 25.5634C39.6444 25.4168 39.615 25.2716 39.558 25.1365C39.5009 25.0013 39.4173 24.879 39.3122 24.7768C39.0973 24.5676 38.8093 24.4506 38.5095 24.4506C38.2097 24.4506 37.9217 24.5676 37.7068 24.7768L28.2149 34.086C27.6892 34.5973 27.2713 35.2088 26.9859 35.8844C26.7005 36.56 26.5535 37.2859 26.5535 38.0193C26.5535 38.7527 26.7005 39.4786 26.9859 40.1542C27.2713 40.8298 27.6892 41.4413 28.2149 41.9526C29.2887 42.9971 30.7276 43.5815 32.2256 43.5815C33.7235 43.5815 35.1624 42.9971 36.2362 41.9526L45.7294 32.6434C45.8346 32.5411 45.9182 32.4188 45.9752 32.2837C46.0323 32.1486 46.0617 32.0034 46.0617 31.8567C46.0617 31.71 46.0323 31.5648 45.9752 31.4297C45.9182 31.2946 45.8346 31.1723 45.7294 31.07C45.5146 30.8609 45.2266 30.7439 44.9268 30.7439C44.6269 30.7439 44.3389 30.8609 44.1241 31.07L34.6322 40.3793C33.988 41.0063 33.1245 41.3571 32.2256 41.3571C31.3266 41.3571 30.4631 41.0063 29.8189 40.3793C29.5036 40.0724 29.253 39.7055 29.0819 39.3001C28.9108 38.8948 28.8226 38.4593 28.8226 38.0193C28.8226 37.5793 28.9108 37.1438 29.0819 36.7385C29.253 36.3332 29.5036 35.9662 29.8189 35.6593L39.3122 26.3501Z" fill="white" style="fill:white;fill-opacity:1;"/>
</svg>
