<svg width="152" height="40" viewBox="0 0 152 40" fill="none" xmlns="http://www.w3.org/2000/svg">
<g clip-path="url(#clip0_14824_64882)">
<path fill-rule="evenodd" clip-rule="evenodd" d="M20.3887 4.44434C18.9059 4.44434 17.4462 4.76914 16.4152 5.18673C15.3842 4.76914 13.9245 4.44434 12.4417 4.44434C5.90809 4.44434 0 10.6387 0 19.1299C0 28.3867 7.55308 35.5554 16.4152 35.5554C25.2773 35.5554 32.8304 28.3983 32.8304 19.1299C32.8304 10.6387 26.9223 4.44434 20.3887 4.44434ZM16.4152 9.49032C17.6779 10.2443 19.3345 12.4135 19.3345 14.8727C19.3345 16.6707 18.1529 18.0859 16.4152 18.0859C14.6775 18.0859 13.4959 16.6707 13.4959 14.8727C13.4843 12.4135 15.1525 10.2443 16.4152 9.49032ZM16.4152 31.5071C9.63829 31.5071 4.0314 26.0435 4.0314 19.0487C4.0314 12.6571 8.64202 8.29552 12.2564 8.45792C10.5419 10.1631 9.49928 12.6571 9.49928 15.0699C9.49928 19.2227 12.7893 22.1343 16.4152 22.1343C20.0412 22.1343 23.3312 19.2227 23.3312 15.0699C23.3312 12.6571 22.2885 10.1631 20.574 8.45792C24.1884 8.29552 28.799 12.6571 28.799 19.0487C28.799 26.0551 23.1921 31.5071 16.4152 31.5071Z" fill="black"/>
<path d="M56.4746 11.5317V14.9189C56.4746 14.9189 61.259 14.9189 61.6297 14.9189C61.6297 15.2901 61.6297 27.6209 61.6297 27.6209H65.2788C65.2788 27.6209 65.2788 15.3017 65.2788 14.9189C65.6379 14.9189 70.4339 14.9189 70.4339 14.9189V11.5317H56.4746Z" fill="black"/>
<path d="M116.518 11.5317H107.331V14.9421H116.274C117.584 14.9421 118.093 15.5453 118.093 17.0765C118.093 17.0881 118.093 17.5173 118.093 17.6449C117.723 17.6449 110.679 17.6449 110.679 17.6449C107.864 17.6449 106.462 19.0601 106.462 22.2501V23.0041C106.462 26.2869 107.91 27.5977 110.841 27.5977H121.708V17.0301C121.719 12.9933 120.375 11.5317 116.518 11.5317ZM111.224 24.1757C110.668 24.1757 110.054 23.8973 110.054 22.5169C110.054 21.1365 110.668 20.8929 111.224 20.8929C111.224 20.8929 117.734 20.8929 118.105 20.8929V24.1757C117.734 24.1757 111.224 24.1757 111.224 24.1757Z" fill="black"/>
<path d="M146.811 11.532H137.624V14.9424H146.567C147.876 14.9424 148.386 15.5456 148.386 17.0768C148.386 17.0884 148.386 17.5176 148.386 17.6452C148.015 17.6452 140.972 17.6452 140.972 17.6452C138.157 17.6452 136.755 19.0604 136.755 22.2503V23.0043C136.755 26.2871 138.203 27.5979 141.134 27.5979H152.001V17.0304C152.001 12.9936 150.668 11.532 146.811 11.532ZM141.517 24.1759C140.961 24.1759 140.347 23.8975 140.347 22.5171C140.347 21.1368 140.961 20.8932 141.517 20.8932C141.517 20.8932 148.027 20.8932 148.398 20.8932V24.1759C148.027 24.1759 141.517 24.1759 141.517 24.1759Z" fill="black"/>
<path d="M71.5815 11.532V14.9192C71.5815 14.9192 76.3775 14.9192 76.7366 14.9192C76.7366 15.2904 76.7366 27.6211 76.7366 27.6211H80.3857C80.3857 27.6211 80.3857 15.302 80.3857 14.9192C80.7449 14.9192 85.5408 14.9192 85.5408 14.9192V11.532H71.5815Z" fill="black"/>
<path d="M122.448 11.532V14.9192C122.448 14.9192 127.233 14.9192 127.603 14.9192C127.603 15.2904 127.603 27.6211 127.603 27.6211H131.252C131.252 27.6211 131.252 15.302 131.252 14.9192C131.612 14.9192 136.408 14.9192 136.408 14.9192V11.532H122.448Z" fill="black"/>
<path d="M105.06 21.9836V17.1696C105.06 12.9588 103.427 11.532 99.7428 11.532H89.9771V27.6095H99.9165C103.821 27.6095 105.06 25.6723 105.06 21.9836ZM101.33 22.0532C101.33 23.5959 100.809 24.1875 99.4995 24.1875C99.4995 24.1875 93.9853 24.1875 93.6262 24.1875V14.954C93.9853 14.954 99.4995 14.954 99.4995 14.954C100.809 14.954 101.33 15.5572 101.33 17.0884C101.33 17.1116 101.33 22.0532 101.33 22.0532Z" fill="black"/>
<path d="M51.3314 23.7815C51.2503 23.6307 46.3733 14.1187 45.7825 13.1907C45.099 12.1119 44.2533 11.3579 42.6547 11.3579C41.1603 11.3579 39.3994 12.0191 39.3994 15.6035V27.6327H43.0022C43.0022 27.6327 43.0022 18.3295 43.0022 17.5987C43.0022 16.8795 42.9559 15.8123 42.9443 15.6035C42.9327 15.4295 42.9443 15.2555 43.0369 15.2091C43.1412 15.1511 43.2455 15.2439 43.315 15.3831C43.3845 15.5223 47.9024 24.4659 48.8639 25.9739C49.5474 27.0527 50.3931 27.8067 51.9917 27.8067C53.4746 27.8067 55.247 27.1455 55.247 23.5611V11.5319H51.6558C51.6558 11.5319 51.6558 20.8351 51.6558 21.5659C51.6558 22.2851 51.7021 23.3523 51.7137 23.5727C51.7253 23.7467 51.7137 23.9207 51.621 23.9671C51.5052 24.0135 51.4009 23.9207 51.3314 23.7815Z" fill="black"/>
</g>
<defs>
<clipPath id="clip0_14824_64882">
<rect width="152" height="40" fill="white"/>
</clipPath>
</defs>
</svg>
