<svg width="61" height="20" viewBox="0 0 61 20" fill="none" xmlns="http://www.w3.org/2000/svg">
<g clip-path="url(#clip0_21045_21182)">
<path d="M54.9846 13.1504C53.2901 13.1504 52.0957 11.8282 52.0957 10.0893C52.0957 8.35043 53.2901 7.02821 54.9846 7.02821C56.679 7.02821 57.8401 8.35043 57.8401 10.0893C57.8401 11.8282 56.6623 13.1504 54.9846 13.1504ZM54.7123 14.9727C56.079 14.9727 57.2401 14.4393 57.9734 13.3227C58.1123 14.406 58.8957 14.8004 59.8846 14.8004H60.6734V13.0838H60.3345C59.7734 13.0838 59.6345 12.8115 59.6345 12.1727V5.38377H57.8234V6.77821C57.2068 5.80043 56.0457 5.21154 54.7123 5.21154C52.3346 5.21154 50.1512 7.20599 50.1512 10.0893C50.1512 12.9727 52.3401 14.9671 54.7123 14.9671V14.9727ZM45.3846 12.6171C45.3846 14.1615 46.3401 14.8004 47.4846 14.8004H49.6901V13.0838H48.0846C47.4179 13.0838 47.279 12.8282 47.279 12.1727V7.10043H49.6901V5.38377H47.279V2.22266L45.3846 2.22266V12.6171ZM36.7568 14.8004H38.6512V10.7615H39.2845L42.5123 14.8004H44.9068L40.7901 9.67821L43.9512 5.38377H41.8179L39.2346 9.01154H38.6512V2.22266L36.7568 2.22266V14.8004ZM30.6068 5.21154C27.9568 5.21154 25.7734 7.20599 25.7734 10.0893C25.7734 12.9727 27.9623 14.9671 30.6068 14.9671C33.2512 14.9671 35.4401 12.9727 35.4401 10.0893C35.4401 7.20599 33.2512 5.21154 30.6068 5.21154ZM30.6068 13.1504C28.9123 13.1504 27.7179 11.8282 27.7179 10.0893C27.7179 8.35043 28.9123 7.02821 30.6068 7.02821C32.3012 7.02821 33.4957 8.35043 33.4957 10.0893C33.4957 11.8282 32.3012 13.1504 30.6068 13.1504Z" fill="#191919"/>
<path fill-rule="evenodd" clip-rule="evenodd" d="M10.9999 0.144016L10.5888 5.21068C10.3943 5.18846 10.1999 5.17735 9.99989 5.17735C9.74989 5.17735 9.50545 5.19402 9.26656 5.2329L9.03323 2.77735C9.02767 2.69957 9.08878 2.6329 9.16656 2.6329H9.58323L9.38323 0.149571C9.37767 0.0717936 9.43878 0.00512695 9.51101 0.00512695L10.8721 0.00512695C10.9499 0.00512695 11.011 0.0717936 10.9999 0.149571V0.144016ZM7.56656 0.394016C7.54434 0.321794 7.46656 0.277349 7.39434 0.305127L6.11656 0.771794C6.04434 0.799571 6.011 0.882905 6.04434 0.949571L7.08323 3.21624L6.68878 3.36068C6.61656 3.38846 6.58323 3.47179 6.61656 3.53846L7.67767 5.76624C8.061 5.55513 8.47767 5.39402 8.91656 5.29402L7.57212 0.394016H7.56656ZM4.43323 1.80513L7.37212 5.94957C6.99989 6.19402 6.661 6.48291 6.37212 6.81624L4.611 5.0829C4.55545 5.02735 4.561 4.93846 4.61656 4.88846L4.93878 4.62179L3.18878 2.84957C3.13323 2.79402 3.13878 2.70513 3.19989 2.65513L4.23878 1.7829C4.29989 1.7329 4.38323 1.74402 4.42767 1.80513H4.43323ZM1.96656 4.20513C1.90545 4.16068 1.81656 4.1829 1.77767 4.24957L1.09989 5.42735C1.061 5.49402 1.08878 5.57735 1.15545 5.61068L3.411 6.67735L3.19989 7.03846C3.161 7.10513 3.18878 7.19402 3.261 7.22179L5.50545 8.24957C5.66656 7.83291 5.88323 7.44402 6.14989 7.09402L1.96656 4.20513ZM0.305447 7.40513C0.316559 7.32735 0.394336 7.28291 0.466559 7.29957L5.38323 8.5829C5.25545 8.99957 5.18323 9.43846 5.17211 9.89402L2.711 9.69402C2.63323 9.68846 2.57767 9.61624 2.59434 9.53846L2.66656 9.12735L0.183225 8.89402C0.105447 8.88846 0.0554474 8.81624 0.0665585 8.73846L0.299892 7.39957L0.305447 7.40513ZM0.122114 10.7273C0.0443363 10.7329 -0.00566369 10.8051 0.00544743 10.8829L0.244336 12.2218C0.255447 12.2996 0.333225 12.344 0.405448 12.3273L2.81656 11.6996L2.88878 12.1107C2.89989 12.1885 2.97767 12.2329 3.04989 12.2162L5.42767 11.5607C5.28878 11.1496 5.19989 10.7107 5.17767 10.2607L0.116559 10.7273H0.122114ZM0.911003 14.2496C0.872114 14.1829 0.899892 14.0996 0.966559 14.0662L5.55545 11.8885C5.72767 12.2996 5.961 12.6829 6.23878 13.0274L4.22767 14.4607C4.16656 14.5051 4.07767 14.4885 4.03878 14.4218L3.82767 14.0551L1.77767 15.4718C1.71656 15.5162 1.62767 15.494 1.58878 15.4274L0.905448 14.2496H0.911003ZM6.47212 13.294L2.89989 16.9107C2.84434 16.9662 2.84989 17.0551 2.911 17.1051L3.95545 17.9774C4.01656 18.0274 4.09989 18.0162 4.14434 17.9551L5.58878 15.9218L5.911 16.194C5.97212 16.244 6.061 16.2329 6.10545 16.1662L7.50545 14.1329C7.12767 13.8996 6.77767 13.6162 6.47767 13.294H6.47212ZM5.76656 19.0996C5.69434 19.0718 5.661 18.9885 5.69434 18.9218L7.811 14.2996C8.19989 14.4996 8.62212 14.6496 9.061 14.7329L8.43878 17.1218C8.42212 17.194 8.33878 17.2385 8.26656 17.2107L7.87212 17.0662L7.211 19.4718C7.18878 19.544 7.111 19.5885 7.03878 19.5607L5.761 19.094L5.76656 19.0996ZM9.41101 14.794L8.99989 19.8607C8.99434 19.9385 9.05545 20.0051 9.12767 20.0051H10.4888C10.5666 20.0051 10.6277 19.9385 10.6166 19.8607L10.4166 17.3773H10.8332C10.911 17.3773 10.9721 17.3107 10.9666 17.2329L10.7332 14.7774C10.4943 14.8162 10.2499 14.8329 9.99989 14.8329C9.79989 14.8329 9.60545 14.8218 9.41101 14.794ZM14.311 1.07735C14.3443 1.00513 14.311 0.927349 14.2388 0.899571L12.961 0.432905C12.8888 0.405127 12.811 0.449571 12.7888 0.521794L12.1277 2.92735L11.7332 2.7829C11.661 2.75513 11.5832 2.79957 11.561 2.87179L10.9388 5.26068C11.3832 5.34957 11.7999 5.49957 12.1888 5.69402L14.311 1.07735ZM17.0999 3.09402L13.5277 6.71068C13.2277 6.38846 12.8832 6.10513 12.4999 5.87179L13.8999 3.83846C13.9443 3.77735 14.0332 3.76068 14.0943 3.81068L14.4166 4.0829L15.861 2.04957C15.9054 1.98846 15.9943 1.97735 16.0499 2.02735L17.0943 2.89957C17.1555 2.94957 17.1555 3.03846 17.1055 3.09402H17.0999ZM19.0332 5.93846C19.1054 5.90513 19.1277 5.82179 19.0888 5.75513L18.4055 4.57735C18.3666 4.51068 18.2777 4.49402 18.2166 4.5329L16.1666 5.94957L15.9555 5.58846C15.9166 5.52179 15.8277 5.49957 15.7666 5.54957L13.7555 6.9829C14.0332 7.32735 14.261 7.71068 14.4388 8.12179L19.0277 5.94402L19.0332 5.93846ZM19.7555 7.78291L19.9888 9.12179C19.9999 9.19957 19.9499 9.26624 19.8721 9.27735L14.811 9.74957C14.7888 9.29402 14.6999 8.86068 14.561 8.44957L16.9388 7.79402C17.011 7.77179 17.0888 7.82179 17.0999 7.89957L17.1721 8.31068L19.5832 7.6829C19.6555 7.66624 19.7332 7.71068 19.7443 7.78846L19.7555 7.78291ZM19.5277 12.6996C19.5999 12.7162 19.6777 12.6718 19.6888 12.594L19.9221 11.2551C19.9332 11.1774 19.8832 11.1107 19.8055 11.0996L17.3221 10.8662L17.3943 10.4551C17.4055 10.3773 17.3555 10.3107 17.2777 10.2996L14.8166 10.0996C14.8055 10.5551 14.7332 10.994 14.6055 11.4107L19.5221 12.694L19.5277 12.6996ZM18.2166 15.7551C18.1777 15.8218 18.0888 15.8385 18.0277 15.7996L13.8443 12.9107C14.111 12.5607 14.3277 12.1718 14.4888 11.7551L16.7332 12.7829C16.8055 12.8162 16.8332 12.8996 16.7943 12.9662L16.5832 13.3273L18.8388 14.394C18.9055 14.4274 18.9332 14.5107 18.8943 14.5773L18.2166 15.7551ZM12.6221 14.0496L15.561 18.194C15.6055 18.2551 15.6943 18.2662 15.7499 18.2162L16.7888 17.344C16.8499 17.294 16.8499 17.2051 16.7999 17.1496L15.0499 15.3773L15.3721 15.1107C15.4332 15.0607 15.4332 14.9718 15.3777 14.9162L13.6166 13.1829C13.3221 13.5162 12.9888 13.8107 12.6166 14.0496H12.6221ZM12.5943 19.694C12.5221 19.7218 12.4443 19.6774 12.4221 19.6051L11.0777 14.7051C11.5166 14.6051 11.9332 14.444 12.3166 14.2329L13.3777 16.4607C13.411 16.5329 13.3777 16.6162 13.3055 16.6385L12.911 16.7829L13.9499 19.0496C13.9832 19.1218 13.9499 19.1996 13.8777 19.2274L12.5999 19.694H12.5943Z" fill="#191919"/>
</g>
<defs>
<clipPath id="clip0_21045_21182">
<rect width="60.6722" height="20" fill="white"/>
</clipPath>
</defs>
</svg>
