<svg width="72" height="72" viewBox="0 0 72 72" fill="none" xmlns="http://www.w3.org/2000/svg">
<g clip-path="url(#clip0_1_332)">
<path fill-rule="evenodd" clip-rule="evenodd" d="M37.8032 18.3068L37.0649 27.399C36.7155 27.3569 36.3615 27.3342 36 27.3342C35.5508 27.3342 35.1091 27.3674 34.6779 27.4338L34.2574 23.0249C34.2438 22.8876 34.3542 22.767 34.4934 22.7685H35.2482L34.8837 18.3068C34.8716 18.1695 34.9805 18.0519 35.1182 18.0519H37.5657C37.7033 18.0519 37.8107 18.1695 37.8001 18.3068H37.8032ZM31.6254 18.7578C31.5891 18.625 31.4469 18.5526 31.3167 18.5994L29.016 19.435C28.8859 19.4818 28.8254 19.6296 28.8829 19.7548L30.754 23.8228L30.0431 24.0792C29.913 24.126 29.8495 24.2753 29.91 24.402L31.8159 28.4022C32.5072 28.022 33.256 27.7369 34.0472 27.556L31.6254 18.7578ZM25.977 21.2903L31.2714 28.728C30.5997 29.1638 29.9931 29.6887 29.4668 30.2875L26.3007 27.1774C26.2009 27.0793 26.2085 26.9179 26.3144 26.829L26.8937 26.3463L23.7413 23.1621C23.6445 23.0641 23.6521 22.9057 23.7579 22.8167L25.6321 21.2466C25.738 21.1576 25.8969 21.1787 25.977 21.2903ZM21.5358 25.5966C21.4224 25.5197 21.2666 25.5544 21.197 25.672L19.9732 27.7867C19.9036 27.9059 19.952 28.0583 20.0761 28.1171L24.1316 30.0342L23.7519 30.6858C23.6823 30.8064 23.7307 30.9603 23.8578 31.0176L27.8981 32.8593C28.1916 32.1096 28.5819 31.4112 29.0599 30.7808L21.5358 25.5966ZM18.5483 31.3434C18.5725 31.2077 18.7056 31.1217 18.8402 31.1563L27.6894 33.4611C27.461 34.2062 27.3324 34.9951 27.3142 35.8111L22.8836 35.4566C22.7444 35.4461 22.6461 35.3178 22.6703 35.1806L22.8034 34.44L18.3365 34.0222C18.1989 34.0086 18.102 33.882 18.1262 33.7462L18.5498 31.3419L18.5483 31.3434ZM18.214 37.3029C18.0763 37.3164 17.9795 37.4431 18.0037 37.5789L18.4288 39.9832C18.453 40.119 18.5876 40.2049 18.7207 40.1702L23.0621 39.039L23.1922 39.7795C23.2164 39.9168 23.354 40.0028 23.4872 39.9651L27.7695 38.7856C27.5169 38.0449 27.3611 37.2621 27.3203 36.4476L18.214 37.3029ZM19.6298 43.6213C19.5603 43.5022 19.6087 43.3498 19.7327 43.291L27.995 39.3844C28.3095 40.1235 28.7256 40.8097 29.2233 41.4252L25.6019 43.9938C25.4884 44.0754 25.3296 44.0391 25.2615 43.92L24.8849 43.2668L21.1939 45.8114C21.0805 45.8898 20.9247 45.8551 20.8551 45.736L19.6298 43.6213ZM29.6408 41.9078L23.2134 48.3997C23.1166 48.4978 23.1241 48.6562 23.23 48.7452L25.1057 50.3138C25.2116 50.4028 25.3705 50.3817 25.4506 50.2701L28.0464 46.6199L28.6242 47.1056C28.7301 47.1946 28.892 47.1735 28.9707 47.0588L31.4907 43.4131C30.807 42.9969 30.1853 42.4885 29.6408 41.9078ZM28.3716 52.3305C28.2415 52.2837 28.181 52.1359 28.2385 52.0107L32.0505 43.7178C32.7523 44.0754 33.5086 44.3423 34.3043 44.4991L33.1864 48.7859C33.1516 48.9201 33.008 48.9955 32.8779 48.9473L32.1684 48.6878L30.9795 53.0032C30.9431 53.136 30.8009 53.2083 30.6709 53.1616L28.3701 52.3275L28.3716 52.3305ZM34.9366 44.6002L34.1985 53.694C34.1878 53.8313 34.2952 53.949 34.4329 53.949H36.8804C37.018 53.949 37.127 53.8313 37.1149 53.694L36.7503 49.2338H37.5051C37.6443 49.2354 37.7532 49.1162 37.7411 48.9774L37.3206 44.5686C36.8895 44.6334 36.4478 44.6681 35.9985 44.6681C35.6385 44.6681 35.2845 44.644 34.9351 44.6017L34.9366 44.6002ZM43.7631 19.9886C43.8206 19.8634 43.7585 19.7171 43.6299 19.6688L41.3292 18.8347C41.2006 18.788 41.0569 18.8604 41.0206 18.9931L39.8316 23.3085L39.1222 23.049C38.9921 23.0008 38.8484 23.0762 38.8136 23.2104L37.6958 27.4971C38.4914 27.654 39.2477 27.921 39.9496 28.2785L43.7631 19.9871V19.9886ZM48.7867 23.6026L42.3593 30.0945C41.8162 29.5122 41.1945 29.004 40.5093 28.5876L43.0294 24.942C43.1081 24.8289 43.2699 24.8062 43.3758 24.8967L43.9537 25.3824L46.5495 21.7322C46.6296 21.6206 46.7884 21.5995 46.8943 21.6885L48.7701 23.2572C48.8759 23.3462 48.8835 23.5061 48.7867 23.6026ZM52.2674 28.7113C52.3929 28.6525 52.4397 28.5002 52.3702 28.381L51.1449 26.2663C51.0753 26.1472 50.9195 26.1125 50.8061 26.1909L47.1152 28.7355L46.7385 28.0824C46.6689 27.9617 46.5101 27.927 46.3982 28.0085L42.7768 30.5772C43.2745 31.194 43.6905 31.8789 44.0051 32.6179L52.2674 28.7113ZM53.5713 32.0207L53.9963 34.425C54.0206 34.5622 53.9222 34.6889 53.7861 34.701L44.6798 35.5532C44.6389 34.7387 44.4831 33.9558 44.2305 33.2153L48.5129 32.0372C48.646 31.9995 48.7837 32.087 48.8079 32.2228L48.9364 32.9634L53.2778 31.8321C53.4109 31.7974 53.5455 31.8834 53.5697 32.0191L53.5713 32.0207ZM53.1598 40.846C53.2929 40.8806 53.4276 40.7946 53.4518 40.659L53.8753 38.2547C53.8995 38.1189 53.8012 37.9922 53.665 37.9786L49.1981 37.5608L49.3312 36.8202C49.3554 36.6829 49.2571 36.5562 49.118 36.5442L44.6873 36.1897C44.6691 37.0072 44.5406 37.7946 44.3121 38.5412L53.1614 40.8444L53.1598 40.846ZM50.803 46.3318C50.7335 46.4495 50.5777 46.4842 50.4642 46.4072L42.9371 41.223C43.4151 40.5925 43.8069 39.8942 44.0989 39.1446L48.1393 40.9878C48.2663 41.0451 48.3162 41.2004 48.2451 41.3196L47.8654 41.9712L51.9209 43.8883C52.0449 43.9471 52.0934 44.0994 52.0238 44.2186L50.8 46.3333L50.803 46.3318ZM40.7287 43.2744L46.023 50.7135C46.1031 50.8252 46.2605 50.8463 46.3679 50.7573L48.2421 49.1871C48.348 49.0981 48.3555 48.9382 48.2588 48.8417L45.1064 45.6576L45.6857 45.1749C45.7916 45.0859 45.7991 44.9245 45.6993 44.828L42.5332 41.7178C42.0069 42.3151 41.4003 42.84 40.7287 43.2759V43.2744ZM40.6833 53.403C40.5547 53.4497 40.411 53.3772 40.3747 53.2446L37.9514 44.4479C38.7425 44.2668 39.4913 43.9803 40.1826 43.6017L42.0885 47.6018C42.1491 47.727 42.087 47.8779 41.9554 47.9246L41.2444 48.1811L43.1157 52.2491C43.1732 52.3742 43.1111 52.5205 42.9825 52.5688L40.6817 53.4044L40.6833 53.403Z" fill="white" style="fill:white;fill-opacity:1;"/>
</g>
<defs>
<clipPath id="clip0_1_332">
<rect width="36" height="36" fill="white" style="fill:white;fill-opacity:1;" transform="translate(18 18)"/>
</clipPath>
</defs>
</svg>
