<svg width="72" height="72" viewBox="0 0 72 72" fill="none" xmlns="http://www.w3.org/2000/svg">
<path fill-rule="evenodd" clip-rule="evenodd" d="M50.8232 32.5062C51.1977 31.3958 51.3276 30.2174 51.2038 29.052C51.08 27.8866 50.7056 26.7618 50.1062 25.7547C48.2807 22.6197 44.6132 21.0057 41.0312 21.7647C40.2378 20.8863 39.2674 20.1859 38.1839 19.7094C37.1004 19.2329 35.9283 18.9912 34.7447 19.0002C31.0832 18.9927 27.8342 21.3192 26.7077 24.7572C25.5498 24.989 24.4544 25.4644 23.4941 26.1518C22.5339 26.8392 21.7309 27.7228 21.1382 28.7442C20.2423 30.2656 19.8595 32.0348 20.0461 33.7904C20.2328 35.5461 20.979 37.1952 22.1747 38.4942C21.7997 39.6048 21.6695 40.7834 21.793 41.9491C21.9165 43.1148 22.2908 44.2399 22.8902 45.2472C24.7157 48.3822 28.3832 49.9947 31.9652 49.2372C32.7583 50.1155 33.7284 50.8158 34.8117 51.292C35.895 51.7682 37.0669 52.0096 38.2502 52.0002C41.9147 52.0092 45.1652 49.6812 46.2917 46.2402C47.4504 46.0085 48.5465 45.5329 49.5073 44.8449C50.4681 44.157 51.2715 43.2725 51.8642 42.2502C52.7583 40.7289 53.1399 38.9606 52.9528 37.2059C52.7656 35.4513 52.0196 33.8032 50.8247 32.5047L50.8232 32.5062ZM38.2517 49.8432C36.7886 49.8468 35.3699 49.3408 34.2392 48.4122C34.2902 48.3852 34.3787 48.3372 34.4372 48.3012L41.0972 44.5062C41.2634 44.4135 41.4017 44.2779 41.4977 44.1135C41.5938 43.9492 41.644 43.7621 41.6432 43.5717V34.3077L44.4587 35.9112C44.4887 35.9262 44.5082 35.9547 44.5127 35.9862V43.6587C44.5082 47.0697 41.7077 49.8357 38.2517 49.8432ZM24.7862 44.1702C24.0521 42.9216 23.7873 41.4521 24.0392 40.0257C24.0872 40.0557 24.1742 40.1082 24.2357 40.1427L30.8957 43.9377C31.2332 44.1327 31.6517 44.1327 31.9907 43.9377L40.1207 39.3057V42.5127C40.1213 42.5292 40.118 42.5456 40.1109 42.5605C40.1039 42.5754 40.0933 42.5883 40.0802 42.5982L33.3482 46.4322C30.3497 48.1362 26.5202 47.1222 24.7877 44.1672L24.7862 44.1702ZM23.0327 29.8242C23.7696 28.5672 24.9241 27.6086 26.2952 27.1152L26.2922 27.3417V34.9317C26.2913 35.1223 26.3414 35.3096 26.4374 35.4743C26.5335 35.6389 26.6718 35.7747 26.8382 35.8677L34.9682 40.4982L32.1542 42.1032C32.1403 42.1122 32.1244 42.1175 32.1079 42.1188C32.0914 42.1201 32.0748 42.1174 32.0597 42.1107L25.3262 38.2722C22.3337 36.5622 21.3077 32.7852 23.0312 29.8272L23.0327 29.8242ZM46.1582 35.1342L38.0282 30.5022L40.8422 28.9002C40.856 28.8911 40.8718 28.8855 40.8883 28.8839C40.9048 28.8823 40.9214 28.8848 40.9367 28.8912L47.6702 32.7267C50.6672 34.4367 51.6947 38.2197 49.9637 41.1762C49.2261 42.4325 48.0726 43.3913 46.7027 43.8867V36.0702C46.7036 35.88 46.6536 35.6931 46.5579 35.5287C46.4621 35.3644 46.3241 35.2287 46.1582 35.1357V35.1342ZM48.9587 30.9747C48.8932 30.9349 48.8272 30.8959 48.7607 30.8577L42.1007 27.0627C41.9343 26.9671 41.7458 26.9167 41.5539 26.9167C41.362 26.9167 41.1735 26.9671 41.0072 27.0627L32.8772 31.6947V28.4877C32.8765 28.4713 32.8799 28.4549 32.8869 28.44C32.894 28.4251 32.9045 28.4122 32.9177 28.4022L39.6482 24.5697C42.6482 22.8642 46.4807 23.8797 48.2087 26.8392C48.9392 28.0887 49.2062 29.5527 48.9587 30.9747ZM31.3472 36.6897L28.5317 35.0877C28.517 35.0805 28.5043 35.0698 28.4949 35.0564C28.4855 35.043 28.4795 35.0275 28.4777 35.0112V27.3387C28.4792 23.9232 31.2872 21.1557 34.7492 21.1587C36.2132 21.1587 37.6292 21.6657 38.7557 22.5897C38.7047 22.6167 38.6177 22.6647 38.5592 22.6992L31.8992 26.4942C31.7327 26.5868 31.5941 26.7223 31.4978 26.8867C31.4015 27.0511 31.351 27.2382 31.3517 27.4287L31.3472 36.6882V36.6897ZM32.8772 33.4377L36.4982 31.3752L40.1192 33.4377V37.5627L36.4982 39.6252L32.8757 37.5627V33.4377H32.8772Z" fill="white" style="fill:white;fill-opacity:1;"/>
</svg>
