<svg width="157" height="40" viewBox="0 0 157 40" fill="none" xmlns="http://www.w3.org/2000/svg">
<path d="M124.999 23.7098L120.984 13.0439C120.817 12.6297 120.698 12.2628 120.698 11.9458C120.698 11.1157 121.341 10.8468 123.22 10.7741V9.72419H116.153V10.775C116.915 10.8967 117.51 11.043 117.795 11.7751L118.645 14.0186L114.908 23.6853L111.035 13.0439C110.868 12.6052 110.749 12.2628 110.749 11.9458C110.749 11.1157 111.392 10.8468 113.271 10.7741V9.72419H106.061V10.775C106.823 10.8967 107.418 11.043 107.703 11.7751L113.837 27.9578H114.646L119.382 15.8733L124.093 27.9578H124.903L130.705 11.7751C130.991 11.0185 131.586 10.8967 132.347 10.7741V9.72419H126.351V10.775C128.231 10.8477 128.897 11.1402 128.897 11.9703C128.897 12.2873 128.754 12.6534 128.611 13.0693L124.999 23.7089V23.7098ZM141.32 23.9042C140.534 24.906 139.201 25.8334 137.226 25.8334C134.085 25.8334 132.657 23.758 132.657 20.3892H141.985V19.7062C141.985 16.777 140.177 14.5308 136.702 14.5308C133.061 14.5308 130.395 17.3873 130.395 21.659C130.395 25.1503 132.657 27.9569 136.489 27.9569C139.844 27.9569 141.486 26.0041 142.01 24.2221L141.32 23.9042ZM136.108 16.0449C138.25 16.0449 139.368 17.46 139.368 19.1694H132.728C132.991 17.3383 134.228 16.0449 136.108 16.0449M91.7636 23.9042C90.9781 24.906 89.6444 25.8334 87.6698 25.8334C84.5287 25.8334 83.1004 23.758 83.1004 20.3892H92.43V19.7062C92.43 16.777 90.6208 14.5308 87.147 14.5308C83.5059 14.5308 80.8403 17.3873 80.8403 21.659C80.8403 25.1503 83.1004 27.9569 86.9324 27.9569C90.2872 27.9569 91.93 26.0041 92.4536 24.2221L91.7636 23.9042ZM86.5515 16.0449C88.6934 16.0449 89.8117 17.46 89.8117 19.1694H83.1722C83.434 17.3383 84.6714 16.0449 86.5515 16.0449ZM73.713 14.5308C71.8566 14.5308 70.191 15.4591 69.1673 16.8006V14.5308H68.4536L65.6987 15.7516V16.3374L66.7872 17.1921V30.6575C66.7872 31.7793 65.9781 31.901 64.8835 32.0481V33H71.0711V32.0481C69.9765 31.901 69.1673 31.7793 69.1673 30.6558V26.9805C69.9292 27.5664 71.0238 27.9569 72.4512 27.9569C76.2114 27.9569 79.3052 25.1495 79.3052 20.6335C79.3052 17.2648 77.3769 14.5308 73.713 14.5308ZM72.713 26.5663C70.9073 26.5663 69.1726 25.8115 69.1673 23.5014V17.9977C69.9765 17.1194 71.3565 16.3864 72.8084 16.3864C75.8777 16.3864 76.8541 19.1212 76.8541 21.6598C76.8541 24.8088 75.2122 26.5663 72.713 26.5663ZM55.9418 9.51403C50.9302 9.51403 46.7725 13.2033 46.7725 19.0809C46.7725 23.7378 50.0756 27.9569 55.447 27.9569C60.4586 27.9569 64.6164 24.2676 64.6164 18.39C64.6164 13.7331 61.3133 9.51403 55.9418 9.51403ZM61.6434 19.3349C61.6434 23.6328 59.6048 26.1977 56.1887 26.1977C54.1536 26.1977 52.4723 25.3509 51.3287 23.7475C50.3076 22.3157 49.7454 20.3235 49.7454 18.1361C49.7454 13.8391 51.7849 11.2733 55.2001 11.2733C57.2361 11.2733 58.9165 12.121 60.0602 13.7243C61.0812 15.1561 61.6434 17.1483 61.6434 19.3349ZM106.648 25.3692V18.5345C106.648 15.678 105.006 14.5308 102.674 14.5308C100.795 14.5308 98.8917 15.7507 97.8444 16.9215V14.5308H97.1307L94.3775 15.7516V16.3374L95.466 17.1921V25.4288C95.4362 26.4945 94.6385 26.6171 93.5649 26.7607V27.7126H99.7525V26.7607C98.6579 26.6145 97.8488 26.4919 97.8488 25.3692H97.8453V18.0205C98.8453 17.1912 100.485 16.5082 101.77 16.5082C103.341 16.5082 104.269 17.0695 104.269 18.876V25.3692C104.269 26.4919 103.46 26.6145 102.366 26.7607V27.7126H108.553V26.7607C107.458 26.6145 106.648 26.4919 106.648 25.3692ZM150.996 14.5308C149.14 14.5308 147.521 15.4591 146.474 16.8015V9H145.76L143.005 10.2207V10.8065L144.094 11.6612V26.3229H144.097C145.12 27.1285 147.094 27.9569 149.758 27.9569C153.494 27.9569 156.612 25.1495 156.612 20.6335C156.612 17.2648 154.661 14.5308 150.996 14.5308ZM150.019 26.5663C148.211 26.5663 146.475 25.8106 146.473 23.4944V17.9977C147.282 17.1194 148.662 16.3864 150.114 16.3864C153.161 16.3864 154.16 19.1212 154.16 21.6598C154.16 24.8088 152.518 26.5663 150.019 26.5663Z" fill="black"/>
<path d="M27.1121 20.0092L27.1115 20.0453L31.2961 22.3521C31.2961 22.3521 32.5128 23.0395 33.847 23.538C32.4282 23.4114 31.0331 23.5052 31.0331 23.5052L26.2601 23.7741C26.0863 24.1374 25.8869 24.487 25.6659 24.8209L32.9438 30.5961C33.2632 30.1593 33.5636 29.7074 33.8424 29.2417L30.5524 26.6279C29.2733 25.568 27.9924 24.975 27.9924 24.975C29.1841 25.2177 30.9013 25.1128 30.9013 25.1128L35.7373 24.8412C35.8881 24.2975 36.016 23.7439 36.1164 23.1818L31.8773 20.8468C31.8773 20.8468 30.3766 20.0092 29.1973 19.7127C29.1973 19.7127 30.6088 19.7324 32.2229 19.3297L36.3223 18.3983C36.2745 17.8539 36.203 17.3167 36.1072 16.788L27.0328 18.8463C27.0839 19.2267 27.1121 19.615 27.1121 20.0092ZM24.6669 26.0678C24.3888 26.3564 24.091 26.6266 23.7762 26.8752L24.5764 31.5767C24.5764 31.5767 24.7955 32.9535 25.2356 34.3033C24.4505 33.1188 23.5073 32.0896 23.5073 32.0896L20.3196 28.5366C19.9319 28.6258 19.5345 28.6907 19.1291 28.7268L19.1363 37.9993C19.684 37.9757 20.2251 37.9272 20.7597 37.855L20.7584 33.6625C20.7925 32.0044 20.4586 30.6368 20.4586 30.6368C21.0109 31.7171 22.164 32.9889 22.164 32.9889L25.393 36.5891C25.9184 36.3661 26.432 36.1195 26.9311 35.8493L26.1197 31.0907C26.1197 31.0907 25.8403 29.3985 25.3379 28.2946C25.3379 28.2946 26.2024 29.407 27.5247 30.4138L30.8121 33.0282C31.205 32.6544 31.5795 32.2621 31.9376 31.8542L24.6669 26.0678ZM23.8319 13.1871L28.2514 11.3637C28.2514 11.3637 29.5488 10.8442 30.7721 10.1155C29.7876 11.142 28.9913 12.2879 28.9913 12.2879L26.2267 16.1748C26.4024 16.5335 26.5526 16.9061 26.6786 17.2898L35.7484 15.2191C35.6041 14.6944 35.4356 14.1788 35.2453 13.6738L31.1414 14.6098C29.5121 14.9449 28.2488 15.574 28.2488 15.574C29.1822 14.7967 30.17 13.3924 30.17 13.3924L32.9707 9.45764C32.6355 8.99654 32.2793 8.55249 31.9029 8.12615L27.4322 9.97187C27.4322 9.97187 25.8397 10.6199 24.8722 11.3545C24.8722 11.3545 25.7682 10.2664 26.4582 8.75713L28.2842 4.97978C27.8317 4.68134 27.366 4.40258 26.8858 4.14547L22.8442 12.4984C23.1898 12.7057 23.5197 12.9366 23.8319 13.1871ZM10.4292 16.1754L7.66389 12.2892C7.66389 12.2892 6.86762 11.1433 5.88311 10.1175C7.10637 10.8455 8.40441 11.3644 8.40441 11.3644L12.8232 13.1878C13.1361 12.9366 13.4654 12.7063 13.811 12.4991L9.76803 4.14612C9.28922 4.40389 8.82287 4.68265 8.3703 4.98109L10.197 8.75844C10.887 10.267 11.7836 11.3552 11.7836 11.3552C10.8155 10.6206 9.22232 9.97318 9.22232 9.97318L4.75167 8.12746C4.37584 8.5538 4.01968 8.99851 3.68451 9.45895L6.48523 13.3944C6.48523 13.3944 7.47302 14.798 8.40703 15.5753C8.40703 15.5753 7.14376 14.9463 5.51449 14.6111L1.41049 13.6764C1.22028 14.1815 1.05171 14.6964 0.906757 15.2211L9.97792 17.2911C10.1025 16.9074 10.2534 16.5342 10.4292 16.1761V16.1754ZM16.3382 28.5366L13.1505 32.0903C13.1505 32.0903 12.2073 33.1201 11.4229 34.3046C11.8623 32.9535 12.0814 31.5774 12.0814 31.5774L12.8816 26.8759C12.5661 26.6266 12.2683 26.3577 11.9902 26.0684L4.72084 31.8555C5.07831 32.2635 5.45415 32.6557 5.84703 33.0296L9.13377 30.4151C10.4554 29.4083 11.3199 28.2959 11.3199 28.2959C10.8175 29.3998 10.5394 31.0914 10.5394 31.0914L9.72802 35.8506C10.2265 36.1208 10.7401 36.3675 11.2661 36.5905L14.4938 32.9895C14.4938 32.9895 15.6469 31.7171 16.1992 30.6375C16.1992 30.6375 15.8653 32.005 15.9001 33.6625L15.8994 37.8557C16.4333 37.9278 16.9751 37.9757 17.5221 38L17.5287 28.7275C17.122 28.6907 16.7259 28.6258 16.3382 28.5366ZM16.4097 11.4647L17.7347 6.88584C17.7347 6.88584 18.1367 5.55041 18.3276 4.1435C18.5198 5.55041 18.9212 6.88518 18.9212 6.88518L20.2461 11.4654C20.6429 11.5533 21.0293 11.6667 21.4031 11.8064L25.4343 3.44693C24.9371 3.23441 24.4275 3.0442 23.9087 2.87629L22.0826 6.65693C21.3297 8.13599 21.0352 9.51274 21.0352 9.51274C21.0076 8.30062 20.5223 6.65561 20.5223 6.65561L19.1829 2.02099C18.8995 2.00787 18.6149 2 18.3282 2C18.0416 2 17.7563 2.00721 17.4729 2.02099L16.1336 6.65627C16.1336 6.65627 15.6482 8.30128 15.6207 9.51339C15.6207 9.51339 15.3262 8.13665 14.5732 6.65758L12.7478 2.87694C12.2283 3.04486 11.7193 3.23507 11.2222 3.44758L15.2534 11.8058C15.6272 11.6667 16.0142 11.5533 16.4097 11.4647ZM4.43356 19.3316C6.04708 19.7344 7.45925 19.714 7.45925 19.714C6.27993 20.0105 4.77856 20.8487 4.77856 20.8487L0.540106 23.1838C0.64046 23.7465 0.767705 24.3001 0.919875 24.8432L5.75586 25.1141C5.75586 25.1141 7.47302 25.2197 8.66414 24.9763C8.66414 24.9763 7.38382 25.5686 6.1048 26.6292L2.81413 29.2437C3.0942 29.7094 3.39395 30.1613 3.71337 30.5981L10.9906 24.8216C10.7696 24.4877 10.5709 24.1388 10.3957 23.7747L5.62337 23.5058C5.62337 23.5058 4.22826 23.4133 2.80954 23.5406C4.14299 23.0408 5.3597 22.3534 5.3597 22.3534L9.54437 20.0466L9.54306 20.0092C9.54306 19.615 9.57192 19.2273 9.62242 18.8469L0.549289 16.7907C0.453527 17.32 0.382033 17.8572 0.333496 18.4009L4.43421 19.3323L4.43356 19.3316Z" fill="black"/>
</svg>
