<svg width="32" height="32" viewBox="0 0 32 32" fill="none" xmlns="http://www.w3.org/2000/svg">
<g clip-path="url(#clip0_13465_5130)">
<path d="M10.0892 26.0895C4.48408 26.0895 -1.87152e-07 21.6054 -1.20312e-07 16.0003C-5.34721e-08 10.3952 4.48408 5.91113 10.0892 5.91113L21.9108 5.91113C27.5159 5.91113 32 10.3952 32 16.0003C32 21.6054 27.5159 26.0895 21.9108 26.0895L10.0892 26.0895ZM21.6051 22.5226C25.2739 22.5226 28.1274 19.5672 28.1274 16.0003C28.1274 12.3315 25.172 9.47801 21.6051 9.47801L10.3949 9.47801C6.72611 9.47801 3.87261 12.4334 3.87261 16.0003C3.87261 19.5672 6.82803 22.5226 10.3949 22.5226L21.6051 22.5226Z" fill="black"/>
</g>
<defs>
<clipPath id="clip0_13465_5130">
<rect width="32" height="32" fill="white"/>
</clipPath>
</defs>
</svg>
