<svg width="72" height="72" viewBox="0 0 72 72" fill="none" xmlns="http://www.w3.org/2000/svg">
<path d="M28 48H24C22.3431 48 21 46.6569 21 45V27C21 25.3431 22.3431 24 24 24H28" stroke="white" style="stroke:white;stroke-opacity:1;" stroke-width="2.4"/>
<path d="M44 48H48C49.6569 48 51 46.6569 51 45V27C51 25.3431 49.6569 24 48 24H44" stroke="white" style="stroke:white;stroke-opacity:1;" stroke-width="2.4"/>
<path d="M38.7773 36H45.8885" stroke="white" style="stroke:white;stroke-opacity:1;" stroke-width="2.4"/>
<path d="M30.3311 40.3489L30.5507 37.5473L28.2186 39.145L27.1055 37.1914L29.6345 35.9874L27.1055 34.7835L28.2186 32.8299L30.5507 34.4276L30.3311 31.626H32.5649L32.3453 34.4276L34.6775 32.8299L35.7905 34.7835L33.2615 35.9874L35.7905 37.1914L34.6775 39.145L32.3453 37.5473L32.5649 40.3489H30.3311Z" fill="white" style="fill:white;fill-opacity:1;"/>
</svg>
