<svg width="32" height="32" viewBox="0 0 32 32" fill="none" xmlns="http://www.w3.org/2000/svg">
<g clip-path="url(#clip0_13465_5150)">
<path d="M31.395 19.1617C31.209 18.5983 30.7216 18.2058 30.0912 18.1115C29.794 18.0672 29.4536 18.0861 29.0509 18.1691C28.3489 18.314 27.828 18.3691 27.4479 18.3798C28.8826 15.9574 30.0493 13.1949 30.7209 10.5945C31.8069 6.38987 31.2266 4.47438 30.5484 3.60789C28.7537 1.31466 26.1352 0.0826216 22.976 0.0448549C21.2909 0.0242875 19.8115 0.357021 19.0398 0.596234C18.3212 0.469533 17.5485 0.398729 16.7378 0.385615C15.2183 0.361393 13.8756 0.692621 12.7284 1.37342C12.0931 1.15872 11.0738 0.855943 9.89659 0.662666C7.1278 0.208104 4.89634 0.562337 3.26414 1.7154C1.28766 3.11155 0.371366 5.53722 0.54085 8.92511C0.594598 10.0008 1.19636 13.2734 2.14375 16.3773C2.68825 18.1612 3.26886 19.6427 3.86948 20.7808C4.7212 22.3948 5.63254 23.3452 6.65568 23.6865C7.22921 23.8776 8.27112 24.0114 9.36707 23.0988C9.50596 23.2669 9.69121 23.4341 9.93723 23.5893C10.2495 23.7863 10.6315 23.9473 11.0129 24.0427C12.3876 24.3864 13.6753 24.3004 14.7738 23.8187C14.7805 24.0141 14.7858 24.2008 14.7902 24.3619C14.7975 24.6234 14.8047 24.8798 14.8143 25.1195C14.8794 26.7407 14.9896 28.0012 15.3164 28.883C15.3343 28.9316 15.3585 29.0055 15.384 29.0838C15.547 29.5831 15.8197 30.4186 16.5131 31.0732C17.2314 31.751 18.1001 31.959 18.8957 31.9589C19.2948 31.9589 19.6755 31.9066 20.0094 31.835C21.1998 31.58 22.5517 31.1913 23.5296 29.7988C24.4541 28.4824 24.9036 26.4998 24.9849 23.3757C24.9955 23.2874 25.0052 23.2031 25.0146 23.1227C25.0209 23.0684 25.0273 23.0129 25.0339 22.9576L25.2517 22.9768L25.3078 22.9806C26.5202 23.0358 28.0027 22.7787 28.9131 22.3558C29.6325 22.0219 31.9378 20.8049 31.395 19.1617Z" fill="black"/>
<path d="M29.3218 19.4813C25.717 20.2248 25.4692 19.0043 25.4692 19.0043C29.2753 13.3567 30.8664 6.18781 29.4933 4.43328C25.7474 -0.352772 19.2632 1.91072 19.155 1.96948L19.1201 1.97572C18.408 1.82788 17.6109 1.7398 16.7151 1.72518C15.084 1.69845 13.8467 2.1528 12.9079 2.86478C12.9079 2.86478 1.34057 -1.90049 1.87855 8.858C1.993 11.1468 5.15902 26.176 8.93533 21.6365C10.3156 19.9765 11.6492 18.573 11.6492 18.573C12.3115 19.013 13.1045 19.2375 13.9358 19.1568L14.0004 19.102C13.9803 19.3081 13.9895 19.5097 14.0262 19.7483C13.0534 20.8353 13.3393 21.0261 11.3945 21.4264C9.42673 21.832 10.5827 22.554 11.3375 22.7427C12.2525 22.9715 14.3694 23.2956 15.7997 21.2933L15.7426 21.5218C16.1238 21.8271 16.3915 23.5077 16.3466 25.0311C16.3018 26.5546 16.2718 27.6005 16.5722 28.4175C16.8725 29.2344 17.1718 31.0726 19.7284 30.5248C21.8646 30.067 22.9716 28.8807 23.1256 26.9019C23.2349 25.495 23.4822 25.703 23.4978 24.4452L23.6961 23.8498C23.9249 21.9428 23.7325 21.3275 25.0486 21.6137L25.3684 21.6418C26.3371 21.6858 27.6049 21.486 28.349 21.1401C29.9512 20.3965 30.9015 19.155 29.3217 19.4813L29.3218 19.4813Z" fill="black"/>
<path d="M13.5851 9.88119C13.2604 9.83597 12.9661 9.87782 12.8173 9.99048C12.7335 10.0539 12.7076 10.1274 12.7007 10.1779C12.682 10.3119 12.7758 10.4599 12.8335 10.5363C12.9966 10.7525 13.2349 10.9012 13.4708 10.9339C13.505 10.9387 13.539 10.941 13.5728 10.941C13.9662 10.941 14.3238 10.6347 14.3554 10.4086C14.3948 10.1254 13.9837 9.93666 13.5851 9.88119Z" fill="white"/>
<path d="M24.3469 9.89092C24.3159 9.66898 23.9209 9.6057 23.5461 9.6578C23.1718 9.70997 22.8089 9.87888 22.8392 10.1013C22.8635 10.2743 23.1758 10.5696 23.5456 10.5696C23.5767 10.5696 23.6083 10.5675 23.64 10.5631C23.8868 10.5289 24.0679 10.3721 24.1539 10.2818C24.285 10.1442 24.3607 9.99068 24.3469 9.89092Z" fill="white"/>
<path d="M30.5214 19.3967C30.3839 18.981 29.9415 18.8472 29.2065 18.9991C27.024 19.4495 26.2425 19.1375 25.9858 18.9485C27.6822 16.3642 29.0777 13.2404 29.8305 10.3258C30.1872 8.94519 30.3842 7.66306 30.4003 6.61806C30.418 5.47087 30.2227 4.62803 29.8198 4.11313C28.1952 2.03733 25.8111 0.92389 22.925 0.89329C20.9409 0.871002 19.2645 1.37881 18.9395 1.52156C18.2552 1.35136 17.5091 1.24688 16.6969 1.23355C15.2074 1.20947 13.9199 1.56607 12.8539 2.29288C12.3909 2.1206 11.1943 1.70982 9.73099 1.47412C7.20098 1.06672 5.1906 1.37537 3.7559 2.39177C2.044 3.60461 1.25369 5.77257 1.40684 8.83533C1.45837 9.86585 2.04543 13.0357 2.97204 16.0716C4.19168 20.0672 5.51739 22.3291 6.91239 22.7944C7.07564 22.8488 7.26397 22.887 7.47151 22.887C7.98039 22.887 8.60422 22.6576 9.25335 21.8772C10.3315 20.5801 11.3382 19.4932 11.7093 19.0983C12.2576 19.3927 12.86 19.557 13.4762 19.5735C13.4773 19.5896 13.4789 19.6057 13.4804 19.6218C13.3567 19.7684 13.2553 19.8969 13.1689 20.0066C12.742 20.5485 12.6531 20.6613 11.2789 20.9443C10.8881 21.0249 9.84973 21.2389 9.83461 21.9667C9.81806 22.7618 11.0618 23.0957 11.2035 23.1311C11.6974 23.2547 12.1731 23.3157 12.6268 23.3157C13.7302 23.3157 14.7012 22.953 15.4773 22.2514C15.4533 25.086 15.5716 27.8793 15.9119 28.7303C16.1906 29.427 16.8716 31.1297 19.0227 31.1296C19.3383 31.1296 19.6858 31.0929 20.0679 31.011C22.3129 30.5296 23.2877 29.5374 23.6649 27.35C23.8667 26.1809 24.213 23.3892 24.3759 21.8918C24.7196 21.999 25.1622 22.0481 25.6406 22.048C26.6385 22.048 27.7898 21.836 28.5119 21.5009C29.323 21.1242 30.7868 20.1997 30.5214 19.3967ZM25.1752 9.27778C25.1677 9.71987 25.1069 10.1212 25.0424 10.5401C24.973 10.9907 24.9012 11.4565 24.8832 12.022C24.8653 12.5723 24.934 13.1445 25.0006 13.6977C25.1348 14.8152 25.2727 15.9658 24.7391 17.1011C24.6562 16.9538 24.5762 16.7931 24.5028 16.6152C24.4365 16.4544 24.2925 16.1962 24.0932 15.8389C23.3175 14.4479 21.5011 11.1905 22.431 9.86126C22.7079 9.46554 23.4108 9.05885 25.1752 9.27778ZM23.0365 1.78851C25.6224 1.84563 27.6679 2.81301 29.1163 4.66365C30.227 6.08316 29.0039 12.5422 25.4629 18.1144C25.428 18.07 25.3923 18.0251 25.3555 17.9791C25.3408 17.9607 25.3258 17.942 25.3107 17.9231C26.2257 16.4119 26.0468 14.9168 25.8875 13.5911C25.8221 13.0471 25.7603 12.5333 25.776 12.0507C25.7923 11.539 25.8599 11.1004 25.9253 10.6761C26.0058 10.1533 26.0875 9.61238 26.065 8.97464C26.0818 8.90778 26.0886 8.82874 26.0798 8.73493C26.0222 8.12335 25.324 6.29328 23.9009 4.63663C23.1226 3.73066 21.9874 2.7167 20.4374 2.03281C21.1041 1.89464 22.0158 1.76579 23.0365 1.78851ZM8.56646 21.3061C7.85133 22.1659 7.35742 22.0011 7.19503 21.947C6.13678 21.594 4.90896 19.3575 3.82642 15.8108C2.8897 12.7419 2.34226 9.65602 2.29898 8.79068C2.16217 6.05399 2.82556 4.14667 4.2708 3.12174C6.6228 1.45377 10.4898 2.45211 12.0436 2.95849C12.0212 2.98049 11.998 3.00113 11.9758 3.02349C9.42613 5.59857 9.48662 9.99814 9.49285 10.267C9.49263 10.3708 9.50131 10.5177 9.51327 10.7198C9.55713 11.4597 9.63876 12.8369 9.42068 14.3966C9.21795 15.846 9.6647 17.2645 10.6462 18.2886C10.7478 18.3946 10.8539 18.4941 10.9635 18.5878C10.5265 19.0557 9.57705 20.0903 8.56646 21.3061ZM11.2912 17.6705C10.5001 16.8452 10.1408 15.697 10.3054 14.5203C10.5357 12.8727 10.4506 11.4378 10.405 10.6669C10.3986 10.5591 10.3929 10.4645 10.3896 10.3899C10.7621 10.0597 12.4882 9.13474 13.7192 9.41681C14.281 9.54551 14.6232 9.92798 14.7656 10.586C15.5021 13.9924 14.8631 15.4122 14.3496 16.5531C14.2438 16.7881 14.1438 17.0103 14.0584 17.2402L13.9922 17.4178C13.8247 17.8671 13.6688 18.2847 13.5722 18.6814C12.7313 18.6788 11.9132 18.3196 11.2912 17.6705ZM11.4202 22.2645C11.1747 22.2032 10.9539 22.0966 10.8243 22.0082C10.9325 21.9573 11.1251 21.888 11.4592 21.8193C13.0758 21.4864 13.3254 21.2515 13.8706 20.5593C13.9957 20.4006 14.1374 20.2207 14.3336 20.0015L14.3338 20.0012C14.6261 19.674 14.7598 19.7295 15.0022 19.83C15.1987 19.9114 15.39 20.1576 15.4677 20.4286C15.5043 20.5566 15.5456 20.7996 15.4107 20.9886C14.2717 22.5833 12.6121 22.5628 11.4202 22.2645ZM19.8807 30.1375C17.903 30.5613 17.2028 29.5522 16.7413 28.3986C16.4435 27.6538 16.2972 24.2954 16.401 20.5868C16.4024 20.5374 16.3953 20.4897 16.3817 20.445C16.3699 20.3585 16.3517 20.271 16.3265 20.1829C16.172 19.6433 15.7957 19.1919 15.3442 19.0047C15.1648 18.9304 14.8355 18.794 14.4399 18.8952C14.5243 18.5476 14.6706 18.1551 14.8292 17.73L14.8958 17.5511C14.9707 17.3495 15.0647 17.1407 15.1642 16.9197C15.7015 15.7259 16.4374 14.0909 15.6387 10.3972C15.3395 9.0137 14.3405 8.33813 12.8261 8.495C11.9181 8.58895 11.0875 8.95529 10.6732 9.16534C10.5841 9.21049 10.5027 9.25406 10.4266 9.29655C10.5421 7.90256 10.9791 5.29751 12.6133 3.64933C13.6422 2.61164 15.0125 2.09917 16.6821 2.12676C19.9718 2.18065 22.0814 3.8689 23.272 5.27573C24.2978 6.48806 24.8534 7.70921 25.0751 8.3678C23.4078 8.19831 22.2739 8.52746 21.699 9.34923C20.4485 11.1368 22.3832 14.6065 23.313 16.2739C23.4835 16.5796 23.6307 16.8437 23.677 16.9559C23.9798 17.6897 24.3718 18.1796 24.658 18.5373C24.7457 18.6469 24.8309 18.7531 24.8956 18.8459C24.3906 18.9916 23.4836 19.3279 23.5662 21.0092C23.4996 21.8529 23.0254 25.8027 22.7846 27.1982C22.4667 29.0418 21.7883 29.7285 19.8807 30.1375ZM28.1358 20.6906C27.6194 20.9303 26.7553 21.1101 25.9344 21.1487C25.0277 21.1912 24.5662 21.0471 24.4576 20.9586C24.4066 19.9109 24.7967 19.8014 25.2094 19.6855C25.2742 19.6672 25.3375 19.6495 25.3986 19.6281C25.4366 19.659 25.4781 19.6897 25.5236 19.7197C26.2524 20.2007 27.5522 20.2526 29.3871 19.8739C29.3939 19.8724 29.4006 19.8712 29.4073 19.8698C29.1598 20.1012 28.7363 20.4118 28.1358 20.6906Z" fill="white"/>
</g>
<defs>
<clipPath id="clip0_13465_5150">
<rect width="32" height="32" fill="white"/>
</clipPath>
</defs>
</svg>
