<svg width="18" height="18" viewBox="0 0 18 18" fill="none" xmlns="http://www.w3.org/2000/svg">
<path fill-rule="evenodd" clip-rule="evenodd" d="M13.395 10.0981C14.0838 9.71674 14.8604 9.51496 15.6526 9.51522C16.4778 9.51066 17.2888 9.72869 18.0005 10.1464C17.3353 6.48252 14.9699 3.47225 11.8316 2.10552C12.582 4.16865 12.9881 6.2865 13.2075 8.07447C13.2976 8.80827 13.3567 9.49124 13.395 10.0981ZM10.1006 1.54041C11.0662 3.76411 11.5659 6.19224 11.8179 8.24522C11.9049 8.95336 11.9617 9.61235 11.9985 10.197C11.2623 9.81192 10.459 9.56956 9.631 9.4837C9.12614 9.4064 8.57913 9.45149 8.36873 9.4837C7.68052 9.55506 7.00941 9.73453 6.37975 10.0142C6.41651 9.47621 6.47029 8.8805 6.54827 8.24522C6.80285 6.1713 7.31021 3.71456 8.29533 1.47245C8.7255 1.42728 9.45851 1.40894 9.9093 1.49979C9.97327 1.51268 10.037 1.52622 10.1006 1.54041ZM0 10.14C0.69527 6.31606 3.24793 3.20126 6.59928 1.93028C5.80733 4.04836 5.38438 6.23583 5.15867 8.07447C5.05803 8.8943 4.99607 9.65068 4.95855 10.3083C4.18801 9.78724 3.27874 9.5086 2.34783 9.50891C1.5227 9.50435 0.711623 9.72238 0 10.14Z" fill="black"/>
<path d="M9 9.75V15.75C9 16.5784 8.32843 17.25 7.5 17.25C6.67157 17.25 6 16.5783 6 15.7499C6 15.0526 6 14.408 6 14.408" stroke="black" stroke-width="1.4"/>
</svg>
