<svg width="32" height="32" viewBox="0 0 32 32" fill="none" xmlns="http://www.w3.org/2000/svg">
<g clip-path="url(#clip0_13465_4994)">
<path d="M13.3165 7.44147C14.3485 6.39041 15.7853 5.73851 17.3744 5.73851C19.4868 5.73851 21.3297 6.88983 22.3111 8.59898C23.164 8.22652 24.1081 8.01932 25.1013 8.01932C28.9112 8.01932 32 11.0647 32 14.8212C32 18.5781 28.9112 21.6235 25.1013 21.6235C24.645 21.6238 24.1898 21.5795 23.7425 21.4912C22.8782 22.9981 21.2312 24.0162 19.3409 24.0162C18.5495 24.0162 17.801 23.8375 17.1346 23.5198C16.2585 25.5342 14.2172 26.9466 11.8382 26.9466C9.36069 26.9466 7.24923 25.4143 6.43876 23.2654C6.08458 23.3389 5.71762 23.3773 5.34108 23.3773C2.39135 23.3773 -1.90346e-07 21.0158 -1.55603e-07 18.1023C-1.32321e-07 16.1499 1.07442 14.4452 2.67077 13.5331C2.34212 12.794 2.15931 11.9781 2.15931 11.1204C2.15931 7.76981 4.94222 5.05371 8.37471 5.05371C10.39 5.05371 12.181 5.99027 13.3165 7.44147Z" fill="black"/>
<path d="M4.63516 16.4066C4.61511 16.4578 4.64246 16.4685 4.64884 16.4774C4.70899 16.5202 4.77011 16.551 4.83164 16.5853C5.15802 16.7546 5.4662 16.804 5.78847 16.804C6.44487 16.804 6.85238 16.4627 6.85238 15.9133L6.85238 15.9027C6.85238 15.3947 6.39247 15.2103 5.96077 15.077L5.90472 15.0592C5.57924 14.9558 5.29845 14.8668 5.29845 14.6573L5.29845 14.6462C5.29845 14.4671 5.46255 14.3352 5.71691 14.3352C5.99953 14.3352 6.33503 14.427 6.55109 14.5437C6.55109 14.5437 6.61445 14.5838 6.6377 14.5237C6.65045 14.4916 6.75987 14.2037 6.77128 14.1726C6.78358 14.1387 6.7617 14.1137 6.73937 14.1004C6.49276 13.9538 6.15178 13.8535 5.79898 13.8535L5.73334 13.854C5.13255 13.854 4.71319 14.2086 4.71319 14.717L4.71319 14.7277C4.71319 15.2637 5.17586 15.4375 5.60938 15.5587L5.67911 15.5796C5.99501 15.6745 6.26716 15.756 6.26716 15.9735L6.26716 15.9842C6.26716 16.1829 6.09031 16.3308 5.80494 16.3308C5.69417 16.3308 5.34089 16.3286 4.95935 16.0929C4.91329 16.0666 4.88642 16.0474 4.85086 16.0265C4.83219 16.0149 4.78523 15.9948 4.76473 16.0555L4.63516 16.4066ZM14.2447 16.4066C14.2247 16.4578 14.252 16.4685 14.2584 16.4774C14.3185 16.5202 14.3797 16.551 14.4412 16.5853C14.7675 16.7546 15.0757 16.804 15.398 16.804C16.0544 16.804 16.4619 16.4627 16.4619 15.9133L16.4619 15.9027C16.4619 15.3947 16.002 15.2103 15.5703 15.077L15.5142 15.0592C15.1888 14.9558 14.9079 14.8668 14.9079 14.6573L14.9079 14.6462C14.9079 14.4671 15.072 14.3352 15.3264 14.3352C15.609 14.3352 15.9445 14.427 16.1606 14.5437C16.1606 14.5437 16.224 14.5838 16.2472 14.5237C16.2599 14.4916 16.3694 14.2037 16.3808 14.1726C16.3931 14.1387 16.3712 14.1137 16.3489 14.1004C16.1022 13.9538 15.7613 13.8535 15.4085 13.8535L15.3428 13.854C14.742 13.854 14.3226 14.2086 14.3226 14.717L14.3226 14.7277C14.3226 15.2637 14.7853 15.4375 15.2188 15.5587L15.2886 15.5796C15.6045 15.6745 15.8771 15.756 15.8771 15.9735L15.8771 15.9842C15.8771 16.1829 15.6998 16.3308 15.4144 16.3308C15.3037 16.3308 14.9504 16.3286 14.5688 16.0929C14.5228 16.0666 14.4955 16.0483 14.4608 16.0265C14.4489 16.0189 14.3933 15.998 14.3742 16.0555L14.2447 16.4066ZM20.8049 15.3305C20.8049 15.641 20.7456 15.8856 20.6289 16.0585C20.5136 16.2296 20.339 16.3129 20.0956 16.3129C19.8518 16.3129 19.6781 16.2301 19.5646 16.0585C19.4497 15.8861 19.3914 15.641 19.3914 15.3305C19.3914 15.0204 19.4497 14.7762 19.5646 14.6051C19.6781 14.4358 19.8518 14.3534 20.0956 14.3534C20.3391 14.3534 20.5136 14.4358 20.6294 14.6051C20.7457 14.7762 20.8049 15.0204 20.8049 15.3305ZM21.3528 14.7548C21.299 14.577 21.2152 14.4202 21.1035 14.2897C20.9918 14.1587 20.8505 14.0535 20.6827 13.9769C20.5154 13.9007 20.3176 13.8619 20.0956 13.8619C19.8732 13.8619 19.6753 13.9007 19.508 13.9769C19.3403 14.0535 19.199 14.1587 19.0869 14.2897C18.9756 14.4207 18.8918 14.5775 18.8375 14.7548C18.7842 14.9317 18.7573 15.1251 18.7573 15.3305C18.7573 15.5359 18.7842 15.7297 18.8375 15.9061C18.8918 16.0835 18.9752 16.2403 19.0873 16.3713C19.199 16.5023 19.3408 16.607 19.5081 16.6814C19.6758 16.7558 19.8732 16.7937 20.0957 16.7937C20.3177 16.7937 20.515 16.7558 20.6828 16.6814C20.8501 16.607 20.9918 16.5023 21.1035 16.3713C21.2152 16.2407 21.2991 16.0839 21.3529 15.9061C21.4067 15.7293 21.4336 15.5354 21.4336 15.3305C21.4336 15.1255 21.4066 14.9317 21.3528 14.7548ZM25.8523 16.23C25.8341 16.1779 25.7825 16.1975 25.7825 16.1975C25.7028 16.2273 25.618 16.255 25.5277 16.2688C25.4361 16.2825 25.3353 16.2897 25.2273 16.2897C24.962 16.2897 24.7514 16.2126 24.6006 16.0602C24.4492 15.9079 24.3644 15.6615 24.3653 15.3282C24.3662 15.0248 24.441 14.7966 24.5755 14.6229C24.7091 14.45 24.9124 14.3613 25.1836 14.3613C25.4097 14.3613 25.582 14.3867 25.7625 14.4424C25.7625 14.4424 25.8058 14.4607 25.8263 14.4054C25.8741 14.2753 25.9097 14.1822 25.9607 14.0392C25.9753 13.9986 25.9398 13.9813 25.927 13.9763C25.8559 13.9492 25.6881 13.9051 25.5614 13.8864C25.4429 13.8685 25.3043 13.8592 25.1503 13.8592C24.92 13.8592 24.7149 13.8975 24.5394 13.9742C24.3644 14.0503 24.2158 14.1555 24.0982 14.2865C23.9806 14.4175 23.8912 14.5743 23.8315 14.7516C23.7723 14.9285 23.7422 15.1228 23.7422 15.3282C23.7422 15.7724 23.8648 16.1315 24.1069 16.3944C24.3494 16.6582 24.7136 16.7923 25.1886 16.7923C25.4694 16.7923 25.7575 16.7366 25.9645 16.6568C25.9645 16.6568 26.0041 16.6381 25.9868 16.5932L25.8523 16.23ZM26.811 15.033C26.8369 14.8606 26.8857 14.7171 26.9609 14.6053C27.0745 14.4355 27.2477 14.3424 27.4911 14.3424C27.7345 14.3424 27.8954 14.4359 28.0108 14.6053C28.0873 14.7171 28.1206 14.8668 28.1339 15.033L26.811 15.033ZM28.6558 14.6538C28.6093 14.4822 28.4939 14.3089 28.4183 14.2296C28.2988 14.104 28.1822 14.0162 28.0664 13.9672C27.915 13.9039 27.7336 13.862 27.5349 13.862C27.3033 13.862 27.0931 13.8999 26.9227 13.9783C26.7517 14.0567 26.6082 14.1637 26.4955 14.2969C26.3829 14.4297 26.2982 14.5878 26.2444 14.7674C26.1901 14.9461 26.1628 15.1408 26.1628 15.3462C26.1628 15.5552 26.191 15.7499 26.2471 15.925C26.3036 16.1014 26.3939 16.2569 26.516 16.3856C26.6377 16.5153 26.7946 16.6169 26.9824 16.6877C27.1688 16.7581 27.3954 16.7947 27.6557 16.7942C28.1913 16.7924 28.4734 16.6757 28.5897 16.6129C28.6102 16.6017 28.6298 16.5821 28.6051 16.526L28.4839 16.194C28.4657 16.1446 28.4142 16.1628 28.4142 16.1628C28.2815 16.211 28.0928 16.2974 27.6529 16.2965C27.3653 16.2961 27.1519 16.2132 27.0183 16.0835C26.8811 15.9508 26.8141 15.7556 26.8023 15.4803L28.6571 15.482C28.6571 15.482 28.7059 15.4812 28.7109 15.4348C28.7127 15.4153 28.7748 15.0624 28.6558 14.6538ZM11.9566 15.033C11.983 14.8606 12.0314 14.7171 12.1066 14.6053C12.2201 14.4355 12.3933 14.3424 12.6367 14.3424C12.8801 14.3424 13.041 14.4359 13.1568 14.6053C13.2329 14.7171 13.2662 14.8668 13.2794 15.033L11.9566 15.033ZM13.8009 14.6538C13.7544 14.4822 13.6396 14.3089 13.5639 14.2296C13.4444 14.104 13.3278 14.0162 13.212 13.9672C13.0606 13.9039 12.8792 13.862 12.6805 13.862C12.4494 13.862 12.2388 13.8999 12.0683 13.9783C11.8974 14.0567 11.7538 14.1637 11.6412 14.2969C11.5286 14.4297 11.4438 14.5878 11.39 14.7674C11.3362 14.9461 11.3084 15.1408 11.3084 15.3462C11.3084 15.5552 11.3367 15.7499 11.3928 15.925C11.4493 16.1014 11.5396 16.2569 11.6617 16.3856C11.7834 16.5153 11.9402 16.6169 12.128 16.6877C12.3145 16.7581 12.541 16.7947 12.8013 16.7942C13.3369 16.7924 13.6191 16.6757 13.7353 16.6129C13.7559 16.6017 13.7754 16.5821 13.7508 16.526L13.63 16.194C13.6113 16.1446 13.5599 16.1628 13.5599 16.1628C13.4272 16.211 13.2389 16.2974 12.7981 16.2965C12.511 16.2961 12.2976 16.2132 12.1641 16.0835C12.0268 15.9508 11.9599 15.7556 11.948 15.4803L13.8028 15.482C13.8028 15.482 13.8515 15.4812 13.8566 15.4348C13.8583 15.4153 13.9203 15.0624 13.8009 14.6538ZM7.94743 16.2201C7.87494 16.1635 7.86492 16.1492 7.84032 16.1127C7.80383 16.057 7.78516 15.9777 7.78516 15.877C7.78516 15.7175 7.83894 15.603 7.95063 15.5259C7.94929 15.5264 8.11019 15.39 8.48852 15.3949C8.75425 15.3985 8.99174 15.4368 8.99174 15.4368L8.99174 16.2611L8.99219 16.2611C8.99219 16.2611 8.75653 16.3105 8.49124 16.3261C8.1138 16.3484 7.94605 16.2196 7.94743 16.2201ZM8.68542 14.9462C8.61021 14.9409 8.51264 14.9377 8.39594 14.9377C8.23687 14.9377 8.08325 14.9573 7.9392 14.9952C7.79425 15.0331 7.66388 15.0924 7.55174 15.1707C7.43976 15.2489 7.34773 15.3512 7.2828 15.4697C7.21716 15.5891 7.18388 15.7299 7.18388 15.8877C7.18388 16.0481 7.21213 16.1875 7.26867 16.3016C7.32521 16.4161 7.40679 16.5114 7.51071 16.585C7.61372 16.6585 7.74092 16.7124 7.88859 16.7449C8.03401 16.7774 8.19901 16.7939 8.37954 16.7939C8.56962 16.7939 8.75925 16.7788 8.94295 16.748C9.12483 16.7177 9.34819 16.6736 9.41017 16.6598C9.45364 16.6496 9.49695 16.6387 9.54009 16.6273C9.58616 16.6162 9.58251 16.568 9.58251 16.568L9.58158 14.9101C9.58158 14.5465 9.48221 14.2769 9.28666 14.1099C9.092 13.9432 8.80528 13.859 8.4347 13.859C8.29565 13.859 8.07184 13.8777 7.93782 13.904C7.93782 13.904 7.53258 13.9807 7.36573 14.1081C7.36573 14.1081 7.32928 14.1304 7.34933 14.1803L7.48063 14.5252C7.49703 14.5697 7.54126 14.5546 7.54126 14.5546C7.54126 14.5546 7.55539 14.5492 7.57182 14.5399C7.92876 14.3501 8.38002 14.3558 8.38002 14.3558C8.58061 14.3558 8.73468 14.395 8.83859 14.473C8.93978 14.5487 8.99129 14.6632 8.99129 14.9047L8.99129 14.9814C8.83174 14.9591 8.68542 14.9462 8.68542 14.9462ZM23.6453 14.0121C23.6594 13.9711 23.6298 13.9515 23.6175 13.947C23.586 13.935 23.4283 13.9025 23.3066 13.8949C23.0737 13.8811 22.9443 13.9194 22.8284 13.9702C22.7136 14.021 22.5859 14.1029 22.5148 14.1961L22.5148 13.9755C22.5148 13.9448 22.4925 13.9203 22.4615 13.9203L21.986 13.9203C21.955 13.9203 21.9327 13.9448 21.9327 13.9755L21.9327 16.6796C21.9327 16.7099 21.9582 16.7349 21.9892 16.7349L22.4765 16.7349C22.4914 16.7348 22.5057 16.7289 22.5162 16.7186C22.5267 16.7082 22.5326 16.6942 22.5326 16.6796L22.5326 15.3287C22.5326 15.1474 22.5531 14.9665 22.5941 14.8529C22.6342 14.7405 22.689 14.6506 22.7564 14.5859C22.8243 14.5218 22.9014 14.4768 22.9857 14.4514C23.0718 14.4255 23.1671 14.4171 23.2346 14.4171C23.3317 14.4171 23.4383 14.4416 23.4383 14.4416C23.4739 14.4456 23.494 14.4242 23.5058 14.3926C23.5377 14.3097 23.628 14.0615 23.6453 14.0121Z" fill="white"/>
<path d="M19.0711 12.7588C19.0119 12.7409 18.9581 12.7289 18.8879 12.716C18.8167 12.7035 18.732 12.6973 18.6358 12.6973C18.3003 12.6973 18.0359 12.7899 17.8504 12.9726C17.6658 13.1544 17.5404 13.4311 17.4775 13.7951L17.4547 13.9176L17.0335 13.9176C17.0335 13.9176 16.9824 13.9159 16.9715 13.9702L16.9027 14.3476C16.8977 14.3833 16.9136 14.406 16.9628 14.406L17.3727 14.406L16.9569 16.6748C16.9245 16.8575 16.8872 17.0076 16.8457 17.1216C16.8051 17.234 16.7655 17.3181 16.7162 17.3796C16.6688 17.4385 16.6241 17.4821 16.5466 17.5075C16.4828 17.5284 16.409 17.5382 16.3283 17.5382C16.2836 17.5382 16.2239 17.5311 16.1797 17.5222C16.1359 17.5137 16.1127 17.5044 16.0794 17.4905C16.0794 17.4905 16.0315 17.4727 16.0124 17.5195C15.9973 17.5583 15.8879 17.8519 15.8747 17.888C15.862 17.9241 15.8802 17.9522 15.9034 17.9606C15.9581 17.9793 15.9987 17.9918 16.073 18.0092C16.176 18.0328 16.2631 18.0341 16.3447 18.0341C16.5151 18.0341 16.671 18.0105 16.8001 17.9651C16.9295 17.9192 17.0425 17.8394 17.1428 17.7316C17.2509 17.6149 17.3188 17.4928 17.3836 17.3257C17.4478 17.1608 17.503 16.9559 17.5467 16.7171L17.9647 14.406L18.5756 14.406C18.5756 14.406 18.627 14.4078 18.6376 14.353L18.7068 13.976C18.7114 13.94 18.6959 13.9177 18.6462 13.9177L18.0531 13.9177C18.0564 13.9048 18.0832 13.7007 18.1512 13.5087C18.1803 13.4272 18.235 13.3607 18.2811 13.3153C18.3267 13.2707 18.3791 13.2391 18.4366 13.2208C18.4954 13.2021 18.5624 13.1932 18.6358 13.1932C18.6914 13.1932 18.7465 13.1994 18.788 13.2079C18.8454 13.2199 18.8678 13.2262 18.8828 13.2307C18.9435 13.2485 18.9516 13.2311 18.9635 13.2026L19.1053 12.8221C19.1199 12.781 19.0839 12.7636 19.0711 12.7588ZM10.7851 16.6797C10.7851 16.71 10.7628 16.7345 10.7317 16.7345L10.2399 16.7345C10.2089 16.7345 10.187 16.71 10.187 16.6797L10.187 12.8104C10.187 12.7802 10.2089 12.7557 10.2399 12.7557L10.7317 12.7557C10.7628 12.7557 10.7851 12.7802 10.7851 12.8104L10.7851 16.6797Z" fill="white"/>
</g>
<defs>
<clipPath id="clip0_13465_4994">
<rect width="32" height="32" fill="white"/>
</clipPath>
</defs>
</svg>
