<svg width="32" height="32" viewBox="0 0 32 32" fill="none" xmlns="http://www.w3.org/2000/svg">
<g clip-path="url(#clip0_13465_4949)">
<path fill-rule="evenodd" clip-rule="evenodd" d="M25.7325 10.2298L21.3518 10.2271L21.3518 20.4764L17.5251 10.2271L13.7308 10.2271L10.4634 18.7983C10.1154 16.6372 7.84346 15.8909 6.05604 15.3314C4.87575 14.9584 3.62349 14.4098 3.63504 13.8036C3.64486 13.3059 4.30682 12.8437 5.61822 12.9132C6.4999 12.9592 7.27723 13.0292 8.82443 13.7634L10.3463 11.1557C8.93385 10.4487 6.98261 10.0017 5.38372 10L5.37444 10C3.50996 10 1.95596 10.5944 0.992804 11.5742C0.321454 12.2583 -0.0401746 13.1273 -0.0552829 14.0886C-0.07978 15.4111 0.413183 16.3496 1.44886 17.0978C2.32342 17.729 3.44187 18.1378 4.42768 18.4386C5.64391 18.8094 6.63642 19.1316 6.62487 19.8192C6.61591 20.0693 6.51943 20.3026 6.33662 20.4922C6.0337 20.7998 5.56782 20.9154 4.92464 20.9273C3.68392 20.9531 2.7635 20.7618 1.29756 19.9095L-0.055283 22.554C1.40656 23.3721 3.13754 23.8519 4.90371 23.8519L5.13098 23.8494C6.66847 23.8222 7.90929 23.391 8.9004 22.6057C8.95727 22.5615 9.00842 22.5159 9.06098 22.4701L8.62143 23.6248L12.6009 23.6248L13.2688 21.6261C13.9677 21.8612 14.7631 21.991 15.608 21.991C16.4301 21.991 17.2046 21.8668 17.891 21.6457L18.5348 23.6248L25.0246 23.6248L25.0246 19.4867L26.4397 19.4867C29.8613 19.4867 31.8847 17.772 31.8847 14.8991C31.8847 11.6986 29.9186 10.23 25.7323 10.23L25.7325 10.2298ZM15.6082 18.9997C15.097 18.9997 14.6178 18.9118 14.2046 18.7581L15.5931 14.4475L15.6194 14.4475L16.9838 18.7703C16.5736 18.9136 16.1056 18.9997 15.6083 18.9997L15.6082 18.9997ZM25.9897 16.5229L25.0248 16.5229L25.0248 13.0493L25.9897 13.0493C27.2768 13.0493 28.3031 13.47 28.3031 14.7631C28.3031 16.1013 27.2768 16.5229 25.9897 16.5229Z" fill="#0C0C0C"/>
</g>
<defs>
<clipPath id="clip0_13465_4949">
<rect width="32" height="32" fill="white"/>
</clipPath>
</defs>
</svg>
