<svg width="60" height="21" viewBox="0 0 60 21" fill="none" xmlns="http://www.w3.org/2000/svg">
<path fill-rule="evenodd" clip-rule="evenodd" d="M12.982 2.55756C12.5916 2.1657 12.0683 1.94644 11.5234 1.94644C10.9786 1.94644 10.4553 2.1657 10.0649 2.55756L2.28639 10.4242C2.15622 10.5546 1.98186 10.6276 1.80033 10.6276C1.61881 10.6276 1.44445 10.5546 1.31428 10.4242C1.25055 10.3602 1.1999 10.2838 1.16531 10.1994C1.13072 10.1149 1.1129 10.0242 1.1129 9.93249C1.1129 9.84082 1.13072 9.75008 1.16531 9.66563C1.1999 9.58119 1.25055 9.50475 1.31428 9.44083L9.09276 1.57424C9.74343 0.921238 10.6155 0.555863 11.5234 0.555863C12.4314 0.555863 13.3034 0.921238 13.9541 1.57424C14.3306 1.95182 14.615 2.41598 14.7841 2.92872C14.9533 3.44146 15.0022 3.98821 14.927 4.52421C15.4537 4.44696 15.9905 4.49545 16.4961 4.66594C17.0018 4.83642 17.4627 5.12435 17.8434 5.50754L17.8838 5.5492C18.2024 5.86877 18.4557 6.25096 18.6286 6.6732C18.8016 7.09544 18.8907 7.54915 18.8907 8.00751C18.8907 8.46587 18.8016 8.91958 18.6286 9.34182C18.4557 9.76406 18.2024 10.1463 17.8838 10.4658L10.8487 17.5799C10.8275 17.6012 10.8106 17.6267 10.7991 17.6548C10.7875 17.6829 10.7816 17.7131 10.7816 17.7437C10.7816 17.7742 10.7875 17.8044 10.7991 17.8326C10.8106 17.8607 10.8275 17.8861 10.8487 17.9074L12.2935 19.3691C12.3573 19.433 12.4079 19.5094 12.4425 19.5939C12.4771 19.6783 12.4949 19.7691 12.4949 19.8607C12.4949 19.9524 12.4771 20.0432 12.4425 20.1276C12.4079 20.212 12.3573 20.2885 12.2935 20.3524C12.1634 20.4829 11.989 20.5559 11.8075 20.5559C11.626 20.5559 11.4516 20.4829 11.3214 20.3524L9.87659 18.8916C9.72778 18.7425 9.60948 18.5641 9.5287 18.367C9.44792 18.1699 9.4063 17.9581 9.4063 17.7441C9.4063 17.5301 9.44792 17.3183 9.5287 17.1212C9.60948 16.9241 9.72778 16.7457 9.87659 16.5966L16.9116 9.48167C17.1027 9.28987 17.2546 9.06053 17.3583 8.8072C17.462 8.55386 17.5154 8.28166 17.5154 8.00668C17.5154 7.7317 17.462 7.4595 17.3583 7.20616C17.2546 6.95283 17.1027 6.72349 16.9116 6.53169L16.8712 6.49086C16.4812 6.09941 15.9586 5.88017 15.4144 5.8797C14.8701 5.87924 14.3472 6.09758 13.9565 6.48836L8.16106 12.35L8.15944 12.3516L8.08025 12.4325C7.95005 12.5632 7.77551 12.6363 7.59379 12.6363C7.41208 12.6363 7.23754 12.5632 7.10733 12.4325C7.04361 12.3686 6.99295 12.2921 6.95836 12.2077C6.92377 12.1232 6.90595 12.0325 6.90595 11.9408C6.90595 11.8491 6.92377 11.7584 6.95836 11.6739C6.99295 11.5895 7.04361 11.5131 7.10733 11.4491L12.9844 5.50504C13.175 5.31311 13.3264 5.08379 13.4296 4.8306C13.5329 4.57741 13.586 4.30545 13.5858 4.03077C13.5855 3.75609 13.532 3.48423 13.4283 3.23122C13.3246 2.9782 13.1729 2.74915 12.982 2.55756Z" fill="black"/>
<path fill-rule="evenodd" clip-rule="evenodd" d="M12.0099 4.52421C12.0736 4.4603 12.1243 4.38386 12.1589 4.29941C12.1935 4.21496 12.2113 4.12422 12.2113 4.03255C12.2113 3.94088 12.1935 3.85013 12.1589 3.76569C12.1243 3.68124 12.0736 3.6048 12.0099 3.54089C11.8797 3.41017 11.7052 3.33702 11.5234 3.33702C11.3417 3.33702 11.1672 3.41017 11.037 3.54089L5.28433 9.35917C4.96569 9.67873 4.71241 10.0609 4.53947 10.4832C4.36652 10.9054 4.27741 11.3591 4.27741 11.8175C4.27741 12.2758 4.36652 12.7296 4.53947 13.1518C4.71241 13.574 4.96569 13.9562 5.28433 14.2758C5.9351 14.9286 6.80714 15.2938 7.715 15.2938C8.62287 15.2938 9.49491 14.9286 10.1457 14.2758L15.8991 8.45751C15.9629 8.3936 16.0135 8.31716 16.0481 8.23271C16.0827 8.14826 16.1005 8.05752 16.1005 7.96585C16.1005 7.87417 16.0827 7.78343 16.0481 7.69898C16.0135 7.61454 15.9629 7.5381 15.8991 7.47418C15.7689 7.34346 15.5944 7.27032 15.4127 7.27032C15.231 7.27032 15.0564 7.34346 14.9262 7.47418L9.17357 13.2925C8.78313 13.6843 8.25982 13.9036 7.715 13.9036C7.17018 13.9036 6.64687 13.6843 6.25644 13.2925C6.06535 13.1007 5.91348 12.8713 5.80977 12.618C5.70607 12.3647 5.65264 12.0925 5.65264 11.8175C5.65264 11.5425 5.70607 11.2703 5.80977 11.017C5.91348 10.7636 6.06535 10.5343 6.25644 10.3425L12.0099 4.52421Z" fill="black"/>
<path d="M26.3867 5.04531H28.3473L31.756 13.3685H31.8815L35.2902 5.04531H37.2508V15.7525H35.7137V8.00444H35.6144L32.4566 15.7369H31.1809L28.0231 7.99921H27.9238V15.7525H26.3867V5.04531Z" fill="black"/>
<path d="M48.4926 8.52725H46.8614C46.7987 8.17871 46.6819 7.87199 46.5111 7.6071C46.3403 7.34221 46.1312 7.1174 45.8837 6.93267C45.6363 6.74794 45.3592 6.60853 45.0525 6.51442C44.7492 6.42031 44.4268 6.37326 44.0853 6.37326C43.4683 6.37326 42.9159 6.52836 42.4279 6.83856C41.9435 7.14877 41.5601 7.60362 41.2778 8.20311C40.9989 8.8026 40.8595 9.53454 40.8595 10.3989C40.8595 11.2703 40.9989 12.0057 41.2778 12.6052C41.5601 13.2047 41.9452 13.6578 42.4332 13.9645C42.9211 14.2712 43.4701 14.4246 44.08 14.4246C44.4181 14.4246 44.7388 14.3793 45.042 14.2887C45.3487 14.1946 45.6258 14.0569 45.8733 13.8756C46.1208 13.6944 46.3299 13.4731 46.5007 13.2117C46.6749 12.9468 46.7952 12.6435 46.8614 12.302L48.4926 12.3072C48.4054 12.8335 48.2364 13.318 47.9855 13.7606C47.738 14.1998 47.4191 14.5797 47.0287 14.9004C46.6418 15.2175 46.1992 15.4632 45.7008 15.6375C45.2023 15.8118 44.6586 15.8989 44.0696 15.8989C43.1425 15.8989 42.3164 15.6793 41.5914 15.2402C40.8665 14.7975 40.2949 14.1649 39.8766 13.3424C39.4619 12.5198 39.2545 11.5387 39.2545 10.3989C39.2545 9.25571 39.4636 8.27456 39.8818 7.45548C40.3001 6.63292 40.8717 6.00206 41.5967 5.5629C42.3216 5.12025 43.1459 4.89893 44.0696 4.89893C44.6377 4.89893 45.1675 4.98083 45.6589 5.14465C46.1539 5.30498 46.5983 5.54199 46.9921 5.85567C47.386 6.16588 47.7118 6.54579 47.9698 6.99541C48.2277 7.44154 48.402 7.95216 48.4926 8.52725Z" fill="black"/>
<path d="M50.4257 15.7525V5.04531H54.2422C55.0752 5.04531 55.7654 5.19693 56.3126 5.50016C56.8598 5.80339 57.2693 6.21816 57.5412 6.74446C57.813 7.26727 57.949 7.85631 57.949 8.51157C57.949 9.17031 57.8113 9.76284 57.5359 10.2891C57.2641 10.8119 56.8528 11.2267 56.3021 11.5334C55.7549 11.8367 55.0665 11.9883 54.237 11.9883H51.6125V10.6185H54.0906C54.6169 10.6185 55.0439 10.5279 55.3715 10.3466C55.6991 10.1619 55.9396 9.91097 56.093 9.59379C56.2463 9.27662 56.323 8.91588 56.323 8.51157C56.323 8.10726 56.2463 7.74826 56.093 7.43457C55.9396 7.12088 55.6974 6.87516 55.3663 6.69741C55.0386 6.51965 54.6065 6.43077 54.0697 6.43077H52.0412V15.7525H50.4257Z" fill="black"/>
</svg>
