<svg width="32" height="32" viewBox="0 0 32 32" fill="none" xmlns="http://www.w3.org/2000/svg">
<g clip-path="url(#clip0_13465_5025)">
<path fill-rule="evenodd" clip-rule="evenodd" d="M11.9993 0.433594C10.341 0.434858 8.99886 1.82275 9.00008 3.53296C8.99886 5.24318 10.3422 6.63107 12.0006 6.63233L15.0011 6.63233L15.0011 3.53423C15.0023 1.82401 13.6589 0.436122 11.9993 0.433594C12.0006 0.433594 12.0006 0.433594 11.9993 0.433594ZM11.9993 8.70026L4.00049 8.70026C2.34213 8.70152 0.998778 10.0894 1 11.7996C0.997552 13.5098 2.34091 14.8977 3.99927 14.9003L11.9993 14.9003C13.6577 14.899 15.0011 13.5111 14.9998 11.8009C15.0011 10.0894 13.6577 8.70152 11.9993 8.70026Z" fill="black"/>
<path fill-rule="evenodd" clip-rule="evenodd" d="M30.9998 11.7996C31.0011 10.0894 29.6577 8.70152 27.9993 8.70026C26.341 8.70152 24.9976 10.0894 24.9989 11.7996L24.9989 14.9003L27.9993 14.9003C29.6577 14.899 31.0011 13.5111 30.9998 11.7996ZM22.9998 11.7996L22.9998 3.53296C23.001 1.82401 21.6589 0.436122 20.0005 0.433594C18.3421 0.434858 16.9988 1.82275 17 3.53296L17 11.7996C16.9976 13.5098 18.3409 14.8977 19.9993 14.9003C21.6576 14.899 23.001 13.5111 22.9998 11.7996Z" fill="black"/>
<path fill-rule="evenodd" clip-rule="evenodd" d="M19.9995 31.4338C21.6579 31.4325 23.0012 30.0446 23 28.3344C23.0012 26.6242 21.6579 25.2363 19.9995 25.235L16.999 25.235L16.999 28.3344C16.9978 30.0433 18.3412 31.4312 19.9995 31.4338ZM19.9995 23.1658L27.9996 23.1658C29.658 23.1646 31.0013 21.7767 31.0001 20.0665C31.0025 18.3562 29.6592 16.9683 28.0008 16.9658L20.0007 16.9658C18.3424 16.9671 16.999 18.355 17.0002 20.0652C16.999 21.7767 18.3412 23.1646 19.9995 23.1658Z" fill="black"/>
<path fill-rule="evenodd" clip-rule="evenodd" d="M1 20.0662C0.998775 21.7764 2.34213 23.1643 4.00049 23.1655C5.65885 23.1643 7.00221 21.7764 7.00098 20.0662L7.00098 16.9668L4.00049 16.9668C2.34213 16.9681 0.998775 18.356 1 20.0662ZM9.00008 20.0662L9.00008 28.3328C8.99763 30.043 10.341 31.4309 11.9993 31.4335C13.6577 31.4322 15.0011 30.0443 14.9998 28.3341L14.9998 20.0687C15.0023 18.3585 13.6589 16.9706 12.0006 16.9681C10.341 16.9681 8.99886 18.356 9.00008 20.0662Z" fill="black"/>
</g>
<defs>
<clipPath id="clip0_13465_5025">
<rect width="32" height="32" fill="white"/>
</clipPath>
</defs>
</svg>
