<svg width="32" height="32" viewBox="0 0 32 32" fill="none" xmlns="http://www.w3.org/2000/svg">
<g clip-path="url(#clip0_13465_5041)">
<path fill-rule="evenodd" clip-rule="evenodd" d="M30.9608 13.803L27.1804 15.9802L30.9608 18.1506C31.1941 18.2772 31.3996 18.449 31.5653 18.6559C31.731 18.8628 31.8534 19.1007 31.9254 19.3554C31.9974 19.6102 32.0176 19.8767 31.9846 20.1393C31.9517 20.402 31.8663 20.6554 31.7336 20.8846C31.6009 21.1139 31.4234 21.3144 31.2117 21.4743C31 21.6343 30.7584 21.7504 30.5009 21.8159C30.2435 21.8814 29.9755 21.895 29.7128 21.8558C29.45 21.8166 29.1978 21.7254 28.9709 21.5877L22.1994 17.6942C21.7636 17.4453 21.4398 17.0399 21.2944 16.561C21.2284 16.3527 21.1981 16.1347 21.205 15.9163C21.2096 15.76 21.2325 15.6036 21.2738 15.4473C21.4135 14.945 21.7449 14.5171 22.1971 14.2548L28.9663 10.3659C29.1928 10.2358 29.4428 10.1515 29.702 10.1177C29.9612 10.0838 30.2245 10.1012 30.477 10.1689C30.7294 10.2365 30.966 10.353 31.1733 10.5117C31.3805 10.6704 31.5543 10.8683 31.6848 11.0939C31.8167 11.3188 31.9027 11.5675 31.9377 11.8257C31.9727 12.0838 31.9561 12.3463 31.8888 12.598C31.8214 12.8497 31.7048 13.0857 31.5455 13.2923C31.3863 13.4989 31.1875 13.6732 30.9608 13.803ZM27.3808 24.3537L20.615 20.4671C20.2667 20.2639 19.8637 20.173 19.4615 20.2069C18.9601 20.2436 18.4914 20.4681 18.1496 20.8352C17.8077 21.2024 17.6183 21.6849 17.6194 22.1856L17.6194 29.968C17.613 30.2325 17.6598 30.4957 17.757 30.7419C17.8542 30.9881 17.9999 31.2125 18.1855 31.4019C18.3711 31.5912 18.5928 31.7416 18.8376 31.8444C19.0824 31.9471 19.3453 32 19.6109 32C19.8766 32 20.1395 31.9471 20.3843 31.8444C20.6291 31.7416 20.8508 31.5912 21.0364 31.4019C21.222 31.2125 21.3677 30.9881 21.4649 30.7419C21.5621 30.4957 21.6089 30.2325 21.6025 29.968L21.6025 25.6147L25.391 27.793C25.6171 27.9239 25.8669 28.0091 26.1262 28.0436C26.3854 28.078 26.6489 28.0612 26.9016 27.994C27.1543 27.9268 27.3912 27.8105 27.5986 27.6519C27.8061 27.4932 27.9801 27.2953 28.1106 27.0696C28.3748 26.6129 28.4463 26.0705 28.3095 25.5613C28.1727 25.0522 27.8387 24.6179 27.3808 24.3537ZM19.5726 16.7402L16.759 19.5393C16.6627 19.6288 16.5377 19.6814 16.4062 19.6877L15.5802 19.6877C15.4489 19.6805 15.3242 19.6281 15.2274 19.5393L12.4139 16.7402C12.3263 16.644 12.2749 16.5207 12.2684 16.391L12.2684 15.5671C12.2684 15.453 12.3325 15.2944 12.4139 15.2134L15.2251 12.4154C15.3221 12.3272 15.4468 12.2756 15.5779 12.2693L16.4062 12.2693C16.5208 12.2693 16.6777 12.3332 16.759 12.4154L19.5726 15.2145C19.6528 15.2944 19.7181 15.453 19.7181 15.5683L19.7181 16.3921C19.7107 16.5216 19.6594 16.6436 19.5726 16.7402ZM17.3238 15.9642C17.3148 15.8329 17.262 15.7084 17.1737 15.6105L16.3604 14.8014C16.2629 14.7133 16.1379 14.6613 16.0064 14.6542L15.9743 14.6542C15.8438 14.6618 15.7199 14.7143 15.6238 14.8026L14.8104 15.6105C14.7241 15.709 14.6737 15.8336 14.6672 15.9642L14.6672 15.9962C14.6672 16.1091 14.7291 16.2655 14.8093 16.3454L15.6238 17.1556C15.704 17.2366 15.8609 17.3039 15.9743 17.3039L16.0064 17.3039C16.1375 17.2959 16.262 17.2435 16.3592 17.1556L17.1737 16.3454C17.2619 16.2493 17.3145 16.1261 17.3227 15.9962L17.3238 15.9642ZM4.60445 7.59756L11.3737 11.4888C11.738 11.6976 12.1412 11.7809 12.5284 11.7489C13.0299 11.7112 13.4985 11.4861 13.8403 11.1187C14.1821 10.7514 14.3719 10.2689 14.3716 9.76796L14.3716 1.98554C14.3592 1.46764 14.1439 0.975121 13.7717 0.613219C13.3996 0.251316 12.9001 0.0487239 12.3801 0.0487239C11.86 0.0487239 11.3605 0.251316 10.9884 0.613219C10.6162 0.975121 10.4009 1.46764 10.3885 1.98554L10.3885 6.34005L6.59661 4.15823C6.13875 3.89493 5.59463 3.82359 5.08396 3.95991C4.57329 4.09623 4.1379 4.42904 3.87357 4.88512C3.60925 5.3412 3.53763 5.8832 3.67448 6.39188C3.81133 6.90056 4.14659 7.33426 4.60445 7.59756ZM19.4626 11.7489C19.8644 11.7817 20.2667 11.6909 20.615 11.4888L27.3808 7.59756C27.8386 7.33384 28.1725 6.89995 28.3093 6.39116C28.4462 5.88238 28.3747 5.3403 28.1106 4.88398C27.8465 4.42853 27.4117 4.09621 26.9016 3.96011C26.3916 3.82401 25.8482 3.89527 25.391 4.15823L21.6014 6.34119L21.6014 1.98326C21.6014 1.45727 21.3916 0.952818 21.0182 0.580884C20.6448 0.20895 20.1384 2.40148e-07 19.6104 2.33851e-07C19.0823 2.27554e-07 18.5759 0.20895 18.2025 0.580884C17.8291 0.952818 17.6194 1.45727 17.6194 1.98326L17.6194 9.76682C17.6183 10.2678 17.8076 10.7506 18.1494 11.1181C18.4911 11.4856 18.9599 11.7106 19.4615 11.7478L19.4626 11.7489ZM12.5284 20.2069C12.1258 20.1728 11.7224 20.2637 11.3737 20.4671L4.60331 24.3537C4.14604 24.6185 3.81273 25.0529 3.67638 25.562C3.54004 26.071 3.61177 26.6131 3.87587 27.0696C4.1403 27.5243 4.57511 27.8559 5.08482 27.9916C5.59452 28.1272 6.13743 28.0558 6.59432 27.793L10.3862 25.6147L10.3862 29.9692C10.3862 30.4953 10.596 30.9999 10.9695 31.3719C11.343 31.744 11.8496 31.953 12.3778 31.953C12.906 31.953 13.4125 31.744 13.786 31.3719C14.1595 30.9999 14.3694 30.4953 14.3694 29.9692L14.3694 22.1856C14.3707 21.685 14.1815 21.2025 13.8399 20.8353C13.4983 20.4681 13.0296 20.2436 12.5284 20.2069ZM10.6932 16.561C10.7596 16.3499 10.7871 16.132 10.7826 15.9163C10.7731 15.5773 10.6762 15.2464 10.5012 14.9554C10.3263 14.6645 10.0792 14.4232 9.78361 14.2548L3.02012 10.3659C2.79364 10.2355 2.54356 10.1509 2.2842 10.1169C2.02485 10.0829 1.7613 10.1002 1.50867 10.1678C1.25604 10.2355 1.01929 10.3521 0.811974 10.511C0.604658 10.6699 0.430854 10.868 0.300518 11.0939C0.169225 11.3192 0.0839116 11.5681 0.049479 11.8264C0.0150464 12.0846 0.0321729 12.3471 0.0998746 12.5987C0.167576 12.8503 0.284519 13.0861 0.443986 13.2926C0.603452 13.4991 0.802299 13.6721 1.02911 13.8018L4.80951 15.9802L1.02681 18.1506C0.795403 18.2783 0.591842 18.4506 0.428009 18.6575C0.264176 18.8644 0.143353 19.1018 0.072591 19.3557C0.00182884 19.6096 -0.0174552 19.875 0.0158643 20.1364C0.0491838 20.3978 0.134439 20.65 0.266656 20.8782C0.398872 21.1065 0.575401 21.3062 0.785941 21.4658C0.996482 21.6253 1.23682 21.7415 1.49292 21.8075C1.74902 21.8736 2.01576 21.8882 2.27758 21.8504C2.53939 21.8126 2.79104 21.7233 3.01783 21.5877L9.78246 17.6942C10.2407 17.434 10.55 17.0232 10.6932 16.561Z" fill="black"/>
</g>
<defs>
<clipPath id="clip0_13465_5041">
<rect width="32" height="32" fill="white"/>
</clipPath>
</defs>
</svg>
