<svg width="127" height="26" viewBox="0 0 127 26" fill="none" xmlns="http://www.w3.org/2000/svg">
<g clip-path="url(#clip0_11811_1931)">
<path d="M107.645 6.2756H110.352V3.56924H107.645V6.2756ZM48.2334 12.9812L42.5862 11.6162C40.6809 11.1707 39.6922 10.1118 39.6922 8.53523C39.6922 6.34768 41.7171 4.88932 44.7284 4.88932C47.7397 4.88932 49.6935 6.44105 49.9054 8.98195L49.9291 9.31052H52.3294V8.93466C52.211 5.26514 49.105 2.65332 44.7295 2.65332C40.3541 2.65332 37.3179 5.14696 37.3179 8.55766C37.3179 11.2865 38.9888 13.1455 41.9764 13.9219L47.5999 15.2858C49.5052 15.7349 50.494 16.815 50.494 18.3916C50.494 20.6962 48.353 22.1332 44.8929 22.1332C41.434 22.1332 39.3405 20.6028 39.1048 17.9449L39.0811 17.6163H36.6797V17.9697C36.8917 21.898 40.0439 24.3219 44.8681 24.3219C49.6923 24.3219 52.8445 21.9465 52.8445 18.3928C52.8445 15.6403 51.1986 13.7116 48.2323 12.9824M62.9868 8.77159C58.8209 8.77159 56.0216 11.901 56.0216 16.5349C56.0216 21.1677 58.8209 24.2735 62.9868 24.2735C67.1526 24.2735 69.9981 21.0979 69.9981 16.5349C69.9981 11.9719 67.1278 8.77159 62.9868 8.77159ZM62.9868 22.0635C60.1875 22.0635 58.3745 19.8984 58.3745 16.5349C58.3745 13.1703 60.1626 10.9355 62.9868 10.9355C65.8097 10.9355 67.5991 13.1006 67.5991 16.5349C67.5991 19.9693 65.8347 22.0635 62.9868 22.0635ZM73.5991 24.017H75.8821V2.98068H73.5991V24.017ZM102.895 8.77395C101.083 8.77395 99.6469 9.50317 98.9183 11.056V8.98666H96.6804V24.0182H98.9639V15.502C98.9639 13.0084 99.9986 11.1033 102.494 11.1033C103.222 11.1033 104.047 11.1979 104.589 11.2912V9.00917C104.213 8.89095 103.506 8.77395 102.895 8.77395ZM107.837 24.0159H110.141V8.9843H107.837V24.0159ZM122.236 15.6888L119.225 15.1014C117.224 14.7019 116.966 13.8534 116.966 13.1479C116.966 11.784 118.284 10.9119 120.261 10.9119C122.237 10.9119 123.507 11.8065 123.625 13.3582L123.648 13.6655H126.003L125.979 13.2873C125.86 11.2168 124.286 8.77159 120.261 8.77159C117.013 8.77159 114.637 10.6294 114.637 13.1939C114.637 15.359 115.955 16.6992 118.659 17.2642L121.65 17.8515C123.65 18.2758 123.932 19.0522 123.932 19.7814C123.932 21.2398 122.614 22.1096 120.332 22.1096C118.049 22.1096 116.637 21.1216 116.518 19.4517L116.495 19.1232H114.141L114.165 19.5226C114.354 22.4393 116.731 24.2747 120.329 24.2747C123.929 24.2747 126.259 22.4405 126.259 19.7589C126.259 17.6175 124.917 16.2537 122.236 15.6888ZM86.2362 8.77281C83.6718 8.77281 80.5891 9.94866 80.3772 13.2885L80.3535 13.6667H82.6591L82.6827 13.3594C82.9407 11.3137 84.7293 10.8894 86.2354 10.8894C87.9287 10.8894 89.977 11.4082 89.977 13.8085V14.5365L84.7293 15.4299C81.5991 15.9949 79.9058 17.5466 79.9058 19.9469C79.9058 21.9217 81.2239 24.2286 84.8946 24.2286C87.0121 24.2286 88.8471 23.3588 89.9534 21.7822V24.0182H92.1889V13.6679C92.1889 10.5869 89.9534 8.77517 86.2362 8.77517M85.0354 17.4556L89.977 16.6082V17.4319C89.977 20.6784 87.507 22.1368 85.0826 22.1368C83.2949 22.1368 82.2349 21.3142 82.2349 19.9965C82.2349 18.6788 83.1304 17.8089 85.0354 17.4556Z" fill="black"/>
<path d="M4.16956 4.36918C4.11485 4.37065 4.06114 4.38412 4.01222 4.40863C3.96331 4.43314 3.92041 4.46808 3.88655 4.511C1.85064 6.87192 0.73386 9.88512 0.740262 13C0.740262 19.864 6.36971 26 13.2354 26C16.1602 26 18.4623 24.18 18.4623 21.2562C18.4623 18.7602 16.6553 17.004 14.0158 15.8872L10.0631 14.2102C6.87771 12.8582 4.25127 10.4142 4.25127 6.96918C4.25127 6.38418 4.35547 5.37018 4.4727 4.797C4.52599 4.54527 4.36139 4.36918 4.17075 4.36918M14.2502 0C11.3253 0 9.02338 1.82 9.02338 4.74618C9.02338 7.241 10.8304 8.99722 13.4698 10.114L17.4226 11.7922C20.6079 13.143 23.2344 15.587 23.2344 19.0332C23.2344 19.617 23.1302 20.631 23.0129 21.2042C22.962 21.4559 23.1242 21.6332 23.3149 21.6332C23.4096 21.6332 23.5126 21.5894 23.5979 21.4902C25.6338 19.1293 26.7505 16.1161 26.7442 13.0012C26.7442 6.13719 21.1148 0.00118182 14.249 0.00118182" fill="black"/>
</g>
<defs>
<clipPath id="clip0_11811_1931">
<rect width="127" height="26" fill="white"/>
</clipPath>
</defs>
</svg>
