<svg width="32" height="32" viewBox="0 0 32 32" fill="none" xmlns="http://www.w3.org/2000/svg">
<path d="M3.41492 18.4518C3.41492 18.6533 3.37012 18.839 3.27949 19.0099C3.18989 19.1808 3.06384 19.325 2.90341 19.4445C2.74298 19.564 2.55129 19.6569 2.32939 19.7241C2.1075 19.7912 1.86477 19.8238 1.6012 19.8238C1.28554 19.8238 1.00322 19.7833 0.752157 19.7013C0.50109 19.6194 0.251066 19.484 -7.50714e-08 19.2954L0.414624 18.6562C0.613601 18.8143 0.792786 18.9299 0.95426 19.003C1.11469 19.0761 1.27825 19.1126 1.44597 19.1126C1.65224 19.1126 1.81684 19.0632 1.9429 18.9615C2.06895 18.8597 2.13042 18.7244 2.13042 18.5535C2.13042 18.4804 2.11896 18.4113 2.09604 18.3471C2.07312 18.2828 2.03249 18.2176 1.97103 18.1495C1.9106 18.0823 1.82726 18.0092 1.71996 17.9302C1.61474 17.8512 1.47827 17.7534 1.31054 17.6368C1.18241 17.5509 1.05635 17.463 0.935508 17.3721C0.812579 17.2802 0.703194 17.1834 0.603184 17.0787C0.504216 16.975 0.424 16.8594 0.362535 16.731C0.302113 16.6026 0.27086 16.4564 0.27086 16.2924C0.27086 16.1037 0.31253 15.9299 0.395872 15.7748C0.479213 15.6187 0.592766 15.4863 0.737572 15.3777C0.881336 15.267 1.05427 15.1821 1.25741 15.1218C1.45952 15.0616 1.67829 15.03 1.91685 15.03C2.16792 15.03 2.40961 15.0626 2.64401 15.1248C2.87841 15.189 3.09509 15.2809 3.29511 15.4024L2.91903 15.9773C2.66172 15.8064 2.3919 15.7214 2.10854 15.7214C1.93561 15.7214 1.79184 15.7639 1.67933 15.8499C1.56578 15.9358 1.51056 16.0425 1.51056 16.1709C1.51056 16.2993 1.55953 16.403 1.65954 16.5008C1.7585 16.5986 1.92935 16.7359 2.17313 16.9127C2.41794 17.0836 2.62213 17.2338 2.7836 17.3622C2.94508 17.4906 3.07217 17.6111 3.16593 17.7247C3.25969 17.8383 3.32428 17.9519 3.3597 18.0685C3.39512 18.1851 3.41283 18.3125 3.41283 18.4527L3.41596 18.4527L3.41492 18.4518ZM9.02901 17.3276C9.02901 17.6872 8.97171 18.0181 8.85399 18.3204C8.73731 18.6227 8.57688 18.8854 8.36957 19.1116C8.16225 19.3378 7.91848 19.5127 7.63408 19.6371C7.35072 19.7616 7.04444 19.8238 6.7142 19.8238C6.56627 19.8238 6.42771 19.812 6.29853 19.7873C6.16935 19.7626 6.04642 19.7211 5.93079 19.6638C5.81515 19.6065 5.70056 19.5314 5.587 19.4396C5.47345 19.3477 5.35677 19.2351 5.23384 19.1008L5.23384 22L3.99414 22L3.99414 15.1416L5.23384 15.1416L5.24009 15.8094C5.46616 15.5417 5.71097 15.3441 5.9735 15.2196C6.23811 15.0942 6.54439 15.0329 6.89234 15.0329C7.208 15.0329 7.49656 15.0892 7.75596 15.2018C8.01745 15.3145 8.24247 15.4715 8.43207 15.673C8.62168 15.8745 8.76856 16.1146 8.8717 16.3961C8.97483 16.6767 9.02588 16.9878 9.02588 17.3286L9.02796 17.3286L9.02901 17.3276ZM7.68096 17.375C7.68096 16.8742 7.5747 16.4791 7.36009 16.1887C7.14653 15.8983 6.85588 15.754 6.48605 15.754C6.09747 15.754 5.78911 15.9081 5.56304 16.2163C5.33698 16.5245 5.22238 16.9414 5.22238 17.4659C5.22238 17.9905 5.3349 18.3816 5.55679 18.675C5.77869 18.9684 6.08705 19.1146 6.47563 19.1146C6.70795 19.1146 6.90172 19.0583 7.05381 18.9457C7.20591 18.8321 7.32884 18.6888 7.4226 18.515C7.51636 18.3411 7.58303 18.1515 7.62158 17.948C7.66012 17.7435 7.67992 17.5528 7.67992 17.375L7.67887 17.375L7.68096 17.375ZM9.5801 19.7132L10.8521 19.7132L10.8521 13L9.5801 13L9.5801 19.7122L9.5801 19.7132ZM16.286 19.7152L16.286 15.1357L15.014 15.1357L15.014 17.6003C15.014 17.8196 15.0046 17.9895 14.9848 18.109C14.966 18.2285 14.9327 18.3362 14.8879 18.435C14.7077 18.8133 14.3785 19.003 13.8993 19.003C13.5253 19.003 13.2628 18.8745 13.1138 18.6177C13.0554 18.5209 13.0148 18.4103 12.9919 18.2878C12.969 18.1653 12.9575 17.9885 12.9575 17.7554L12.9575 15.1357L11.6855 15.1357L11.6855 17.7376C11.6855 17.9144 11.6876 18.0645 11.6907 18.187C11.6938 18.3095 11.7022 18.4172 11.7157 18.513C11.7282 18.6078 11.7439 18.6918 11.7595 18.7649C11.7751 18.838 11.8001 18.9081 11.8324 18.9753C11.9491 19.2568 12.1366 19.4692 12.3981 19.6124C12.6596 19.7557 12.9794 19.8268 13.3586 19.8268C13.7003 19.8268 13.9993 19.7705 14.2576 19.6579C14.516 19.5443 14.766 19.3606 15.0119 19.1037L15.015 19.7162L16.287 19.7162L16.287 19.7142L16.286 19.7142L16.286 19.7152ZM21.773 19.7132L21.773 17.1172C21.773 16.9404 21.7709 16.7893 21.7677 16.6648C21.7646 16.5393 21.7573 16.4327 21.7427 16.3398C21.7302 16.2489 21.7136 16.1679 21.6948 16.0978C21.6761 16.0277 21.6532 15.9595 21.6271 15.8913C21.5104 15.6177 21.3229 15.4063 21.0614 15.2562C20.7999 15.106 20.4801 15.0319 20.0988 15.0319C19.7571 15.0319 19.4581 15.0882 19.1998 15.2018C18.9414 15.3154 18.6914 15.5002 18.4455 15.756L18.4435 15.1436L17.16 15.1436L17.16 19.7132L18.4435 19.7132L18.4435 17.2466C18.4435 17.0333 18.4518 16.8673 18.4685 16.7488C18.4851 16.6302 18.5153 16.5196 18.5612 16.4149C18.6445 16.2321 18.7727 16.0929 18.9446 15.999C19.1164 15.9052 19.3206 15.8578 19.5602 15.8578C19.9342 15.8578 20.1968 15.9862 20.3457 16.241C20.403 16.3378 20.4437 16.4485 20.4666 16.57C20.4895 16.6915 20.501 16.8683 20.501 17.1004L20.501 19.7142L21.773 19.7142L21.773 19.7132ZM27.0412 19.4119L25.1025 17.1261L26.7422 15.4616L25.7775 15.0685L24.0711 16.9424L23.9357 16.9424L23.9357 13L22.6522 13L22.6522 19.7122L23.9357 19.7122L23.9357 17.2802L25.8546 19.8041L27.0412 19.4109L27.0422 19.4109L27.0412 19.4119ZM32 17.7712L32 17.0224L28.1423 15.187L28.1423 16.0089L31.1322 17.3889L28.1423 18.7866L28.1423 19.5907L32 17.7731L32 17.7712Z" fill="black"/>
</svg>
