<svg width="18" height="18" viewBox="0 0 18 18" fill="none" xmlns="http://www.w3.org/2000/svg">
<path d="M9 0.75C4.44365 0.75 0.75 4.44365 0.75 9C0.75 13.5563 4.44365 17.25 9 17.25C13.5563 17.25 17.25 13.5563 17.25 9C17.25 4.44365 13.5563 0.75 9 0.75Z" fill="black"/>
<path d="M16.75 1.75L9.25 9.25" stroke="white" stroke-width="1.4"/>
<path d="M15 9C15 12.3137 12.3137 15 9 15C5.68629 15 3 12.3137 3 9C3 5.68629 5.68629 3 9 3C10.6333 3 12.1141 3.65259 13.196 4.71124" stroke="white" stroke-width="1.4"/>
<path d="M12 9C12 10.6569 10.6569 12 9 12C7.34315 12 6 10.6569 6 9C6 7.34315 7.34315 6 9 6C9.84612 6 10.6104 6.35028 11.1558 6.91374" stroke="white" stroke-width="1.4"/>
</svg>
