<svg width="72" height="72" viewBox="0 0 72 72" fill="none" xmlns="http://www.w3.org/2000/svg">
<g clip-path="url(#clip0_1_335)">
<path d="M50.8941 44.6305V51.1483C50.8941 51.9117 50.6603 52.0683 49.9396 51.9508C45.1087 51.2266 40.2194 50.5611 35.3496 49.8761C34.4731 49.7587 34.1614 49.4455 34.1614 48.4864C34.2393 45.022 34.2004 41.5379 34.1614 38.0344C34.1614 37.271 34.3951 37.0361 35.1548 37.0361C40.1415 37.0753 45.0503 37.0753 49.9396 37.0753C50.7382 37.0753 50.933 37.3884 50.933 38.1127C50.8551 40.3048 50.8941 42.4579 50.8941 44.6305Z" fill="white" style="fill:white;fill-opacity:1;"/>
<path d="M42.6154 35.8226C40.161 35.8226 37.7066 35.7834 35.2522 35.8226C34.4925 35.8226 34.1809 35.666 34.1809 34.7852C34.2198 31.2425 34.2198 27.7585 34.1809 24.2549C34.1809 23.5698 34.4146 23.3349 35.0574 23.2175C40.0831 22.4933 45.1087 21.7887 50.1344 21.0253C51.0109 20.9079 50.8551 21.4951 50.8551 21.9844C50.8551 25.1161 50.8941 28.3065 50.8551 31.4382C50.8551 32.593 50.8161 33.7478 50.8551 34.9026C50.8941 35.6268 50.6213 35.8226 49.9396 35.8226C47.5241 35.7834 45.0698 35.8226 42.6154 35.8226Z" fill="white" style="fill:white;fill-opacity:1;"/>
<path d="M26.3697 37.134H31.8628C32.4472 37.134 32.7005 37.3297 32.7005 37.9365V48.8191C32.7005 49.4455 32.4277 49.5042 31.8628 49.4455C28.2202 48.8974 24.5776 48.3689 20.9545 47.86C20.2338 47.7426 20 47.5077 20 46.7444C20.039 43.8476 20.039 40.9507 20 37.9952C20 37.271 20.1948 37.0753 20.9155 37.0753C22.7661 37.134 24.5387 37.134 26.3697 37.134Z" fill="white" style="fill:white;fill-opacity:1;"/>
<path d="M26.3697 35.8226H20.9545C20.2727 35.8226 20.039 35.5877 20.039 34.8635C20.0779 32.0058 20.0779 29.1482 20.039 26.2709C20.039 25.5859 20.2337 25.351 20.9545 25.2335C24.5971 24.7638 28.2397 24.2353 31.8628 23.6481C32.7005 23.5307 32.7784 23.8047 32.7784 24.4898V34.9027C32.7784 35.666 32.4667 35.7834 31.7849 35.7834C29.9734 35.7834 28.1423 35.8226 26.3697 35.8226Z" fill="white" style="fill:white;fill-opacity:1;"/>
</g>
<defs>
<clipPath id="clip0_1_335">
<rect width="31" height="31" fill="white" style="fill:white;fill-opacity:1;" transform="translate(20 21)"/>
</clipPath>
</defs>
</svg>
