<svg width="32" height="31" viewBox="0 0 32 31" fill="none" xmlns="http://www.w3.org/2000/svg">
<g clip-path="url(#clip0_13465_5057)">
<path d="M22.9341 31.9981L20.1809 31.9981C19.7678 31.9981 19.4284 31.8013 19.3163 31.3277L15.9994 19.1563L12.6826 31.3308C12.5704 31.8044 12.231 32.0012 11.8179 32.0012L9.06468 32.0012C8.61321 32.0012 8.3476 31.8044 8.20008 31.3308C6.4236 26.1953 5.21962 21.0937 4.20154 15.9582C4.0894 15.4415 4.31368 15.0879 4.83894 15.0879L7.29118 15.0879C7.74267 15.0879 8.04365 15.3247 8.12335 15.7583C8.76073 19.3962 9.51913 23.1448 10.5372 26.8257L13.4764 15.7583C13.5885 15.3247 13.8895 15.0879 14.341 15.0879L17.6579 15.0879C18.1093 15.0879 18.4104 15.3247 18.5225 15.7583L21.4616 26.8257C22.4797 23.154 23.2381 19.3962 23.8755 15.7583C23.9493 15.3247 24.2532 15.0879 24.7077 15.0879L27.1599 15.0879C27.6852 15.0879 27.9124 15.4446 27.7973 15.9582C26.7792 21.0937 25.5752 26.1953 23.8017 31.3308C23.6483 31.8044 23.3886 32.0012 22.9371 32.0012" fill="black"/>
<path d="M9.93544 6.53161C11.5555 4.84027 13.7097 3.91158 16.0026 3.90852C18.2925 3.90852 20.4437 4.83721 22.0609 6.52237C22.9019 7.39879 23.5452 8.42589 23.9701 9.54216C24.0675 9.80049 24.3095 9.96962 24.5751 9.96962L27.166 9.96962C27.5998 9.96962 27.9185 9.53601 27.7946 9.10549C27.2162 7.10665 26.1715 5.27693 24.7167 3.75781C22.3884 1.3377 19.2958 1.80211e-07 16.0055 1.40975e-07C12.7093 1.01668e-07 9.61378 1.3377 7.28548 3.76705C5.82772 5.28618 4.78603 7.1159 4.2106 9.10859C4.08666 9.5391 4.40536 9.97271 4.83915 9.97271L7.43008 9.97271C7.69567 9.97271 7.93763 9.80355 8.03504 9.54525C8.457 8.42899 9.09735 7.40494 9.93544 6.53161Z" fill="black"/>
</g>
<defs>
<clipPath id="clip0_13465_5057">
<rect width="32" height="32" fill="white"/>
</clipPath>
</defs>
</svg>
